<svg width="24" height="24" viewBox="0 0 24 24" fill="none" xmlns="http://www.w3.org/2000/svg">
<path fill-rule="evenodd" clip-rule="evenodd" d="M2.80385 5C2 6.3923 2 8.26154 2 12C2 15.7385 2 17.6077 2.80385 19C3.33046 19.9121 4.08788 20.6695 5 21.1962C6.3923 22 8.26154 22 12 22C15.7385 22 17.6077 22 19 21.1962C19.9121 20.6695 20.6695 19.9121 21.1962 19C22 17.6077 22 15.7385 22 12C22 8.26154 22 6.3923 21.1962 5C20.6695 4.08788 19.9121 3.33046 19 2.80385C17.6077 2 15.7385 2 12 2C8.26154 2 6.3923 2 5 2.80385C4.08788 3.33046 3.33046 4.08788 2.80385 5ZM7.51181 12.3102C7.25066 11.5268 7.3789 10.4071 8.26771 9.29606C8.75537 8.6865 9.32331 8.21297 9.97154 7.87548C10.1699 7.7722 10.2593 7.52954 10.1572 7.33059C10.0625 7.14624 9.83816 7.0694 9.65424 7.16489C8.4847 7.77215 7.59733 8.54553 6.99212 9.48504C6.33071 10.5118 6 11.674 6 12.9717C6 14.9701 6.92863 16.7512 8.94804 16.7512C9.83538 16.7512 10.6306 16.2965 11.0835 15.5417C11.6218 14.6445 11.5492 13.2591 10.7055 12.4709C9.87032 11.6906 8.49873 11.5265 7.51181 12.3102ZM14.0882 12.3102C13.827 11.5268 13.9553 10.4071 14.8441 9.29606C15.3318 8.68649 15.8997 8.21296 16.5479 7.87547C16.7463 7.77219 16.8357 7.52953 16.7335 7.33059C16.6389 7.14624 16.4145 7.0694 16.2306 7.16489C15.0611 7.77215 14.1737 8.54553 13.5685 9.48504C12.9071 10.5118 12.5764 11.674 12.5764 12.9717C12.5764 14.9701 13.505 16.7512 15.5244 16.7512C16.8916 16.7512 18 15.7199 18 14.2756C18 12.7049 16.8831 11.8 15.5244 11.8C15.0079 11.8 14.5291 11.9701 14.0882 12.3102Z" fill="#777E91"/>
</svg>
