<svg width="24" height="24" viewBox="0 0 24 24" fill="none" xmlns="http://www.w3.org/2000/svg">
<path fill-rule="evenodd" clip-rule="evenodd" d="M14 2C14 1.44772 13.5523 1 13 1H6C4.34315 1 3 2.34315 3 4V20C3 21.6569 4.34315 23 6 23H18C19.6569 23 21 21.6569 21 20V9C21 8.44772 20.5523 8 20 8H17C15.3431 8 14 6.65685 14 5V2ZM11.2929 9.29289C11.3888 9.19702 11.4993 9.12468 11.6172 9.07588C11.9797 8.92591 12.4125 8.99825 12.7071 9.29289L15.7071 12.2929C16.0976 12.6834 16.0976 13.3166 15.7071 13.7071C15.3166 14.0976 14.6834 14.0976 14.2929 13.7071L13 12.4142V17C13 17.5523 12.5523 18 12 18C11.4477 18 11 17.5523 11 17V12.4142L9.70711 13.7071C9.31658 14.0976 8.68342 14.0976 8.29289 13.7071C7.90237 13.3166 7.90237 12.6834 8.29289 12.2929L11.2929 9.29289Z" fill="#777E91"/>
<path d="M16.9774 1.17757C16.4681 0.963989 16 1.44777 16 2.00005V5.00005C16 5.55234 16.4477 6.00005 17 6.00005H20C20.5523 6.00005 21.0361 5.53194 20.8225 5.02262C20.73 4.80212 20.5972 4.59721 20.4142 4.41427L17.5858 1.58584C17.4028 1.40289 17.1979 1.27003 16.9774 1.17757Z" fill="#777E91"/>
</svg>
