<svg width="24" height="24" viewBox="0 0 24 24" fill="none" xmlns="http://www.w3.org/2000/svg">
<path fill-rule="evenodd" clip-rule="evenodd" d="M5.7708 8.03706C5.18036 8.01092 4.70954 8.51541 4.75862 9.10439L5.84709 22.1661C5.93347 23.2026 6.8 24 7.84018 24H16.1596C17.1998 24 18.0664 23.2026 18.1527 22.1661L19.0786 11.056C19.1266 10.4802 18.6769 9.98522 18.0997 9.95898C15.1906 9.82673 13.4578 9.39522 11.7574 8.97011L11.7428 8.96647C10.1121 8.55879 8.5103 8.15833 5.7708 8.03706ZM9.99992 14C10.5522 14 10.9999 13.5523 10.9999 13C10.9999 12.4477 10.5522 12 9.99992 12C9.44763 12 8.99992 12.4477 8.99992 13C8.99992 13.5523 9.44763 14 9.99992 14ZM14.9999 18C14.9999 18.5523 14.5522 19 13.9999 19C13.4476 19 12.9999 18.5523 12.9999 18C12.9999 17.4477 13.4476 17 13.9999 17C14.5522 17 14.9999 17.4477 14.9999 18Z" fill="#777E91"/>
<path fill-rule="evenodd" clip-rule="evenodd" d="M4.28826 3.3721C4.06444 1.58155 5.4606 0 7.26509 0H16.8259C18.581 0 19.9613 1.50008 19.8156 3.24914L19.4961 7.08305C19.4502 7.63342 18.9669 8.04241 18.4165 7.99655C17.8661 7.95068 17.4571 7.46733 17.503 6.91695L17.8225 3.08305C17.8711 2.50003 17.411 2 16.8259 2H7.26509C6.66359 2 6.19821 2.52718 6.27281 3.12404L6.4918 4.87597C6.56031 5.42398 6.17158 5.92378 5.62356 5.99228C5.07554 6.06078 4.57575 5.67205 4.50725 5.12403L4.28826 3.3721Z" fill="#777E91"/>
</svg>
