<svg width="23" height="24" viewBox="0 0 23 24" fill="none" xmlns="http://www.w3.org/2000/svg">
<path fill-rule="evenodd" clip-rule="evenodd" d="M16.0424 2H6.95821C6.39754 2 5.95662 2.50003 6.00318 3.08305L7.44068 21.083C7.48207 21.6013 7.89729 22 8.39571 22H14.6049C15.1034 22 15.5186 21.6013 15.56 21.083L16.9975 3.08305C17.044 2.50003 16.6031 2 16.0424 2ZM6.95821 0C5.27622 0 3.95346 1.50008 4.09314 3.24914L5.53064 21.2491C5.65481 22.804 6.90045 24 8.39571 24H14.6049C16.1002 24 17.3458 22.804 17.47 21.2491L18.9075 3.24914C19.0472 1.50008 17.7244 0 16.0424 0H6.95821Z" fill="#777E91"/>
<path d="M9.58333 14C10.1126 14 10.5417 13.5523 10.5417 13C10.5417 12.4477 10.1126 12 9.58333 12C9.05406 12 8.625 12.4477 8.625 13C8.625 13.5523 9.05406 14 9.58333 14Z" fill="#777E91"/>
<path d="M13.4167 19C13.9459 19 14.375 18.5523 14.375 18C14.375 17.4477 13.9459 17 13.4167 17C12.8874 17 12.4583 17.4477 12.4583 18C12.4583 18.5523 12.8874 19 13.4167 19Z" fill="#777E91"/>
<path d="M16.6053 7.99094C14.3114 7.92386 13.0891 7.49868 11.8193 7.05699L11.8032 7.05142C10.3998 6.56326 8.94056 6.05898 6.23633 6.00488L6.3964 8.0093C8.68944 8.07652 9.91156 8.50161 11.1811 8.94322L11.1971 8.94879C12.5446 9.41745 13.9434 9.90097 16.446 9.98672L16.6053 7.99094Z" fill="#777E91"/>
</svg>
