<svg width="24" height="24" viewBox="0 0 24 24" fill="none" xmlns="http://www.w3.org/2000/svg">
<path d="M5 3C5 2.44772 4.55228 2 4 2C3.44772 2 3 2.44772 3 3V5C3 5.55228 3.44772 6 4 6C4.55228 6 5 5.55228 5 5V3Z" fill="#777E91"/>
<path d="M5 17C5 16.4477 4.55228 16 4 16C3.44772 16 3 16.4477 3 17V19C3 19.5523 3.44772 20 4 20C4.55228 20 5 19.5523 5 19V17Z" fill="#777E91"/>
<path d="M13 6C13 5.44772 12.5523 5 12 5C11.4477 5 11 5.44772 11 6V8C11 8.55228 11.4477 9 12 9C12.5523 9 13 8.55228 13 8V6Z" fill="#777E91"/>
<path d="M13 19C13 18.4477 12.5523 18 12 18C11.4477 18 11 18.4477 11 19V21C11 21.5523 11.4477 22 12 22C12.5523 22 13 21.5523 13 21V19Z" fill="#777E91"/>
<path d="M20 2C20.5523 2 21 2.44772 21 3V5C21 5.55228 20.5523 6 20 6C19.4477 6 19 5.55228 19 5V3C19 2.44772 19.4477 2 20 2Z" fill="#777E91"/>
<path d="M20 16C20.5523 16 21 16.4477 21 17V19C21 19.5523 20.5523 20 20 20C19.4477 20 19 19.5523 19 19V17C19 16.4477 19.4477 16 20 16Z" fill="#777E91"/>
<path d="M2 9C2 8.44772 2.44772 8 3 8H5C5.55228 8 6 8.44772 6 9V13C6 13.5523 5.55228 14 5 14H3C2.44772 14 2 13.5523 2 13V9Z" fill="#777E91"/>
<path d="M10 12C10 11.4477 10.4477 11 11 11H13C13.5523 11 14 11.4477 14 12V15C14 15.5523 13.5523 16 13 16H11C10.4477 16 10 15.5523 10 15V12Z" fill="#777E91"/>
<path d="M19 8C18.4477 8 18 8.44772 18 9V13C18 13.5523 18.4477 14 19 14H21C21.5523 14 22 13.5523 22 13V9C22 8.44772 21.5523 8 21 8H19Z" fill="#777E91"/>
</svg>
