<svg width="24" height="24" viewBox="0 0 24 24" fill="none" xmlns="http://www.w3.org/2000/svg">
<path d="M5 4C5 3.44772 4.55228 3 4 3C3.44772 3 3 3.44772 3 4V6C3 6.55228 3.44772 7 4 7C4.55228 7 5 6.55228 5 6V4Z" fill="#777E91"/>
<path d="M5 12C5 11.4477 4.55228 11 4 11C3.44772 11 3 11.4477 3 12V18C3 18.5523 3.44772 19 4 19C4.55228 19 5 18.5523 5 18V12Z" fill="#777E91"/>
<path fill-rule="evenodd" clip-rule="evenodd" d="M5 10V8C5 7.44772 4.55228 7 4 7C3.44772 7 3 7.44772 3 8V10C3 10.5523 3.44772 11 4 11C4.55228 11 5 10.5523 5 10ZM4 5C2.34315 5 1 6.34315 1 8V10C1 11.6569 2.34315 13 4 13C5.65685 13 7 11.6569 7 10V8C7 6.34315 5.65685 5 4 5Z" fill="#777E91"/>
<path d="M13 8C13 7.44772 12.5523 7 12 7C11.4477 7 11 7.44772 11 8V11C11 11.5523 11.4477 12 12 12C12.5523 12 13 11.5523 13 11V8Z" fill="#777E91"/>
<path d="M13 18C13 17.4477 12.5523 17 12 17C11.4477 17 11 17.4477 11 18V20C11 20.5523 11.4477 21 12 21C12.5523 21 13 20.5523 13 20V18Z" fill="#777E91"/>
<path fill-rule="evenodd" clip-rule="evenodd" d="M13 16V13C13 12.4477 12.5523 12 12 12C11.4477 12 11 12.4477 11 13V16C11 16.5523 11.4477 17 12 17C12.5523 17 13 16.5523 13 16ZM12 10C10.3431 10 9 11.3431 9 13V16C9 17.6569 10.3431 19 12 19C13.6569 19 15 17.6569 15 16V13C15 11.3431 13.6569 10 12 10Z" fill="#777E91"/>
<path d="M21 4C21 3.44772 20.5523 3 20 3C19.4477 3 19 3.44772 19 4V6C19 6.55228 19.4477 7 20 7C20.5523 7 21 6.55228 21 6V4Z" fill="#777E91"/>
<path d="M21 15C21 14.4477 20.5523 14 20 14C19.4477 14 19 14.4477 19 15V18C19 18.5523 19.4477 19 20 19C20.5523 19 21 18.5523 21 18V15Z" fill="#777E91"/>
<path fill-rule="evenodd" clip-rule="evenodd" d="M21 13V8C21 7.44772 20.5523 7 20 7C19.4477 7 19 7.44772 19 8V13C19 13.5523 19.4477 14 20 14C20.5523 14 21 13.5523 21 13ZM20 5C18.3431 5 17 6.34315 17 8V13C17 14.6569 18.3431 16 20 16C21.6569 16 23 14.6569 23 13V8C23 6.34315 21.6569 5 20 5Z" fill="#777E91"/>
</svg>
