<svg width="23" height="24" viewBox="0 0 23 24" fill="none" xmlns="http://www.w3.org/2000/svg">
<path fill-rule="evenodd" clip-rule="evenodd" d="M14.2849 16.3199C12.9867 17.3729 11.3553 18 9.58366 18C5.34948 18 1.91699 14.4183 1.91699 10C1.91699 5.58172 5.34948 2 9.58366 2C13.8178 2 17.2503 5.58172 17.2503 10C17.2503 11.8487 16.6494 13.551 15.6402 14.9056L20.803 20.2929C21.1772 20.6834 21.1772 21.3166 20.803 21.7071C20.4287 22.0976 19.8219 22.0976 19.4477 21.7071L14.2849 16.3199ZM15.3337 10C15.3337 13.3137 12.7593 16 9.58366 16C6.40802 16 3.83366 13.3137 3.83366 10C3.83366 6.68629 6.40802 4 9.58366 4C12.7593 4 15.3337 6.68629 15.3337 10Z" fill="#777E91"/>
<path d="M12.4587 9C12.9879 9 13.417 9.44772 13.417 10V10C13.417 10.5523 12.9879 11 12.4587 11L6.70866 11C6.17939 11 5.75033 10.5523 5.75033 10V10C5.75033 9.44771 6.17939 9 6.70866 9L12.4587 9Z" fill="#777E91"/>
</svg>
