<svg width="24" height="24" viewBox="0 0 24 24" fill="none" xmlns="http://www.w3.org/2000/svg">
<path d="M6 15C6 15.1501 5.84418 15.2518 5.71176 15.1812C3.50323 14.0038 2 11.6775 2 9C2 5.13401 5.13401 2 9 2C11.6775 2 14.0038 3.50323 15.1812 5.71176C15.2518 5.84418 15.1501 6 15 6C10.0294 6 6 10.0294 6 15Z" fill="#777E91"/>
<path d="M15 22C18.866 22 22 18.866 22 15C22 13.4277 21.4816 11.9764 20.6064 10.8078L10.8078 20.6064C11.9764 21.4816 13.4277 22 15 22Z" fill="#777E91"/>
<path d="M9.39361 19.1922L19.1922 9.39361C18.0236 8.5184 16.5723 8 15 8C11.134 8 8 11.134 8 15C8 16.5723 8.5184 18.0236 9.39361 19.1922Z" fill="#777E91"/>
</svg>
