<svg width="23" height="24" viewBox="0 0 23 24" fill="none" xmlns="http://www.w3.org/2000/svg">
<path fill-rule="evenodd" clip-rule="evenodd" d="M14.3753 20C17.0217 20 19.167 17.7614 19.167 15C19.167 12.2386 17.0217 10 14.3753 10C11.729 10 9.58366 12.2386 9.58366 15C9.58366 17.7614 11.729 20 14.3753 20ZM14.3753 22C18.0802 22 21.0837 18.866 21.0837 15C21.0837 11.134 18.0802 8 14.3753 8C10.6704 8 7.66699 11.134 7.66699 15C7.66699 18.866 10.6704 22 14.3753 22Z" fill="#777E91"/>
<path fill-rule="evenodd" clip-rule="evenodd" d="M18.8857 10.2929C19.2599 10.6834 19.2599 11.3166 18.8857 11.7071L11.219 19.7071C10.8447 20.0976 10.2379 20.0976 9.8637 19.7071C9.48944 19.3166 9.48944 18.6834 9.8637 18.2929L17.5304 10.2929C17.9046 9.90237 18.5114 9.90237 18.8857 10.2929Z" fill="#777E91"/>
<path fill-rule="evenodd" clip-rule="evenodd" d="M7.3166 2.13451C8.61789 1.86441 9.96671 2.00303 11.1925 2.53285C12.1264 2.93649 12.9569 3.55338 13.6254 4.33333C13.9783 4.74498 13.9445 5.37716 13.55 5.74535C13.1555 6.11355 12.5497 6.07832 12.1968 5.66667C11.7193 5.10955 11.1261 4.66892 10.459 4.38061C9.58346 4.00217 8.62001 3.90315 7.69052 4.09608C6.76103 4.289 5.90723 4.76521 5.23711 5.46447C4.56698 6.16373 4.11062 7.05465 3.92573 8.02455C3.74084 8.99446 3.83574 9.99979 4.19841 10.9134C4.4747 11.6095 4.89697 12.2285 5.43088 12.7268C5.82538 13.095 5.85914 13.7272 5.50629 14.1388C5.15344 14.5505 4.5476 14.5857 4.1531 14.2175C3.40565 13.5199 2.81446 12.6533 2.42764 11.6788C1.9199 10.3997 1.78705 8.99224 2.04589 7.63437C2.30474 6.2765 2.94364 5.02922 3.88182 4.05026C4.82 3.07129 6.01531 2.4046 7.3166 2.13451Z" fill="#777E91"/>
</svg>
