<svg width="24" height="24" viewBox="0 0 24 24" fill="none" xmlns="http://www.w3.org/2000/svg">
<path d="M3 3C3 1.89543 3.89543 1 5 1H15C16.1046 1 17 1.89543 17 3V5C17 6.10457 16.1046 7 15 7H5C3.89543 7 3 6.10457 3 5V3Z" fill="#777E91"/>
<path fill-rule="evenodd" clip-rule="evenodd" d="M20 3C20.5523 3 21 3.44772 21 4V7.36039C21 8.79044 19.9906 10.0217 18.5883 10.3021L11.8039 11.659C11.3365 11.7525 11 12.1629 11 12.6396V15C11 15.5523 10.5523 16 10 16C9.44772 16 9 15.5523 9 15V12.6396C9 11.2096 10.0094 9.97832 11.4117 9.69787L18.1961 8.34097C18.6635 8.24749 19 7.83707 19 7.36039V4C19 3.44772 19.4477 3 20 3Z" fill="#777E91"/>
<path d="M8 16C8 14.8954 8.89543 14 10 14C11.1046 14 12 14.8954 12 16V21C12 22.1046 11.1046 23 10 23C8.89543 23 8 22.1046 8 21V16Z" fill="#777E91"/>
</svg>
