<svg width="23" height="24" viewBox="0 0 23 24" fill="none" xmlns="http://www.w3.org/2000/svg">
<path d="M17.2497 6C17.7789 6 18.208 6.44772 18.208 7V9.20991C18.208 9.71946 17.8408 10.1475 17.3555 10.2038L12.1405 10.8084C10.6845 10.9772 9.58301 12.2614 9.58301 13.7901V15C9.58301 15.5523 10.0121 16 10.5413 16C11.0706 16 11.4997 15.5523 11.4997 15V13.7901C11.4997 13.2805 11.8668 12.8525 12.3522 12.7962L17.5672 12.1916C19.0232 12.0228 20.1247 10.7386 20.1247 9.20991V7C20.1247 5.34315 18.8375 4 17.2497 4C16.7204 4 16.2913 4.44772 16.2913 5C16.2913 5.55228 16.7204 6 17.2497 6Z" fill="#777E91"/>
<path fill-rule="evenodd" clip-rule="evenodd" d="M11.5003 20V17C11.5003 16.4477 11.0713 16 10.542 16C10.0127 16 9.58366 16.4477 9.58366 17V20C9.58366 20.5523 10.0127 21 10.542 21C11.0713 21 11.5003 20.5523 11.5003 20ZM10.542 14C8.95417 14 7.66699 15.3431 7.66699 17V20C7.66699 21.6569 8.95417 23 10.542 23C12.1298 23 13.417 21.6569 13.417 20V17C13.417 15.3431 12.1298 14 10.542 14Z" fill="#777E91"/>
<path fill-rule="evenodd" clip-rule="evenodd" d="M15.3333 3H5.75C5.22073 3 4.79167 3.44772 4.79167 4V6C4.79167 6.55228 5.22073 7 5.75 7H15.3333C15.8626 7 16.2917 6.55228 16.2917 6V4C16.2917 3.44772 15.8626 3 15.3333 3ZM5.75 1C4.16218 1 2.875 2.34315 2.875 4V6C2.875 7.65685 4.16218 9 5.75 9H15.3333C16.9212 9 18.2083 7.65685 18.2083 6V4C18.2083 2.34315 16.9212 1 15.3333 1H5.75Z" fill="#777E91"/>
</svg>
