<svg width="24" height="24" viewBox="0 0 24 24" fill="none" xmlns="http://www.w3.org/2000/svg">
<path fill-rule="evenodd" clip-rule="evenodd" d="M2 14C2 12.3431 3.34315 11 5 11H19C20.6569 11 22 12.3431 22 14V18C22 19.6569 20.6569 21 19 21H5C3.34315 21 2 19.6569 2 18V14ZM6 16C6 15.4477 6.44772 15 7 15C7.55228 15 8 15.4477 8 16C8 16.5523 7.55228 17 7 17C6.44772 17 6 16.5523 6 16ZM11 15C10.4477 15 10 15.4477 10 16C10 16.5523 10.4477 17 11 17H17C17.5523 17 18 16.5523 18 16C18 15.4477 17.5523 15 17 15H11Z" fill="#777E91"/>
<path d="M6 22C6.55228 22 7 21.5523 7 21H5C5 21.5523 5.44772 22 6 22Z" fill="#777E91"/>
<path d="M18 22C18.5523 22 19 21.5523 19 21H17C17 21.5523 17.4477 22 18 22Z" fill="#777E91"/>
<path d="M17 2C16.4477 2 16 2.44772 16 3V11H18V3C18 2.44772 17.5523 2 17 2Z" fill="#777E91"/>
<path d="M7 6C6.44772 6 6 6.44772 6 7V11H8V7C8 6.44772 7.55228 6 7 6Z" fill="#777E91"/>
</svg>
