<svg width="23" height="24" viewBox="0 0 23 24" fill="none" xmlns="http://www.w3.org/2000/svg">
<path d="M5.75033 22C6.2796 22 6.70866 21.5523 6.70866 21H4.79199C4.79199 21.5523 5.22105 22 5.75033 22Z" fill="#777E91"/>
<path d="M17.2503 22C17.7796 22 18.2087 21.5523 18.2087 21H16.292C16.292 21.5523 16.7211 22 17.2503 22Z" fill="#777E91"/>
<path fill-rule="evenodd" clip-rule="evenodd" d="M18.2087 13H4.79199C4.26272 13 3.83366 13.4477 3.83366 14V18C3.83366 18.5523 4.26272 19 4.79199 19H18.2087C18.7379 19 19.167 18.5523 19.167 18V14C19.167 13.4477 18.7379 13 18.2087 13ZM4.79199 11C3.20417 11 1.91699 12.3431 1.91699 14V18C1.91699 19.6569 3.20417 21 4.79199 21H18.2087C19.7965 21 21.0837 19.6569 21.0837 18V14C21.0837 12.3431 19.7965 11 18.2087 11H4.79199Z" fill="#777E91"/>
<path d="M16.2917 2C15.7624 2 15.3333 2.44772 15.3333 3V11H17.25V3C17.25 2.44772 16.8209 2 16.2917 2Z" fill="#777E91"/>
<path d="M6.70833 6C6.17906 6 5.75 6.44772 5.75 7V11H7.66667V7C7.66667 6.44772 7.23761 6 6.70833 6Z" fill="#777E91"/>
<path d="M6.70833 15C6.17906 15 5.75 15.4477 5.75 16C5.75 16.5523 6.17906 17 6.70833 17C7.23761 17 7.66667 16.5523 7.66667 16C7.66667 15.4477 7.23761 15 6.70833 15Z" fill="#777E91"/>
<path d="M10.5417 15C10.0124 15 9.58333 15.4477 9.58333 16C9.58333 16.5523 10.0124 17 10.5417 17H16.2917C16.8209 17 17.25 16.5523 17.25 16C17.25 15.4477 16.8209 15 16.2917 15H10.5417Z" fill="#777E91"/>
</svg>
