<svg width="24" height="24" viewBox="0 0 24 24" fill="none" xmlns="http://www.w3.org/2000/svg">
<path d="M14 9V16C14 16.5523 14.4477 17 15 17H18H21H23C23.5523 17 24 16.5523 24 16V12.6637C24 12.0249 23.6948 11.4244 23.1786 11.0479L19.5267 8.38417C19.1844 8.13452 18.7717 8 18.3481 8H15C14.4477 8 14 8.44772 14 9Z" fill="#777E91"/>
<path d="M10 5H2C0.895431 5 0 5.89543 0 7V15C0 16.1046 0.895431 17 2 17H3H7H11C11.5523 17 12 16.5511 12 15.9988V7.00057C12 5.896 11.1046 5 10 5Z" fill="#777E91"/>
<path d="M5 19C6.10457 19 7 18.1046 7 17C7 15.8954 6.10457 15 5 15C3.89543 15 3 15.8954 3 17C3 18.1046 3.89543 19 5 19Z" fill="#777E91"/>
<path d="M19 19C20.1046 19 21 18.1046 21 17C21 15.8954 20.1046 15 19 15C17.8954 15 17 15.8954 17 17C17 18.1046 17.8954 19 19 19Z" fill="#777E91"/>
</svg>
