<svg width="23" height="24" viewBox="0 0 23 24" fill="none" xmlns="http://www.w3.org/2000/svg">
<path fill-rule="evenodd" clip-rule="evenodd" d="M0 7C0 5.34315 1.28718 4 2.875 4H10.5417C12.1295 4 13.4167 5.34315 13.4167 7V16C13.4167 17.1046 12.5585 18 11.5 18H7.66667V16H11.0208C11.2855 16 11.5 15.7761 11.5 15.5V7C11.5 6.44772 11.0709 6 10.5417 6H2.875C2.34573 6 1.91667 6.44772 1.91667 7V15C1.91667 15.5523 2.34573 16 2.875 16H3.83333V18H2.875C1.28718 18 0 16.6569 0 15V7Z" fill="#777E91"/>
<path fill-rule="evenodd" clip-rule="evenodd" d="M11.5 7H17.4657C18.1824 7 18.8732 7.27929 19.4028 7.78313L22.062 10.3132C22.6595 10.8816 23 11.6863 23 12.5301V15C23 16.6569 21.7128 18 20.125 18H19.1667V16H20.125C20.6543 16 21.0833 15.5523 21.0833 15V12.5301C21.0833 12.2488 20.9698 11.9806 20.7707 11.7911L18.1114 9.26104C17.9349 9.0931 17.7046 9 17.4657 9H14.375C13.8457 9 13.4167 9.44772 13.4167 10V15.5C13.4167 15.7761 13.6312 16 13.8958 16H15.3333V18H11.5V7Z" fill="#777E91"/>
<path fill-rule="evenodd" clip-rule="evenodd" d="M5.75 18C6.27927 18 6.70833 17.5523 6.70833 17C6.70833 16.4477 6.27927 16 5.75 16C5.22073 16 4.79167 16.4477 4.79167 17C4.79167 17.5523 5.22073 18 5.75 18ZM5.75 20C7.33782 20 8.625 18.6569 8.625 17C8.625 15.3431 7.33782 14 5.75 14C4.16218 14 2.875 15.3431 2.875 17C2.875 18.6569 4.16218 20 5.75 20Z" fill="#777E91"/>
<path fill-rule="evenodd" clip-rule="evenodd" d="M17.25 18C17.7793 18 18.2083 17.5523 18.2083 17C18.2083 16.4477 17.7793 16 17.25 16C16.7207 16 16.2917 16.4477 16.2917 17C16.2917 17.5523 16.7207 18 17.25 18ZM17.25 20C18.8378 20 20.125 18.6569 20.125 17C20.125 15.3431 18.8378 14 17.25 14C15.6622 14 14.375 15.3431 14.375 17C14.375 18.6569 15.6622 20 17.25 20Z" fill="#777E91"/>
</svg>
