<svg width="23" height="24" viewBox="0 0 23 24" fill="none" xmlns="http://www.w3.org/2000/svg">
<path fill-rule="evenodd" clip-rule="evenodd" d="M11.5003 20C15.7345 20 19.167 16.4183 19.167 12C19.167 7.58172 15.7345 4 11.5003 4C7.26614 4 3.83366 7.58172 3.83366 12C3.83366 16.4183 7.26614 20 11.5003 20ZM11.5003 22C16.7931 22 21.0837 17.5228 21.0837 12C21.0837 6.47715 16.7931 2 11.5003 2C6.2076 2 1.91699 6.47715 1.91699 12C1.91699 17.5228 6.2076 22 11.5003 22Z" fill="#777E91"/>
<path d="M9.58333 8C9.05406 8 8.625 8.44771 8.625 9V15C8.625 15.5523 9.05406 16 9.58333 16C10.1126 16 10.5417 15.5523 10.5417 15V9C10.5417 8.44771 10.1126 8 9.58333 8Z" fill="#777E91"/>
<path d="M13.4167 8C12.8874 8 12.4583 8.44771 12.4583 9V15C12.4583 15.5523 12.8874 16 13.4167 16C13.9459 16 14.375 15.5523 14.375 15V9C14.375 8.44771 13.9459 8 13.4167 8Z" fill="#777E91"/>
</svg>
