<svg width="24" height="24" viewBox="0 0 24 24" fill="none" xmlns="http://www.w3.org/2000/svg">
<path d="M15.0943 21.5121C15.3177 21.4395 15.4514 21.214 15.4162 20.9817C15.0858 18.8034 14.5765 16.7975 13.8853 14.893C13.7854 14.6177 13.4686 14.492 13.2101 14.6297C11.3897 15.5993 9.34747 17.1715 6.67205 19.7579C6.44775 19.9748 6.47656 20.3432 6.74178 20.5074C8.26951 21.4537 10.071 22 12.0002 22C13.0801 22 14.12 21.8288 15.0943 21.5121Z" fill="#777E91"/>
<path d="M17.2301 19.6943C17.2937 20.0486 17.6956 20.2285 17.9838 20.0129C20.0297 18.4827 21.47 16.1873 21.8805 13.551C21.9261 13.2581 21.6924 13.002 21.396 13.0044C19.3143 13.0218 17.6663 13.1056 16.076 13.5092C15.7942 13.5807 15.6462 13.8842 15.7459 14.1574C16.3828 15.9027 16.8782 17.7331 17.2301 19.6943Z" fill="#777E91"/>
<path d="M21.4001 11.0034C21.6952 11.0012 21.9266 10.7462 21.8814 10.4546C21.6639 9.05234 21.155 7.74641 20.4186 6.60061C20.2656 6.36246 19.9417 6.31634 19.7153 6.48631C18.0118 7.76525 16.2678 8.83037 14.34 9.67206C14.0683 9.79069 13.9513 10.1152 14.0871 10.3788C14.2612 10.7168 14.4294 11.0569 14.5916 11.3995C14.6997 11.6278 14.959 11.7424 15.2021 11.6737C17.1678 11.1179 19.1292 11.0205 21.4001 11.0034Z" fill="#777E91"/>
<path d="M18.3283 5.02547C18.5772 4.8414 18.5945 4.47633 18.3557 4.27946C16.6278 2.85533 14.4136 2 11.9997 2C11.1374 2 10.3006 2.10914 9.50234 2.31435C9.16426 2.40127 9.04577 2.80812 9.26316 3.08125C10.511 4.64908 11.6261 6.19951 12.6065 7.77597C12.7352 7.98284 12.9933 8.07037 13.2181 7.97647C15.0399 7.21551 16.6927 6.23524 18.3283 5.02547Z" fill="#777E91"/>
<path d="M7.201 3.70861C7.04561 3.51817 6.77355 3.46955 6.56732 3.60327C4.52724 4.92605 2.99963 6.97212 2.34769 9.37828C2.26381 9.68788 2.50843 9.98103 2.82901 9.97023C5.71426 9.87304 8.13086 9.53893 10.2555 8.97722C10.5753 8.89268 10.7162 8.52257 10.5366 8.2448C9.5613 6.73665 8.45006 5.2394 7.201 3.70861Z" fill="#777E91"/>
<path d="M2.01129 12.4909C1.99833 12.2186 2.21878 11.9964 2.49136 11.9893C6.01206 11.8973 8.94287 11.4666 11.5342 10.6952C11.7631 10.6271 12.0098 10.7257 12.1218 10.9367C12.3248 11.3191 12.5194 11.7039 12.7057 12.0916C12.8242 12.3382 12.717 12.6322 12.4738 12.7575C10.3099 13.8723 8.00662 15.6658 5.09157 18.5041C4.89065 18.6998 4.56674 18.6953 4.38481 18.4819C2.99492 16.8514 2.11994 14.7733 2.01129 12.4909Z" fill="#777E91"/>
</svg>
