<svg width="23" height="24" viewBox="0 0 23 24" fill="none" xmlns="http://www.w3.org/2000/svg">
<path fill-rule="evenodd" clip-rule="evenodd" d="M11.5003 20C15.7345 20 19.167 16.4183 19.167 12C19.167 7.58172 15.7345 4 11.5003 4C7.26614 4 3.83366 7.58172 3.83366 12C3.83366 16.4183 7.26614 20 11.5003 20ZM11.5003 22C16.793 22 21.0837 17.5228 21.0837 12C21.0837 6.47715 16.793 2 11.5003 2C6.20759 2 1.91699 6.47715 1.91699 12C1.91699 17.5228 6.20759 22 11.5003 22Z" fill="#777E91"/>
<path d="M14.8298 21.3801C14.4895 18.8499 13.9225 16.5536 13.1245 14.383C11.1711 15.3712 8.98633 17.0979 5.98218 20.177C5.45658 19.79 4.96995 19.3493 4.52964 18.8625C7.68482 15.6157 10.0946 13.6745 12.3783 12.5384C12.0853 11.8757 11.7694 11.2224 11.4304 10.5751C8.74178 11.4593 5.67623 11.9252 1.91699 11.9918C1.91752 11.3054 1.98434 10.6351 2.11113 9.98757C5.42881 9.9134 8.11264 9.51271 10.4355 8.80056C9.35732 6.99526 8.0936 5.2133 6.64129 3.37896C7.20758 3.03068 7.81118 2.74142 8.44434 2.51929C9.90988 4.39885 11.1939 6.24617 12.2935 8.13535C14.3594 7.2833 16.1905 6.13333 18.0183 4.66923C18.4882 5.12427 18.9142 5.62789 19.289 6.17242C17.3878 7.70692 15.4491 8.95062 13.2533 9.88818C13.5765 10.5179 13.8796 11.1546 14.1628 11.8008C16.3349 11.0827 18.4731 11.0085 21.0364 11.0009C21.0677 11.3295 21.0837 11.6629 21.0837 12.0001C21.0837 12.338 21.0676 12.672 21.0362 13.0013C18.5596 13.0105 16.7229 13.0833 14.909 13.6531C15.6879 15.7686 16.264 18.0051 16.6339 20.4458C16.0699 20.8199 15.4657 21.1342 14.8298 21.3801Z" fill="#777E91"/>
</svg>
