<svg width="24" height="24" viewBox="0 0 24 24" fill="none" xmlns="http://www.w3.org/2000/svg">
<path fill-rule="evenodd" clip-rule="evenodd" d="M8 1.5C8 1.22386 7.77614 1 7.5 1H6C4.34315 1 3 2.34315 3 4V20C3 21.6569 4.34315 23 6 23H7.5C7.77614 23 8 22.7761 8 22.5V21.5C8 21.2239 8.22386 21 8.5 21H9.5C9.77614 21 10 21.2239 10 21.5V22.5C10 22.7761 10.2239 23 10.5 23H18C19.6569 23 21 21.6569 21 20V9C21 8.44772 20.5523 8 20 8H17C15.3431 8 14 6.65685 14 5V2C14 1.44772 13.5523 1 13 1H10.5C10.2239 1 10 1.22386 10 1.5V2.5C10 2.77614 9.77614 3 9.5 3H8.5C8.22386 3 8 2.77614 8 2.5V1.5ZM8.5 5C8.22386 5 8 5.22386 8 5.5V6.5C8 6.77614 8.22386 7 8.5 7H9.5C9.77614 7 10 6.77614 10 6.5V5.5C10 5.22386 9.77614 5 9.5 5H8.5ZM10.5 7C10.2239 7 10 7.22386 10 7.5V8.5C10 8.77614 10.2239 9 10.5 9H11.5C11.7761 9 12 8.77614 12 8.5V7.5C12 7.22386 11.7761 7 11.5 7H10.5ZM8 9.5C8 9.22386 8.22386 9 8.5 9H9.5C9.77614 9 10 9.22386 10 9.5V10.5C10 10.7761 9.77614 11 9.5 11H8.5C8.22386 11 8 10.7761 8 10.5V9.5ZM10.5 11C10.2239 11 10 11.2239 10 11.5V12.5C10 12.7761 10.2239 13 10.5 13H11.5C11.7761 13 12 12.7761 12 12.5V11.5C12 11.2239 11.7761 11 11.5 11H10.5ZM8 13.5C8 13.2239 8.22386 13 8.5 13H9.5C9.77614 13 10 13.2239 10 13.5V14.5C10 14.7761 9.77614 15 9.5 15H8.5C8.22386 15 8 14.7761 8 14.5V13.5ZM10.5 15C10.2239 15 10 15.2239 10 15.5V16.5C10 16.7761 10.2239 17 10.5 17H11.5C11.7761 17 12 16.7761 12 16.5V15.5C12 15.2239 11.7761 15 11.5 15H10.5ZM8 17.5C8 17.2239 8.22386 17 8.5 17H9.5C9.77614 17 10 17.2239 10 17.5V18.5C10 18.7761 9.77614 19 9.5 19H8.5C8.22386 19 8 18.7761 8 18.5V17.5ZM10 3.5C10 3.22386 10.2239 3 10.5 3H11.5C11.7761 3 12 3.22386 12 3.5V4.5C12 4.77614 11.7761 5 11.5 5H10.5C10.2239 5 10 4.77614 10 4.5V3.5ZM10 19.5C10 19.2239 10.2239 19 10.5 19H11.5C11.7761 19 12 19.2239 12 19.5V20.5C12 20.7761 11.7761 21 11.5 21H10.5C10.2239 21 10 20.7761 10 20.5V19.5Z" fill="#777E91"/>
<path d="M16.9774 1.17757C16.4681 0.963989 16 1.44777 16 2.00005V5.00005C16 5.55234 16.4477 6.00005 17 6.00005H20C20.5523 6.00005 21.0361 5.53194 20.8225 5.02262C20.73 4.80212 20.5972 4.59721 20.4142 4.41427L17.5858 1.58584C17.4028 1.40289 17.1979 1.27003 16.9774 1.17757Z" fill="#777E91"/>
</svg>
