<svg width="24" height="24" viewBox="0 0 24 24" fill="none" xmlns="http://www.w3.org/2000/svg">
<path fill-rule="evenodd" clip-rule="evenodd" d="M2.36899 6.54184C2.65912 4.34504 4.34504 2.65912 6.54184 2.36899C8.05208 2.16953 9.94127 2 12 2C14.0587 2 15.9479 2.16953 17.4582 2.36899C19.655 2.65912 21.3409 4.34504 21.631 6.54184C21.8305 8.05208 22 9.94127 22 12C22 14.0587 21.8305 15.9479 21.631 17.4582C21.3409 19.655 19.655 21.3409 17.4582 21.631C15.9479 21.8305 14.0587 22 12 22C9.94127 22 8.05208 21.8305 6.54184 21.631C4.34504 21.3409 2.65912 19.655 2.36899 17.4582C2.16953 15.9479 2 14.0587 2 12C2 9.94127 2.16953 8.05208 2.36899 6.54184ZM8 13C8.55228 13 9 12.5523 9 12C9 11.4477 8.55228 11 8 11C7.44772 11 7 11.4477 7 12C7 12.5523 7.44772 13 8 13ZM12 13C12.5523 13 13 12.5523 13 12C13 11.4477 12.5523 11 12 11C11.4477 11 11 11.4477 11 12C11 12.5523 11.4477 13 12 13ZM17 12C17 12.5523 16.5523 13 16 13C15.4477 13 15 12.5523 15 12C15 11.4477 15.4477 11 16 11C16.5523 11 17 11.4477 17 12Z" fill="#777E91"/>
</svg>
