<svg width="23" height="24" viewBox="0 0 23 24" fill="none" xmlns="http://www.w3.org/2000/svg">
<path fill-rule="evenodd" clip-rule="evenodd" d="M11.5003 4C9.62944 4 7.90482 4.161 6.52054 4.35177C5.27473 4.52346 4.33531 5.50372 4.17078 6.80371C3.98796 8.24816 3.83366 10.0478 3.83366 12C3.83366 13.9522 3.98796 15.7518 4.17078 17.1963C4.33531 18.4963 5.27473 19.4765 6.52054 19.6482C7.90481 19.839 9.62944 20 11.5003 20C13.3712 20 15.0958 19.839 16.4801 19.6482C17.7259 19.4765 18.6653 18.4963 18.8299 17.1963C19.0127 15.7518 19.167 13.9522 19.167 12C19.167 10.0478 19.0127 8.24816 18.8299 6.80371C18.6653 5.50372 17.7259 4.52346 16.4801 4.35177C15.0958 4.16101 13.3712 4 11.5003 4ZM6.26959 2.36899C4.16433 2.65912 2.54865 4.34504 2.27061 6.54184C2.07946 8.05208 1.91699 9.94127 1.91699 12C1.91699 14.0587 2.07946 15.9479 2.27061 17.4582C2.54865 19.655 4.16433 21.3409 6.26959 21.631C7.7169 21.8305 9.52738 22 11.5003 22C13.4733 22 15.2837 21.8305 16.7311 21.631C18.8363 21.3409 20.452 19.655 20.73 17.4582C20.9212 15.9479 21.0837 14.0587 21.0837 12C21.0837 9.94127 20.9212 8.05208 20.73 6.54184C20.452 4.34504 18.8363 2.65912 16.7311 2.36899C15.2837 2.16953 13.4733 2 11.5003 2C9.52738 2 7.7169 2.16953 6.26959 2.36899Z" fill="#777E91"/>
<path fill-rule="evenodd" clip-rule="evenodd" d="M8.62467 12C8.62467 12.5523 8.19561 13 7.66634 13C7.13707 13 6.70801 12.5523 6.70801 12C6.70801 11.4477 7.13707 11 7.66634 11C8.19561 11 8.62467 11.4477 8.62467 12ZM12.458 12C12.458 12.5523 12.0289 13 11.4997 13C10.9704 13 10.5413 12.5523 10.5413 12C10.5413 11.4477 10.9704 11 11.4997 11C12.0289 11 12.458 11.4477 12.458 12ZM15.333 13C15.8623 13 16.2913 12.5523 16.2913 12C16.2913 11.4477 15.8623 11 15.333 11C14.8037 11 14.3747 11.4477 14.3747 12C14.3747 12.5523 14.8037 13 15.333 13Z" fill="#777E91"/>
</svg>
