<svg width="24" height="24" viewBox="0 0 24 24" fill="none" xmlns="http://www.w3.org/2000/svg">
<path d="M5 2C3.34315 2 2 3.34315 2 5V19C2 20.6569 3.34315 22 5 22H12C12.5523 22 13 21.5523 13 21V16C13 14.3431 14.3431 13 16 13H21C21.5523 13 22 12.5523 22 12V5C22 3.34315 20.6569 2 19 2H5Z" fill="#777E91"/>
<path d="M21.7111 16.0418C21.9612 15.5139 21.4899 15 20.9058 15H16C15.4477 15 15 15.4477 15 16V20.9058C15 21.4899 15.5139 21.9612 16.0418 21.7111C16.3496 21.5653 16.6332 21.3668 16.8787 21.1213L21.1213 16.8787C21.3668 16.6332 21.5653 16.3496 21.7111 16.0418Z" fill="#777E91"/>
</svg>
