<svg width="24" height="24" viewBox="0 0 24 24" fill="none" xmlns="http://www.w3.org/2000/svg">
<path fill-rule="evenodd" clip-rule="evenodd" d="M16 8.34141C18.3304 9.16508 20 11.3876 20 14V21C20 22.6569 18.6569 24 17 24H7C5.34315 24 4 22.6569 4 21V14C4 11.3876 5.66962 9.16508 8 8.34141L8 7C8 5.34315 9.34315 4 11 4H13C14.6569 4 16 5.34315 16 7V8.34141ZM14 8V7C14 6.44772 13.5523 6 13 6L11 6C10.4477 6 10 6.44772 10 7L10 8H14ZM10 10H14C16.2091 10 18 11.7909 18 14V21C18 21.5523 17.5523 22 17 22H7C6.44772 22 6 21.5523 6 21V14C6 11.7909 7.79086 10 10 10Z" fill="#777E91"/>
<path d="M9.12132 2.29289C9.30886 2.10536 9.56321 2 9.82843 2H11V6H13V2H15C15.5523 2 16 1.55228 16 1C16 0.447715 15.5523 0 15 0H9.82843C9.03278 0 8.26972 0.31607 7.70711 0.878679L7.29289 1.29289C6.90237 1.68342 6.90237 2.31658 7.29289 2.70711C7.68342 3.09763 8.31658 3.09763 8.70711 2.70711L9.12132 2.29289Z" fill="#777E91"/>
</svg>
