<svg width="24" height="24" viewBox="0 0 24 24" fill="none" xmlns="http://www.w3.org/2000/svg">
<path d="M11 2.17427C11 0.46557 13.0043 -0.456252 14.3016 0.655761L19.6508 5.2408C19.8725 5.43078 20 5.70813 20 6.00005C20 6.29198 19.8725 6.56933 19.6508 6.75931L13.5366 12.0001L18.765 16.4815C19.6962 17.2797 19.6962 18.7204 18.765 19.5186L14.3016 23.3443C13.0043 24.4564 11 23.5345 11 21.8258V14.1743L5.65081 18.7593C5.23148 19.1187 4.60018 19.0702 4.24076 18.6508C3.88134 18.2315 3.9299 17.6002 4.34923 17.2408L10.4634 12.0001L4.34923 6.75931C3.9299 6.39989 3.88134 5.76859 4.24076 5.34926C4.60018 4.92994 5.23148 4.88137 5.65081 5.2408L11 9.82583V2.17427Z" fill="#777E91"/>
</svg>
