<svg width="23" height="24" viewBox="0 0 23 24" fill="none" xmlns="http://www.w3.org/2000/svg">
<path fill-rule="evenodd" clip-rule="evenodd" d="M4.56748 13C4.08417 13 3.67649 13.3755 3.61655 13.876L3.13738 17.876C3.06588 18.4728 3.51188 19 4.08831 19H9.32931C9.90575 19 10.3517 18.4728 10.2802 17.876L9.80108 13.876C9.74113 13.3755 9.33346 13 8.85015 13H4.56748ZM1.71468 13.6279C1.89452 12.1266 3.11755 11 4.56748 11H8.85015C10.3001 11 11.5231 12.1266 11.7029 13.6279L12.1821 17.6279C12.3966 19.4185 11.0586 21 9.32931 21H4.08831C2.35901 21 1.02102 19.4185 1.23552 17.6279L1.71468 13.6279Z" fill="#777E91"/>
<path fill-rule="evenodd" clip-rule="evenodd" d="M14.1505 13C13.6672 13 13.2595 13.3755 13.1996 13.876L12.7204 17.876C12.6489 18.4728 13.0949 19 13.6713 19H18.9123C19.4888 19 19.9348 18.4728 19.8633 17.876L19.3841 13.876C19.3241 13.3755 18.9165 13 18.4332 13H14.1505ZM11.2977 13.6279C11.4775 12.1266 12.7006 11 14.1505 11H18.4332C19.8831 11 21.1061 12.1266 21.286 13.6279L21.7651 17.6279C21.9796 19.4185 20.6416 21 18.9123 21H13.6713C11.942 21 10.604 19.4185 10.8185 17.6279L11.2977 13.6279Z" fill="#777E91"/>
<path fill-rule="evenodd" clip-rule="evenodd" d="M9.3585 5C8.87519 5 8.46751 5.37554 8.40756 5.87597L7.9284 9.87597C7.8569 10.4728 8.30289 11 8.87933 11H14.1203C14.6968 11 15.1428 10.4728 15.0713 9.87597L14.5921 5.87597C14.5322 5.37554 14.1245 5 13.6412 5H9.3585ZM6.5057 5.6279C6.68554 4.12661 7.90857 3 9.3585 3H13.6412C15.0911 3 16.3141 4.12661 16.494 5.6279L16.9731 9.6279C17.1876 11.4185 15.8496 13 14.1203 13H8.87933C7.15002 13 5.81204 11.4185 6.02653 9.6279L6.5057 5.6279Z" fill="#777E91"/>
</svg>
