<svg width="24" height="24" viewBox="0 0 24 24" fill="none" xmlns="http://www.w3.org/2000/svg">
<path d="M9.65665 16.4805L6.6437 20.6986C5.78312 21.9034 4.04666 22.0471 2.99971 21.0002C1.95276 19.9532 2.09648 18.2168 3.3013 17.3562L7.51942 14.3432C7.77084 14.1636 7.80083 13.8013 7.58236 13.5828L5.41392 11.4144C4.63288 10.6333 4.63287 9.367 5.41392 8.58596L6.14616 7.85372C6.34142 7.65846 6.658 7.65846 6.85326 7.85372L16.1462 17.1466C16.3414 17.3419 16.3414 17.6585 16.1462 17.8537L15.4139 18.586C14.6329 19.367 13.3665 19.367 12.5855 18.586L10.4171 16.4175C10.1986 16.199 9.83623 16.229 9.65665 16.4805Z" fill="#777E91"/>
<path d="M17.6464 15.6464L8.35348 6.3535C8.15822 6.15823 8.15822 5.84165 8.35348 5.64639L11.0857 2.91416C11.8668 2.13311 13.1331 2.13311 13.9141 2.91415L21.0857 10.0857C21.8668 10.8668 21.8668 12.1331 21.0857 12.9142L18.3535 15.6464C18.1582 15.8417 17.8416 15.8417 17.6464 15.6464Z" fill="#777E91"/>
</svg>
