<svg width="24" height="24" viewBox="0 0 24 24" fill="none" xmlns="http://www.w3.org/2000/svg">
<path fill-rule="evenodd" clip-rule="evenodd" d="M6.5 7.50004L16.5 17.5L20.8787 13.1214C22.0503 11.9498 22.0503 10.0503 20.8787 8.87872L15.1213 3.12135C13.9497 1.94978 12.0503 1.94978 10.8787 3.12136L6.5 7.50004ZM9.41423 7.41423L12.2929 4.53557C12.6834 4.14504 13.3166 4.14505 13.7071 4.53557L19.4645 10.2929C19.855 10.6835 19.855 11.3166 19.4645 11.7071L16.5858 14.5858L9.41423 7.41423Z" fill="#777E91"/>
<path fill-rule="evenodd" clip-rule="evenodd" d="M16.1215 17.8787C14.95 19.0503 13.0505 19.0503 11.8789 17.8787L11.4029 17.4027C11.1895 17.1892 10.837 17.2121 10.653 17.4514L8.37144 20.4174C7.11464 22.0513 4.70778 22.2076 3.25022 20.75C1.79266 19.2924 1.94897 16.8856 3.5828 15.6288L6.54886 13.3472C6.78809 13.1632 6.81098 12.8108 6.59756 12.5973L6.12154 12.1213C4.94997 10.9497 4.94997 9.05025 6.12154 7.87868L8.00022 6L18.0002 16L16.1215 17.8787ZM9.06777 16.2319L6.78619 19.198C6.26549 19.8749 5.26831 19.9397 4.66443 19.3358C4.06056 18.7319 4.12532 17.7347 4.80223 17.214L7.76828 14.9324C8.96444 14.0123 9.07887 12.2502 8.01177 11.1831L7.53576 10.7071C7.14523 10.3166 7.14523 9.68342 7.53575 9.29289L7.91445 8.9142L15.086 16.0858L14.7073 16.4645C14.3168 16.855 13.6836 16.855 13.2931 16.4645L12.8171 15.9885C11.75 14.9213 9.98789 15.0358 9.06777 16.2319Z" fill="#777E91"/>
</svg>
