<svg width="23" height="24" viewBox="0 0 23 24" fill="none" xmlns="http://www.w3.org/2000/svg">
<path fill-rule="evenodd" clip-rule="evenodd" d="M8.62533 20C11.2717 20 13.417 17.7614 13.417 15C13.417 12.2386 11.2717 10 8.62533 10C5.97896 10 3.83366 12.2386 3.83366 15C3.83366 17.7614 5.97896 20 8.62533 20ZM8.62533 22C12.3302 22 15.3337 18.866 15.3337 15C15.3337 11.134 12.3302 8 8.62533 8C4.92042 8 1.91699 11.134 1.91699 15C1.91699 18.866 4.92042 22 8.62533 22Z" fill="#777E91"/>
<path fill-rule="evenodd" clip-rule="evenodd" d="M14.3751 4C12.956 4 11.682 4.6424 10.8033 5.66691C10.4503 6.07844 9.84446 6.11346 9.45008 5.74513C9.0557 5.37681 9.02213 4.74461 9.37511 4.33309C10.6021 2.9026 12.3882 2 14.3751 2C18.08 2 21.0834 5.13401 21.0834 9C21.0834 11.0733 20.2184 12.937 18.8475 14.2173C18.4532 14.5857 17.8473 14.5507 17.4943 14.1391C17.1413 13.7276 17.1749 13.0954 17.5693 12.7271C18.5511 11.8101 19.1667 10.4807 19.1667 9C19.1667 6.23858 17.0214 4 14.3751 4Z" fill="#777E91"/>
</svg>
