<svg width="24" height="24" viewBox="0 0 24 24" fill="none" xmlns="http://www.w3.org/2000/svg">
<path fill-rule="evenodd" clip-rule="evenodd" d="M13.2423 2C12.1815 2 11.1641 2.42143 10.4139 3.17157L5.35331 8.23217C5.15805 8.42744 5.15805 8.74402 5.35331 8.93928L15.0604 18.6464C15.2557 18.8417 15.5723 18.8417 15.7675 18.6464L20.8281 13.5858C21.5783 12.8356 21.9997 11.8182 21.9997 10.7574V5C21.9997 3.34315 20.6566 2 18.9997 2H13.2423ZM16.9998 9C16.9998 10.1046 16.1043 11 14.9998 11C13.8952 11 12.9998 10.1046 12.9998 9C12.9998 7.89543 13.8952 7 14.9998 7C16.1043 7 16.9998 7.89543 16.9998 9Z" fill="#777E91"/>
<path d="M13.6462 20.7677C13.8415 20.5724 13.8415 20.2559 13.6462 20.0606L3.9391 10.3535C3.74384 10.1582 3.42725 10.1582 3.23199 10.3535L2.70681 10.8787C1.53523 12.0503 1.53523 13.9497 2.7068 15.1213L8.87838 21.2929C10.05 22.4645 11.9494 22.4645 13.121 21.2929L13.6462 20.7677Z" fill="#777E91"/>
</svg>
