<svg width="24" height="24" viewBox="0 0 24 24" fill="none" xmlns="http://www.w3.org/2000/svg">
<path fill-rule="evenodd" clip-rule="evenodd" d="M10.4139 3.17157C11.1641 2.42143 12.1815 2 13.2423 2H18.9997C20.6566 2 21.9997 3.34315 21.9997 5V10.7574C21.9997 11.8182 21.5783 12.8356 20.8281 13.5858L13.121 21.2929C11.9494 22.4645 10.05 22.4645 8.87838 21.2929L2.7068 15.1213C1.53523 13.9497 1.53523 12.0503 2.70681 10.8787L10.4139 3.17157ZM13.2423 4C12.7119 4 12.2032 4.21071 11.8281 4.58579L4.12102 12.2929C3.73049 12.6834 3.73049 13.3166 4.12102 13.7071L10.2926 19.8787C10.6831 20.2692 11.3163 20.2692 11.7068 19.8787L19.4139 12.1716C19.789 11.7965 19.9997 11.2878 19.9997 10.7574V5C19.9997 4.44772 19.552 4 18.9997 4H13.2423Z" fill="#777E91"/>
<path d="M3.58594 10.0002L5.00015 8.58594L15.4144 19.0002L14.0002 20.4144L3.58594 10.0002Z" fill="#777E91"/>
<path fill-rule="evenodd" clip-rule="evenodd" d="M15 10C15.5523 10 16 9.55228 16 9C16 8.44772 15.5523 8 15 8C14.4477 8 14 8.44772 14 9C14 9.55228 14.4477 10 15 10ZM15 12C16.6569 12 18 10.6569 18 9C18 7.34315 16.6569 6 15 6C13.3431 6 12 7.34315 12 9C12 10.6569 13.3431 12 15 12Z" fill="#777E91"/>
</svg>
