<svg width="24" height="24" viewBox="0 0 24 24" fill="none" xmlns="http://www.w3.org/2000/svg">
<path d="M14 22V19C14 18.4477 13.5523 18 13 18H11C10.4477 18 10 18.4477 10 19V22C10 23.1046 10.8954 24 12 24C13.1046 24 14 23.1046 14 22Z" fill="#777E91"/>
<path d="M13.5737 0.934708C13.7688 0.611773 13.6335 0.157787 13.2608 0.0987914C12.8501 0.0337682 12.429 0 12 0C7.58172 0 4 3.58172 4 8C4 8.82339 4.12439 9.61773 4.35541 10.3652C4.47571 10.7545 4.84815 11 5.25555 11H18.7445C19.1519 11 19.5243 10.7545 19.6446 10.3652C19.8756 9.61773 20 8.82339 20 8C20 7.571 19.9662 7.14988 19.9012 6.73917C19.8422 6.36653 19.3882 6.23119 19.0653 6.42627C18.4624 6.79044 17.7557 7 17 7C14.7909 7 13 5.20914 13 3C13 2.24431 13.2096 1.53757 13.5737 0.934708Z" fill="#777E91"/>
<path d="M17.2037 13C17.6232 13 17.8455 13.4777 17.5431 13.7684C16.1053 15.1504 14.1518 16 12 16C9.84815 16 7.89474 15.1504 6.45689 13.7684C6.15446 13.4777 6.37678 13 6.79626 13H17.2037Z" fill="#777E91"/>
<path d="M19 3C19 4.10457 18.1046 5 17 5C15.8954 5 15 4.10457 15 3C15 1.89543 15.8954 1 17 1C18.1046 1 19 1.89543 19 3Z" fill="#777E91"/>
</svg>
