<svg width="24" height="24" viewBox="0 0 24 24" fill="none" xmlns="http://www.w3.org/2000/svg">
<path fill-rule="evenodd" clip-rule="evenodd" d="M21 9C21 12.9187 18.4956 16.2524 15 17.4879V21C15 22.6569 13.6569 24 12 24C10.3431 24 9 22.6569 9 21V17.4879C5.50442 16.2524 3 12.9187 3 9C3 4.02944 7.02944 0 12 0C13.0612 0 14.0794 0.183655 15.0248 0.520915C14.3567 0.901039 13.8088 1.46805 13.4522 2.15082C12.9837 2.05199 12.4979 2 12 2C8.13401 2 5 5.13401 5 9C5 12.866 8.13401 16 12 16C15.866 16 19 12.866 19 9C19 8.50209 18.948 8.01632 18.8492 7.54783C19.5319 7.19123 20.099 6.64331 20.4791 5.97522C20.8163 6.92055 21 7.93883 21 9ZM12 18C12.338 18 12.6717 17.9814 13 17.9451V21C13 21.5523 12.5523 22 12 22C11.4477 22 11 21.5523 11 21V17.9451C11.3283 17.9814 11.662 18 12 18Z" fill="#777E91"/>
<path d="M4.51515 14C4.10214 13.383 3.7634 12.7121 3.51172 12H20.4875C20.2358 12.7121 19.8971 13.383 19.4841 14H4.51515Z" fill="#777E91"/>
<path fill-rule="evenodd" clip-rule="evenodd" d="M17 6C18.1046 6 19 5.10457 19 4C19 2.89543 18.1046 2 17 2C15.8954 2 15 2.89543 15 4C15 5.10457 15.8954 6 17 6ZM17 8C19.2091 8 21 6.20914 21 4C21 1.79086 19.2091 0 17 0C14.7909 0 13 1.79086 13 4C13 6.20914 14.7909 8 17 8Z" fill="#777E91"/>
</svg>
