<svg width="24" height="24" viewBox="0 0 24 24" fill="none" xmlns="http://www.w3.org/2000/svg">
<path fill-rule="evenodd" clip-rule="evenodd" d="M14 2C14 1.44772 13.5523 1 13 1H6C4.34315 1 3 2.34315 3 4V20C3 21.6569 4.34315 23 6 23H18C19.6569 23 21 21.6569 21 20V9C21 8.44772 20.5523 8 20 8H17C15.3431 8 14 6.65685 14 5V2ZM7.29289 14.7071C6.90237 14.3166 6.90237 13.6834 7.29289 13.2929L9.29289 11.2929C9.68342 10.9024 10.3166 10.9024 10.7071 11.2929C11.0976 11.6834 11.0976 12.3166 10.7071 12.7071L9.41421 14L10.7071 15.2929C11.0976 15.6834 11.0976 16.3166 10.7071 16.7071C10.3166 17.0976 9.68342 17.0976 9.29289 16.7071L7.29289 14.7071ZM16.7071 13.2929L14.7071 11.2929C14.3166 10.9024 13.6834 10.9024 13.2929 11.2929C12.9024 11.6834 12.9024 12.3166 13.2929 12.7071L14.5858 14L13.2929 15.2929C12.9024 15.6834 12.9024 16.3166 13.2929 16.7071C13.6834 17.0976 14.3166 17.0976 14.7071 16.7071L16.7071 14.7071C17.0976 14.3166 17.0976 13.6834 16.7071 13.2929Z" fill="#777E91"/>
<path d="M16.9774 1.17757C16.4681 0.963989 16 1.44777 16 2.00005V5.00005C16 5.55234 16.4477 6.00005 17 6.00005H20C20.5523 6.00005 21.0361 5.53194 20.8225 5.02262C20.73 4.80212 20.5972 4.59721 20.4142 4.41427L17.5858 1.58584C17.4028 1.40289 17.1979 1.27003 16.9774 1.17757Z" fill="#777E91"/>
</svg>
