<svg width="24" height="24" viewBox="0 0 24 24" fill="none" xmlns="http://www.w3.org/2000/svg">
<path fill-rule="evenodd" clip-rule="evenodd" d="M3 5C3 2.79086 4.79086 1 7 1H15.3431C16.404 1 17.4214 1.42143 18.1716 2.17157L19.8284 3.82843C20.5786 4.57857 21 5.59599 21 6.65685V19C21 21.2091 19.2091 23 17 23H7C4.79086 23 3 21.2091 3 19V5ZM19 8V19C19 20.1046 18.1046 21 17 21H7C5.89543 21 5 20.1046 5 19V5C5 3.89543 5.89543 3 7 3H14V5C14 6.65685 15.3431 8 17 8H19ZM18.8891 6C18.7909 5.7176 18.6296 5.45808 18.4142 5.24264L16.7574 3.58579C16.5419 3.37035 16.2824 3.20914 16 3.11094V5C16 5.55228 16.4477 6 17 6H18.8891Z" fill="#777E91"/>
<path d="M7.29289 13.2929C6.90237 13.6834 6.90237 14.3166 7.29289 14.7071L9.29289 16.7071C9.68342 17.0976 10.3166 17.0976 10.7071 16.7071C11.0976 16.3166 11.0976 15.6834 10.7071 15.2929L9.41421 14L10.7071 12.7071C11.0976 12.3166 11.0976 11.6834 10.7071 11.2929C10.3166 10.9024 9.68342 10.9024 9.29289 11.2929L7.29289 13.2929Z" fill="#777E91"/>
<path d="M14.7071 11.2929L16.7071 13.2929C17.0976 13.6834 17.0976 14.3166 16.7071 14.7071L14.7071 16.7071C14.3166 17.0976 13.6834 17.0976 13.2929 16.7071C12.9024 16.3166 12.9024 15.6834 13.2929 15.2929L14.5858 14L13.2929 12.7071C12.9024 12.3166 12.9024 11.6834 13.2929 11.2929C13.6834 10.9024 14.3166 10.9024 14.7071 11.2929Z" fill="#777E91"/>
</svg>
