<svg width="24" height="24" viewBox="0 0 24 24" fill="none" xmlns="http://www.w3.org/2000/svg">
<path fill-rule="evenodd" clip-rule="evenodd" d="M2.37546 5.66957C2.66565 3.98488 4.00472 2.74648 5.69477 2.48932C7.31411 2.24293 9.53559 2 12 2C14.4644 2 16.6859 2.24293 18.3052 2.48932C19.9953 2.74648 21.3344 3.98488 21.6245 5.66957C21.8268 6.84372 22 8.33525 22 10C22 11.6647 21.8268 13.1563 21.6245 14.3304C21.3344 16.0151 19.9953 17.2535 18.3052 17.5107C16.8238 17.7361 14.8384 17.9586 12.6241 17.9949L6.50873 21.6085C5.84211 22.0024 5 21.5219 5 20.7476V17.344C3.64656 16.8939 2.62456 15.7766 2.37546 14.3304C2.17321 13.1563 2 11.6647 2 10C2 8.33525 2.17321 6.84372 2.37546 5.66957ZM6 8C6 7.44772 6.44772 7 7 7H17C17.5523 7 18 7.44772 18 8C18 8.55228 17.5523 9 17 9H7C6.44771 9 6 8.55228 6 8ZM6 12C6 11.4477 6.44772 11 7 11H11C11.5523 11 12 11.4477 12 12C12 12.5523 11.5523 13 11 13H7C6.44772 13 6 12.5523 6 12Z" fill="#777E91"/>
</svg>
