<svg width="23" height="24" viewBox="0 0 23 24" fill="none" xmlns="http://www.w3.org/2000/svg">
<path fill-rule="evenodd" clip-rule="evenodd" d="M6.70866 15.9013V18.9951L11.5599 16.0038L12.067 15.9951C14.0832 15.9607 15.8978 15.7488 17.2545 15.5334C18.1108 15.3975 18.7057 14.7739 18.835 13.9909C19.0143 12.9049 19.167 11.5289 19.167 10C19.167 8.47108 19.0143 7.09512 18.835 6.00907C18.7057 5.22608 18.1108 4.60252 17.2545 4.46657C15.7706 4.23096 13.7412 4 11.5003 4C9.25942 4 7.23007 4.23096 5.74613 4.46657C4.88988 4.60252 4.29491 5.22608 4.16566 6.00907C3.98638 7.09512 3.83366 8.47108 3.83366 10C3.83366 11.5289 3.98638 12.9049 4.16566 13.9909C4.27789 14.6709 4.73309 15.2158 5.39678 15.4461L6.70866 15.9013ZM2.27681 5.66957C2.5549 3.98488 3.83818 2.74648 5.45782 2.48932C7.00968 2.24293 9.1386 2 11.5003 2C13.8621 2 15.991 2.24293 17.5428 2.48932C19.1625 2.74648 20.4457 3.98488 20.7238 5.66957C20.9177 6.84372 21.0837 8.33525 21.0837 10C21.0837 11.6647 20.9177 13.1563 20.7238 14.3304C20.4457 16.0151 19.1625 17.2535 17.5428 17.5107C16.1231 17.7361 14.2205 17.9586 12.0984 17.9949L6.23786 21.6085C5.59902 22.0024 4.79199 21.5219 4.79199 20.7476V17.344C3.49495 16.8939 2.51553 15.7766 2.27681 14.3304C2.08299 13.1563 1.91699 11.6647 1.91699 10C1.91699 8.33525 2.08299 6.84372 2.27681 5.66957Z" fill="#777E91"/>
<path fill-rule="evenodd" clip-rule="evenodd" d="M6.70833 7C6.17906 7 5.75 7.44772 5.75 8C5.75 8.55228 6.17906 9 6.70833 9H16.2917C16.8209 9 17.25 8.55228 17.25 8C17.25 7.44772 16.8209 7 16.2917 7H6.70833ZM6.70833 11C6.17906 11 5.75 11.4477 5.75 12C5.75 12.5523 6.17906 13 6.70833 13H10.5417C11.0709 13 11.5 12.5523 11.5 12C11.5 11.4477 11.0709 11 10.5417 11H6.70833Z" fill="#777E91"/>
</svg>
