<svg width="24" height="24" viewBox="0 0 24 24" fill="none" xmlns="http://www.w3.org/2000/svg">
<path fill-rule="evenodd" clip-rule="evenodd" d="M14 2C14 1.44772 13.5523 1 13 1H6C4.34315 1 3 2.34315 3 4V20C3 21.6569 4.34315 23 6 23H18C19.6569 23 21 21.6569 21 20V9C21 8.44772 20.5523 8 20 8H17C15.3431 8 14 6.65685 14 5V2ZM12.465 9.17546C12.2982 8.75401 11.7018 8.75401 11.5351 9.17546L10.7235 11.2272C10.6536 11.4038 10.4897 11.5256 10.3005 11.5415L8.1506 11.7227C7.71434 11.7595 7.53267 12.2995 7.85798 12.5925L9.53216 14.1004C9.66668 14.2216 9.7252 14.406 9.68514 14.5825L9.18017 16.8084C9.08116 17.2449 9.56142 17.5816 9.93797 17.3398L11.7298 16.189C11.8944 16.0833 12.1056 16.0833 12.2702 16.189L14.062 17.3398C14.4386 17.5816 14.9189 17.2449 14.8198 16.8084L14.3149 14.5825C14.2748 14.406 14.3333 14.2216 14.4679 14.1004L16.142 12.5925C16.4673 12.2995 16.2857 11.7595 15.8494 11.7227L13.6995 11.5415C13.5103 11.5256 13.3464 11.4038 13.2766 11.2272L12.465 9.17546Z" fill="#777E91"/>
<path d="M16.9774 1.17757C16.4681 0.963989 16 1.44777 16 2.00005V5.00005C16 5.55234 16.4477 6.00005 17 6.00005H20C20.5523 6.00005 21.0361 5.53194 20.8225 5.02262C20.73 4.80212 20.5972 4.59721 20.4142 4.41427L17.5858 1.58584C17.4028 1.40289 17.1979 1.27003 16.9774 1.17757Z" fill="#777E91"/>
</svg>
