<svg width="24" height="24" viewBox="0 0 24 24" fill="none" xmlns="http://www.w3.org/2000/svg">
<path fill-rule="evenodd" clip-rule="evenodd" d="M3 5C3 2.79086 4.79086 1 7 1H15.3431C16.404 1 17.4214 1.42143 18.1716 2.17157L19.8284 3.82843C20.5786 4.57857 21 5.59599 21 6.65685V19C21 21.2091 19.2091 23 17 23H7C4.79086 23 3 21.2091 3 19V5ZM19 8V19C19 20.1046 18.1046 21 17 21H7C5.89543 21 5 20.1046 5 19V5C5 3.89543 5.89543 3 7 3H14V5C14 6.65685 15.3431 8 17 8H19ZM18.8891 6C18.7909 5.7176 18.6296 5.45808 18.4142 5.24264L16.7574 3.58579C16.5419 3.37035 16.2824 3.20914 16 3.11094V5C16 5.55228 16.4477 6 17 6H18.8891Z" fill="#777E91"/>
<path d="M11.5346 9.17546C11.7013 8.75401 12.2978 8.75401 12.4645 9.17546L13.2761 11.2272C13.3459 11.4038 13.5098 11.5256 13.699 11.5415L15.8489 11.7227C16.2852 11.7595 16.4669 12.2995 16.1415 12.5925L14.4674 14.1004C14.3328 14.2216 14.2743 14.406 14.3144 14.5825L14.8194 16.8084C14.9184 17.2449 14.4381 17.5816 14.0616 17.3398L12.2697 16.189C12.1051 16.0833 11.8939 16.0833 11.7293 16.189L9.93748 17.3398C9.56093 17.5816 9.08067 17.2449 9.17968 16.8084L9.68465 14.5825C9.72471 14.406 9.66619 14.2216 9.53167 14.1004L7.85749 12.5925C7.53218 12.2995 7.71385 11.7595 8.15011 11.7227L10.3 11.5415C10.4893 11.5256 10.6531 11.4038 10.723 11.2272L11.5346 9.17546Z" fill="#777E91"/>
</svg>
