<svg width="23" height="24" viewBox="0 0 23 24" fill="none" xmlns="http://www.w3.org/2000/svg">
<path fill-rule="evenodd" clip-rule="evenodd" d="M11.5003 20C15.7345 20 19.167 16.4183 19.167 12C19.167 7.58172 15.7345 4 11.5003 4C7.26614 4 3.83366 7.58172 3.83366 12C3.83366 16.4183 7.26614 20 11.5003 20ZM11.5003 22C16.793 22 21.0837 17.5228 21.0837 12C21.0837 6.47715 16.793 2 11.5003 2C6.20759 2 1.91699 6.47715 1.91699 12C1.91699 17.5228 6.20759 22 11.5003 22Z" fill="#777E91"/>
<path d="M11.5003 10C11.5003 9.44772 11.9294 9 12.4587 9H13.417C13.9463 9 14.3753 8.55229 14.3753 8C14.3753 7.44772 13.9463 7 13.417 7H12.4587C10.8708 7 9.58366 8.34315 9.58366 10V12H8.62533C8.09606 12 7.66699 12.4477 7.66699 13C7.66699 13.5523 8.09605 14 8.62533 14H9.58366V20C9.58366 20.5523 10.0127 21 10.542 21C11.0713 21 11.5003 20.5523 11.5003 20V14H13.417C13.9463 14 14.3753 13.5523 14.3753 13C14.3753 12.4477 13.9463 12 13.417 12H11.5003V10Z" fill="#777E91"/>
</svg>
