<svg width="23" height="24" viewBox="0 0 23 24" fill="none" xmlns="http://www.w3.org/2000/svg">
<path d="M16.2917 0C16.8209 0 17.25 0.447715 17.25 1V3C17.25 3.55228 16.8209 4 16.2917 4C15.7624 4 15.3333 3.55228 15.3333 3V1C15.3333 0.447715 15.7624 0 16.2917 0Z" fill="#777E91"/>
<path d="M16.2917 12C16.8209 12 17.25 12.4477 17.25 13V19C17.25 19.5523 16.8209 20 16.2917 20C15.7624 20 15.3333 19.5523 15.3333 19V13C15.3333 12.4477 15.7624 12 16.2917 12Z" fill="#777E91"/>
<path d="M6.70833 4C7.23761 4 7.66667 4.44772 7.66667 5V13C7.66667 13.5523 7.23761 14 6.70833 14C6.17906 14 5.75 13.5523 5.75 13V5C5.75 4.44772 6.17906 4 6.70833 4Z" fill="#777E91"/>
<path d="M6.70833 18C7.23761 18 7.66667 18.4477 7.66667 19V23C7.66667 23.5523 7.23761 24 6.70833 24C6.17906 24 5.75 23.5523 5.75 23V19C5.75 18.4477 6.17906 18 6.70833 18Z" fill="#777E91"/>
<path fill-rule="evenodd" clip-rule="evenodd" d="M13.4163 5C13.4163 3.34315 14.7035 2 16.2913 2C17.8792 2 19.1663 3.34315 19.1663 5V11C19.1663 12.6569 17.8792 14 16.2913 14C14.7035 14 13.4163 12.6569 13.4163 11V5ZM17.2497 5V11C17.2497 11.5523 16.8206 12 16.2913 12C15.7621 12 15.333 11.5523 15.333 11V5C15.333 4.44772 15.7621 4 16.2913 4C16.8206 4 17.2497 4.44772 17.2497 5Z" fill="#777E91"/>
<path fill-rule="evenodd" clip-rule="evenodd" d="M3.83301 15C3.83301 13.3431 5.12019 12 6.70801 12C8.29583 12 9.58301 13.3431 9.58301 15V17C9.58301 18.6569 8.29583 20 6.70801 20C5.12019 20 3.83301 18.6569 3.83301 17V15ZM7.66634 15V17C7.66634 17.5523 7.23728 18 6.70801 18C6.17873 18 5.74967 17.5523 5.74967 17V15C5.74967 14.4477 6.17873 14 6.70801 14C7.23728 14 7.66634 14.4477 7.66634 15Z" fill="#777E91"/>
</svg>
