<svg width="23" height="24" viewBox="0 0 23 24" fill="none" xmlns="http://www.w3.org/2000/svg">
<path fill-rule="evenodd" clip-rule="evenodd" d="M11.5003 20C15.7345 20 19.167 16.4183 19.167 12C19.167 7.58172 15.7345 4 11.5003 4C7.26614 4 3.83366 7.58172 3.83366 12C3.83366 16.4183 7.26614 20 11.5003 20ZM11.5003 22C16.7931 22 21.0837 17.5228 21.0837 12C21.0837 6.47715 16.7931 2 11.5003 2C6.2076 2 1.91699 6.47715 1.91699 12C1.91699 17.5228 6.2076 22 11.5003 22Z" fill="#777E91"/>
<path d="M11.5 9C12.0293 9 12.4583 8.55229 12.4583 8C12.4583 7.44772 12.0293 7 11.5 7C10.9707 7 10.5417 7.44772 10.5417 8C10.5417 8.55229 10.9707 9 11.5 9Z" fill="#777E91"/>
<path d="M10.5417 11C10.5417 11.5523 10.1126 12 9.58333 12C9.05406 12 8.625 11.5523 8.625 11C8.625 10.4477 9.05406 10 9.58333 10C10.1126 10 10.5417 10.4477 10.5417 11Z" fill="#777E91"/>
<path d="M14.375 11C14.375 11.5523 13.9459 12 13.4167 12C12.8874 12 12.4583 11.5523 12.4583 11C12.4583 10.4477 12.8874 10 13.4167 10C13.9459 10 14.375 10.4477 14.375 11Z" fill="#777E91"/>
</svg>
