<svg width="23" height="24" viewBox="0 0 23 24" fill="none" xmlns="http://www.w3.org/2000/svg">
<path fill-rule="evenodd" clip-rule="evenodd" d="M17.4919 2.47824C19.4667 1.61966 21.4477 3.68688 20.6249 5.74747L14.9482 19.9639C13.8381 22.7442 9.93304 22.2743 9.45851 19.3033L8.75029 14.8692L4.50096 14.1302C1.65377 13.635 1.20341 9.56021 3.86784 8.40176L17.4919 2.47824ZM18.8557 4.97824C19.0203 4.56612 18.6241 4.15268 18.2291 4.32439L4.60502 10.2479C3.71687 10.6341 3.86699 11.9923 4.81606 12.1574L9.06539 12.8964C9.87321 13.0369 10.5062 13.6974 10.6409 14.5404L11.3491 18.9745C11.5073 19.9648 12.8089 20.1214 13.179 19.1947L18.8557 4.97824Z" fill="#777E91"/>
</svg>
