<svg width="24" height="24" viewBox="0 0 24 24" fill="none" xmlns="http://www.w3.org/2000/svg">
<path d="M5 19C5 18.4477 5.44772 18 6 18H18C18.5523 18 19 18.4477 19 19V20C19 21.1046 18.1046 22 17 22H7C5.89543 22 5 21.1046 5 20V19Z" fill="#777E91"/>
<path d="M16.0645 4.08737C16.3676 4.03001 16.6803 4 17 4C19.7614 4 22 6.23858 22 9C22 11.0503 20.7659 12.8124 19 13.584V15C19 15.5523 18.5523 16 18 16H6C5.44772 16 5 15.5523 5 15V13.584C3.2341 12.8124 2 11.0503 2 9C2 6.23858 4.23858 4 7 4C7.31972 4 7.63244 4.03001 7.93548 4.08736C8.84287 2.82336 10.3253 2 12 2C13.6747 2 15.1571 2.82336 16.0645 4.08737Z" fill="#777E91"/>
</svg>
