<svg width="24" height="24" viewBox="0 0 24 24" fill="none" xmlns="http://www.w3.org/2000/svg">
<path fill-rule="evenodd" clip-rule="evenodd" d="M17 4C16.6803 4 16.3676 4.03001 16.0645 4.08737C15.1571 2.82336 13.6747 2 12 2C10.3253 2 8.84287 2.82336 7.93548 4.08736C7.63244 4.03001 7.31972 4 7 4C4.23858 4 2 6.23858 2 9C2 11.0503 3.2341 12.8124 5 13.584V19C5 20.6569 6.34315 22 8 22H16C17.6569 22 19 20.6569 19 19V13.584C20.7659 12.8124 22 11.0503 22 9C22 6.23858 19.7614 4 17 4ZM14.4398 5.2537L15.1835 6.28962L16.4365 6.05248C16.6175 6.01821 16.8057 6 17 6C18.6569 6 20 7.34315 20 9C20 10.2271 19.263 11.2865 18.1993 11.7513L17 12.2752V16H7V12.2752L5.80074 11.7513C4.73702 11.2865 4 10.2271 4 9C4 7.34315 5.34315 6 7 6C7.19431 6 7.38251 6.01821 7.56355 6.05248L8.81652 6.28962L9.56018 5.25369C10.108 4.49053 10.9967 4 12 4C13.0033 4 13.892 4.49053 14.4398 5.2537ZM7 18V19C7 19.5523 7.44772 20 8 20H16C16.5523 20 17 19.5523 17 19V18H7Z" fill="#777E91"/>
</svg>
