<svg width="23" height="24" viewBox="0 0 23 24" fill="none" xmlns="http://www.w3.org/2000/svg">
<path fill-rule="evenodd" clip-rule="evenodd" d="M8.62533 6.2919C7.9862 6.49074 7.3756 6.78899 6.81505 7.17982C5.71187 7.94899 4.85204 9.04224 4.3443 10.3213C3.83657 11.6004 3.70372 13.0079 3.96256 14.3657C4.2214 15.7236 4.86031 16.9709 5.79849 17.9499C6.73667 18.9288 7.93198 19.5955 9.23327 19.8656C10.5346 20.1357 11.8834 19.9971 13.1092 19.4673C14.335 18.9375 15.3827 18.0402 16.1198 16.8891C16.4943 16.3042 16.7801 15.667 16.9707 15.0001H11.0212C9.69798 15.0001 8.62533 13.8808 8.62533 12.5001L8.62533 6.2919ZM9.58562 4.0556C10.1116 3.99437 10.542 4.44783 10.542 5.00011V12.5001C10.542 12.7763 10.7565 13.0001 11.0212 13.0001H18.2087C18.7379 13.0001 19.1725 13.4492 19.1138 13.9981C18.9612 15.425 18.483 16.7984 17.7134 18.0002C16.7657 19.4803 15.4187 20.6338 13.8426 21.315C12.2666 21.9962 10.5324 22.1744 8.85934 21.8272C7.18626 21.4799 5.64943 20.6227 4.4432 19.3641C3.23697 18.1054 2.41552 16.5018 2.08272 14.7559C1.74993 13.0101 1.92073 11.2005 2.57353 9.55596C3.22634 7.91142 4.33183 6.50582 5.7502 5.51688C6.902 4.71382 8.21811 4.21481 9.58562 4.0556Z" fill="#777E91"/>
<path fill-rule="evenodd" clip-rule="evenodd" d="M18.8867 9.00011C18.821 8.77029 18.744 8.54371 18.6557 8.32132C18.3186 7.47204 17.8244 6.70037 17.2015 6.05036C16.5786 5.40035 15.8391 4.88473 15.0252 4.53295C14.8121 4.44083 14.5949 4.36042 14.3747 4.2919V9.00011H18.8867ZM21.0298 10.0022C21.0885 10.551 20.6539 11.0001 20.1247 11.0001H12.9372C12.6725 11.0001 12.458 10.7762 12.458 10.5001V3.00011C12.458 2.44782 12.8884 1.99436 13.4144 2.0556C14.2187 2.14925 15.008 2.36074 15.7587 2.68519C16.8051 3.13748 17.7559 3.80042 18.5568 4.63614C19.3577 5.47187 19.993 6.46402 20.4265 7.55595C20.7374 8.33924 20.9401 9.16286 21.0298 10.0022Z" fill="#777E91"/>
</svg>
