<svg width="24" height="24" viewBox="0 0 24 24" fill="none" xmlns="http://www.w3.org/2000/svg">
<path d="M7 4C7 2.89543 7.89543 2 9 2H15C16.1046 2 17 2.89543 17 4V7C17 7.55228 16.5523 8 16 8H8C7.44772 8 7 7.55228 7 7V4Z" fill="#777E91"/>
<path d="M4 10C2.89543 10 2 10.8954 2 12V17C2 18.1046 2.89543 19 4 19H5V18C5 16.3431 6.34315 15 8 15H16C17.6569 15 19 16.3431 19 18V19H20C21.1046 19 22 18.1046 22 17V12C22 10.8954 21.1046 10 20 10H4Z" fill="#777E91"/>
<path d="M7 18C7 17.4477 7.44772 17 8 17H16C16.5523 17 17 17.4477 17 18V20C17 21.1046 16.1046 22 15 22H9C7.89543 22 7 21.1046 7 20V18Z" fill="#777E91"/>
</svg>
