<svg width="23" height="24" viewBox="0 0 23 24" fill="none" xmlns="http://www.w3.org/2000/svg">
<path fill-rule="evenodd" clip-rule="evenodd" d="M5.75 5C5.75 3.34315 7.03718 2 8.625 2H14.375C15.9628 2 17.25 3.34315 17.25 5V10H15.3333V5C15.3333 4.44772 14.9043 4 14.375 4H8.625C8.09573 4 7.66667 4.44772 7.66667 5V10H5.75V5Z" fill="#777E91"/>
<path d="M4.79199 12H18.2087C18.7379 12 19.167 12.4477 19.167 13V16C19.167 16.5523 18.7379 17 18.2087 17H17.2503V19H18.2087C19.7965 19 21.0837 17.6569 21.0837 16V13C21.0837 11.3431 19.7965 10 18.2087 10H4.79199C3.20417 10 1.91699 11.3431 1.91699 13V16C1.91699 17.6569 3.20417 19 4.79199 19H5.75033V17H4.79199C4.26272 17 3.83366 16.5523 3.83366 16V13C3.83366 12.4477 4.26272 12 4.79199 12Z" fill="#777E91"/>
<path fill-rule="evenodd" clip-rule="evenodd" d="M15.3333 17H7.66667V19C7.66667 19.5523 8.09573 20 8.625 20H14.375C14.9043 20 15.3333 19.5523 15.3333 19V17ZM5.75 15V19C5.75 20.6569 7.03718 22 8.625 22H14.375C15.9628 22 17.25 20.6569 17.25 19V15H5.75Z" fill="#777E91"/>
</svg>
