<svg width="24" height="24" viewBox="0 0 24 24" fill="none" xmlns="http://www.w3.org/2000/svg">
<path d="M7 16V21C7 21.5523 7.44772 22 8 22C8.55229 22 9 21.5523 9 21V20H11V21C11 21.5523 11.4477 22 12 22C12.5523 22 13 21.5523 13 21V20H15V21C15 21.5523 15.4477 22 16 22C16.5523 22 17 21.5523 17 21V16H15V18H13V16H11V18H9V16H7Z" fill="#777E91"/>
<path d="M4 2C2.89543 2 2 2.89543 2 4V14C2 15.1046 2.89543 16 4 16H7V12C6.44771 12 6 11.5523 6 11C6 10.4477 6.44772 10 7 10H17C17.5523 10 18 10.4477 18 11C18 11.5523 17.5523 12 17 12V16H20C21.1046 16 22 15.1046 22 14V4C22 2.89543 21.1046 2 20 2H4Z" fill="#777E91"/>
<path d="M9 12H11V14H9V12Z" fill="#777E91"/>
<path d="M13 12V14H15V12H13Z" fill="#777E91"/>
</svg>
