<svg width="23" height="24" viewBox="0 0 23 24" fill="none" xmlns="http://www.w3.org/2000/svg">
<path fill-rule="evenodd" clip-rule="evenodd" d="M18.2087 4H4.79199C4.26272 4 3.83366 4.44772 3.83366 5V13C3.83366 13.5523 4.26272 14 4.79199 14H18.2087C18.7379 14 19.167 13.5523 19.167 13V5C19.167 4.44772 18.7379 4 18.2087 4ZM4.79199 2C3.20417 2 1.91699 3.34315 1.91699 5V13C1.91699 14.6569 3.20417 16 4.79199 16H18.2087C19.7965 16 21.0837 14.6569 21.0837 13V5C21.0837 3.34315 19.7965 2 18.2087 2H4.79199Z" fill="#777E91"/>
<path fill-rule="evenodd" clip-rule="evenodd" d="M6.70833 10C6.17906 10 5.75 10.4477 5.75 11C5.75 11.5523 6.17906 12 6.70833 12V21C6.70833 21.5523 7.13739 22 7.66667 22C8.19594 22 8.625 21.5523 8.625 21V20H10.5417V21C10.5417 21.5523 10.9707 22 11.5 22C12.0293 22 12.4583 21.5523 12.4583 21V20H14.375V21C14.375 21.5523 14.8041 22 15.3333 22C15.8626 22 16.2917 21.5523 16.2917 21V12C16.8209 12 17.25 11.5523 17.25 11C17.25 10.4477 16.8209 10 16.2917 10H6.70833ZM10.5417 12H8.625V14H10.5417V12ZM12.4583 14V12H14.375V14H12.4583ZM10.5417 16H8.625V18H10.5417V16ZM12.4583 18V16H14.375V18H12.4583Z" fill="#777E91"/>
</svg>
