<svg width="23" height="24" viewBox="0 0 23 24" fill="none" xmlns="http://www.w3.org/2000/svg">
<path fill-rule="evenodd" clip-rule="evenodd" d="M10.925 11.2001L18.5917 5.20008C19.2234 4.70565 20.125 5.17603 20.125 6.00008V18.0001C20.125 18.8241 19.2234 19.2945 18.5917 18.8001L10.925 12.8001C10.4139 12.4001 10.4139 11.6001 10.925 11.2001ZM17.4417 3.60008C19.337 2.11679 22.0417 3.52794 22.0417 6.00008V18.0001C22.0417 20.4722 19.337 21.8834 17.4417 20.4001L9.775 14.4001C8.24167 13.2001 8.24167 10.8001 9.775 9.60008L17.4417 3.60008Z" fill="#777E91"/>
<path fill-rule="evenodd" clip-rule="evenodd" d="M2.87467 18V6C2.87467 5.44772 3.30373 5 3.83301 5C4.36228 5 4.79134 5.44772 4.79134 6V18C4.79134 18.5523 4.36228 19 3.83301 19C3.30373 19 2.87467 18.5523 2.87467 18ZM3.83301 3C5.42083 3 6.70801 4.34315 6.70801 6V18C6.70801 19.6569 5.42083 21 3.83301 21C2.24519 21 0.958008 19.6569 0.958008 18V6C0.958008 4.34315 2.24519 3 3.83301 3Z" fill="#777E91"/>
</svg>
