<svg width="23" height="24" viewBox="0 0 23 24" fill="none" xmlns="http://www.w3.org/2000/svg">
<path fill-rule="evenodd" clip-rule="evenodd" d="M13.417 5.77485L9.58366 4.44152V18.2251L13.417 19.5585V5.77485ZM15.3337 5.87745V19.8368L18.3442 19.3881C18.8163 19.3177 19.167 18.8958 19.167 18.3981V6.45903C19.167 5.85048 18.6505 5.38302 18.0731 5.46908L15.3337 5.87745ZM4.65646 4.61194L7.66699 4.16316V18.1226L4.92752 18.5309C4.35019 18.617 3.83366 18.1495 3.83366 17.541V5.60189C3.83366 5.10423 4.18434 4.68231 4.65646 4.61194ZM14.3753 22L8.62533 20L5.19858 20.5108C3.46658 20.769 1.91699 19.3666 1.91699 17.541V5.60189C1.91699 4.10894 2.96904 2.84317 4.3854 2.63204L8.62533 2L14.3753 4L17.8021 3.48918C19.5341 3.23099 21.0837 4.63338 21.0837 6.45903V18.3981C21.0837 19.8911 20.0316 21.1568 18.6152 21.368L14.3753 22Z" fill="#777E91"/>
</svg>
