<svg width="24" height="24" viewBox="0 0 24 24" fill="none" xmlns="http://www.w3.org/2000/svg">
<path fill-rule="evenodd" clip-rule="evenodd" d="M2 20C2 21.1046 2.89543 22 4 22H20C21.1046 22 22 21.1046 22 20V4C22 2.89543 21.1046 2 20 2H4C2.89543 2 2 2.89543 2 4V20ZM5 18C5 18.5523 5.44772 19 6 19H10C10.5523 19 11 18.5523 11 18C11 17.4477 10.5523 17 10 17H6C5.44772 17 5 17.4477 5 18ZM6 7C5.44772 7 5 6.55228 5 6C5 5.44772 5.44772 5 6 5H18C18.5523 5 19 5.44772 19 6C19 6.55228 18.5523 7 18 7H6ZM5 10C5 10.5523 5.44772 11 6 11H14C14.5523 11 15 10.5523 15 10C15 9.44771 14.5523 9 14 9H6C5.44772 9 5 9.44771 5 10ZM6 15C5.44772 15 5 14.5523 5 14C5 13.4477 5.44771 13 6 13H16C16.5523 13 17 13.4477 17 14C17 14.5523 16.5523 15 16 15H6Z" fill="#777E91"/>
</svg>
