<svg width="23" height="24" viewBox="0 0 23 24" fill="none" xmlns="http://www.w3.org/2000/svg">
<path d="M6.70833 5C6.17906 5 5.75 5.44772 5.75 6C5.75 6.55228 6.17906 7 6.70833 7H20.125C20.6543 7 21.0833 6.55228 21.0833 6C21.0833 5.44772 20.6543 5 20.125 5H6.70833Z" fill="#777E91"/>
<path d="M6.70833 17C6.17906 17 5.75 17.4477 5.75 18C5.75 18.5523 6.17906 19 6.70833 19H12.4583C12.9876 19 13.4167 18.5523 13.4167 18C13.4167 17.4477 12.9876 17 12.4583 17H6.70833Z" fill="#777E91"/>
<path d="M5.75 10C5.75 9.44772 6.17906 9 6.70833 9H16.2917C16.8209 9 17.25 9.44772 17.25 10C17.25 10.5523 16.8209 11 16.2917 11H6.70833C6.17906 11 5.75 10.5523 5.75 10Z" fill="#777E91"/>
<path d="M6.70833 13C6.17906 13 5.75 13.4477 5.75 14C5.75 14.5523 6.17906 15 6.70833 15H18.2083C18.7376 15 19.1667 14.5523 19.1667 14C19.1667 13.4477 18.7376 13 18.2083 13H6.70833Z" fill="#777E91"/>
<path fill-rule="evenodd" clip-rule="evenodd" d="M2.87533 2C3.4046 2 3.83366 2.44772 3.83366 3V21C3.83366 21.5523 3.4046 22 2.87533 22C2.34605 22 1.91699 21.5523 1.91699 21V3C1.91699 2.44772 2.34605 2 2.87533 2Z" fill="#777E91"/>
</svg>
