<svg width="24" height="24" viewBox="0 0 24 24" fill="none" xmlns="http://www.w3.org/2000/svg">
<path d="M7 1C7 1.55228 7.44772 2 8 2L16 2C16.5523 2 17 1.55228 17 1C17 0.447715 16.5523 0 16 0H8C7.44772 0 7 0.447716 7 1Z" fill="#777E91"/>
<path d="M7 23C7 22.4477 7.44772 22 8 22H16C16.5523 22 17 22.4477 17 23C17 23.5523 16.5523 24 16 24H8C7.44772 24 7 23.5523 7 23Z" fill="#777E91"/>
<path d="M7 20C5.34315 20 4 18.6569 4 17L4 7C4 5.34315 5.34315 4 7 4L17 4C18.6569 4 20 5.34314 20 7L20 17C20 18.6569 18.6569 20 17 20L7 20Z" fill="#777E91"/>
<path d="M20 10C20.5523 10 21 10.4477 21 11V13C21 13.5523 20.5523 14 20 14V10Z" fill="#777E91"/>
</svg>
