<svg width="23" height="24" viewBox="0 0 23 24" fill="none" xmlns="http://www.w3.org/2000/svg">
<path d="M8.62467 5V3C8.62467 2.44772 9.05373 2 9.58301 2L13.4163 2C13.9456 2 14.3747 2.44772 14.3747 3V5H16.2913V3C16.2913 1.34315 15.0042 0 13.4163 0H9.58301C7.99519 0 6.70801 1.34315 6.70801 3V5L8.62467 5Z" fill="#777E91"/>
<path d="M8.62467 19V21C8.62467 21.5523 9.05373 22 9.58301 22H13.4163C13.9456 22 14.3747 21.5523 14.3747 21V19H16.2913V21C16.2913 22.6569 15.0042 24 13.4163 24H9.58301C7.99519 24 6.70801 22.6569 6.70801 21V19H8.62467Z" fill="#777E91"/>
<path fill-rule="evenodd" clip-rule="evenodd" d="M5.74967 8L5.74967 16C5.74967 17.1046 6.6078 18 7.66634 18L15.333 18C16.3916 18 17.2497 17.1046 17.2497 16L17.2497 8C17.2497 6.89543 16.3916 6 15.333 6L7.66634 6C6.60779 6 5.74967 6.89543 5.74967 8ZM3.83301 16C3.83301 18.2091 5.54925 20 7.66634 20L15.333 20C17.4501 20 19.1663 18.2091 19.1663 16L19.1663 8C19.1663 5.79086 17.4501 4 15.333 4L7.66634 4C5.54925 4 3.83301 5.79086 3.83301 8L3.83301 16Z" fill="#777E91"/>
<path d="M19.167 10C19.6963 10 20.1253 10.4477 20.1253 11V13C20.1253 13.5523 19.6963 14 19.167 14V10Z" fill="#777E91"/>
</svg>
