<svg width="24" height="24" viewBox="0 0 24 24" fill="none" xmlns="http://www.w3.org/2000/svg">
<path d="M10 18.3605C10 18.2981 9.98834 18.2363 9.96562 18.1783L5.96562 7.95607C5.76424 7.44143 5 7.58563 5 8.13827V22.7802C5 23.4112 5.57733 23.8845 6.19612 23.7608L9.19612 23.1608C9.66354 23.0673 10 22.6569 10 22.1802V18.3605Z" fill="#777E91"/>
<path d="M19 15.5465C19 16.1032 18.2273 16.2433 18.0318 15.7221L14.0318 5.05542C14.0108 4.99928 14 4.93982 14 4.87986V1C14 0.447715 14.4477 0 15 0H18C18.5523 0 19 0.447715 19 1V15.5465Z" fill="#777E91"/>
<path d="M8.61433 0H5.7329C5.38077 0 5.13896 0.354282 5.26728 0.682199L13.6019 21.982C13.8502 22.6164 14.4042 23.0808 15.0722 23.2144L18.1182 23.8236C18.5028 23.9005 18.8221 23.5249 18.6844 23.1577L10.4869 1.29775C10.1942 0.517146 9.44802 0 8.61433 0Z" fill="#777E91"/>
</svg>
