<svg width="23" height="24" viewBox="0 0 23 24" fill="none" xmlns="http://www.w3.org/2000/svg">
<path d="M6.70801 0C5.12019 0 3.83301 1.34315 3.83301 3V21C3.83301 22.6569 5.12019 24 6.70801 24C8.29582 24 9.58301 22.6569 9.58301 21V10.1817L7.66634 6.54539V21C7.66634 21.5523 7.23728 22 6.70801 22C6.17874 22 5.74967 21.5523 5.74967 21V3C5.74967 2.55749 6.02512 2.18212 6.40685 2.05037C6.49934 2.01606 6.60105 2 6.70801 2V0Z" fill="#777E91"/>
<path d="M16.292 24C17.8799 24 19.167 22.6569 19.167 21V3C19.167 1.34315 17.8799 0 16.292 0C14.7041 0 13.417 1.34315 13.417 3V13.8181L15.3337 17.4545V3C15.3337 2.44772 15.7627 2 16.292 2C16.8213 2 17.2503 2.44772 17.2503 3V21C17.2503 21.4421 16.9754 21.8172 16.5942 21.9493C16.5014 21.9838 16.3993 22 16.292 22V24Z" fill="#777E91"/>
<path fill-rule="evenodd" clip-rule="evenodd" d="M15.5732 21.546C15.7208 21.826 16.0027 22 16.3089 22C16.9476 22 17.3525 21.2855 17.0447 20.7015L7.42673 2.45395C7.27915 2.17396 6.9972 2 6.69097 2C6.05228 2 5.64741 2.71452 5.9552 3.29848L15.5732 21.546ZM9.10614 1.49011L18.7241 19.7377C19.7345 21.6545 18.4055 24 16.3089 24C15.3037 24 14.3783 23.429 13.8938 22.5099L4.27579 4.26232C3.26544 2.34545 4.59446 0 6.69097 0C7.69619 0 8.6217 0.571025 9.10614 1.49011Z" fill="#777E91"/>
</svg>
