<svg width="23" height="24" viewBox="0 0 23 24" fill="none" xmlns="http://www.w3.org/2000/svg">
<path d="M11.5003 2C10.9711 2 10.542 2.44772 10.542 3C10.542 3.55228 10.9711 4 11.5003 4C12.0296 4 12.4587 3.55228 12.4587 3C12.4587 2.44772 12.0296 2 11.5003 2Z" fill="#777E91"/>
<path d="M11.5003 20C10.9711 20 10.542 20.4477 10.542 21C10.542 21.5523 10.9711 22 11.5003 22C12.0296 22 12.4587 21.5523 12.4587 21C12.4587 20.4477 12.0296 20 11.5003 20Z" fill="#777E91"/>
<path d="M20.1253 11C20.6546 11 21.0837 11.4477 21.0837 12C21.0837 12.5523 20.6546 13 20.1253 13C19.5961 13 19.167 12.5523 19.167 12C19.167 11.4477 19.5961 11 20.1253 11Z" fill="#777E91"/>
<path d="M3.83366 12C3.83366 11.4477 3.4046 11 2.87533 11C2.34605 11 1.91699 11.4477 1.91699 12C1.91699 12.5523 2.34605 13 2.87533 13C3.4046 13 3.83366 12.5523 3.83366 12Z" fill="#777E91"/>
<path d="M16.9215 4.92903C17.2958 4.53851 17.9026 4.53851 18.2768 4.92903C18.6511 5.31955 18.6511 5.95272 18.2768 6.34324C17.9026 6.73377 17.2958 6.73377 16.9215 6.34324C16.5473 5.95272 16.5473 5.31955 16.9215 4.92903Z" fill="#777E91"/>
<path d="M6.07912 17.6568C5.70487 17.2663 5.09809 17.2663 4.72384 17.6568C4.34958 18.0473 4.34958 18.6805 4.72384 19.071C5.09809 19.4616 5.70487 19.4616 6.07912 19.071C6.45338 18.6805 6.45338 18.0473 6.07912 17.6568Z" fill="#777E91"/>
<path d="M18.2768 17.6569C18.651 18.0474 18.651 18.6806 18.2768 19.0711C17.9025 19.4616 17.2958 19.4616 16.9215 19.0711C16.5472 18.6806 16.5472 18.0474 16.9215 17.6569C17.2958 17.2664 17.9025 17.2664 18.2768 17.6569Z" fill="#777E91"/>
<path d="M6.07921 6.34309C6.45346 5.95257 6.45346 5.3194 6.07921 4.92888C5.70496 4.53836 5.09818 4.53836 4.72392 4.92888C4.34967 5.3194 4.34967 5.95257 4.72392 6.34309C5.09818 6.73362 5.70496 6.73362 6.07921 6.34309Z" fill="#777E91"/>
<path fill-rule="evenodd" clip-rule="evenodd" d="M11.5003 14C12.5589 14 13.417 13.1046 13.417 12C13.417 10.8954 12.5589 10 11.5003 10C10.4418 10 9.58366 10.8954 9.58366 12C9.58366 13.1046 10.4418 14 11.5003 14ZM11.5003 16C13.6174 16 15.3337 14.2091 15.3337 12C15.3337 9.79086 13.6174 8 11.5003 8C9.38323 8 7.66699 9.79086 7.66699 12C7.66699 14.2091 9.38323 16 11.5003 16Z" fill="#777E91"/>
</svg>
