<svg width="24" height="24" viewBox="0 0 24 24" fill="none" xmlns="http://www.w3.org/2000/svg">
<path d="M2.45153 5.94826C2.71842 4.12109 4.12109 2.71842 5.94826 2.45153C7.54228 2.21869 9.6618 2 12 2C14.3382 2 16.4577 2.21869 18.0517 2.45153C19.8789 2.71842 21.2816 4.12109 21.5485 5.94826C21.7813 7.54228 22 9.6618 22 12C22 14.3382 21.7813 16.4577 21.5485 18.0517C21.2816 19.8789 19.8789 21.2816 18.0517 21.5485C16.4577 21.7813 14.3382 22 12 22C9.6618 22 7.54228 21.7813 5.94826 21.5485C4.12109 21.2816 2.71842 19.8789 2.45153 18.0517C2.21869 16.4577 2 14.3382 2 12C2 9.6618 2.21869 7.54228 2.45153 5.94826Z" fill="#777E91"/>
</svg>
