<svg width="23" height="24" viewBox="0 0 23 24" fill="none" xmlns="http://www.w3.org/2000/svg">
<g clip-path="url(#clip0)">
<path fill-rule="evenodd" clip-rule="evenodd" d="M5.74967 4L5.74967 20C5.74967 21.1046 6.6078 22 7.66634 22L15.333 22C16.3916 22 17.2497 21.1046 17.2497 20L17.2497 4C17.2497 2.89543 16.3916 2 15.333 2L7.66634 2C6.6078 2 5.74967 2.89543 5.74967 4ZM3.83301 20C3.83301 22.2091 5.54925 24 7.66634 24L15.333 24C17.4501 24 19.1663 22.2091 19.1663 20L19.1663 4C19.1663 1.79086 17.4501 -6.21101e-07 15.333 -5.24537e-07L7.66634 -1.74846e-07C5.54925 -7.8281e-08 3.83301 1.79086 3.83301 4L3.83301 20Z" fill="#777E91"/>
<path fill-rule="evenodd" clip-rule="evenodd" d="M11.5003 18C12.5589 18 13.417 17.1046 13.417 16C13.417 14.8954 12.5589 14 11.5003 14C10.4418 14 9.58366 14.8954 9.58366 16C9.58366 17.1046 10.4418 18 11.5003 18ZM11.5003 20C13.6174 20 15.3337 18.2091 15.3337 16C15.3337 13.7909 13.6174 12 11.5003 12C9.38323 12 7.66699 13.7909 7.66699 16C7.66699 18.2091 9.38323 20 11.5003 20Z" fill="#777E91"/>
<path fill-rule="evenodd" clip-rule="evenodd" d="M11.5 8C12.0293 8 12.4583 7.55228 12.4583 7C12.4583 6.44772 12.0293 6 11.5 6C10.9707 6 10.5417 6.44772 10.5417 7C10.5417 7.55228 10.9707 8 11.5 8ZM11.5 10C13.0878 10 14.375 8.65685 14.375 7C14.375 5.34315 13.0878 4 11.5 4C9.91218 4 8.625 5.34315 8.625 7C8.625 8.65685 9.91218 10 11.5 10Z" fill="#777E91"/>
</g>
<defs>
<clipPath id="clip0">
<rect width="23" height="24" fill="white"/>
</clipPath>
</defs>
</svg>
