<svg width="24" height="24" viewBox="0 0 24 24" fill="none" xmlns="http://www.w3.org/2000/svg">
<path d="M18.2927 11.2931L12.707 5.70729C12.3164 5.31677 12.3164 4.6836 12.707 4.29308L14.5856 2.4144C15.3667 1.63335 16.633 1.63335 17.4141 2.4144L21.5856 6.58597C22.3667 7.36702 22.3667 8.63335 21.5856 9.4144L19.707 11.2931C19.3164 11.6836 18.6833 11.6836 18.2927 11.2931Z" fill="#777E91"/>
<path fill-rule="evenodd" clip-rule="evenodd" d="M3.24271 19.2425L4.75744 20.7572C7.10058 23.1004 10.8996 23.1004 13.2427 20.7572L18.293 15.707C18.6835 15.3164 18.6835 14.6833 18.293 14.2927L9.70718 5.70696C9.31665 5.31643 8.68349 5.31643 8.29297 5.70696L3.24271 10.7572C0.899563 13.1004 0.899568 16.8993 3.24271 19.2425ZM8 16.9999C8.55228 16.9999 9 16.5522 9 15.9999C9 15.4476 8.55228 14.9999 8 14.9999C7.44772 14.9999 7 15.4476 7 15.9999C7 16.5522 7.44772 16.9999 8 16.9999Z" fill="#777E91"/>
</svg>
