<svg width="23" height="24" viewBox="0 0 23 24" fill="none" xmlns="http://www.w3.org/2000/svg">
<path fill-rule="evenodd" clip-rule="evenodd" d="M4.46325 17.8285L5.91486 19.3432C7.41187 20.9053 9.839 20.9053 11.336 19.3432L15.7789 14.7071C16.1531 14.3166 16.1531 13.6835 15.7789 13.2929L10.2614 7.53557C9.88716 7.14505 9.28038 7.14504 8.90612 7.53557L4.46325 12.1716C2.96624 13.7337 2.96624 16.2664 4.46325 17.8285ZM3.10796 19.2427L4.55957 20.7574C6.80509 23.1005 10.4458 23.1005 12.6913 20.7574L17.1342 16.1214C18.2569 14.9498 18.2569 13.0503 17.1342 11.8787L11.6167 6.12135C10.4939 4.94978 8.67359 4.94978 7.55083 6.12136L3.10797 10.7574C0.862451 13.1005 0.862448 16.8995 3.10796 19.2427Z" fill="#777E91"/>
<path d="M8.62467 16C8.62467 16.5523 8.19561 17 7.66634 17C7.13707 17 6.70801 16.5523 6.70801 16C6.70801 15.4477 7.13707 15 7.66634 15C8.19561 15 8.62467 15.4477 8.62467 16Z" fill="#777E91"/>
<path d="M10.9326 5.59245C11.1785 5.72886 11.4095 5.90516 11.6167 6.12135L12.3765 6.91422L14.656 4.53557C15.0303 4.14504 15.6371 4.14505 16.0113 4.53557L18.6538 7.29293C19.028 7.68345 19.0281 8.31662 18.6538 8.70714L16.3743 11.0858L17.1342 11.8787C17.3413 12.0949 17.5103 12.3358 17.641 12.5924L20.0091 10.1214C21.1318 8.94978 21.1318 7.05029 20.0091 5.87872L17.3666 3.12135C16.2439 1.94978 14.4235 1.94978 13.3008 3.12136L10.9326 5.59245Z" fill="#777E91"/>
</svg>
