<svg width="24" height="24" viewBox="0 0 24 24" fill="none" xmlns="http://www.w3.org/2000/svg">
<path fill-rule="evenodd" clip-rule="evenodd" d="M21 14C21 18.9706 16.9706 23 12 23C7.02944 23 3 18.9706 3 14C3 9.02944 7.02944 5 12 5C16.9706 5 21 9.02944 21 14ZM12 9C11.4477 9 11 9.44772 11 10V14C11 14.5523 11.4477 15 12 15C12.5523 15 13 14.5523 13 14V10C13 9.44772 12.5523 9 12 9Z" fill="#777E91"/>
<path d="M10 1C9.44772 1 9 1.44772 9 2C9 2.55228 9.44772 3 10 3H14C14.5523 3 15 2.55228 15 2C15 1.44772 14.5523 1 14 1H10Z" fill="#777E91"/>
<path d="M20.7071 4.29289C20.3166 3.90237 19.6834 3.90237 19.2929 4.29289C18.9024 4.68342 18.9024 5.31658 19.2929 5.70711L20.2929 6.70711C20.6834 7.09763 21.3166 7.09763 21.7071 6.70711C22.0976 6.31658 22.0976 5.68342 21.7071 5.29289L20.7071 4.29289Z" fill="#777E91"/>
</svg>
