<svg width="23" height="24" viewBox="0 0 23 24" fill="none" xmlns="http://www.w3.org/2000/svg">
<path fill-rule="evenodd" clip-rule="evenodd" d="M11.5 21C15.2049 21 18.2083 17.866 18.2083 14C18.2083 10.134 15.2049 7 11.5 7C7.79509 7 4.79167 10.134 4.79167 14C4.79167 17.866 7.79509 21 11.5 21ZM11.5 23C16.2635 23 20.125 18.9706 20.125 14C20.125 9.02944 16.2635 5 11.5 5C6.73654 5 2.875 9.02944 2.875 14C2.875 18.9706 6.73654 23 11.5 23Z" fill="#777E91"/>
<path d="M10.542 10C10.542 9.44772 10.9711 9 11.5003 9V9C12.0296 9 12.4587 9.44772 12.4587 10V14C12.4587 14.5523 12.0296 15 11.5003 15V15C10.9711 15 10.542 14.5523 10.542 14V10Z" fill="#777E91"/>
<path d="M9.58333 1C9.05406 1 8.625 1.44772 8.625 2C8.625 2.55228 9.05406 3 9.58333 3H13.4167C13.9459 3 14.375 2.55228 14.375 2C14.375 1.44772 13.9459 1 13.4167 1H9.58333Z" fill="#777E91"/>
<path d="M19.8443 4.29289C19.4701 3.90237 18.8633 3.90237 18.489 4.29289C18.1148 4.68342 18.1148 5.31658 18.489 5.70711L19.4474 6.70711C19.8216 7.09763 20.4284 7.09763 20.8026 6.70711C21.1769 6.31658 21.1769 5.68342 20.8026 5.29289L19.8443 4.29289Z" fill="#777E91"/>
</svg>
