<svg width="24" height="24" viewBox="0 0 24 24" fill="none" xmlns="http://www.w3.org/2000/svg">
<path fill-rule="evenodd" clip-rule="evenodd" d="M6 6C5.44772 6 5 6.44772 5 7V21.0657C5 21.4651 5.44507 21.7033 5.77735 21.4818L7.51714 20.3219C7.81573 20.1228 8.19808 20.099 8.51906 20.2595L10.6584 21.3292C11.5029 21.7515 12.4971 21.7515 13.3416 21.3292L15.4809 20.2595C15.8019 20.099 16.1843 20.1228 16.4829 20.3219L18.2226 21.4818C18.5549 21.7033 19 21.4651 19 21.0657V7C19 6.44772 18.5523 6 18 6H6ZM8 9C8 8.44771 8.44771 8 9 8H11C11.5523 8 12 8.44771 12 9C12 9.55229 11.5523 10 11 10H9C8.44771 10 8 9.55229 8 9ZM14 9C14 8.44771 14.4477 8 15 8C15.5523 8 16 8.44771 16 9C16 9.55229 15.5523 10 15 10C14.4477 10 14 9.55229 14 9ZM8 13C8 12.4477 8.44771 12 9 12H11C11.5523 12 12 12.4477 12 13C12 13.5523 11.5523 14 11 14H9C8.44771 14 8 13.5523 8 13ZM14 13C14 12.4477 14.4477 12 15 12C15.5523 12 16 12.4477 16 13C16 13.5523 15.5523 14 15 14C14.4477 14 14 13.5523 14 13ZM8 17C8 16.4477 8.44771 16 9 16H11C11.5523 16 12 16.4477 12 17C12 17.5523 11.5523 18 11 18H9C8.44771 18 8 17.5523 8 17ZM14 17C14 16.4477 14.4477 16 15 16C15.5523 16 16 16.4477 16 17C16 17.5523 15.5523 18 15 18C14.4477 18 14 17.5523 14 17Z" fill="#777E91"/>
<path d="M2 3C2 2.44772 2.44772 2 3 2H21C21.5523 2 22 2.44772 22 3C22 3.55228 21.5523 4 21 4H3C2.44772 4 2 3.55228 2 3Z" fill="#777E91"/>
</svg>
