<svg width="24" height="24" viewBox="0 0 24 24" fill="none" xmlns="http://www.w3.org/2000/svg">
<path fill-rule="evenodd" clip-rule="evenodd" d="M5.5342 9C5.24497 9 5.01607 9.24467 5.03531 9.53326L5.87529 22.133C5.94533 23.1836 6.81794 24 7.87087 24H16.1287C17.1816 24 18.0542 23.1836 18.1242 22.133L18.9642 9.53326C18.9834 9.24467 18.7545 9 18.4653 9H5.5342ZM11.9998 18C13.1043 18 13.9998 17.1046 13.9998 16C13.9998 14.8954 13.1043 14 11.9998 14C10.8952 14 9.99976 14.8954 9.99976 16C9.99976 17.1046 10.8952 18 11.9998 18Z" fill="#777E91"/>
<path fill-rule="evenodd" clip-rule="evenodd" d="M17.2279 0.683772C17.0918 0.27543 16.7097 0 16.2792 0H7.72076C7.29033 0 6.90819 0.27543 6.77208 0.683772L6.22792 2.31623C6.09181 2.72457 5.70967 3 5.27924 3H5C4.44772 3 4 3.44772 4 4V6C4 6.55228 4.44772 7 5 7H19C19.5523 7 20 6.55228 20 6V4C20 3.44772 19.5523 3 19 3H18.7208C18.2903 3 17.9082 2.72457 17.7721 2.31623L17.2279 0.683772Z" fill="#777E91"/>
</svg>
