<svg width="23" height="24" viewBox="0 0 23 24" fill="none" xmlns="http://www.w3.org/2000/svg">
<path fill-rule="evenodd" clip-rule="evenodd" d="M4.79199 9L5.57141 21.1996C5.67209 22.7755 6.92646 24 8.44004 24H14.5606C16.0742 24 17.3286 22.7755 17.4292 21.1996L18.2087 9H4.79199ZM6.84069 11L7.48383 21.0665C7.51739 21.5918 7.93551 22 8.44004 22H14.5606C15.0651 22 15.4833 21.5918 15.5168 21.0665L16.16 11H6.84069Z" fill="#777E91"/>
<path d="M13.4163 16C13.4163 17.1046 12.5582 18 11.4997 18C10.4411 18 9.58301 17.1046 9.58301 16C9.58301 14.8954 10.4411 14 11.4997 14C12.5582 14 13.4163 14.8954 13.4163 16Z" fill="#777E91"/>
<path fill-rule="evenodd" clip-rule="evenodd" d="M5.01948 4.57166L5.34928 2.5068C5.58033 1.06024 6.77975 0 8.18516 0H14.8142C16.2196 0 17.419 1.06024 17.6501 2.5068L17.9799 4.57166C18.6989 5.11698 19.1663 6.00153 19.1663 7V8C19.1663 9.65685 17.8792 11 16.2913 11H6.70801C5.12019 11 3.83301 9.65685 3.83301 8V7C3.83301 6.00153 4.30047 5.11698 5.01948 4.57166ZM8.18516 2H14.8142C15.2827 2 15.6825 2.35341 15.7595 2.8356L15.9455 4H7.05389L7.23987 2.8356C7.31689 2.35341 7.71669 2 8.18516 2ZM6.70801 6C6.17873 6 5.74967 6.44772 5.74967 7V8C5.74967 8.55228 6.17873 9 6.70801 9H16.2913C16.8206 9 17.2497 8.55228 17.2497 8V7C17.2497 6.44772 16.8206 6 16.2913 6H6.70801Z" fill="#777E91"/>
</svg>
