<svg width="23" height="24" viewBox="0 0 23 24" fill="none" xmlns="http://www.w3.org/2000/svg">
<path fill-rule="evenodd" clip-rule="evenodd" d="M16.7705 15C16.3372 15 15.7249 15.0625 15.0875 15.1536C14.7897 15.1962 14.5627 15.4331 14.5219 15.7438C14.4346 16.4089 14.3747 17.0478 14.3747 17.5C14.3747 17.9522 14.4346 18.5911 14.5219 19.2562C14.5627 19.5669 14.7897 19.8038 15.0875 19.8464C15.7249 19.9375 16.3372 20 16.7705 20C17.2038 20 17.8161 19.9375 18.4535 19.8464C18.7513 19.8038 18.9784 19.5669 19.0191 19.2562C19.1064 18.5911 19.1663 17.9522 19.1663 17.5C19.1663 17.0478 19.1064 16.4089 19.0191 15.7438C18.9784 15.4331 18.7513 15.1962 18.4535 15.1536C17.8161 15.0625 17.2038 15 16.7705 15ZM14.8274 13.1721C13.6775 13.3364 12.7804 14.2725 12.6229 15.4724C12.5326 16.1606 12.458 16.9082 12.458 17.5C12.458 18.0918 12.5326 18.8394 12.6229 19.5276C12.7804 20.7275 13.6775 21.6636 14.8274 21.8279C15.487 21.9222 16.2033 22 16.7705 22C17.3377 22 18.0541 21.9222 18.7136 21.8279C19.8635 21.6636 20.7606 20.7275 20.9181 19.5276C21.0084 18.8394 21.083 18.0918 21.083 17.5C21.083 16.9082 21.0084 16.1606 20.9181 15.4724C20.7606 14.2725 19.8635 13.3364 18.7136 13.1721C18.0541 13.0778 17.3377 13 16.7705 13C16.2033 13 15.487 13.0778 14.8274 13.1721Z" fill="#777E91"/>
<path fill-rule="evenodd" clip-rule="evenodd" d="M6.22949 15C5.79615 15 5.18388 15.0625 4.54648 15.1536C4.2487 15.1962 4.02164 15.4331 3.98085 15.7438C3.89356 16.4089 3.83366 17.0478 3.83366 17.5C3.83366 17.9522 3.89356 18.5911 3.98085 19.2562C4.02164 19.5669 4.2487 19.8038 4.54648 19.8464C5.18388 19.9375 5.79615 20 6.22949 20C6.66283 20 7.27511 19.9375 7.91251 19.8464C8.21029 19.8038 8.43735 19.5669 8.47813 19.2562C8.56542 18.5911 8.62533 17.9522 8.62533 17.5C8.62533 17.0478 8.56542 16.4089 8.47813 15.7438C8.43735 15.4331 8.21029 15.1962 7.91251 15.1536C7.27511 15.0625 6.66283 15 6.22949 15ZM4.28641 13.1721C3.1365 13.3364 2.2394 14.2725 2.08191 15.4724C1.99159 16.1606 1.91699 16.9082 1.91699 17.5C1.91699 18.0918 1.99159 18.8394 2.08191 19.5276C2.2394 20.7275 3.1365 21.6636 4.28641 21.8279C4.94594 21.9222 5.66231 22 6.22949 22C6.79667 22 7.51304 21.9222 8.17257 21.8279C9.32248 21.6636 10.2196 20.7275 10.3771 19.5276C10.4674 18.8394 10.542 18.0918 10.542 17.5C10.542 16.9082 10.4674 16.1606 10.3771 15.4724C10.2196 14.2725 9.32248 13.3364 8.17257 13.1721C7.51304 13.0778 6.79667 13 6.22949 13C5.66231 13 4.94594 13.0778 4.28641 13.1721Z" fill="#777E91"/>
<path fill-rule="evenodd" clip-rule="evenodd" d="M16.7705 4C16.3372 4 15.7249 4.0625 15.0875 4.15359C14.7897 4.19615 14.5627 4.43308 14.5219 4.74381C14.4346 5.40893 14.3747 6.04782 14.3747 6.5C14.3747 6.95218 14.4346 7.59107 14.5219 8.25619C14.5627 8.56692 14.7897 8.80385 15.0875 8.84641C15.7249 8.9375 16.3372 9 16.7705 9C17.2038 9 17.8161 8.9375 18.4535 8.84641C18.7513 8.80385 18.9784 8.56692 19.0191 8.25619C19.1064 7.59107 19.1663 6.95218 19.1663 6.5C19.1663 6.04782 19.1064 5.40893 19.0191 4.74381C18.9784 4.43308 18.7513 4.19615 18.4535 4.15359C17.8161 4.0625 17.2038 4 16.7705 4ZM14.8274 2.17209C13.6775 2.33642 12.7804 3.27253 12.6229 4.47244C12.5326 5.16065 12.458 5.90816 12.458 6.5C12.458 7.09184 12.5326 7.83935 12.6229 8.52756C12.7804 9.72747 13.6775 10.6636 14.8274 10.8279C15.487 10.9222 16.2033 11 16.7705 11C17.3377 11 18.0541 10.9222 18.7136 10.8279C19.8635 10.6636 20.7606 9.72747 20.9181 8.52756C21.0084 7.83935 21.083 7.09184 21.083 6.5C21.083 5.90816 21.0084 5.16065 20.9181 4.47244C20.7606 3.27253 19.8635 2.33642 18.7136 2.17209C18.0541 2.07784 17.3377 2 16.7705 2C16.2033 2 15.487 2.07784 14.8274 2.17209Z" fill="#777E91"/>
<path fill-rule="evenodd" clip-rule="evenodd" d="M6.22949 4C5.79615 4 5.18388 4.0625 4.54648 4.15359C4.2487 4.19615 4.02164 4.43308 3.98085 4.74381C3.89356 5.40893 3.83366 6.04782 3.83366 6.5C3.83366 6.95218 3.89356 7.59107 3.98085 8.25619C4.02164 8.56692 4.2487 8.80385 4.54648 8.84641C5.18388 8.9375 5.79615 9 6.22949 9C6.66283 9 7.27511 8.9375 7.91251 8.84641C8.21029 8.80385 8.43735 8.56692 8.47813 8.25619C8.56542 7.59107 8.62533 6.95218 8.62533 6.5C8.62533 6.04782 8.56542 5.40893 8.47813 4.74381C8.43735 4.43308 8.21029 4.19615 7.91251 4.15359C7.27511 4.0625 6.66283 4 6.22949 4ZM4.28641 2.17209C3.1365 2.33642 2.2394 3.27253 2.08191 4.47244C1.99159 5.16065 1.91699 5.90816 1.91699 6.5C1.91699 7.09184 1.99159 7.83935 2.08191 8.52756C2.2394 9.72747 3.1365 10.6636 4.28641 10.8279C4.94594 10.9222 5.66231 11 6.22949 11C6.79667 11 7.51304 10.9222 8.17257 10.8279C9.32248 10.6636 10.2196 9.72747 10.3771 8.52756C10.4674 7.83935 10.542 7.09184 10.542 6.5C10.542 5.90816 10.4674 5.16065 10.3771 4.47244C10.2196 3.27253 9.32248 2.33642 8.17257 2.17209C7.51304 2.07784 6.79667 2 6.22949 2C5.66231 2 4.94594 2.07784 4.28641 2.17209Z" fill="#777E91"/>
</svg>
