<svg width="23" height="24" viewBox="0 0 23 24" fill="none" xmlns="http://www.w3.org/2000/svg">
<path fill-rule="evenodd" clip-rule="evenodd" d="M9.58366 18V21C9.58366 21.5523 10.0127 22 10.542 22H12.4587C12.9879 22 13.417 21.5523 13.417 21V18H15.3337V21C15.3337 22.6569 14.0465 24 12.4587 24H10.542C8.95417 24 7.66699 22.6569 7.66699 21V18H9.58366Z" fill="#777E91"/>
<path fill-rule="evenodd" clip-rule="evenodd" d="M14.3747 13.2853L15.0925 12.6849C16.411 11.582 17.2497 9.89389 17.2497 8C17.2497 4.68629 14.6753 2 11.4997 2C8.32404 2 5.74967 4.68629 5.74967 8C5.74967 9.89389 6.58837 11.582 7.90683 12.6849L8.62467 13.2853V16C8.62467 16.5523 9.05373 17 9.58301 17H13.4163C13.9456 17 14.3747 16.5523 14.3747 16V13.2853ZM16.2913 14.2454V16C16.2913 17.6569 15.0042 19 13.4163 19H9.58301C7.99519 19 6.70801 17.6569 6.70801 16V14.2454C4.95529 12.7793 3.83301 10.5264 3.83301 8C3.83301 3.58172 7.26549 0 11.4997 0C15.7339 0 19.1663 3.58172 19.1663 8C19.1663 10.5264 18.0441 12.7793 16.2913 14.2454Z" fill="#777E91"/>
<path d="M10.261 8.29289C9.88673 7.90237 9.27994 7.90237 8.90569 8.29289C8.53144 8.68342 8.53144 9.31658 8.90569 9.70711L10.5417 11.4142V17H12.4583V11.4142L14.0943 9.70711C14.4686 9.31658 14.4686 8.68342 14.0943 8.29289C13.7201 7.90237 13.1133 7.90237 12.739 8.29289L11.5 9.58579L10.261 8.29289Z" fill="#777E91"/>
</svg>
