<svg width="23" height="24" viewBox="0 0 23 24" fill="none" xmlns="http://www.w3.org/2000/svg">
<path fill-rule="evenodd" clip-rule="evenodd" d="M0.958008 20C0.958008 19.4477 1.38707 19 1.91634 19H21.083C21.6123 19 22.0413 19.4477 22.0413 20C22.0413 20.5523 21.6123 21 21.083 21H1.91634C1.38707 21 0.958008 20.5523 0.958008 20Z" fill="#777E91"/>
<path d="M19.1667 3C18.6374 3 18.2083 3.44772 18.2083 4V16C18.2083 16.5523 18.6374 17 19.1667 17C19.6959 17 20.125 16.5523 20.125 16V4C20.125 3.44772 19.6959 3 19.1667 3Z" fill="#777E91"/>
<path d="M11.5 5C10.9707 5 10.5417 5.44771 10.5417 6V16C10.5417 16.5523 10.9707 17 11.5 17C12.0293 17 12.4583 16.5523 12.4583 16V6C12.4583 5.44772 12.0293 5 11.5 5Z" fill="#777E91"/>
<path d="M6.70833 12C6.70833 11.4477 7.13739 11 7.66667 11C8.19594 11 8.625 11.4477 8.625 12V16C8.625 16.5523 8.19594 17 7.66667 17C7.13739 17 6.70833 16.5523 6.70833 16V12Z" fill="#777E91"/>
<path d="M2.875 14C2.875 13.4477 3.30406 13 3.83333 13C4.36261 13 4.79167 13.4477 4.79167 14V16C4.79167 16.5523 4.36261 17 3.83333 17C3.30406 17 2.875 16.5523 2.875 16V14Z" fill="#777E91"/>
<path d="M14.375 8C14.375 7.44772 14.8041 7 15.3333 7C15.8626 7 16.2917 7.44772 16.2917 8V16C16.2917 16.5523 15.8626 17 15.3333 17C14.8041 17 14.375 16.5523 14.375 16V8Z" fill="#777E91"/>
</svg>
