<svg width="24" height="24" viewBox="0 0 24 24" fill="none" xmlns="http://www.w3.org/2000/svg">
<path d="M21 3H3C1.89543 3 1 3.89543 1 5V16C1 17.1046 1.89543 18 3 18H5.48184C5.80677 18 6.11143 17.8421 6.29881 17.5767L9.5491 12.9721C10.7443 11.2788 13.2557 11.2788 14.4509 12.9721L17.7012 17.5767C17.8886 17.8421 18.1932 18 18.5182 18H21C22.1046 18 23 17.1046 23 16V5C23 3.89543 22.1046 3 21 3Z" fill="#777E91"/>
<path d="M7.19986 19.4003L11.1999 14.067C11.5999 13.5337 12.3999 13.5337 12.7999 14.067L16.7999 19.4003C17.2943 20.0596 16.8239 21.0003 15.9999 21.0003H7.99986C7.17582 21.0003 6.70544 20.0596 7.19986 19.4003Z" fill="#777E91"/>
</svg>
