<svg width="24" height="24" viewBox="0 0 24 24" fill="none" xmlns="http://www.w3.org/2000/svg">
<path fill-rule="evenodd" clip-rule="evenodd" d="M1 6C1 4.34315 2.34315 3 4 3H20C21.6569 3 23 4.34315 23 6V16C23 17.6569 21.6569 19 20 19H19C18.4477 19 18 18.5523 18 18C18 17.4477 18.4477 17 19 17H20C20.5523 17 21 16.5523 21 16V6C21 5.44772 20.5523 5 20 5H4C3.44772 5 3 5.44772 3 6V16C3 16.5523 3.44772 17 4 17H5C5.55228 17 6 17.4477 6 18C6 18.5523 5.55228 19 5 19H4C2.34315 19 1 17.6569 1 16V6Z" fill="#777E91"/>
<path d="M8.12944 19.419L11.1862 15.1395C11.5851 14.5811 12.4149 14.5811 12.8137 15.1395L15.8705 19.419C16.3433 20.0809 15.8702 21.0002 15.0568 21.0002H8.94317C8.1298 21.0002 7.65667 20.0809 8.12944 19.419Z" fill="#777E91"/>
</svg>
