<svg width="24" height="24" viewBox="0 0 24 24" fill="none" xmlns="http://www.w3.org/2000/svg">
<path d="M6.4388 13.3162C6.22296 12.6687 6.70493 12 7.38749 12H16.6126C17.2952 12 17.7772 12.6687 17.5613 13.3162L14.6325 22.1026C14.2548 23.2357 13.1944 24 12.0001 24C10.8057 24 9.7453 23.2357 9.3676 22.1026L6.4388 13.3162Z" fill="#777E91"/>
<path fill-rule="evenodd" clip-rule="evenodd" d="M16.9754 4.5007C17.0026 4.7755 17.2239 5 17.5 5C18.8807 5 20 6.11929 20 7.5C20 8.88071 18.8807 10 17.5 10H12H6.5C5.11929 10 4 8.88071 4 7.5C4 6.11929 5.11929 5 6.5 5C6.77614 5 6.99737 4.7755 7.02462 4.5007C7.27516 1.9737 9.40709 0 12 0C14.5929 0 16.7248 1.9737 16.9754 4.5007Z" fill="#777E91"/>
</svg>
