<svg width="23" height="24" viewBox="0 0 23 24" fill="none" xmlns="http://www.w3.org/2000/svg">
<path fill-rule="evenodd" clip-rule="evenodd" d="M6.15153 10C5.48881 10 5.02613 10.6851 5.24902 11.3363L8.93867 22.1165C9.32526 23.246 10.3506 24 11.5 24C12.6494 24 13.6747 23.246 14.0613 22.1165L17.7509 11.3363C17.9738 10.6851 17.5112 10 16.8484 10H6.15153ZM7.51141 12L10.7437 21.4438C10.8578 21.7774 11.1606 22 11.5 22C11.8394 22 12.1421 21.7774 12.2563 21.4438L15.4886 12H7.51141Z" fill="#777E91"/>
<path fill-rule="evenodd" clip-rule="evenodd" d="M7.56952 6.66416L6.5877 7.13572C6.0893 7.37511 5.74967 7.89826 5.74967 8.5C5.74967 9.32843 6.39326 10 7.18717 10H15.8122C16.6061 10 17.2497 9.32843 17.2497 8.5C17.2497 7.89826 16.9101 7.37511 16.4116 7.13573L15.4298 6.66417L15.3085 5.54348C15.0927 3.55023 13.4683 2 11.4997 2C9.53102 2 7.90668 3.55023 7.69086 5.54348L7.56952 6.66416ZM17.213 5.31894C16.889 2.32591 14.4546 0 11.4997 0C8.54472 0 6.11038 2.32591 5.78631 5.31894C4.63339 5.87268 3.83301 7.08881 3.83301 8.5C3.83301 10.433 5.33472 12 7.18717 12H15.8122C17.6646 12 19.1663 10.433 19.1663 8.5C19.1663 7.08881 18.366 5.87268 17.213 5.31894Z" fill="#777E91"/>
</svg>
