<svg width="23" height="24" viewBox="0 0 23 24" fill="none" xmlns="http://www.w3.org/2000/svg">
<path fill-rule="evenodd" clip-rule="evenodd" d="M10.1443 18.5859L17.811 10.5859C19.1796 9.15781 19.1796 6.84242 17.811 5.41433C16.4424 3.98624 14.2235 3.98624 12.8549 5.41433L5.18822 13.4143C3.81964 14.8424 3.81964 17.1578 5.18823 18.5859C6.55681 20.014 8.77573 20.014 10.1443 18.5859ZM11.4996 20.0001L19.1663 12.0001C21.2834 9.79097 21.2834 6.20926 19.1663 4.00012C17.0492 1.79098 13.6167 1.79098 11.4996 4.00012L3.83293 12.0001C1.71584 14.2093 1.71585 17.791 3.83294 20.0001C5.95003 22.2093 9.38251 22.2093 11.4996 20.0001Z" fill="#777E91"/>
<path fill-rule="evenodd" clip-rule="evenodd" d="M15.3331 15.9999C14.9588 16.3904 14.3521 16.3904 13.9778 15.9999L7.66643 9.41414C7.29218 9.02361 7.29218 8.39045 7.66643 7.99992C8.04068 7.6094 8.64747 7.6094 9.02172 7.99992L15.3331 14.5857C15.7074 14.9762 15.7074 15.6094 15.3331 15.9999Z" fill="#777E91"/>
</svg>
