<svg width="23" height="24" viewBox="0 0 23 24" fill="none" xmlns="http://www.w3.org/2000/svg">
<path fill-rule="evenodd" clip-rule="evenodd" d="M2.875 5C2.875 2.79086 4.59124 1 6.70833 1H14.7038C15.7205 1 16.6955 1.42143 17.4144 2.17157L19.0022 3.82843C19.7211 4.57857 20.125 5.59599 20.125 6.65685V19C20.125 21.2091 18.4088 23 16.2917 23H6.70833C4.59124 23 2.875 21.2091 2.875 19V5ZM18.2083 8V19C18.2083 20.1046 17.3502 21 16.2917 21H6.70833C5.64979 21 4.79167 20.1046 4.79167 19V5C4.79167 3.89543 5.64979 3 6.70833 3H13.4167V5C13.4167 6.65685 14.7038 8 16.2917 8H18.2083ZM18.102 6C18.0079 5.7176 17.8534 5.45808 17.647 5.24264L16.0591 3.58579C15.8527 3.37035 15.604 3.20914 15.3333 3.11094V5C15.3333 5.55228 15.7624 6 16.2917 6H18.102Z" fill="#777E91"/>
<path d="M9.30297 10.2929C8.92872 9.90237 8.32193 9.90237 7.94768 10.2929C7.57343 10.6834 7.57343 11.3166 7.94768 11.7071L10.145 14L7.94768 16.2929C7.57343 16.6834 7.57343 17.3166 7.94768 17.7071C8.32193 18.0976 8.92872 18.0976 9.30297 17.7071L11.5003 15.4142L13.6977 17.7071C14.0719 18.0976 14.6787 18.0976 15.053 17.7071C15.4272 17.3166 15.4272 16.6834 15.053 16.2929L12.8556 14L15.053 11.7071C15.4272 11.3166 15.4272 10.6834 15.053 10.2929C14.6787 9.90237 14.0719 9.90237 13.6977 10.2929L11.5003 12.5858L9.30297 10.2929Z" fill="#777E91"/>
</svg>
