<svg width="23" height="24" viewBox="0 0 23 24" fill="none" xmlns="http://www.w3.org/2000/svg">
<path fill-rule="evenodd" clip-rule="evenodd" d="M20.1253 4.39637C20.1253 2.52466 18.5008 1.10994 16.736 1.44476L10.0277 2.71749C8.66066 2.97685 7.66699 4.21924 7.66699 5.6691V19.5H9.58366V9.83455L18.2087 8.19818V17.5H20.1253V4.39637ZM17.0789 3.4125C17.6672 3.3009 18.2087 3.77247 18.2087 4.39637V6.16537L9.58366 7.80173V5.6691C9.58366 5.18581 9.91488 4.77168 10.3706 4.68523L17.0789 3.4125Z" fill="#777E91"/>
<path fill-rule="evenodd" clip-rule="evenodd" d="M20.125 17.5C20.125 19.433 18.6233 21 16.7708 21C14.9184 21 13.4167 19.433 13.4167 17.5C13.4167 15.567 14.9184 14 16.7708 14C18.6233 14 20.125 15.567 20.125 17.5ZM18.2083 17.5C18.2083 18.3284 17.5647 19 16.7708 19C15.9769 19 15.3333 18.3284 15.3333 17.5C15.3333 16.6716 15.9769 16 16.7708 16C17.5647 16 18.2083 16.6716 18.2083 17.5Z" fill="#777E91"/>
<path fill-rule="evenodd" clip-rule="evenodd" d="M9.58333 19.5C9.58333 21.433 8.08162 23 6.22917 23C4.37671 23 2.875 21.433 2.875 19.5C2.875 17.567 4.37671 16 6.22917 16C8.08162 16 9.58333 17.567 9.58333 19.5ZM7.66667 19.5C7.66667 20.3284 7.02308 21 6.22917 21C5.43526 21 4.79167 20.3284 4.79167 19.5C4.79167 18.6716 5.43526 18 6.22917 18C7.02308 18 7.66667 18.6716 7.66667 19.5Z" fill="#777E91"/>
</svg>
