<svg width="23" height="24" viewBox="0 0 23 24" fill="none" xmlns="http://www.w3.org/2000/svg">
<path fill-rule="evenodd" clip-rule="evenodd" d="M17.25 17C18.8378 17 20.125 18.3431 20.125 20C20.125 21.6569 18.8378 23 17.25 23L7.66667 23C7.13739 23 6.70833 22.5523 6.70833 22C6.70833 21.4477 7.13739 21 7.66667 21L17.25 21C17.7793 21 18.2083 20.5523 18.2083 20C18.2083 19.4477 17.7793 19 17.25 19L7.66667 19C7.13739 19 6.70833 18.5523 6.70833 18C6.70833 17.4477 7.13739 17 7.66667 17L17.25 17Z" fill="#777E91"/>
<path fill-rule="evenodd" clip-rule="evenodd" d="M8.625 9C10.2128 9 11.5 10.3431 11.5 12C11.5 13.6569 10.2128 15 8.625 15L7.66667 15C7.13739 15 6.70833 14.5523 6.70833 14C6.70833 13.4477 7.13739 13 7.66667 13L8.625 13C9.15427 13 9.58333 12.5523 9.58333 12C9.58333 11.4477 9.15427 11 8.625 11L7.66667 11C7.13739 11 6.70833 10.5523 6.70833 10C6.70833 9.44772 7.13739 9 7.66667 9L8.625 9Z" fill="#777E91"/>
<path fill-rule="evenodd" clip-rule="evenodd" d="M12.458 1C14.0458 1 15.333 2.34315 15.333 4C15.333 5.65685 14.0458 7 12.458 7L7.66634 7C7.13707 7 6.70801 6.55228 6.70801 6C6.70801 5.44771 7.13707 5 7.66634 5L12.458 5C12.9873 5 13.4163 4.55228 13.4163 4C13.4163 3.44771 12.9873 3 12.458 3L7.66634 3C7.13707 3 6.70801 2.55228 6.70801 2C6.70801 1.44771 7.13707 1 7.66634 1L12.458 1Z" fill="#777E91"/>
<path fill-rule="evenodd" clip-rule="evenodd" d="M3.83333 1C4.36261 1 4.79167 1.44772 4.79167 2V22C4.79167 22.5523 4.36261 23 3.83333 23C3.30406 23 2.875 22.5523 2.875 22V2C2.875 1.44772 3.30406 1 3.83333 1Z" fill="#777E91"/>
</svg>
