<svg width="24" height="24" viewBox="0 0 24 24" fill="none" xmlns="http://www.w3.org/2000/svg">
<path fill-rule="evenodd" clip-rule="evenodd" d="M3 4C1.34315 4 0 5.34315 0 7V17C0 18.6569 1.34315 20 3 20H21C22.6569 20 24 18.6569 24 17V7C24 5.34315 22.6569 4 21 4H3ZM16 10C16 9.44771 16.4477 9 17 9H19C19.5523 9 20 9.44771 20 10C20 10.5523 19.5523 11 19 11H17C16.4477 11 16 10.5523 16 10ZM4 14C4 13.4477 4.44772 13 5 13C5.55228 13 6 13.4477 6 14C6 14.5523 5.55228 15 5 15C4.44772 15 4 14.5523 4 14ZM9 13C8.44771 13 8 13.4477 8 14C8 14.5523 8.44771 15 9 15H15C15.5523 15 16 14.5523 16 14C16 13.4477 15.5523 13 15 13H9ZM19 13C18.4477 13 18 13.4477 18 14C18 14.5523 18.4477 15 19 15C19.5523 15 20 14.5523 20 14C20 13.4477 19.5523 13 19 13ZM12 10C12 9.44771 12.4477 9 13 9C13.5523 9 14 9.44771 14 10C14 10.5523 13.5523 11 13 11C12.4477 11 12 10.5523 12 10ZM8 10C8 9.44771 8.44771 9 9 9C9.55229 9 10 9.44771 10 10C10 10.5523 9.55229 11 9 11C8.44771 11 8 10.5523 8 10ZM4 10C4 9.44771 4.44772 9 5 9C5.55228 9 6 9.44771 6 10C6 10.5523 5.55228 11 5 11C4.44772 11 4 10.5523 4 10Z" fill="#777E91"/>
</svg>
