<svg width="23" height="24" viewBox="0 0 23 24" fill="none" xmlns="http://www.w3.org/2000/svg">
<path fill-rule="evenodd" clip-rule="evenodd" d="M19.1667 6H3.83333C2.77479 6 1.91667 6.89543 1.91667 8V16C1.91667 17.1046 2.77479 18 3.83333 18H19.1667C20.2252 18 21.0833 17.1046 21.0833 16V8C21.0833 6.89543 20.2252 6 19.1667 6ZM3.83333 4C1.71624 4 0 5.79086 0 8V16C0 18.2091 1.71624 20 3.83333 20H19.1667C21.2838 20 23 18.2091 23 16V8C23 5.79086 21.2838 4 19.1667 4H3.83333Z" fill="#777E91"/>
<path d="M15.333 10C15.333 9.44772 15.7621 9 16.2913 9H18.208C18.7373 9 19.1663 9.44772 19.1663 10C19.1663 10.5523 18.7373 11 18.208 11H16.2913C15.7621 11 15.333 10.5523 15.333 10Z" fill="#777E91"/>
<path d="M3.83301 14C3.83301 13.4477 4.26207 13 4.79134 13C5.32061 13 5.74967 13.4477 5.74967 14C5.74967 14.5523 5.32061 15 4.79134 15C4.26207 15 3.83301 14.5523 3.83301 14Z" fill="#777E91"/>
<path d="M7.66634 14C7.66634 13.4477 8.0954 13 8.62467 13H14.3747C14.9039 13 15.333 13.4477 15.333 14C15.333 14.5523 14.9039 15 14.3747 15H8.62467C8.0954 15 7.66634 14.5523 7.66634 14Z" fill="#777E91"/>
<path d="M18.208 13C17.6787 13 17.2497 13.4477 17.2497 14C17.2497 14.5523 17.6787 15 18.208 15C18.7373 15 19.1663 14.5523 19.1663 14C19.1663 13.4477 18.7373 13 18.208 13Z" fill="#777E91"/>
<path d="M12.458 9C11.9287 9 11.4997 9.44772 11.4997 10C11.4997 10.5523 11.9287 11 12.458 11C12.9873 11 13.4163 10.5523 13.4163 10C13.4163 9.44772 12.9873 9 12.458 9Z" fill="#777E91"/>
<path d="M7.66634 10C7.66634 9.44772 8.0954 9 8.62467 9C9.15395 9 9.58301 9.44772 9.58301 10C9.58301 10.5523 9.15395 11 8.62467 11C8.0954 11 7.66634 10.5523 7.66634 10Z" fill="#777E91"/>
<path d="M4.79134 9C4.26207 9 3.83301 9.44772 3.83301 10C3.83301 10.5523 4.26207 11 4.79134 11C5.32061 11 5.74967 10.5523 5.74967 10C5.74967 9.44772 5.32061 9 4.79134 9Z" fill="#777E91"/>
</svg>
