<svg width="24" height="24" viewBox="0 0 24 24" fill="none" xmlns="http://www.w3.org/2000/svg">
<path fill-rule="evenodd" clip-rule="evenodd" d="M20 22H4C2.89543 22 2 21.1046 2 20V4C2 2.89543 2.89543 2 4 2H20C21.1046 2 22 2.89543 22 4V20C22 21.1046 21.1046 22 20 22ZM19 10C18.4477 10 18 9.55229 18 9V7.41424L11.4142 14H13C13.5523 14 14 14.4477 14 15C14 15.5523 13.5523 16 13 16H9C8.44772 16 8 15.5523 8 15V11C8 10.4477 8.44772 10 9 10C9.55228 10 10 10.4477 10 11V12.5858L16.5858 6H15C14.4477 6 14 5.55228 14 5C14 4.44772 14.4477 4 15 4H19C19.5523 4 20 4.44772 20 5V9C20 9.55229 19.5523 10 19 10Z" fill="#777E91"/>
</svg>
