<svg width="23" height="24" viewBox="0 0 23 24" fill="none" xmlns="http://www.w3.org/2000/svg">
<path fill-rule="evenodd" clip-rule="evenodd" d="M5.75033 4C4.69178 4 3.83366 4.89543 3.83366 6V18C3.83366 19.1046 4.69178 20 5.75033 20H17.2503C18.3089 20 19.167 19.1046 19.167 18V13C19.167 12.4477 19.5961 12 20.1253 12C20.6546 12 21.0837 12.4477 21.0837 13V18C21.0837 20.2091 19.3674 22 17.2503 22H5.75033C3.63323 22 1.91699 20.2091 1.91699 18V6C1.91699 3.79086 3.63323 2 5.75033 2H10.542C11.0713 2 11.5003 2.44772 11.5003 3C11.5003 3.55228 11.0713 4 10.542 4H5.75033Z" fill="#777E91"/>
<path fill-rule="evenodd" clip-rule="evenodd" d="M19.167 7C19.167 7.55229 19.5961 8 20.1253 8C20.6546 8 21.0837 7.55229 21.0837 7V3C21.0837 2.44772 20.6546 2 20.1253 2H16.292C15.7627 2 15.3337 2.44772 15.3337 3C15.3337 3.55228 15.7627 4 16.292 4L17.8117 4L9.58366 12.5858V11C9.58366 10.4477 9.1546 10 8.62533 10C8.09605 10 7.66699 10.4477 7.66699 11V15C7.66699 15.5523 8.09605 16 8.62533 16H12.4587C12.9879 16 13.417 15.5523 13.417 15C13.417 14.4477 12.9879 14 12.4587 14H10.939L19.167 5.41424V7Z" fill="#777E91"/>
</svg>
