<svg width="24" height="24" viewBox="0 0 24 24" fill="none" xmlns="http://www.w3.org/2000/svg">
<path fill-rule="evenodd" clip-rule="evenodd" d="M8 20C12.4183 20 16 16.4183 16 12C16 11.833 15.9949 11.6673 15.9848 11.5028L22.3686 10.3059C23.3145 10.1285 24 9.30258 24 8.34015V6C24 4.89543 23.1046 4 22 4H16.5C16.2239 4 16.0064 4.22733 15.9383 4.49494C15.718 5.36012 14.9337 6 14 6C13.0663 6 12.282 5.36012 12.0617 4.49494C11.9936 4.22733 11.7761 4 11.5 4H8C3.58172 4 0 7.58172 0 12C0 16.4183 3.58172 20 8 20ZM12 12C12 14.2091 10.2091 16 8 16C5.79086 16 4 14.2091 4 12C4 9.79086 5.79086 8 8 8C10.2091 8 12 9.79086 12 12Z" fill="#777E91"/>
<circle cx="8" cy="12" r="2" fill="#777E91"/>
</svg>
