<svg width="23" height="24" viewBox="0 0 23 24" fill="none" xmlns="http://www.w3.org/2000/svg">
<path fill-rule="evenodd" clip-rule="evenodd" d="M19.1667 9.23607V8C19.1667 6.89543 18.3085 6 17.25 6H3.83333C2.77479 6 1.91667 6.89543 1.91667 8V16C1.91667 17.1046 2.77479 18 3.83333 18H17.25C18.3085 18 19.1667 17.1046 19.1667 16V14.7639L20.5536 14.0403C20.8782 13.8709 21.0833 13.5247 21.0833 13.1459V10.8541C21.0833 10.4753 20.8782 10.1291 20.5536 9.95967L19.1667 9.23607ZM21.0833 8L21.4107 8.17082C22.3847 8.679 23 9.71779 23 10.8541V13.1459C23 14.2822 22.3847 15.321 21.4107 15.8292L21.0833 16C21.0833 18.2091 19.3671 20 17.25 20H3.83333C1.71624 20 0 18.2091 0 16V8C0 5.79086 1.71624 4 3.83333 4H17.25C19.3671 4 21.0833 5.79086 21.0833 8Z" fill="#777E91"/>
<path d="M4.79134 8C4.26207 8 3.83301 8.44772 3.83301 9V15C3.83301 15.5523 4.26207 16 4.79134 16C5.32061 16 5.74967 15.5523 5.74967 15V9C5.74967 8.44772 5.32061 8 4.79134 8Z" fill="#777E91"/>
<path d="M8.62467 8C8.0954 8 7.66634 8.44772 7.66634 9V15C7.66634 15.5523 8.0954 16 8.62467 16C9.15395 16 9.58301 15.5523 9.58301 15V9C9.58301 8.44772 9.15395 8 8.62467 8Z" fill="#777E91"/>
<path d="M11.4997 9C11.4997 8.44772 11.9287 8 12.458 8C12.9873 8 13.4163 8.44772 13.4163 9V15C13.4163 15.5523 12.9873 16 12.458 16C11.9287 16 11.4997 15.5523 11.4997 15V9Z" fill="#777E91"/>
<path d="M16.2913 8C15.7621 8 15.333 8.44772 15.333 9V15C15.333 15.5523 15.7621 16 16.2913 16C16.8206 16 17.2497 15.5523 17.2497 15V9C17.2497 8.44772 16.8206 8 16.2913 8Z" fill="#777E91"/>
</svg>
