<svg width="23" height="24" viewBox="0 0 23 24" fill="none" xmlns="http://www.w3.org/2000/svg">
<path fill-rule="evenodd" clip-rule="evenodd" d="M2.875 5C2.875 2.79086 4.59124 1 6.70833 1H14.7038C15.7205 1 16.6955 1.42143 17.4144 2.17157L19.0022 3.82843C19.7211 4.57857 20.125 5.59599 20.125 6.65685V19C20.125 21.2091 18.4088 23 16.2917 23H6.70833C4.59124 23 2.875 21.2091 2.875 19V5ZM18.2083 8V19C18.2083 20.1046 17.3502 21 16.2917 21H6.70833C5.64979 21 4.79167 20.1046 4.79167 19V5C4.79167 3.89543 5.64979 3 6.70833 3H13.4167V5C13.4167 6.65685 14.7038 8 16.2917 8H18.2083ZM18.102 6C18.0079 5.7176 17.8534 5.45808 17.647 5.24264L16.0591 3.58579C15.8527 3.37035 15.604 3.20914 15.3333 3.11094V5C15.3333 5.55228 15.7624 6 16.2917 6H18.102Z" fill="#777E91"/>
<path d="M8.62533 12C8.09605 12 7.66699 12.4477 7.66699 13C7.66699 13.5523 8.09605 14 8.62533 14H14.3753C14.9046 14 15.3337 13.5523 15.3337 13C15.3337 12.4477 14.9046 12 14.3753 12H8.62533Z" fill="#777E91"/>
<path d="M8.62533 16C8.09605 16 7.66699 16.4477 7.66699 17C7.66699 17.5523 8.09605 18 8.62533 18H11.5003C12.0296 18 12.4587 17.5523 12.4587 17C12.4587 16.4477 12.0296 16 11.5003 16H8.62533Z" fill="#777E91"/>
</svg>
