<svg width="24" height="24" viewBox="0 0 24 24" fill="none" xmlns="http://www.w3.org/2000/svg">
<path fill-rule="evenodd" clip-rule="evenodd" d="M12 13C13.8675 13 15.436 11.7202 15.8766 9.98988C16.0128 9.45467 16.4477 9 17 9H19.694C20.9111 9 21.846 10.078 21.6739 11.2828L20.368 20.4243C20.1568 21.9022 18.8911 23 17.3981 23H6.60191C5.10896 23 3.84319 21.9022 3.63206 20.4243L2.32614 11.2828C2.15402 10.078 3.08894 9 4.30604 9H6.99999C7.55227 9 7.98716 9.45467 8.12342 9.98988C8.56393 11.7202 10.1325 13 12 13Z" fill="#777E91"/>
<path d="M10 3C10 1.89543 10.8954 1 12 1C13.1046 1 14 1.89543 14 3V9C14 10.1046 13.1046 11 12 11C10.8954 11 10 10.1046 10 9V3Z" fill="#777E91"/>
<path d="M16 5C16 3.89543 16.8954 3 18 3C19.1046 3 20 3.89543 20 5V6.5C20 6.77614 19.7761 7 19.5 7H16.5C16.2239 7 16 6.77614 16 6.5V5Z" fill="#777E91"/>
<path d="M6 4C4.89543 4 4 4.89543 4 6V6.5C4 6.77614 4.22386 7 4.5 7H7.5C7.77614 7 8 6.77614 8 6.5V6C8 4.89543 7.10457 4 6 4Z" fill="#777E91"/>
</svg>
