<svg width="24" height="24" viewBox="0 0 24 24" fill="none" xmlns="http://www.w3.org/2000/svg">
<path d="M5 9H7V7C7 6.44772 7.44772 6 8 6C8.55228 6 9 6.44772 9 7V12.0004C9.58141 12.4371 10.2611 12.75 11 12.9V4C11 3.44772 11.4477 3 12 3C12.5523 3 13 3.44772 13 4V12.9C13.7389 12.75 14.4186 12.4371 15 12.0004V6C15 5.44772 15.4477 5 16 5C16.5523 5 17 5.44772 17 6V9H19V6C19 4.34315 17.6569 3 16 3C15.6098 3 15.2369 3.07452 14.8949 3.21009C14.5482 1.93647 13.3835 1 12 1C10.3431 1 9 2.34315 9 4V4.17071C8.68722 4.06015 8.35064 4 8 4C6.34315 4 5 5.34315 5 7V9Z" fill="#777E91"/>
<path fill-rule="evenodd" clip-rule="evenodd" d="M18.7066 10.0135C17.8417 12.898 15.1666 15 12.0005 15C8.8344 15 6.15926 12.898 5.2944 10.0135C4.76914 10.1004 4.39151 10.5948 4.4696 11.1414L5.61246 19.1414C5.68283 19.6341 6.10476 20 6.60241 20H17.3986C17.8963 20 18.3182 19.6341 18.3886 19.1414L19.5314 11.1414C19.6095 10.5948 19.2319 10.1004 18.7066 10.0135ZM18.0005 8C17.4482 8 17.0109 8.45223 16.9018 8.99362C16.441 11.279 14.4217 13 12.0005 13C9.57928 13 7.56001 11.279 7.09921 8.99362C6.99006 8.45223 6.55277 8 6.00049 8H5.45955C5.30319 8 5.14994 8.01186 5.00057 8.03468C3.40587 8.27836 2.25363 9.77175 2.4897 11.4243L3.63256 19.4243C3.84369 20.9022 5.10946 22 6.60241 22H17.3986C18.8916 22 20.1573 20.9022 20.3685 19.4243L21.5113 11.4243C21.7474 9.77173 20.5951 8.27832 19.0004 8.03467C18.8511 8.01186 18.6978 8 18.5415 8H18.0005Z" fill="#777E91"/>
</svg>
