<svg width="24" height="24" viewBox="0 0 24 24" fill="none" xmlns="http://www.w3.org/2000/svg">
<path fill-rule="evenodd" clip-rule="evenodd" d="M14 2C14 1.44772 13.5523 1 13 1H6C4.34315 1 3 2.34315 3 4V20C3 21.6569 4.34315 23 6 23H18C19.6569 23 21 21.6569 21 20V9C21 8.44772 20.5523 8 20 8H17C15.3431 8 14 6.65685 14 5V2ZM16.8001 12.6001C17.1315 12.1582 17.0419 11.5314 16.6001 11.2001C16.1583 10.8687 15.5315 10.9582 15.2001 11.4001L12.7677 14.6433L10.5548 13.168C10.0953 12.8617 9.47441 12.9858 9.16806 13.4454L7.16806 16.4454C6.8617 16.9049 6.98588 17.5258 7.44541 17.8321C7.90493 18.1385 8.5258 18.0143 8.83216 17.5548L10.2775 15.3868L12.4454 16.8321C12.887 17.1265 13.4817 17.0246 13.8001 16.6001L16.8001 12.6001Z" fill="#777E91"/>
<path d="M16.9774 1.17757C16.4681 0.963989 16 1.44777 16 2.00005V5.00005C16 5.55234 16.4477 6.00005 17 6.00005H20C20.5523 6.00005 21.0361 5.53194 20.8225 5.02262C20.73 4.80212 20.5972 4.59721 20.4142 4.41427L17.5858 1.58584C17.4028 1.40289 17.1979 1.27003 16.9774 1.17757Z" fill="#777E91"/>
</svg>
