<svg width="23" height="24" viewBox="0 0 23 24" fill="none" xmlns="http://www.w3.org/2000/svg">
<path fill-rule="evenodd" clip-rule="evenodd" d="M2.875 5C2.875 2.79086 4.59124 1 6.70833 1H14.7038C15.7205 1 16.6955 1.42143 17.4144 2.17157L19.0022 3.82843C19.7211 4.57857 20.125 5.59599 20.125 6.65685V19C20.125 21.2091 18.4088 23 16.2917 23H6.70833C4.59124 23 2.875 21.2091 2.875 19V5ZM18.2083 8V19C18.2083 20.1046 17.3502 21 16.2917 21H6.70833C5.64979 21 4.79167 20.1046 4.79167 19V5C4.79167 3.89543 5.64979 3 6.70833 3H13.4167V5C13.4167 6.65685 14.7038 8 16.2917 8H18.2083ZM18.102 6C18.0079 5.7176 17.8534 5.45808 17.647 5.24264L16.0591 3.58579C15.8527 3.37035 15.604 3.20914 15.3333 3.11094V5C15.3333 5.55228 15.7624 6 16.2917 6H18.102Z" fill="#777E91"/>
<path fill-rule="evenodd" clip-rule="evenodd" d="M15.9081 11.2001C16.3315 11.5314 16.4173 12.1582 16.0998 12.6001L13.2248 16.6001C12.9196 17.0246 12.3497 17.1265 11.9265 16.8321L9.8489 15.3868L8.46382 17.5548C8.17024 18.0143 7.57524 18.1385 7.13486 17.8321C6.69447 17.5258 6.57547 16.9049 6.86906 16.4454L8.78573 13.4454C9.07932 12.9858 9.67432 12.8617 10.1147 13.168L12.2354 14.6433L14.5664 11.4001C14.884 10.9582 15.4847 10.8687 15.9081 11.2001Z" fill="#777E91"/>
</svg>
