<svg width="24" height="24" viewBox="0 0 24 24" fill="none" xmlns="http://www.w3.org/2000/svg">
<path d="M13 16C13 15.4477 12.5523 15 12 15C11.4477 15 11 15.4477 11 16V19C11 20.6569 12.3431 22 14 22C15.6569 22 17 20.6569 17 19C17 18.4477 16.5523 18 16 18C15.4477 18 15 18.4477 15 19C15 19.5523 14.5523 20 14 20C13.4477 20 13 19.5523 13 19V16Z" fill="#777E91"/>
<path d="M19.9734 13.3246C20.9702 13.6568 21.9985 12.9068 21.7817 11.8786C20.7685 7.07571 16.3841 4 11.9997 4C7.61526 4 3.23083 7.07571 2.21771 11.8786C2.00083 12.9068 3.02915 13.6568 4.02602 13.3246C4.65804 13.1139 5.34133 13.1139 5.97335 13.3246L7.17091 13.7237C7.71219 13.9042 8.29369 13.9265 8.8472 13.7881L11.2721 13.1819C11.7498 13.0625 12.2496 13.0625 12.7273 13.1819L15.1522 13.7881C15.7057 13.9265 16.2872 13.9042 16.8285 13.7237L18.026 13.3246C18.658 13.1139 19.3413 13.1139 19.9734 13.3246Z" fill="#777E91"/>
<path d="M11 3C11 2.44772 11.4477 2 12 2C12.5523 2 13 2.44772 13 3V4C13 4.55228 12.5523 5 12 5C11.4477 5 11 4.55228 11 4V3Z" fill="#777E91"/>
</svg>
