<svg width="24" height="24" viewBox="0 0 24 24" fill="none" xmlns="http://www.w3.org/2000/svg">
<path d="M13 14C13 13.4477 12.5523 13 12 13C11.4477 13 11 13.4477 11 14V19C11 20.6569 12.3431 22 14 22C15.6569 22 17 20.6569 17 19C17 18.4477 16.5523 18 16 18C15.4477 18 15 18.4477 15 19C15 19.5523 14.5523 20 14 20C13.4477 20 13 19.5523 13 19V14Z" fill="#777E91"/>
<path fill-rule="evenodd" clip-rule="evenodd" d="M6.606 12.4272L7.80356 12.8264C7.98398 12.8865 8.17782 12.894 8.36232 12.8478L10.7872 12.2416C11.5834 12.0426 12.4164 12.0426 13.2126 12.2416L15.6374 12.8478C15.8219 12.894 16.0158 12.8865 16.1962 12.8264L17.3938 12.4272C17.8835 12.2639 18.392 12.1774 18.9016 12.1675C19.2564 12.1606 19.5421 11.8322 19.4261 11.4969C18.2845 8.19793 15.5443 6 11.9999 6C8.45544 6 5.71527 8.19793 4.57366 11.4969C4.45761 11.8322 4.74339 12.1606 5.09819 12.1675C5.60777 12.1774 6.11622 12.2639 6.606 12.4272ZM21.8277 12.8729C21.9985 13.9098 20.9704 14.6568 19.9735 14.3246C19.3415 14.1139 18.6582 14.1139 18.0262 14.3246L16.8286 14.7237C16.2874 14.9042 15.7059 14.9265 15.1524 14.7881L12.7275 14.1819C12.2498 14.0625 11.75 14.0625 11.2723 14.1819L8.84739 14.7881C8.29388 14.9265 7.71238 14.9042 7.1711 14.7237L5.97354 14.3246C5.34153 14.1139 4.65823 14.1139 4.02621 14.3246C3.02934 14.6568 2.00126 13.9098 2.17204 12.8729C2.99719 7.86317 6.7259 4 11.9999 4C17.2739 4 21.0026 7.86317 21.8277 12.8729Z" fill="#777E91"/>
<path d="M11 3C11 2.44772 11.4477 2 12 2V2C12.5523 2 13 2.44772 13 3V4C13 4.55228 12.5523 5 12 5V5C11.4477 5 11 4.55228 11 4V3Z" fill="#777E91"/>
</svg>
