<svg width="24" height="24" viewBox="0 0 24 24" fill="none" xmlns="http://www.w3.org/2000/svg">
<path d="M8.5939 10.0085C8.4084 9.82298 8.11041 9.81159 7.91935 9.99136C6.79346 11.0507 5.75085 12.4401 4.86437 13.9262C4.74856 14.1204 4.78174 14.3679 4.94159 14.5277L5.70674 15.2929C6.09726 15.6834 6.09726 16.3166 5.70674 16.7071C5.31622 17.0976 4.68305 17.0976 4.29253 16.7071L4.20298 16.6176C3.95821 16.3728 3.54489 16.4451 3.40613 16.7622C2.63157 18.5323 2.13165 20.2365 2.02225 21.5038C1.9985 21.7789 2.2207 22.0011 2.49582 21.9773C4.71771 21.7856 8.28226 20.3935 11.1913 18.4254C11.4468 18.2525 11.476 17.8906 11.2579 17.6725L10.2925 16.7071C9.902 16.3166 9.902 15.6834 10.2925 15.2929C10.6831 14.9024 11.3162 14.9024 11.7067 15.2929L12.9064 16.4925C13.0949 16.6811 13.3991 16.6891 13.5906 16.5036C15.0374 15.1019 15.9996 13.5509 15.9996 12C15.9996 10 13.9996 8 11.9996 8C11.525 8 11.0504 8.09009 10.5801 8.2566C10.2585 8.37046 10.192 8.77819 10.4333 9.01945L10.7067 9.29289C11.0973 9.68342 11.0973 10.3166 10.7067 10.7071C10.3162 11.0976 9.68305 11.0976 9.29253 10.7071L8.5939 10.0085Z" fill="#777E91"/>
<path d="M17 3C17 2.44772 16.5523 2 16 2C15.4477 2 15 2.44772 15 3V6.35361C15 6.69738 15.18 7.01258 15.4555 7.21821C15.9629 7.59697 16.403 8.03707 16.7818 8.54451C16.9874 8.81999 17.3026 9 17.6464 9H21C21.5523 9 22 8.55228 22 8C22 7.44772 21.5523 7 21 7H18.4142L20.7071 4.70711C21.0976 4.31658 21.0976 3.68342 20.7071 3.29289C20.3166 2.90237 19.6834 2.90237 19.2929 3.29289L17 5.58579V3Z" fill="#777E91"/>
</svg>
