<svg width="23" height="24" viewBox="0 0 23 24" fill="none" xmlns="http://www.w3.org/2000/svg">
<path fill-rule="evenodd" clip-rule="evenodd" d="M4.24404 19.5719C6.03336 19.0573 8.32899 18.0988 10.4258 16.7973C11.9146 15.8732 13.1937 14.8417 14.0787 13.7833C14.971 12.716 15.3337 11.7817 15.3337 11C15.3337 9.9545 15.0081 9.23866 14.5774 8.78921C14.1467 8.33977 13.4607 8 12.4587 8C11.7096 8 10.8142 8.37844 9.79142 9.30959C8.77711 10.233 7.78864 11.5678 6.90306 13.1213C5.65576 15.3093 4.73719 17.7048 4.24404 19.5719ZM1.93806 21.5045C2.28681 17.0954 6.92972 6 12.4587 6C15.3337 6 17.2504 8 17.2504 11C17.2504 16.7694 6.61739 21.6143 2.39194 21.9781C2.1282 22.0008 1.9163 21.7797 1.93806 21.5045Z" fill="#777E91"/>
<path d="M15.3333 2C15.8626 2 16.2917 2.44772 16.2917 3V5.58579L18.489 3.29289C18.8633 2.90237 19.4701 2.90237 19.8443 3.29289C20.2186 3.68342 20.2186 4.31658 19.8443 4.70711L17.647 7H20.125C20.6543 7 21.0833 7.44772 21.0833 8C21.0833 8.55228 20.6543 9 20.125 9H15.3333C15.0697 9 14.831 8.88894 14.6577 8.70922C14.6564 8.70781 14.655 8.7064 14.6537 8.70498C14.5628 8.6096 14.4941 8.49986 14.4477 8.38278C14.4009 8.26488 14.375 8.13559 14.375 8V3C14.375 2.44772 14.8041 2 15.3333 2Z" fill="#777E91"/>
<path d="M9.38486 7.79289C9.75911 7.40237 10.3659 7.40237 10.7401 7.79289L12.1776 9.29289C12.5519 9.68342 12.5519 10.3166 12.1776 10.7071C11.8034 11.0976 11.1966 11.0976 10.8224 10.7071L9.38486 9.20711C9.0106 8.81658 9.0106 8.18342 9.38486 7.79289Z" fill="#777E91"/>
<path d="M4.59319 13.7929C4.96744 13.4024 5.57422 13.4024 5.94848 13.7929L7.38598 15.2929C7.76023 15.6834 7.76023 16.3166 7.38598 16.7071C7.01172 17.0976 6.40494 17.0976 6.03069 16.7071L4.59319 15.2071C4.21894 14.8166 4.21894 14.1834 4.59319 13.7929Z" fill="#777E91"/>
<path d="M11.2193 13.2929C10.8451 12.9024 10.2383 12.9024 9.86402 13.2929C9.48977 13.6834 9.48977 14.3166 9.86402 14.7071L11.7807 16.7071C12.1549 17.0976 12.7617 17.0976 13.136 16.7071C13.5102 16.3166 13.5102 15.6834 13.136 15.2929L11.2193 13.2929Z" fill="#777E91"/>
</svg>
