<svg width="24" height="24" viewBox="0 0 24 24" fill="none" xmlns="http://www.w3.org/2000/svg">
<path d="M2 18C2 17.4477 2.44772 17 3 17H5C5.55228 17 6 17.4477 6 18V20C6 21.1046 5.10457 22 4 22C2.89543 22 2 21.1046 2 20V18Z" fill="#777E91"/>
<path fill-rule="evenodd" clip-rule="evenodd" d="M6.5 3C4.01472 3 2 5.01472 2 7.5V10V12V14C2 14.5523 2.44772 15 3 15H5C5.55228 15 6 14.5523 6 14V12H6.5C8.98528 12 11 9.98528 11 7.5C11 5.01472 8.98528 3 6.5 3Z" fill="#777E91"/>
<path d="M22 18C22 17.4477 21.5523 17 21 17H19C18.4477 17 18 17.4477 18 18V20C18 21.1046 18.8954 22 20 22C21.1046 22 22 21.1046 22 20V18Z" fill="#777E91"/>
<path fill-rule="evenodd" clip-rule="evenodd" d="M17.5 3C19.9853 3 22 5.01472 22 7.5V10V12V14C22 14.5523 21.5523 15 21 15H19C18.4477 15 18 14.5523 18 14V12H17.5C15.0147 12 13 9.98528 13 7.5C13 5.01472 15.0147 3 17.5 3Z" fill="#777E91"/>
</svg>
