<svg width="24" height="24" viewBox="0 0 24 24" fill="none" xmlns="http://www.w3.org/2000/svg">
<path fill-rule="evenodd" clip-rule="evenodd" d="M19 11.2652V18C19 18.5523 19.4477 19 20 19C20.5523 19 21 18.5523 21 18V8C21 6.34315 19.6569 5 18 5C16.3431 5 15 6.34315 15 8C15 9.44905 16.0294 10.6622 17.3979 10.94L19 11.2652ZM17 12.9V18C17 19.6569 18.3431 21 20 21C21.6569 21 23 19.6569 23 18V8C23 5.23858 20.7614 3 18 3C15.2386 3 13 5.23858 13 8C13 10.419 14.7178 12.4367 17 12.9Z" fill="#777E91"/>
<path d="M21 15H19V17H21V15Z" fill="#777E91"/>
<path fill-rule="evenodd" clip-rule="evenodd" d="M5 11.2652L6.60214 10.94C7.97064 10.6622 9 9.44905 9 8C9 6.34315 7.65685 5 6 5C4.34315 5 3 6.34315 3 8V18C3 18.5523 3.44772 19 4 19C4.55228 19 5 18.5523 5 18V11.2652ZM1 8C1 5.23858 3.23858 3 6 3C8.76142 3 11 5.23858 11 8C11 10.419 9.28224 12.4367 7 12.9V18C7 19.6569 5.65685 21 4 21C2.34315 21 1 19.6569 1 18V8Z" fill="#777E91"/>
<path d="M3 15H5V17H3V15Z" fill="#777E91"/>
</svg>
