<svg width="23" height="24" viewBox="0 0 23 24" fill="none" xmlns="http://www.w3.org/2000/svg">
<path fill-rule="evenodd" clip-rule="evenodd" d="M10.0705 11.1595L3.39454 6.66511C2.75683 6.2358 1.91667 6.71351 1.91667 7.50541V16.4941C1.91667 17.286 2.75683 17.7637 3.39454 17.3344L10.0705 12.8401C10.6556 12.4462 10.6556 11.5533 10.0705 11.1595ZM4.43361 4.98452C2.5205 3.69659 0 5.12971 0 7.50541V16.4941C0 18.8698 2.5205 20.3029 4.43362 19.015L11.1096 14.5206C12.8648 13.339 12.8648 10.6605 11.1096 9.47887L4.43361 4.98452Z" fill="#777E91"/>
<path fill-rule="evenodd" clip-rule="evenodd" d="M20.6125 11.1595L13.9365 6.66511C13.2988 6.2358 12.4587 6.71351 12.4587 7.50541V16.4941C12.4587 17.286 13.2988 17.7637 13.9365 17.3344L20.6125 12.8401C21.1976 12.4462 21.1976 11.5533 20.6125 11.1595ZM14.9756 4.98452C13.0625 3.69659 10.542 5.12971 10.542 7.50541V16.4941C10.542 18.8698 13.0625 20.3029 14.9756 19.015L21.6516 14.5206C23.4068 13.339 23.4068 10.6605 21.6516 9.47887L14.9756 4.98452Z" fill="#777E91"/>
</svg>
