<svg width="23" height="24" viewBox="0 0 23 24" fill="none" xmlns="http://www.w3.org/2000/svg">
<path fill-rule="evenodd" clip-rule="evenodd" d="M20.1253 18V6C20.1253 5.44772 19.6963 5 19.167 5C18.6377 5 18.2087 5.44772 18.2087 6V18C18.2087 18.5523 18.6377 19 19.167 19C19.6963 19 20.1253 18.5523 20.1253 18ZM19.167 3C17.5792 3 16.292 4.34315 16.292 6V18C16.292 19.6569 17.5792 21 19.167 21C20.7548 21 22.042 19.6569 22.042 18V6C22.042 4.34315 20.7548 3 19.167 3Z" fill="#777E91"/>
<path fill-rule="evenodd" clip-rule="evenodd" d="M12.4583 18V15C12.4583 14.4477 12.0293 14 11.5 14C10.9707 14 10.5417 14.4477 10.5417 15V18C10.5417 18.5523 10.9707 19 11.5 19C12.0293 19 12.4583 18.5523 12.4583 18ZM11.5 12C9.91218 12 8.625 13.3431 8.625 15V18C8.625 19.6569 9.91218 21 11.5 21C13.0878 21 14.375 19.6569 14.375 18V15C14.375 13.3431 13.0878 12 11.5 12Z" fill="#777E91"/>
<path fill-rule="evenodd" clip-rule="evenodd" d="M4.79134 18V11C4.79134 10.4477 4.36228 10 3.83301 10C3.30373 10 2.87467 10.4477 2.87467 11V18C2.87467 18.5523 3.30373 19 3.83301 19C4.36228 19 4.79134 18.5523 4.79134 18ZM3.83301 8C2.24519 8 0.958008 9.34315 0.958008 11V18C0.958008 19.6569 2.24519 21 3.83301 21C5.42083 21 6.70801 19.6569 6.70801 18V11C6.70801 9.34315 5.42083 8 3.83301 8Z" fill="#777E91"/>
</svg>
