<svg width="24" height="24" viewBox="0 0 24 24" fill="none" xmlns="http://www.w3.org/2000/svg">
<path d="M10.2049 3.12663C10.414 2.76069 10.1044 2.31608 9.68859 2.38537L7.74516 2.70927C7.44811 2.75878 7.26191 3.0577 7.34844 3.34614L7.95377 5.36391C8.08003 5.78478 8.6488 5.84982 8.86681 5.46831L10.2049 3.12663Z" fill="#777E91"/>
<path d="M5.63328 4.59146C5.5218 4.21987 5.04976 4.11293 4.79658 4.40687C4.01146 5.31839 3.26993 6.27606 2.50204 7.19753C2.45931 7.24881 2.41854 7.30117 2.37973 7.35453C2.17149 7.64081 2.40808 7.99994 2.76209 7.99994H5.9838C6.31874 7.99994 6.55896 7.67707 6.46272 7.35626L5.63328 4.59146Z" fill="#777E91"/>
<path d="M2.61638 10C2.28005 10 2.04125 10.3278 2.20966 10.6189C2.2637 10.7123 2.32321 10.8036 2.3882 10.8922L9.58143 20.7011C9.7017 20.8652 9.83447 21.0127 9.97725 21.1438C10.2879 21.429 10.6772 21.1003 10.553 20.6973L7.36523 10.3527C7.30062 10.143 7.10683 10 6.88741 10H2.61638Z" fill="#777E91"/>
<path d="M13.4475 20.6975C13.3233 21.1005 13.7125 21.4293 14.0232 21.1441C14.1661 21.0129 14.299 20.8653 14.4194 20.7011L21.6126 10.8922C21.6776 10.8036 21.7371 10.7123 21.7911 10.6189C21.9595 10.3278 21.7207 10 21.3844 10H17.1133C16.8938 10 16.7 10.143 16.6354 10.3527L13.4475 20.6975Z" fill="#777E91"/>
<path d="M21.2378 7.99984C21.5918 7.99984 21.8284 7.64071 21.6202 7.35442C21.5813 7.30107 21.5406 7.24871 21.4978 7.19743C20.7299 6.27591 19.9884 5.31817 19.2032 4.40662C18.95 4.11269 18.478 4.21963 18.3665 4.59121L17.537 7.35616C17.4408 7.67697 17.681 7.99984 18.016 7.99984H21.2378Z" fill="#777E91"/>
<path d="M16.2555 2.7093C16.5525 2.75881 16.7387 3.05773 16.6522 3.34617L16.0468 5.36409C15.9206 5.78496 15.3518 5.84999 15.1338 5.46848L13.7956 3.12664C13.5865 2.76069 13.8962 2.31608 14.3119 2.38537L16.2555 2.7093Z" fill="#777E91"/>
<path d="M11.9999 4.01562L13.8493 7.252C14.0398 7.58531 13.7991 8.00006 13.4152 8.00006H10.5847C10.2008 8.00006 9.96012 7.58533 10.1506 7.252L11.9999 4.01562Z" fill="#777E91"/>
<path d="M12.4775 17.0464C12.3327 17.5171 11.6665 17.5171 11.5217 17.0464L9.55272 10.647C9.45379 10.3255 9.69421 10 10.0306 10H13.9687C14.3051 10 14.5455 10.3255 14.4466 10.647L12.4775 17.0464Z" fill="#777E91"/>
</svg>
