<svg width="23" height="24" viewBox="0 0 23 24" fill="none" xmlns="http://www.w3.org/2000/svg">
<path fill-rule="evenodd" clip-rule="evenodd" d="M3.83364 9.70927L10.7271 19.5182C11.1101 20.0631 11.8899 20.0631 12.2727 19.5182L19.1663 9.70927C19.4267 9.33873 19.4116 8.83071 19.1297 8.47772L16.4608 5.13579C16.3138 4.9518 16.1085 4.82895 15.8821 4.78958L11.6575 4.05487C11.5532 4.03672 11.4468 4.03672 11.3424 4.05487L7.1178 4.78958C6.89141 4.82895 6.68607 4.9518 6.53914 5.13579L3.87024 8.47772C3.58834 8.83071 3.57324 9.33873 3.83364 9.70927ZM2.28804 10.892L9.18155 20.7009C10.3303 22.3355 12.6697 22.3355 13.8183 20.7009L20.7119 10.892C21.4931 9.78039 21.4478 8.25632 20.6021 7.19735L17.9332 3.85542C17.4924 3.30346 16.8764 2.93491 16.1972 2.81679L11.9726 2.08208C11.6597 2.02765 11.3403 2.02765 11.0273 2.08208L6.80271 2.81679C6.12352 2.93491 5.50752 3.30346 5.06672 3.85542L2.39781 7.19735C1.55211 8.25632 1.50683 9.78039 2.28804 10.892Z" fill="#777E91"/>
<path fill-rule="evenodd" clip-rule="evenodd" d="M16.0241 10H19.1667C19.696 10 20.125 9.55228 20.125 9C20.125 8.44772 19.696 8 19.1667 8H16.6215L17.4134 5.24541C17.5655 4.71642 17.2779 4.15894 16.7709 4.00024C16.264 3.84154 15.7297 4.14172 15.5776 4.67072L15.0009 6.67682L12.7397 3.13762C12.4633 2.7051 11.9981 2.44531 11.5 2.44531C11.0019 2.44531 10.5367 2.7051 10.2603 3.13762L7.99924 6.6767L7.42252 4.67072C7.27043 4.14172 6.73618 3.84154 6.22922 4.00024C5.72228 4.15894 5.4346 4.71642 5.58668 5.24541L6.37863 8H3.83333C3.30406 8 2.875 8.44772 2.875 9C2.875 9.55228 3.30406 10 3.83333 10H6.97594L10.3033 20.4162C10.4751 20.9537 10.9571 21.3162 11.5 21.3162C12.0429 21.3162 12.5249 20.9537 12.6967 20.4162L16.0241 10ZM13.5427 8L11.5 4.80279L9.45734 8H13.5427ZM8.99629 10L11.5 17.8377L14.0037 10H8.99629Z" fill="#777E91"/>
</svg>
