<svg width="24" height="24" viewBox="0 0 24 24" fill="none" xmlns="http://www.w3.org/2000/svg">
<path d="M11.8535 21.1466C11.5385 21.4616 11.7616 22.0002 12.2071 22.0002H19.9999C21.1044 22.0002 21.9999 21.1048 21.9999 20.0002V16.0002C21.9999 14.8956 21.1044 14.0002 19.9999 14.0002H19.2071C19.0744 14.0002 18.9473 14.0529 18.8535 14.1466L11.8535 21.1466Z" fill="#777E91"/>
<path d="M11.9999 16.793C11.9999 17.2385 12.5385 17.4616 12.8535 17.1466L20.5856 9.4144C21.3667 8.63335 21.3667 7.36702 20.5856 6.58597L17.4141 3.4144C16.633 2.63335 15.3667 2.63335 14.5856 3.4144L12.1464 5.85368C12.0526 5.94745 11.9999 6.07463 11.9999 6.20724V16.793Z" fill="#777E91"/>
<path fill-rule="evenodd" clip-rule="evenodd" d="M4 2C2.89543 2 2 2.89543 2 4V20C2 21.1046 2.89543 22 4 22H8C9.10457 22 10 21.1046 10 20V4C10 2.89543 9.10457 2 8 2H4ZM6 19C6.55228 19 7 18.5523 7 18C7 17.4477 6.55228 17 6 17C5.44772 17 5 17.4477 5 18C5 18.5523 5.44772 19 6 19Z" fill="#777E91"/>
</svg>
