<svg width="24" height="24" viewBox="0 0 24 24" fill="none" xmlns="http://www.w3.org/2000/svg">
<path d="M8 22L19.0004 22C20.6572 22 22.0004 20.6569 22.0004 19V15C22.0004 13.3432 20.657 12 19.0001 12L19.8788 11.1214C21.0504 9.94978 21.0504 8.05029 19.8788 6.87872L17.1214 4.12136C15.9499 2.94978 14.0504 2.94978 12.8788 4.12135L12.0003 4.99983C12.0003 4.99977 12.0003 4.99989 12.0003 4.99983V7.82826L14.293 5.53557C14.6835 5.14505 15.3167 5.14504 15.7072 5.53557L18.4646 8.29293C18.8551 8.68345 18.8551 9.31662 18.4646 9.70714L12.0003 16.1714V18.9998L17.0001 14H19.0004C19.5527 14 20.0004 14.4478 20.0004 15V19C20.0004 19.5523 19.5527 20 19.0004 20H11.8296C11.4178 21.1652 10.3065 22 9.00033 22L8 22Z" fill="#777E91"/>
<path fill-rule="evenodd" clip-rule="evenodd" d="M9 4H5C4.44771 4 4 4.44772 4 5V19C4 19.5523 4.44772 20 5 20H9C9.55229 20 10 19.5523 10 19V5C10 4.44772 9.55228 4 9 4ZM5 2C3.34315 2 2 3.34315 2 5V19C2 20.6569 3.34315 22 5 22H9C10.6569 22 12 20.6569 12 19V5C12 3.34315 10.6569 2 9 2H5Z" fill="#777E91"/>
<path d="M8 17C8 17.5523 7.55228 18 7 18C6.44772 18 6 17.5523 6 17C6 16.4477 6.44772 16 7 16C7.55228 16 8 16.4477 8 17Z" fill="#777E91"/>
</svg>
