<svg width="24" height="24" viewBox="0 0 24 24" fill="none" xmlns="http://www.w3.org/2000/svg">
<path fill-rule="evenodd" clip-rule="evenodd" d="M18.818 14.1249C18.2016 13.4102 17.1428 13.4471 16.3149 13.9002C15.0338 14.6014 13.5635 15.0001 12 15.0001C10.4365 15.0001 8.96618 14.6014 7.68505 13.9002C6.85717 13.4471 5.79841 13.4102 5.182 14.1249C3.82222 15.7015 3 17.7548 3 20.0001V21.0001C3 22.1047 3.89543 23.0001 5 23.0001H19C20.1046 23.0001 21 22.1047 21 21.0001V20.0001C21 17.7548 20.1778 15.7015 18.818 14.1249Z" fill="#777E91"/>
<path d="M17 6C17 8.76142 14.7614 11 12 11C9.23858 11 7 8.76142 7 6C7 3.23858 9.23858 1 12 1C14.7614 1 17 3.23858 17 6Z" fill="#777E91"/>
</svg>
