<svg width="23" height="24" viewBox="0 0 23 24" fill="none" xmlns="http://www.w3.org/2000/svg">
<path d="M18.2087 8C19.7965 8 21.0837 9.34315 21.0837 11V19C21.0837 20.6569 19.7965 22 18.2087 22H10.542C8.95417 22 7.66699 20.6569 7.66699 19C7.66699 18.4477 8.09605 18 8.62533 18C9.1546 18 9.58366 18.4477 9.58366 19C9.58366 19.5523 10.0127 20 10.542 20H18.2087C18.7379 20 19.167 19.5523 19.167 19V11C19.167 10.4477 18.7379 10 18.2087 10C17.6794 10 17.2503 9.55229 17.2503 9C17.2503 8.44771 17.6794 8 18.2087 8Z" fill="#777E91"/>
<path fill-rule="evenodd" clip-rule="evenodd" d="M8.62533 14C11.2717 14 13.417 11.7614 13.417 9C13.417 6.23858 11.2717 4 8.62533 4C5.97896 4 3.83366 6.23858 3.83366 9C3.83366 11.7614 5.97896 14 8.62533 14ZM8.62533 16C12.3302 16 15.3337 12.866 15.3337 9C15.3337 5.13401 12.3302 2 8.62533 2C4.92042 2 1.91699 5.13401 1.91699 9C1.91699 12.866 4.92042 16 8.62533 16Z" fill="#777E91"/>
</svg>
