<svg width="23" height="24" viewBox="0 0 23 24" fill="none" xmlns="http://www.w3.org/2000/svg">
<path fill-rule="evenodd" clip-rule="evenodd" d="M14.3747 19.7082C14.5949 19.6397 14.8121 19.5593 15.0252 19.4672C15.8391 19.1154 16.5786 18.5998 17.2015 17.9497C17.8245 17.2997 18.3186 16.5281 18.6557 15.6788C18.744 15.4564 18.8211 15.2298 18.8867 15L14.3747 15L14.3747 19.7082ZM13.4144 21.9445C12.8884 22.0057 12.458 21.5523 12.458 21L12.458 14C12.458 13.4477 12.8871 13 13.4164 13L20.1247 13C20.654 13 21.0885 13.4491 21.0298 13.998C20.9401 14.8372 20.7374 15.6609 20.4265 16.4442C19.993 17.5361 19.3577 18.5282 18.5568 19.364C17.7559 20.1997 16.8051 20.8626 15.7587 21.3149C15.008 21.6394 14.2187 21.8509 13.4144 21.9445Z" fill="#777E91"/>
<path fill-rule="evenodd" clip-rule="evenodd" d="M18.8867 9.00011C18.821 8.77029 18.744 8.54371 18.6557 8.32132C18.3186 7.47204 17.8245 6.70037 17.2015 6.05036C16.5786 5.40035 15.8391 4.88473 15.0252 4.53295C14.8121 4.44083 14.5949 4.36042 14.3747 4.2919L14.3747 9.00011L18.8867 9.00011ZM21.0298 10.0022C21.0885 10.551 20.654 11.0001 20.1247 11.0001L13.4164 11.0001C12.8871 11.0001 12.458 10.5524 12.458 10.0001L12.458 3.00011C12.458 2.44782 12.8884 1.99436 13.4144 2.0556C14.2187 2.14925 15.008 2.36074 15.7587 2.68519C16.8051 3.13748 17.7559 3.80042 18.5568 4.63614C19.3577 5.47187 19.993 6.46403 20.4265 7.55596C20.7374 8.33924 20.9401 9.16286 21.0298 10.0022Z" fill="#777E91"/>
<path fill-rule="evenodd" clip-rule="evenodd" d="M8.62533 5.29189C7.56722 5.62112 6.59336 6.22094 5.79849 7.05037C4.54043 8.36312 3.83366 10.1436 3.83366 12.0001C3.83366 13.8566 4.54043 15.6371 5.79848 16.9499C6.59336 17.7793 7.56721 18.3791 8.62533 18.7083L8.62533 5.29189ZM9.58556 3.05559C10.1116 2.99437 10.542 3.44784 10.542 4.00012L10.542 20.0001C10.542 20.5524 10.1116 21.0059 9.58556 20.9446C7.64995 20.7193 5.83364 19.815 4.4432 18.3641C2.8257 16.6763 1.91699 14.3871 1.91699 12.0001C1.91699 9.61317 2.8257 7.32398 4.4432 5.63616C5.83365 4.18525 7.64996 3.2809 9.58556 3.05559Z" fill="#777E91"/>
</svg>
