<svg width="23" height="24" viewBox="0 0 23 24" fill="none" xmlns="http://www.w3.org/2000/svg">
<path d="M17.2503 3C16.7211 3 16.292 3.44772 16.292 4C16.292 4.55228 16.7211 5 17.2503 5H21.0837C21.6129 5 22.042 4.55228 22.042 4C22.042 3.44772 21.6129 3 21.0837 3H17.2503Z" fill="#777E91"/>
<path d="M16.292 8C16.292 7.44772 16.7211 7 17.2503 7H21.0837C21.6129 7 22.042 7.44772 22.042 8C22.042 8.55229 21.6129 9 21.0837 9H17.2503C16.7211 9 16.292 8.55229 16.292 8Z" fill="#777E91"/>
<path d="M17.2503 11C16.7211 11 16.292 11.4477 16.292 12C16.292 12.5523 16.7211 13 17.2503 13H21.0837C21.6129 13 22.042 12.5523 22.042 12C22.042 11.4477 21.6129 11 21.0837 11H17.2503Z" fill="#777E91"/>
<path d="M16.292 16C16.292 15.4477 16.7211 15 17.2503 15H21.0837C21.6129 15 22.042 15.4477 22.042 16C22.042 16.5523 21.6129 17 21.0837 17H17.2503C16.7211 17 16.292 16.5523 16.292 16Z" fill="#777E91"/>
<path d="M16.292 20C16.292 19.4477 16.7211 19 17.2503 19H21.0837C21.6129 19 22.042 19.4477 22.042 20C22.042 20.5523 21.6129 21 21.0837 21H17.2503C16.7211 21 16.292 20.5523 16.292 20Z" fill="#777E91"/>
<path d="M9.58333 11C9.05406 11 8.625 11.4477 8.625 12C8.625 12.5523 9.05406 13 9.58333 13H13.4167C13.9459 13 14.375 12.5523 14.375 12C14.375 11.4477 13.9459 11 13.4167 11H9.58333Z" fill="#777E91"/>
<path d="M8.625 16C8.625 15.4477 9.05406 15 9.58333 15H13.4167C13.9459 15 14.375 15.4477 14.375 16C14.375 16.5523 13.9459 17 13.4167 17H9.58333C9.05406 17 8.625 16.5523 8.625 16Z" fill="#777E91"/>
<path d="M8.625 20C8.625 19.4477 9.05406 19 9.58333 19H13.4167C13.9459 19 14.375 19.4477 14.375 20C14.375 20.5523 13.9459 21 13.4167 21H9.58333C9.05406 21 8.625 20.5523 8.625 20Z" fill="#777E91"/>
<path d="M1.91634 7C1.38707 7 0.958008 7.44772 0.958008 8C0.958008 8.55229 1.38707 9 1.91634 9H5.74967C6.27895 9 6.70801 8.55229 6.70801 8C6.70801 7.44772 6.27895 7 5.74967 7H1.91634Z" fill="#777E91"/>
<path d="M0.958008 12C0.958008 11.4477 1.38707 11 1.91634 11H5.74967C6.27895 11 6.70801 11.4477 6.70801 12C6.70801 12.5523 6.27895 13 5.74967 13H1.91634C1.38707 13 0.958008 12.5523 0.958008 12Z" fill="#777E91"/>
<path d="M1.91634 15C1.38707 15 0.958008 15.4477 0.958008 16C0.958008 16.5523 1.38707 17 1.91634 17H5.74967C6.27895 17 6.70801 16.5523 6.70801 16C6.70801 15.4477 6.27895 15 5.74967 15H1.91634Z" fill="#777E91"/>
<path d="M1.91634 19C1.38707 19 0.958008 19.4477 0.958008 20C0.958008 20.5523 1.38707 21 1.91634 21H5.74967C6.27895 21 6.70801 20.5523 6.70801 20C6.70801 19.4477 6.27895 19 5.74967 19H1.91634Z" fill="#777E91"/>
</svg>
