<svg width="23" height="24" viewBox="0 0 23 24" fill="none" xmlns="http://www.w3.org/2000/svg">
<path d="M15.3333 4C14.8041 4 14.375 4.44772 14.375 5C14.375 5.55228 14.8041 6 15.3333 6C18.509 6 21.0833 8.68629 21.0833 12C21.0833 15.3137 18.509 18 15.3333 18C14.8041 18 14.375 18.4477 14.375 19C14.375 19.5523 14.8041 20 15.3333 20C19.5675 20 23 16.4183 23 12C23 7.58172 19.5675 4 15.3333 4Z" fill="#777E91"/>
<path d="M15.3333 8C14.8041 8 14.375 8.44772 14.375 9C14.375 9.55228 14.8041 10 15.3333 10C16.3919 10 17.25 10.8954 17.25 12C17.25 13.1046 16.3919 14 15.3333 14C14.8041 14 14.375 14.4477 14.375 15C14.375 15.5523 14.8041 16 15.3333 16C17.4504 16 19.1667 14.2091 19.1667 12C19.1667 9.79086 17.4504 8 15.3333 8Z" fill="#777E91"/>
<path fill-rule="evenodd" clip-rule="evenodd" d="M5.58558 10.0002H2.875C2.34573 10.0002 1.91667 10.4479 1.91667 11.0002V13.0002C1.91667 13.5525 2.34573 14.0002 2.875 14.0002H5.58558L8.90569 17.4647C9.50941 18.0946 10.5417 17.6485 10.5417 16.7575V7.24283C10.5417 6.35192 9.50941 5.90576 8.90569 6.53572L5.58558 10.0002ZM4.79167 16.0002L7.5504 18.8789C9.36155 20.7688 12.4583 19.4303 12.4583 16.7575V7.24283C12.4583 4.57012 9.36155 3.23162 7.5504 5.12151L4.79167 8.00019H2.875C1.28718 8.00019 0 9.34334 0 11.0002V13.0002C0 14.657 1.28718 16.0002 2.875 16.0002H4.79167Z" fill="#777E91"/>
</svg>
