<svg width="23" height="24" viewBox="0 0 23 24" fill="none" xmlns="http://www.w3.org/2000/svg">
<path fill-rule="evenodd" clip-rule="evenodd" d="M18.2083 10H4.79167V18C4.79167 19.1046 5.64979 20 6.70833 20H16.2917C17.3502 20 18.2083 19.1046 18.2083 18V10ZM2.875 8V18C2.875 20.2091 4.59124 22 6.70833 22H16.2917C18.4088 22 20.125 20.2091 20.125 18V8H2.875Z" fill="#777E91"/>
<path d="M8.625 13C8.625 12.4477 9.05406 12 9.58333 12H13.4167C13.9459 12 14.375 12.4477 14.375 13V13C14.375 13.5523 13.9459 14 13.4167 14H9.58333C9.05406 14 8.625 13.5523 8.625 13V13Z" fill="#777E91"/>
<path fill-rule="evenodd" clip-rule="evenodd" d="M18.2087 4H4.79199C4.26272 4 3.83366 4.44772 3.83366 5V7C3.83366 7.55229 4.26272 8 4.79199 8H18.2087C18.7379 8 19.167 7.55228 19.167 7V5C19.167 4.44771 18.7379 4 18.2087 4ZM4.79199 2C3.20417 2 1.91699 3.34315 1.91699 5V7C1.91699 8.65685 3.20417 10 4.79199 10H18.2087C19.7965 10 21.0837 8.65685 21.0837 7V5C21.0837 3.34315 19.7965 2 18.2087 2H4.79199Z" fill="#777E91"/>
</svg>
