<svg width="24" height="24" viewBox="0 0 24 24" fill="none" xmlns="http://www.w3.org/2000/svg">
<path d="M19.5874 9.44234C19.5433 9.17742 19.2974 8.99799 19.0288 8.9999C19.0192 8.99997 19.0095 9 18.9999 9C16.9597 9 15.2763 7.47264 15.0307 5.49901C14.9966 5.22498 14.776 5 14.4999 5H9.49989C9.22375 5 9.00317 5.22498 8.96907 5.49901C8.72346 7.47264 7.04004 9 4.99989 9C4.99026 9 4.98063 8.99997 4.97101 8.9999C4.70245 8.998 4.45657 9.17743 4.41241 9.44234L3.56741 14.5124C3.52053 14.7936 3.7194 15.0542 3.9956 15.1249C5.56653 15.5274 6.76487 16.8599 6.96907 18.501C7.00317 18.7751 7.22375 19 7.49989 19H16.4999C16.776 19 16.9966 18.7751 17.0307 18.501C17.2349 16.8599 18.4333 15.5273 20.0042 15.1249C20.2805 15.0541 20.4793 14.7936 20.4325 14.5124L19.5874 9.44234Z" fill="#777E91"/>
<path d="M19 7C20.1046 7 21 6.10457 21 5C21 3.89543 20.1046 3 19 3C17.8954 3 17 3.89543 17 5C17 6.10457 17.8954 7 19 7Z" fill="#777E91"/>
<path d="M21 21C22.1046 21 23 20.1046 23 19C23 17.8954 22.1046 17 21 17C19.8954 17 19 17.8954 19 19C19 20.1046 19.8954 21 21 21Z" fill="#777E91"/>
<path d="M5 19C5 20.1046 4.10457 21 3 21C1.89543 21 1 20.1046 1 19C1 17.8954 1.89543 17 3 17C4.10457 17 5 17.8954 5 19Z" fill="#777E91"/>
<path d="M5 7C6.10457 7 7 6.10457 7 5C7 3.89543 6.10457 3 5 3C3.89543 3 3 3.89543 3 5C3 6.10457 3.89543 7 5 7Z" fill="#777E91"/>
</svg>
