<svg width="24" height="24" viewBox="0 0 24 24" fill="none" xmlns="http://www.w3.org/2000/svg">
<path d="M7.99976 5C7.44747 5 6.99976 5.44772 6.99976 6C6.99976 6.55228 7.44747 7 7.99976 7H15.9998C16.552 7 16.9998 6.55228 16.9998 6C16.9998 5.44772 16.552 5 15.9998 5H7.99976Z" fill="#777E91"/>
<path d="M5.99976 17C5.44747 17 4.99976 17.4477 4.99976 18C4.99976 18.5523 5.44747 19 5.99976 19H17.9998C18.552 19 18.9998 18.5523 18.9998 18C18.9998 17.4477 18.552 17 17.9998 17H5.99976Z" fill="#777E91"/>
<path d="M5.81016 7.0131C6.35529 7.10168 6.7254 7.61541 6.63681 8.16055L5.33681 16.1605C5.24823 16.7057 4.7345 17.0758 4.18936 16.9872C3.64423 16.8986 3.27412 16.3849 3.36271 15.8398L4.66271 7.83976C4.75129 7.29462 5.26502 6.92451 5.81016 7.0131Z" fill="#777E91"/>
<path d="M17.3626 8.16055C17.274 7.61541 17.6441 7.10168 18.1892 7.0131C18.7344 6.92451 19.2481 7.29462 19.3367 7.83976L20.6367 15.8398C20.7253 16.3849 20.3552 16.8986 19.81 16.9872C19.2649 17.0758 18.7512 16.7057 18.6626 16.1605L17.3626 8.16055Z" fill="#777E91"/>
<path fill-rule="evenodd" clip-rule="evenodd" d="M21 6C21 7.65685 19.6569 9 18 9C16.3431 9 15 7.65685 15 6C15 4.34315 16.3431 3 18 3C19.6569 3 21 4.34315 21 6ZM19 6C19 6.55228 18.5523 7 18 7C17.4477 7 17 6.55228 17 6C17 5.44772 17.4477 5 18 5C18.5523 5 19 5.44772 19 6Z" fill="#777E91"/>
<path fill-rule="evenodd" clip-rule="evenodd" d="M23 18C23 19.6569 21.6569 21 20 21C18.3431 21 17 19.6569 17 18C17 16.3431 18.3431 15 20 15C21.6569 15 23 16.3431 23 18ZM21 18C21 18.5523 20.5523 19 20 19C19.4477 19 19 18.5523 19 18C19 17.4477 19.4477 17 20 17C20.5523 17 21 17.4477 21 18Z" fill="#777E91"/>
<path fill-rule="evenodd" clip-rule="evenodd" d="M4 21C5.65685 21 7 19.6569 7 18C7 16.3431 5.65685 15 4 15C2.34315 15 1 16.3431 1 18C1 19.6569 2.34315 21 4 21ZM4 19C4.55228 19 5 18.5523 5 18C5 17.4477 4.55228 17 4 17C3.44772 17 3 17.4477 3 18C3 18.5523 3.44772 19 4 19Z" fill="#777E91"/>
<path fill-rule="evenodd" clip-rule="evenodd" d="M9 6C9 7.65685 7.65685 9 6 9C4.34315 9 3 7.65685 3 6C3 4.34315 4.34315 3 6 3C7.65685 3 9 4.34315 9 6ZM7 6C7 6.55228 6.55228 7 6 7C5.44772 7 5 6.55228 5 6C5 5.44772 5.44772 5 6 5C6.55228 5 7 5.44772 7 6Z" fill="#777E91"/>
</svg>
