<svg width="24" height="24" viewBox="0 0 24 24" fill="none" xmlns="http://www.w3.org/2000/svg">
<path d="M11 3.40085C11 3.08098 11.2962 2.84337 11.6085 2.91276L14.6085 3.57943C14.8372 3.63026 15 3.83317 15 4.06752V10.5C15 10.7761 14.7761 11 14.5 11L11.5 11C11.2239 11 11 10.7761 11 10.5V3.40085Z" fill="#777E91"/>
<path d="M8.5 11C8.77614 11 9 10.7761 9 10.5V2.73419C9 2.49984 8.83723 2.29693 8.60847 2.24609L5.43386 1.54063C4.18483 1.26306 3 2.2135 3 3.493V10.5C3 10.7761 3.22386 11 3.5 11H8.5Z" fill="#777E91"/>
<path d="M3 13.5C3 13.2239 3.22386 13 3.5 13H8.5C8.77614 13 9 13.2239 9 13.5V21.2653C9 21.4997 8.83723 21.7026 8.60847 21.7534L5.43386 22.4589C4.18483 22.7365 3 21.786 3 20.5065V13.5Z" fill="#777E91"/>
<path d="M11 13.5C11 13.2239 11.2239 13 11.5 13L14.5 13C14.7761 13 15 13.2239 15 13.5V19.932C15 20.1664 14.8372 20.3693 14.6085 20.4201L11.6085 21.0868C11.2962 21.1562 11 20.9186 11 20.5987V13.5Z" fill="#777E91"/>
<path d="M17.5 13C17.2239 13 17 13.2239 17 13.5V19.2653C17 19.5852 17.2962 19.8228 17.6085 19.7534L19.4339 19.3478C20.3489 19.1444 21 18.3328 21 17.3954V13.5C21 13.2239 20.7761 13 20.5 13H17.5Z" fill="#777E91"/>
<path d="M20.5 11C20.7761 11 21 10.7761 21 10.5V6.60411C21 5.66671 20.3489 4.85509 19.4339 4.65174L17.6085 4.24609C17.2962 4.1767 17 4.41431 17 4.73419V10.5C17 10.7761 17.2239 11 17.5 11H20.5Z" fill="#777E91"/>
</svg>
