<svg width="23" height="24" viewBox="0 0 23 24" fill="none" xmlns="http://www.w3.org/2000/svg">
<path d="M9.58333 4C9.58333 3.44772 10.0124 3 10.5417 3C11.0709 3 11.5 3.44772 11.5 4V11H14.375V5C14.375 4.44772 14.8041 4 15.3333 4C15.8626 4 16.2917 4.44772 16.2917 5V11H19.1667C19.6959 11 20.125 11.4477 20.125 12C20.125 12.5523 19.6959 13 19.1667 13H16.2917V19C16.2917 19.5523 15.8626 20 15.3333 20C14.8041 20 14.375 19.5523 14.375 19V13L11.5 13V20C11.5 20.5523 11.0709 21 10.5417 21C10.0124 21 9.58333 20.5523 9.58333 20V13H3.83333C3.30406 13 2.875 12.5523 2.875 12C2.875 11.4477 3.30406 11 3.83333 11H9.58333V4Z" fill="#777E91"/>
<path fill-rule="evenodd" clip-rule="evenodd" d="M17.4579 6.43047L5.95789 3.7638C5.3594 3.62502 4.79167 4.10024 4.79167 4.73999V19.2603C4.79167 19.9 5.3594 20.3753 5.95789 20.2365L17.4579 17.5698C17.8964 17.4681 18.2083 17.0623 18.2083 16.5936V7.40665C18.2083 6.93796 17.8964 6.53214 17.4579 6.43047ZM6.37368 1.81143C4.5782 1.39508 2.875 2.82074 2.875 4.73999V19.2603C2.875 21.1795 4.5782 22.6052 6.37367 22.1889L17.8737 19.5222C19.1891 19.2172 20.125 17.9997 20.125 16.5936V7.40665C20.125 6.00056 19.1891 4.78312 17.8737 4.47809L6.37368 1.81143Z" fill="#777E91"/>
</svg>
