<svg width="24" height="24" viewBox="0 0 24 24" fill="none" xmlns="http://www.w3.org/2000/svg">
<path d="M7.00049 7H5.20717C3.47177 7 2.09837 8.46801 2.21381 10.1996L2.81381 19.1996C2.91887 20.7755 4.22777 22 5.80717 22H18.1938C19.7732 22 21.0821 20.7755 21.1872 19.1996L21.7872 10.1996C21.9026 8.46801 20.5292 7 18.7938 7H17.0005V9C17.0005 9.55228 16.5528 10 16.0005 10C15.4482 10 15.0005 9.55228 15.0005 9V7H9.00049V9C9.00049 9.55228 8.55277 10 8.00049 10C7.4482 10 7.00049 9.55228 7.00049 9V7Z" fill="#777E91"/>
<path fill-rule="evenodd" clip-rule="evenodd" d="M7 7C7 4.23858 9.23858 2 12 2C14.7614 2 17 4.23858 17 7H15C15 5.34315 13.6569 4 12 4C10.3431 4 9 5.34315 9 7H7Z" fill="#777E91"/>
</svg>
