<svg width="23" height="24" viewBox="0 0 23 24" fill="none" xmlns="http://www.w3.org/2000/svg">
<path fill-rule="evenodd" clip-rule="evenodd" d="M17.0024 8H5.99657C4.891 8 4.01467 8.97336 4.08364 10.1248L4.5628 18.1248C4.62594 19.1788 5.46362 20 6.47574 20H16.5233C17.5354 20 18.3731 19.1788 18.4362 18.1248L18.9154 10.1248C18.9843 8.97336 18.108 8 17.0024 8ZM5.99657 6C3.78542 6 2.03278 7.94672 2.1707 10.2495L2.64987 18.2495C2.77614 20.3577 4.4515 22 6.47574 22H16.5233C18.5475 22 20.2229 20.3577 20.3491 18.2495L20.8283 10.2495C20.9662 7.94672 19.2136 6 17.0024 6H5.99657Z" fill="#777E91"/>
<path fill-rule="evenodd" clip-rule="evenodd" d="M6.70801 7C6.70801 4.23858 8.85331 2 11.4997 2C14.146 2 16.2913 4.23858 16.2913 7V9C16.2913 9.55228 15.8623 10 15.333 10C14.8037 10 14.3747 9.55228 14.3747 9V7C14.3747 5.34315 13.0875 4 11.4997 4C9.91186 4 8.62467 5.34315 8.62467 7V9C8.62467 9.55228 8.19561 10 7.66634 10C7.13707 10 6.70801 9.55228 6.70801 9V7Z" fill="#777E91"/>
</svg>
