<svg width="24" height="24" viewBox="0 0 24 24" fill="none" xmlns="http://www.w3.org/2000/svg">
<path d="M21.2257 16.6567C21.3661 16.3414 21.1255 16 20.7804 16H3.21876C2.87368 16 2.63313 16.3414 2.77347 16.6567C4.17507 19.805 7.331 22 10.9996 22H12.9996C16.6682 22 19.8241 19.805 21.2257 16.6567Z" fill="#777E91"/>
<path d="M4 10C2.89543 10 2 10.8954 2 12V13C2 13.186 2.00564 13.3707 2.01677 13.5539C2.03221 13.8083 2.24782 14 2.5027 14H21.4973C21.7522 14 21.9678 13.8083 21.9832 13.5539C21.9944 13.3707 22 13.186 22 13V12C22 10.8954 21.1046 10 20 10H4Z" fill="#777E91"/>
<path d="M9 2C9.55228 2 10 2.44772 10 3C10 4.22658 9.67273 4.89061 9.39443 5.44721L9.38646 5.46314C9.1686 5.89875 9 6.23587 9 7C9 7.55228 8.55228 8 8 8C7.44772 8 7 7.55228 7 7C7 5.77342 7.32727 5.10939 7.60557 4.55279L7.61354 4.53686C7.8314 4.10125 8 3.76413 8 3C8 2.44772 8.44772 2 9 2Z" fill="#777E91"/>
<path d="M13 2C13.5523 2 14 2.44772 14 3C14 4.22658 13.6727 4.89061 13.3944 5.44721L13.3865 5.46314C13.1686 5.89875 13 6.23587 13 7C13 7.55228 12.5523 8 12 8C11.4477 8 11 7.55228 11 7C11 5.77342 11.3273 5.10939 11.6056 4.55279L11.6135 4.53686C11.8314 4.10125 12 3.76413 12 3C12 2.44772 12.4477 2 13 2Z" fill="#777E91"/>
<path d="M18 3C18 2.44772 17.5523 2 17 2C16.4477 2 16 2.44772 16 3C16 3.76413 15.8314 4.10125 15.6135 4.53686L15.6056 4.55279C15.3273 5.10939 15 5.77342 15 7C15 7.55228 15.4477 8 16 8C16.5523 8 17 7.55228 17 7C17 6.23587 17.1686 5.89875 17.3865 5.46314L17.3944 5.44721C17.6727 4.89061 18 4.22658 18 3Z" fill="#777E91"/>
</svg>
