<svg width="23" height="24" viewBox="0 0 23 24" fill="none" xmlns="http://www.w3.org/2000/svg">
<path fill-rule="evenodd" clip-rule="evenodd" d="M1.91699 13C1.91699 11.3431 3.20417 10 4.79199 10H18.2087C19.7965 10 21.0837 11.3431 21.0837 13C21.0837 17.9706 17.2221 22 12.4587 22H10.542C5.77854 22 1.91699 17.9706 1.91699 13ZM4.79199 12H18.2087C18.7379 12 19.167 12.4477 19.167 13C19.167 13.3395 19.1438 13.6734 19.0991 14H3.90159C3.85682 13.6734 3.83366 13.3395 3.83366 13C3.83366 12.4477 4.26272 12 4.79199 12ZM4.47922 16C5.55587 18.3649 7.86595 20 10.542 20H12.4587C15.1347 20 17.4448 18.3649 18.5214 16H4.47922Z" fill="#777E91"/>
<path d="M8.62467 2C9.15395 2 9.58301 2.44772 9.58301 3C9.58301 4.22658 9.26937 4.89061 9.00267 5.44721L8.99503 5.46314C8.78625 5.89875 8.62467 6.23587 8.62467 7C8.62467 7.55228 8.19561 8 7.66634 8C7.13707 8 6.70801 7.55228 6.70801 7C6.70801 5.77342 7.02164 5.10939 7.28835 4.55279L7.29598 4.53686C7.50476 4.10125 7.66634 3.76413 7.66634 3C7.66634 2.44772 8.0954 2 8.62467 2Z" fill="#777E91"/>
<path d="M12.458 2C12.9873 2 13.4163 2.44772 13.4163 3C13.4163 4.22658 13.1027 4.89061 12.836 5.44721L12.8284 5.46314C12.6196 5.89875 12.458 6.23587 12.458 7C12.458 7.55228 12.0289 8 11.4997 8C10.9704 8 10.5413 7.55228 10.5413 7C10.5413 5.77342 10.855 5.10939 11.1217 4.55279L11.1293 4.53686C11.3381 4.10125 11.4997 3.76413 11.4997 3C11.4997 2.44772 11.9287 2 12.458 2Z" fill="#777E91"/>
<path d="M17.2497 3C17.2497 2.44772 16.8206 2 16.2913 2C15.7621 2 15.333 2.44772 15.333 3C15.333 3.76413 15.1714 4.10125 14.9627 4.53686L14.955 4.55279C14.6883 5.10939 14.3747 5.77342 14.3747 7C14.3747 7.55228 14.8037 8 15.333 8C15.8623 8 16.2913 7.55228 16.2913 7C16.2913 6.23587 16.4529 5.89875 16.6617 5.46314L16.6693 5.44721C16.936 4.89061 17.2497 4.22658 17.2497 3Z" fill="#777E91"/>
</svg>
