<svg width="23" height="24" viewBox="0 0 23 24" fill="none" xmlns="http://www.w3.org/2000/svg">
<path fill-rule="evenodd" clip-rule="evenodd" d="M8.625 17C10.2128 17 11.5 18.3431 11.5 20C11.5 21.6569 10.2128 23 8.625 23L7.66667 23C7.13739 23 6.70833 22.5523 6.70833 22C6.70833 21.4477 7.13739 21 7.66667 21L8.625 21C9.15427 21 9.58333 20.5523 9.58333 20C9.58333 19.4477 9.15427 19 8.625 19L7.66667 19C7.13739 19 6.70833 18.5523 6.70833 18C6.70833 17.4477 7.13739 17 7.66667 17L8.625 17Z" fill="#777E91"/>
<path fill-rule="evenodd" clip-rule="evenodd" d="M12.458 9C14.0458 9 15.333 10.3431 15.333 12C15.333 13.6569 14.0458 15 12.458 15L7.66634 15C7.13707 15 6.70801 14.5523 6.70801 14C6.70801 13.4477 7.13707 13 7.66634 13L12.458 13C12.9873 13 13.4163 12.5523 13.4163 12C13.4163 11.4477 12.9873 11 12.458 11L7.66634 11C7.13707 11 6.70801 10.5523 6.70801 10C6.70801 9.44771 7.13707 9 7.66634 9L12.458 9Z" fill="#777E91"/>
<path fill-rule="evenodd" clip-rule="evenodd" d="M17.25 1C18.8378 1 20.125 2.34315 20.125 4C20.125 5.65685 18.8378 7 17.25 7L7.66667 7C7.13739 7 6.70833 6.55228 6.70833 6C6.70833 5.44771 7.13739 5 7.66667 5L17.25 5C17.7793 5 18.2083 4.55228 18.2083 4C18.2083 3.44772 17.7793 3 17.25 3L7.66667 3C7.13739 3 6.70833 2.55228 6.70833 2C6.70833 1.44771 7.13739 0.999999 7.66667 0.999999L17.25 1Z" fill="#777E91"/>
<path fill-rule="evenodd" clip-rule="evenodd" d="M3.83333 1C4.36261 1 4.79167 1.44772 4.79167 2V22C4.79167 22.5523 4.36261 23 3.83333 23C3.30406 23 2.875 22.5523 2.875 22V2C2.875 1.44772 3.30406 1 3.83333 1Z" fill="#777E91"/>
</svg>
