<svg width="24" height="24" viewBox="0 0 24 24" fill="none" xmlns="http://www.w3.org/2000/svg">
<path fill-rule="evenodd" clip-rule="evenodd" d="M2 10C2 7.79086 3.79086 6 6 6H18C20.2091 6 22 7.79086 22 10V18C22 20.2091 20.2091 22 18 22H6C3.79086 22 2 20.2091 2 18V10ZM11 11C11 10.4477 11.4477 10 12 10C12.5523 10 13 10.4477 13 11V13H15C15.5523 13 16 13.4477 16 14C16 14.5523 15.5523 15 15 15H13V17C13 17.5523 12.5523 18 12 18C11.4477 18 11 17.5523 11 17V15H9C8.44771 15 8 14.5523 8 14C8 13.4477 8.44772 13 9 13H11V11Z" fill="#777E91"/>
<path fill-rule="evenodd" clip-rule="evenodd" d="M10 4C9.44772 4 9 4.44772 9 5V6C9 6.55228 8.55228 7 8 7C7.44772 7 7 6.55228 7 6V5C7 3.34315 8.34315 2 10 2H14C15.6569 2 17 3.34315 17 5V6C17 6.55228 16.5523 7 16 7C15.4477 7 15 6.55228 15 6V5C15 4.44772 14.5523 4 14 4H10Z" fill="#777E91"/>
</svg>
