<svg width="23" height="24" viewBox="0 0 23 24" fill="none" xmlns="http://www.w3.org/2000/svg">
<path fill-rule="evenodd" clip-rule="evenodd" d="M17.2503 8H5.75033C4.69178 8 3.83366 8.89543 3.83366 10V18C3.83366 19.1046 4.69178 20 5.75033 20H17.2503C18.3089 20 19.167 19.1046 19.167 18V10C19.167 8.89543 18.3089 8 17.2503 8ZM5.75033 6C3.63323 6 1.91699 7.79086 1.91699 10V18C1.91699 20.2091 3.63323 22 5.75033 22H17.2503C19.3674 22 21.0837 20.2091 21.0837 18V10C21.0837 7.79086 19.3674 6 17.2503 6H5.75033Z" fill="#777E91"/>
<path d="M11.5003 10C10.9711 10 10.542 10.4477 10.542 11V13H8.62533C8.09605 13 7.66699 13.4477 7.66699 14C7.66699 14.5523 8.09605 15 8.62533 15H10.542V17C10.542 17.5523 10.9711 18 11.5003 18C12.0296 18 12.4587 17.5523 12.4587 17V15H14.3753C14.9046 15 15.3337 14.5523 15.3337 14C15.3337 13.4477 14.9046 13 14.3753 13H12.4587V11C12.4587 10.4477 12.0296 10 11.5003 10Z" fill="#777E91"/>
<path fill-rule="evenodd" clip-rule="evenodd" d="M9.58301 4C9.05373 4 8.62467 4.44772 8.62467 5V6C8.62467 6.55228 8.19561 7 7.66634 7C7.13707 7 6.70801 6.55228 6.70801 6V5C6.70801 3.34315 7.99519 2 9.58301 2H13.4163C15.0042 2 16.2913 3.34315 16.2913 5V6C16.2913 6.55228 15.8623 7 15.333 7C14.8037 7 14.3747 6.55228 14.3747 6V5C14.3747 4.44772 13.9456 4 13.4163 4H9.58301Z" fill="#777E91"/>
</svg>
