<svg width="24" height="24" viewBox="0 0 24 24" fill="none" xmlns="http://www.w3.org/2000/svg">
<path d="M15.7054 15.4707C15.9524 15.5942 16.0525 15.8946 15.9291 16.1415L13.8291 20.3415C13.3209 21.3578 12.2821 21.9998 11.1458 21.9998H4.23598C3.47843 21.9998 2.78591 21.5718 2.44712 20.8942C1.78222 19.5644 2.74921 17.9998 4.23598 17.9998H10.1458C11.2821 17.9998 12.3209 17.3578 12.8291 16.3415L13.529 14.9415C13.6525 14.6946 13.9529 14.5944 14.1999 14.7179L15.7054 15.4707Z" fill="#777E91"/>
<path d="M16.6004 13.6819C16.8474 13.8053 17.1478 13.7052 17.2713 13.4582L21.568 4.86471C21.8263 4.3482 21.725 3.72437 21.3167 3.31603C20.6692 2.6685 19.5776 2.84564 19.168 3.66471L14.8713 12.2582C14.7478 12.5052 14.8479 12.8056 15.0949 12.9291L16.6004 13.6819Z" fill="#777E91"/>
<path d="M2 11C2 10.4477 2.44772 10 3 10H5C5.55228 10 6 10.4477 6 11C6 11.5523 5.55228 12 5 12H3C2.44772 12 2 11.5523 2 11Z" fill="#777E91"/>
</svg>
