<svg width="23" height="24" viewBox="0 0 23 24" fill="none" xmlns="http://www.w3.org/2000/svg">
<path fill-rule="evenodd" clip-rule="evenodd" d="M13.2911 17.7889L19.1732 5.51333C19.3763 5.08948 19.2324 4.57392 18.843 4.33011C18.4089 4.05832 17.8449 4.22969 17.6185 4.70219L13.0501 14.2361C12.2385 15.9301 10.5793 17.0001 8.76434 17.0001H4.76933C4.13263 17.0001 3.67295 17.636 3.84787 18.2748L4.12168 19.2748C4.23922 19.7041 4.61526 20.0001 5.04314 20.0001H9.86249C11.3145 20.0001 12.6418 19.1441 13.2911 17.7889ZM20.8875 6.40776L15.0054 18.6834C14.0314 20.7161 12.0404 22.0001 9.86249 22.0001H5.04314C3.75951 22.0001 2.6314 21.1122 2.27876 19.8242L2.00495 18.8242C1.4802 16.9078 2.85924 15.0001 4.76933 15.0001H8.76434C9.85331 15.0001 10.8488 14.3581 11.3358 13.3417L15.9042 3.80776C16.6299 2.29324 18.4376 1.74393 19.8291 2.61513C21.0773 3.39662 21.5385 5.04917 20.8875 6.40776Z" fill="#777E91"/>
<path d="M11.2588 13.4922C11.2859 13.443 11.3117 13.3927 11.3362 13.3415L12.1201 11.7056L17.1034 14.3056L16.2463 16.0944L11.2588 13.4922Z" fill="#777E91"/>
<path d="M1.91699 11C1.91699 10.4477 2.34605 10 2.87533 10H4.79199C5.32126 10 5.75033 10.4477 5.75033 11V11C5.75033 11.5523 5.32126 12 4.79199 12H2.87533C2.34605 12 1.91699 11.5523 1.91699 11V11Z" fill="#777E91"/>
</svg>
