<svg width="24" height="24" viewBox="0 0 24 24" fill="none" xmlns="http://www.w3.org/2000/svg">
<path d="M7 22C8.10457 22 9 21.1046 9 20C9 18.8954 8.10457 18 7 18C5.89543 18 5 18.8954 5 20C5 21.1046 5.89543 22 7 22Z" fill="#777E91"/>
<path d="M17 22C18.1046 22 19 21.1046 19 20C19 18.8954 18.1046 18 17 18C15.8954 18 15 18.8954 15 20C15 21.1046 15.8954 22 17 22Z" fill="#777E91"/>
<path d="M3.44743 2.10579C2.95345 1.8588 2.35278 2.05903 2.10579 2.55301C1.8588 3.04698 2.05903 3.64766 2.55301 3.89465L3.55651 4.3964C3.86627 4.55128 4.07384 4.8554 4.10519 5.20029L4.83897 13.2718C4.97944 14.8171 6.27504 16.0002 7.82665 16.0002H16.4916C17.8311 16.0002 19.0082 15.1123 19.3762 13.8244L20.5975 9.54966C20.9626 8.27203 20.0032 7.00022 18.6745 7.00022H6.27707L6.09698 5.01922C6.00292 3.98454 5.38021 3.07218 4.45094 2.60755L3.44743 2.10579Z" fill="#777E91"/>
</svg>
