<svg width="23" height="24" viewBox="0 0 23 24" fill="none" xmlns="http://www.w3.org/2000/svg">
<path fill-rule="evenodd" clip-rule="evenodd" d="M9.58301 20C9.58301 21.6569 8.29583 23 6.70801 23C5.12019 23 3.83301 21.6569 3.83301 20C3.83301 18.3431 5.12019 17 6.70801 17C8.29583 17 9.58301 18.3431 9.58301 20ZM7.66634 20C7.66634 20.5523 7.23728 21 6.70801 21C6.17873 21 5.74967 20.5523 5.74967 20C5.74967 19.4477 6.17873 19 6.70801 19C7.23728 19 7.66634 19.4477 7.66634 20Z" fill="#777E91"/>
<path fill-rule="evenodd" clip-rule="evenodd" d="M19.1663 20C19.1663 21.6569 17.8792 23 16.2913 23C14.7035 23 13.4163 21.6569 13.4163 20C13.4163 18.3431 14.7035 17 16.2913 17C17.8792 17 19.1663 18.3431 19.1663 20ZM17.2497 20C17.2497 20.5523 16.8206 21 16.2913 21C15.7621 21 15.333 20.5523 15.333 20C15.333 19.4477 15.7621 19 16.2913 19C16.8206 19 17.2497 19.4477 17.2497 20Z" fill="#777E91"/>
<path fill-rule="evenodd" clip-rule="evenodd" d="M2.0174 2.55301C2.2541 2.05903 2.82974 1.8588 3.30314 2.10579L4.26483 2.60755C5.15538 3.07218 5.75214 3.98454 5.84229 5.01922L5.88814 5.54549C5.91057 5.80303 6.11751 6.00022 6.36533 6.00022H19.0086C20.6814 6.00022 21.8392 7.74365 21.2519 9.37803L19.5716 14.0536C19.1508 15.2245 18.0781 16.0002 16.8796 16.0002H7.49989C6.01293 16.0002 4.77132 14.8171 4.63669 13.2718L3.93349 5.20029C3.90344 4.8554 3.70452 4.55128 3.40767 4.3964L2.44598 3.89465C1.97258 3.64766 1.7807 3.04698 2.0174 2.55301ZM6.6267 8.00022C6.34493 8.00022 6.12399 8.25268 6.1495 8.54549L6.54549 13.0908C6.59036 13.6058 7.00423 14.0002 7.49989 14.0002H16.8796C17.2791 14.0002 17.6367 13.7416 17.777 13.3513L19.4572 8.67578C19.5747 8.34891 19.3431 8.00022 19.0086 8.00022H6.6267Z" fill="#777E91"/>
</svg>
