<svg width="23" height="24" viewBox="0 0 23 24" fill="none" xmlns="http://www.w3.org/2000/svg">
<path fill-rule="evenodd" clip-rule="evenodd" d="M19.1663 5H3.83301C3.30373 5 2.87467 5.44772 2.87467 6V18C2.87467 18.5523 3.30373 19 3.83301 19H19.1663C19.6956 19 20.1247 18.5523 20.1247 18V6C20.1247 5.44772 19.6956 5 19.1663 5ZM3.83301 3C2.24519 3 0.958008 4.34315 0.958008 6V18C0.958008 19.6569 2.24519 21 3.83301 21H19.1663C20.7542 21 22.0413 19.6569 22.0413 18V6C22.0413 4.34315 20.7542 3 19.1663 3H3.83301Z" fill="#777E91"/>
<path d="M11.5003 11C10.9711 11 10.542 11.4477 10.542 12C10.542 12.5523 10.9711 13 11.5003 13H17.2503C17.7796 13 18.2087 12.5523 18.2087 12C18.2087 11.4477 17.7796 11 17.2503 11H11.5003Z" fill="#777E91"/>
<path d="M5.75033 15C5.22105 15 4.79199 15.4477 4.79199 16C4.79199 16.5523 5.22105 17 5.75033 17H11.5003C12.0296 17 12.4587 16.5523 12.4587 16C12.4587 15.4477 12.0296 15 11.5003 15H5.75033Z" fill="#777E91"/>
<path d="M14.3753 16C14.3753 15.4477 14.8044 15 15.3337 15H17.2503C17.7796 15 18.2087 15.4477 18.2087 16C18.2087 16.5523 17.7796 17 17.2503 17H15.3337C14.8044 17 14.3753 16.5523 14.3753 16Z" fill="#777E91"/>
<path d="M5.75033 11C5.22105 11 4.79199 11.4477 4.79199 12C4.79199 12.5523 5.22105 13 5.75033 13H7.66699C8.19627 13 8.62533 12.5523 8.62533 12C8.62533 11.4477 8.19627 11 7.66699 11H5.75033Z" fill="#777E91"/>
</svg>
