<svg width="23" height="24" viewBox="0 0 23 24" fill="none" xmlns="http://www.w3.org/2000/svg">
<path d="M2.87533 9C2.34605 9 1.91699 9.44771 1.91699 10V21C1.91699 21.5523 2.34605 22 2.87533 22C3.4046 22 3.83366 21.5523 3.83366 21V10C3.83366 9.44772 3.4046 9 2.87533 9Z" fill="#777E91"/>
<path d="M8.62533 11C8.09605 11 7.66699 11.4477 7.66699 12V21C7.66699 21.5523 8.09605 22 8.62533 22C9.1546 22 9.58366 21.5523 9.58366 21V12C9.58366 11.4477 9.1546 11 8.62533 11Z" fill="#777E91"/>
<path d="M13.417 14C13.417 13.4477 13.8461 13 14.3753 13C14.9046 13 15.3337 13.4477 15.3337 14V21C15.3337 21.5523 14.9046 22 14.3753 22C13.8461 22 13.417 21.5523 13.417 21V14Z" fill="#777E91"/>
<path d="M20.1253 15C19.5961 15 19.167 15.4477 19.167 16V21C19.167 21.5523 19.5961 22 20.1253 22C20.6546 22 21.0837 21.5523 21.0837 21V16C21.0837 15.4477 20.6546 15 20.1253 15Z" fill="#777E91"/>
<path d="M2.87533 2C2.34605 2 1.91699 2.44772 1.91699 3V6C1.91699 6.55228 2.34605 7 2.87533 7C3.4046 7 3.83366 6.55228 3.83366 6V3C3.83366 2.44772 3.4046 2 2.87533 2Z" fill="#777E91"/>
<path d="M8.62533 2C8.09605 2 7.66699 2.44772 7.66699 3V8C7.66699 8.55228 8.09605 9 8.62533 9C9.1546 9 9.58366 8.55228 9.58366 8V3C9.58366 2.44772 9.1546 2 8.62533 2Z" fill="#777E91"/>
<path d="M13.417 3C13.417 2.44772 13.8461 2 14.3753 2C14.9046 2 15.3337 2.44772 15.3337 3V10C15.3337 10.5523 14.9046 11 14.3753 11C13.8461 11 13.417 10.5523 13.417 10V3Z" fill="#777E91"/>
<path d="M20.1253 2C19.5961 2 19.167 2.44772 19.167 3V12C19.167 12.5523 19.5961 13 20.1253 13C20.6546 13 21.0837 12.5523 21.0837 12V3C21.0837 2.44772 20.6546 2 20.1253 2Z" fill="#777E91"/>
</svg>
