<svg width="24" height="24" viewBox="0 0 24 24" fill="none" xmlns="http://www.w3.org/2000/svg">
<path d="M20 15C20 19.4183 16.4183 23 12 23C7.58172 23 4 19.4183 4 15C4 10.5817 7.58172 7 12 7C16.4183 7 20 10.5817 20 15Z" fill="#777E91"/>
<path d="M6.90251 5.48507C6.58693 4.22278 7.54165 3 8.84279 3H15.1581C16.4593 3 17.414 4.22278 17.0984 5.48507L17.0303 5.75746C16.8964 6.29326 17.2221 6.83619 17.7579 6.97014C18.2937 7.10409 18.8366 6.77833 18.9706 6.24254L19.0387 5.97014C19.6698 3.44555 17.7604 1 15.1581 1H8.84279C6.24051 1 4.33107 3.44555 4.96222 5.97014L5.03032 6.24254C5.16427 6.77833 5.7072 7.10409 6.243 6.97014C6.77879 6.83619 7.10455 6.29326 6.9706 5.75746L6.90251 5.48507Z" fill="#777E91"/>
</svg>
