<svg width="23" height="24" viewBox="0 0 23 24" fill="none" xmlns="http://www.w3.org/2000/svg">
<path fill-rule="evenodd" clip-rule="evenodd" d="M11.5 22C15.2049 22 18.2083 18.866 18.2083 15C18.2083 11.134 15.2049 8 11.5 8C7.79509 8 4.79167 11.134 4.79167 15C4.79167 18.866 7.79509 22 11.5 22ZM11.5 24C16.2635 24 20.125 19.9706 20.125 15C20.125 10.0294 16.2635 6 11.5 6C6.73654 6 2.875 10.0294 2.875 15C2.875 19.9706 6.73654 24 11.5 24Z" fill="#777E91"/>
<path fill-rule="evenodd" clip-rule="evenodd" d="M8.48476 3C7.05995 3 6.13325 4.56462 6.77044 5.89443L7.56508 7.55279C7.80177 8.04676 7.60989 8.64744 7.1365 8.89443C6.6631 9.14142 6.08745 8.94119 5.85076 8.44721L5.05613 6.78885C3.78173 4.12925 5.63513 1 8.48476 1H14.5144C17.364 1 19.2174 4.12925 17.943 6.78885L17.1484 8.44721C16.9117 8.94119 16.3361 9.14142 15.8627 8.89443C15.3893 8.64744 15.1974 8.04677 15.4341 7.55279L16.2287 5.89443C16.8659 4.56462 15.9392 3 14.5144 3H8.48476Z" fill="#777E91"/>
</svg>
