<svg width="24" height="24" viewBox="0 0 24 24" fill="none" xmlns="http://www.w3.org/2000/svg">
<path fill-rule="evenodd" clip-rule="evenodd" d="M5 2C3.34315 2 2 3.34315 2 5V19C2 20.6569 3.34315 22 5 22H19C20.6569 22 22 20.6569 22 19V5C22 3.34315 20.6569 2 19 2H5ZM7 8C7.55228 8 8 7.55228 8 7C8 6.44772 7.55228 6 7 6C6.44772 6 6 6.44772 6 7C6 7.55228 6.44772 8 7 8ZM7 10C6.44772 10 6 10.4477 6 11V17C6 17.5523 6.44772 18 7 18C7.55228 18 8 17.5523 8 17V11C8 10.4477 7.55228 10 7 10ZM12 14C12 12.8954 12.8954 12 14 12C15.1046 12 16 12.8954 16 14V17C16 17.5523 16.4477 18 17 18C17.5523 18 18 17.5523 18 17V14C18 11.7909 16.2091 10 14 10C13.2346 10 12.5193 10.215 11.9114 10.5879C11.7544 10.2412 11.4054 10 11 10C10.4477 10 10 10.4477 10 11V17C10 17.5523 10.4477 18 11 18C11.5523 18 12 17.5523 12 17V14Z" fill="#777E91"/>
</svg>
