<svg width="24" height="24" viewBox="0 0 24 24" fill="none" xmlns="http://www.w3.org/2000/svg">
<path fill-rule="evenodd" clip-rule="evenodd" d="M10.002 4.05539C10.5509 3.99415 11 4.44761 11 4.99989L11 20.9999C11 21.5522 10.5509 22.0056 10.0021 21.9444C9.16275 21.8508 8.33913 21.6393 7.55585 21.3148C6.46392 20.8625 5.47177 20.1996 4.63604 19.3639C3.80031 18.5281 3.13738 17.536 2.68508 16.444C2.23279 15.3521 2 14.1818 2 12.9999C2 11.818 2.23279 10.6477 2.68508 9.55574C3.13738 8.46381 3.80031 7.47166 4.63604 6.63593C5.47177 5.80021 6.46392 5.13727 7.55585 4.68498C8.33913 4.36053 9.16275 4.14903 10.002 4.05539Z" fill="#777E91"/>
<path fill-rule="evenodd" clip-rule="evenodd" d="M13.9979 19.9446C13.4491 20.0058 13 19.5524 13 19.0001L13 3.00011C13 2.44782 13.4491 1.99436 13.9979 2.0556C14.8372 2.14925 15.6609 2.36074 16.4442 2.68519C17.5361 3.13748 18.5282 3.80042 19.364 4.63614C20.1997 5.47187 20.8626 6.46402 21.3149 7.55595C21.7672 8.64788 22 9.81821 22 11.0001C22 12.182 21.7672 13.3523 21.3149 14.4443C20.8626 15.5362 20.1997 16.5283 19.364 17.3641C18.5282 18.1998 17.5361 18.8627 16.4442 19.315C15.6609 19.6395 14.8372 19.851 13.9979 19.9446Z" fill="#777E91"/>
</svg>
