<svg width="23" height="24" viewBox="0 0 23 24" fill="none" xmlns="http://www.w3.org/2000/svg">
<path fill-rule="evenodd" clip-rule="evenodd" d="M14.3747 17.7083C14.5949 17.6398 14.812 17.5594 15.0252 17.4673C15.8391 17.1155 16.5786 16.5999 17.2015 15.9499C17.8244 15.2998 18.3186 14.5282 18.6557 13.6789C18.9928 12.8296 19.1663 11.9194 19.1663 11.0001C19.1663 10.0809 18.9928 9.1706 18.6557 8.32132C18.3186 7.47204 17.8244 6.70037 17.2015 6.05036C16.5786 5.40035 15.8391 4.88473 15.0252 4.53295C14.812 4.44083 14.5949 4.36042 14.3747 4.2919L14.3747 17.7083ZM13.4144 19.9446C12.8884 20.0058 12.458 19.5524 12.458 19.0001L12.458 3.00011C12.458 2.44782 12.8884 1.99436 13.4144 2.0556C14.2187 2.14925 15.008 2.36074 15.7587 2.68519C16.8051 3.13748 17.7559 3.80042 18.5568 4.63614C19.3577 5.47187 19.993 6.46402 20.4265 7.55596C20.8599 8.64789 21.083 9.81821 21.083 11.0001C21.083 12.182 20.8599 13.3523 20.4265 14.4443C19.993 15.5362 19.3577 16.5283 18.5568 17.3641C17.7559 18.1998 16.8051 18.8627 15.7587 19.315C15.008 19.6395 14.2187 19.851 13.4144 19.9446Z" fill="#777E91"/>
<path fill-rule="evenodd" clip-rule="evenodd" d="M8.62532 6.29193C8.40508 6.36045 8.18795 6.44086 7.97482 6.53298C7.16093 6.88476 6.42141 7.40038 5.79848 8.05039C5.17556 8.7004 4.68143 9.47207 4.3443 10.3214C4.00717 11.1706 3.83366 12.0809 3.83366 13.0001C3.83366 13.9194 4.00717 14.8296 4.3443 15.6789C4.68143 16.5282 5.17556 17.2999 5.79848 17.9499C6.42141 18.5999 7.16093 19.1155 7.97482 19.4673C8.18795 19.5594 8.40508 19.6398 8.62533 19.7083L8.62532 6.29193ZM9.58562 4.05564C10.1116 3.9944 10.542 4.44785 10.542 5.00014L10.542 21.0001C10.542 21.5524 10.1116 22.0059 9.58562 21.9446C8.7813 21.851 7.99199 21.6395 7.24135 21.3151C6.19491 20.8628 5.2441 20.1998 4.4432 19.3641C3.64229 18.5284 3.00698 17.5362 2.57353 16.4443C2.14008 15.3524 1.91699 14.182 1.91699 13.0001C1.91699 11.8182 2.14008 10.6479 2.57353 9.55599C3.00698 8.46406 3.64229 7.4719 4.4432 6.63618C5.2441 5.80045 6.19491 5.13751 7.24135 4.68522C7.99199 4.36077 8.7813 4.14928 9.58562 4.05564Z" fill="#777E91"/>
</svg>
