<svg width="24" height="24" viewBox="0 0 24 24" fill="none" xmlns="http://www.w3.org/2000/svg">
<path d="M12 18C11.4477 18 11 18.4477 11 19V22H9C8.44771 22 8 22.4477 8 23C8 23.5523 8.44771 24 9 24H15C15.5523 24 16 23.5523 16 23C16 22.4477 15.5523 22 15 22H13V19C13 18.4477 12.5523 18 12 18Z" fill="#777E91"/>
<path d="M6.58908 1.30718C6.83065 0.510134 7.57285 0 8.40571 0H15.5949C16.4277 0 17.17 0.510135 17.4115 1.30718C18.5691 5.12651 21.0683 16 12.0003 16C2.93234 16 5.43154 5.12651 6.58908 1.30718Z" fill="#777E91"/>
</svg>
