<svg width="23" height="24" viewBox="0 0 23 24" fill="none" xmlns="http://www.w3.org/2000/svg">
<path d="M11.5003 14C10.9711 14 10.542 14.4477 10.542 15V22H8.62533C8.09605 22 7.66699 22.4477 7.66699 23C7.66699 23.5523 8.09605 24 8.62533 24H14.3753C14.9046 24 15.3337 23.5523 15.3337 23C15.3337 22.4477 14.9046 22 14.3753 22H12.4587V15C12.4587 14.4477 12.0296 14 11.5003 14Z" fill="#777E91"/>
<path fill-rule="evenodd" clip-rule="evenodd" d="M14.4118 2H8.58902C8.18572 2 7.94115 2.23377 7.86463 2.4704C7.19866 4.52989 6.42669 7.69224 6.75987 10.2178C6.92029 11.4339 7.31307 12.3172 7.92512 12.9043C8.52189 13.4768 9.56951 14 11.5004 14C13.4313 14 14.4789 13.4768 15.0757 12.9043C15.6877 12.3172 16.0805 11.4339 16.2409 10.2178C16.5741 7.69224 15.8022 4.52989 15.1362 2.4704C15.0597 2.23377 14.8151 2 14.4118 2ZM8.58902 0C7.44679 0 6.41375 0.701641 6.04856 1.83097C4.69039 6.03107 2.4229 16 11.5004 16C20.5779 16 18.3104 6.03108 16.9522 1.83097C16.5871 0.701641 15.554 0 14.4118 0H8.58902Z" fill="#777E91"/>
</svg>
