<svg width="24" height="24" viewBox="0 0 24 24" fill="none" xmlns="http://www.w3.org/2000/svg">
<path d="M10.4523 21.8809C10.7444 21.9263 10.9999 21.6941 10.9999 21.3985V13.4999C10.9999 13.2238 10.7761 12.9999 10.4999 12.9999H9.40338C9.14637 12.9999 8.93258 13.1951 8.89565 13.4495C8.56916 15.698 7.4945 17.704 5.93233 19.207C5.7112 19.4198 5.71007 19.7806 5.95438 19.9662C7.24438 20.9467 8.77977 21.621 10.4523 21.8809Z" fill="#777E91"/>
<path d="M3.80815 17.7368C3.97025 17.9678 4.29577 18.0028 4.50065 17.8088C5.6809 16.6907 6.52065 15.2169 6.84813 13.5589C6.90639 13.2639 6.67251 12.9999 6.37182 12.9999H2.60141C2.30574 12.9999 2.07358 13.2554 2.11897 13.5476C2.35839 15.0886 2.94969 16.5133 3.80815 17.7368Z" fill="#777E91"/>
<path d="M2.11897 10.4523C2.07358 10.7445 2.30574 10.9999 2.60141 10.9999H6.37182C6.67251 10.9999 6.90639 10.736 6.84813 10.441C6.52065 8.78301 5.6809 7.30914 4.50065 6.19111C4.29577 5.99702 3.97025 6.03203 3.80816 6.26306C2.9497 7.4866 2.35839 8.91125 2.11897 10.4523Z" fill="#777E91"/>
<path d="M5.95438 4.03362C5.71007 4.21931 5.7112 4.58009 5.93233 4.79284C7.4945 6.29584 8.56916 8.30191 8.89565 10.5504C8.93258 10.8048 9.14637 10.9999 9.40338 10.9999H10.4999C10.7761 10.9999 10.9999 10.7761 10.9999 10.4999V2.60141C10.9999 2.30574 10.7444 2.07358 10.4523 2.11897C8.77977 2.37882 7.24438 3.05314 5.95438 4.03362Z" fill="#777E91"/>
<path d="M18.0675 19.207C18.2887 19.4198 18.2898 19.7806 18.0455 19.9662C16.7555 20.9467 15.2201 21.621 13.5476 21.8809C13.2554 21.9263 12.9999 21.6941 12.9999 21.3985V13.4999C12.9999 13.2238 13.2238 12.9999 13.4999 12.9999H14.5965C14.8535 12.9999 15.0673 13.1951 15.1042 13.4495C15.4307 15.698 16.5054 17.704 18.0675 19.207Z" fill="#777E91"/>
<path d="M19.4992 17.8088C19.7041 18.0028 20.0296 17.9678 20.1917 17.7368C21.0502 16.5133 21.6415 15.0886 21.8809 13.5476C21.9263 13.2554 21.6941 12.9999 21.3985 12.9999H17.6281C17.3274 12.9999 17.0935 13.2639 17.1517 13.5589C17.4792 15.2169 18.319 16.6907 19.4992 17.8088Z" fill="#777E91"/>
<path d="M21.3985 10.9999C21.6941 10.9999 21.9263 10.7445 21.8809 10.4523C21.6415 8.91125 21.0502 7.4866 20.1917 6.26306C20.0296 6.03203 19.7041 5.99702 19.4992 6.19111C18.319 7.30914 17.4792 8.78301 17.1517 10.441C17.0935 10.736 17.3274 10.9999 17.6281 10.9999H21.3985Z" fill="#777E91"/>
<path d="M18.0675 4.79284C18.2887 4.58009 18.2898 4.21931 18.0455 4.03362C16.7555 3.05314 15.2201 2.37882 13.5476 2.11897C13.2554 2.07358 12.9999 2.30574 12.9999 2.60141V10.4999C12.9999 10.7761 13.2238 10.9999 13.4999 10.9999H14.5965C14.8535 10.9999 15.0673 10.8048 15.1042 10.5504C15.4307 8.30191 16.5054 6.29584 18.0675 4.79284Z" fill="#777E91"/>
</svg>
