<svg width="23" height="24" viewBox="0 0 23 24" fill="none" xmlns="http://www.w3.org/2000/svg">
<path d="M5.27116 4.40041C7.09639 6.03096 8.32729 8.36504 8.57801 11H10.542V2.04938C10.8572 2.01672 11.1769 2 11.5003 2C11.8238 2 12.1435 2.01672 12.4587 2.04938V11H14.4226C14.6734 8.36504 15.9043 6.03096 17.7295 4.40041C18.2167 4.83562 18.6615 5.32093 19.0566 5.84871C17.5986 7.11521 16.598 8.93545 16.3513 11H21.0363C21.0676 11.3289 21.0837 11.6625 21.0837 12C21.0837 12.3375 21.0676 12.6711 21.0363 13H16.3513C16.598 15.0645 17.5986 16.8848 19.0566 18.1513C18.6615 18.6791 18.2167 19.1644 17.7295 19.5996C15.9043 17.969 14.6734 15.635 14.4226 13H12.4587V21.9506C12.1435 21.9833 11.8238 22 11.5003 22C11.1769 22 10.8572 21.9833 10.542 21.9506V13H8.57801C8.32729 15.635 7.09639 17.969 5.27116 19.5996C4.784 19.1644 4.33917 18.6791 3.94403 18.1513C5.40201 16.8848 6.40263 15.0645 6.64934 13H1.96431C1.93302 12.6711 1.91699 12.3375 1.91699 12C1.91699 11.6625 1.93301 11.3289 1.96431 11H6.64934C6.40263 8.93545 5.40201 7.11521 3.94403 5.84871C4.33918 5.32093 4.784 4.83562 5.27116 4.40041Z" fill="#777E91"/>
<path fill-rule="evenodd" clip-rule="evenodd" d="M11.5003 20C15.7345 20 19.167 16.4183 19.167 12C19.167 7.58172 15.7345 4 11.5003 4C7.26614 4 3.83366 7.58172 3.83366 12C3.83366 16.4183 7.26614 20 11.5003 20ZM11.5003 22C16.7931 22 21.0837 17.5228 21.0837 12C21.0837 6.47715 16.7931 2 11.5003 2C6.2076 2 1.91699 6.47715 1.91699 12C1.91699 17.5228 6.2076 22 11.5003 22Z" fill="#777E91"/>
</svg>
