<svg width="24" height="24" viewBox="0 0 24 24" fill="none" xmlns="http://www.w3.org/2000/svg">
<path fill-rule="evenodd" clip-rule="evenodd" d="M12 22C17.5228 22 22 17.5228 22 12C22 6.47715 17.5228 2 12 2C6.47715 2 2 6.47715 2 12C2 14.2512 2.74389 16.3287 3.99927 18L3.99977 20.7708C3.99989 21.4049 4.58261 21.8788 5.20344 21.7497L8 21.1679C9.22492 21.7031 10.5778 22 12 22ZM6.70499 13.7071L9.45558 9.77771C9.76068 9.34185 10.3536 9.22119 10.8048 9.50317L13.4524 11.1579C13.7857 11.3662 14.2101 11.36 14.5371 11.142L16.7091 9.69395C16.8782 9.58124 17.1033 9.60353 17.247 9.74721C17.3933 9.89348 17.4134 10.1236 17.2948 10.2931L14.5442 14.2225C14.2391 14.6584 13.6462 14.779 13.195 14.497L10.5474 12.8423C10.2141 12.634 9.78972 12.6402 9.4627 12.8582L7.29067 14.3063C7.1216 14.419 6.89647 14.3967 6.75279 14.253C6.60653 14.1067 6.58637 13.8766 6.70499 13.7071Z" fill="#777E91"/>
</svg>
