<svg width="24" height="24" viewBox="0 0 24 24" fill="none" xmlns="http://www.w3.org/2000/svg">
<path fill-rule="evenodd" clip-rule="evenodd" d="M5.79877 17.0656C5.92883 17.2388 5.99917 17.4494 5.99921 17.666L5.99944 18.9266C5.9995 19.2437 6.29085 19.4806 6.60127 19.4161L7.90468 19.1449C8.10766 19.1027 8.31874 19.1246 8.50872 19.2076L8.80074 19.3352C9.7779 19.7621 10.8585 20 12 20C16.4183 20 20 16.4183 20 12C20 7.58172 16.4183 4 12 4C7.58172 4 4 7.58172 4 12C4 13.8033 4.59424 15.462 5.5984 16.7988L5.79877 17.0656ZM8 21.1679C9.22492 21.7031 10.5778 22 12 22C17.5228 22 22 17.5228 22 12C22 6.47715 17.5228 2 12 2C6.47715 2 2 6.47715 2 12C2 14.2512 2.74389 16.3287 3.99927 18L3.99977 20.7708C3.99989 21.4049 4.58261 21.8788 5.20344 21.7497L8 21.1679Z" fill="#777E91"/>
<path d="M9.45558 9.77771L6.70499 13.7071C6.58637 13.8766 6.60653 14.1067 6.75279 14.253C6.89647 14.3967 7.1216 14.419 7.29067 14.3063L9.4627 12.8582C9.78972 12.6402 10.2141 12.634 10.5474 12.8423L13.195 14.497C13.6462 14.779 14.2391 14.6584 14.5442 14.2225L17.2948 10.2931C17.4134 10.1236 17.3933 9.89348 17.247 9.74721C17.1033 9.60353 16.8782 9.58124 16.7091 9.69395L14.5371 11.142C14.2101 11.36 13.7857 11.3662 13.4524 11.1579L10.8048 9.50317C10.3536 9.22119 9.76068 9.34185 9.45558 9.77771Z" fill="#777E91"/>
</svg>
