<svg width="23" height="24" viewBox="0 0 23 24" fill="none" xmlns="http://www.w3.org/2000/svg">
<path fill-rule="evenodd" clip-rule="evenodd" d="M16.2917 3H6.70833C5.64979 3 4.79167 3.89543 4.79167 5V19C4.79167 20.1046 5.64979 21 6.70833 21H16.2917C17.3502 21 18.2083 20.1046 18.2083 19V5C18.2083 3.89543 17.3502 3 16.2917 3ZM6.70833 1C4.59124 1 2.875 2.79086 2.875 5V19C2.875 21.2091 4.59124 23 6.70833 23H16.2917C18.4088 23 20.125 21.2091 20.125 19V5C20.125 2.79086 18.4088 1 16.2917 1H6.70833Z" fill="#777E91"/>
<path d="M7.66634 5C7.13707 5 6.70801 5.44772 6.70801 6C6.70801 6.55228 7.13707 7 7.66634 7H15.333C15.8623 7 16.2913 6.55228 16.2913 6C16.2913 5.44772 15.8623 5 15.333 5H7.66634Z" fill="#777E91"/>
<path d="M7.66634 11C8.19561 11 8.62467 10.5523 8.62467 10C8.62467 9.44771 8.19561 9 7.66634 9C7.13707 9 6.70801 9.44771 6.70801 10C6.70801 10.5523 7.13707 11 7.66634 11Z" fill="#777E91"/>
<path d="M11.4997 11C12.0289 11 12.458 10.5523 12.458 10C12.458 9.44771 12.0289 9 11.4997 9C10.9704 9 10.5413 9.44771 10.5413 10C10.5413 10.5523 10.9704 11 11.4997 11Z" fill="#777E91"/>
<path d="M16.2913 10C16.2913 10.5523 15.8623 11 15.333 11C14.8037 11 14.3747 10.5523 14.3747 10C14.3747 9.44771 14.8037 9 15.333 9C15.8623 9 16.2913 9.44771 16.2913 10Z" fill="#777E91"/>
<path d="M7.66634 15C8.19561 15 8.62467 14.5523 8.62467 14C8.62467 13.4477 8.19561 13 7.66634 13C7.13707 13 6.70801 13.4477 6.70801 14C6.70801 14.5523 7.13707 15 7.66634 15Z" fill="#777E91"/>
<path d="M12.458 14C12.458 14.5523 12.0289 15 11.4997 15C10.9704 15 10.5413 14.5523 10.5413 14C10.5413 13.4477 10.9704 13 11.4997 13C12.0289 13 12.458 13.4477 12.458 14Z" fill="#777E91"/>
<path d="M15.333 15C15.8623 15 16.2913 14.5523 16.2913 14C16.2913 13.4477 15.8623 13 15.333 13C14.8037 13 14.3747 13.4477 14.3747 14C14.3747 14.5523 14.8037 15 15.333 15Z" fill="#777E91"/>
<path d="M8.62467 18C8.62467 18.5523 8.19561 19 7.66634 19C7.13707 19 6.70801 18.5523 6.70801 18C6.70801 17.4477 7.13707 17 7.66634 17C8.19561 17 8.62467 17.4477 8.62467 18Z" fill="#777E91"/>
<path d="M11.4997 19C12.0289 19 12.458 18.5523 12.458 18C12.458 17.4477 12.0289 17 11.4997 17C10.9704 17 10.5413 17.4477 10.5413 18C10.5413 18.5523 10.9704 19 11.4997 19Z" fill="#777E91"/>
<path d="M16.2913 18C16.2913 18.5523 15.8623 19 15.333 19C14.8037 19 14.3747 18.5523 14.3747 18C14.3747 17.4477 14.8037 17 15.333 17C15.8623 17 16.2913 17.4477 16.2913 18Z" fill="#777E91"/>
</svg>
