<svg width="23" height="24" viewBox="0 0 23 24" fill="none" xmlns="http://www.w3.org/2000/svg">
<path fill-rule="evenodd" clip-rule="evenodd" d="M11.5 11C9.80127 11 8.28809 11.0646 7.05178 11.1466C5.87909 11.2243 4.97738 12.158 4.89322 13.373C4.83335 14.2373 4.79167 15.1481 4.79167 16C4.79167 16.8519 4.83335 17.7627 4.89322 18.627C4.97738 19.842 5.87909 20.7757 7.05178 20.8534C8.28809 20.9354 9.80127 21 11.5 21C13.1987 21 14.7119 20.9354 15.9482 20.8534C17.1209 20.7757 18.0226 19.842 18.1068 18.627C18.1666 17.7627 18.2083 16.8519 18.2083 16C18.2083 15.1481 18.1666 14.2373 18.1068 13.373C18.0226 12.158 17.1209 11.2243 15.9482 11.1466C14.7119 11.0646 13.1987 11 11.5 11ZM6.93019 9.15059C4.80485 9.29156 3.13507 11.0124 2.98154 13.2288C2.91958 14.1234 2.875 15.085 2.875 16C2.875 16.915 2.91958 17.8766 2.98154 18.7712C3.13507 20.9876 4.80485 22.7084 6.93019 22.8494C8.20121 22.9337 9.75531 23 11.5 23C13.2447 23 14.7988 22.9337 16.0698 22.8494C18.1951 22.7084 19.8649 20.9876 20.0185 18.7712C20.0804 17.8766 20.125 16.915 20.125 16C20.125 15.085 20.0804 14.1234 20.0185 13.2288C19.8649 11.0124 18.1951 9.29156 16.0698 9.15059C14.7988 9.06629 13.2447 9 11.5 9C9.75531 9 8.2012 9.06629 6.93019 9.15059Z" fill="#777E91"/>
<path fill-rule="evenodd" clip-rule="evenodd" d="M12.458 16.7324C13.0309 16.3866 13.4163 15.7403 13.4163 15C13.4163 13.8954 12.5582 13 11.4997 13C10.4411 13 9.58301 13.8954 9.58301 15C9.58301 15.7403 9.96845 16.3866 10.5413 16.7324V18C10.5413 18.5523 10.9704 19 11.4997 19C12.0289 19 12.458 18.5523 12.458 18V16.7324Z" fill="#777E91"/>
<path fill-rule="evenodd" clip-rule="evenodd" d="M6.70801 6C6.70801 3.23858 8.85331 1 11.4997 1C14.146 1 16.2913 3.23858 16.2913 6V10C16.2913 10.5523 15.8623 11 15.333 11C14.8037 11 14.3747 10.5523 14.3747 10V6C14.3747 4.34315 13.0875 3 11.4997 3C9.91186 3 8.62467 4.34315 8.62467 6V10C8.62467 10.5523 8.19561 11 7.66634 11C7.13707 11 6.70801 10.5523 6.70801 10V6Z" fill="#777E91"/>
</svg>
