<svg width="24" height="24" viewBox="0 0 24 24" fill="none" xmlns="http://www.w3.org/2000/svg">
<path fill-rule="evenodd" clip-rule="evenodd" d="M4 3C2.34315 3 1 4.34315 1 6V18C1 19.6569 2.34315 21 4 21H20C21.6569 21 23 19.6569 23 18V6C23 4.34315 21.6569 3 20 3H4ZM6.64021 7.2318C6.21593 6.87824 5.58537 6.93556 5.2318 7.35984C4.87824 7.78412 4.93556 8.41468 5.35984 8.76825L10.0795 12.7013C11.192 13.6284 12.808 13.6284 13.9206 12.7013L18.6402 8.76825C19.0645 8.41468 19.1218 7.78412 18.7682 7.35984C18.4147 6.93556 17.7841 6.87824 17.3598 7.2318L12.6402 11.1648C12.2694 11.4739 11.7307 11.4739 11.3598 11.1648L6.64021 7.2318Z" fill="#777E91"/>
</svg>
