<svg width="23" height="24" viewBox="0 0 23 24" fill="none" xmlns="http://www.w3.org/2000/svg">
<path fill-rule="evenodd" clip-rule="evenodd" d="M19.1663 5H3.83301C3.30373 5 2.87467 5.44772 2.87467 6V18C2.87467 18.5523 3.30373 19 3.83301 19H19.1663C19.6956 19 20.1247 18.5523 20.1247 18V6C20.1247 5.44772 19.6956 5 19.1663 5ZM3.83301 3C2.24519 3 0.958008 4.34315 0.958008 6V18C0.958008 19.6569 2.24519 21 3.83301 21H19.1663C20.7542 21 22.0413 19.6569 22.0413 18V6C22.0413 4.34315 20.7542 3 19.1663 3H3.83301Z" fill="#777E91"/>
<path fill-rule="evenodd" clip-rule="evenodd" d="M5.01414 7.35984C5.35297 6.93556 5.95726 6.87824 6.36386 7.2318L10.8868 11.1648C11.2422 11.4739 11.7585 11.4739 12.1139 11.1648L16.6368 7.2318C17.0434 6.87824 17.6477 6.93556 17.9866 7.35984C18.3254 7.78412 18.2705 8.41468 17.8639 8.76825L13.3409 12.7013C12.2747 13.6284 10.726 13.6284 9.65982 12.7013L5.13684 8.76825C4.73024 8.41468 4.67531 7.78412 5.01414 7.35984Z" fill="#777E91"/>
</svg>
