<svg width="23" height="24" viewBox="0 0 23 24" fill="none" xmlns="http://www.w3.org/2000/svg">
<path fill-rule="evenodd" clip-rule="evenodd" d="M11.8977 5L11.446 3.66649C11.3135 3.2754 10.9559 3 10.5417 3C10.1274 3 9.76984 3.2754 9.63737 3.66649L9.18568 5H6.70833C5.64979 5 4.79167 5.89543 4.79167 7V15C4.79167 16.1046 5.64979 17 6.70833 17H14.375C15.4335 17 16.2917 16.1046 16.2917 15V7C16.2917 5.89543 15.4335 5 14.375 5H11.8977ZM7.83026 3H6.70833C4.59124 3 2.875 4.79086 2.875 7V15C2.875 17.2091 4.59124 19 6.70833 19H14.375C16.4921 19 18.2083 17.2091 18.2083 15V7C18.2083 4.79086 16.4921 3 14.375 3H13.2531C12.8584 1.83481 11.7935 1 10.5417 1C9.28987 1 8.22494 1.83481 7.83026 3Z" fill="#777E91"/>
<path d="M8.62533 17C8.09605 17 7.66699 17.4477 7.66699 18V20C7.66699 20.5523 8.09605 21 8.62533 21C9.1546 21 9.58366 20.5523 9.58366 20V18C9.58366 17.4477 9.1546 17 8.62533 17Z" fill="#777E91"/>
<path d="M13.417 18C13.417 17.4477 12.9879 17 12.4587 17C11.9294 17 11.5003 17.4477 11.5003 18V20C11.5003 21.6569 12.7875 23 14.3753 23H19.167C19.6963 23 20.1253 22.5523 20.1253 22C20.1253 21.4477 19.6963 21 19.167 21H14.3753C13.8461 21 13.417 20.5523 13.417 20V18Z" fill="#777E91"/>
<path d="M14.3753 8C13.8461 8 13.417 8.44771 13.417 9C13.417 9.55229 13.8461 10 14.3753 10H17.2503C17.7796 10 18.2087 9.55229 18.2087 9C18.2087 8.44771 17.7796 8 17.2503 8H14.3753Z" fill="#777E91"/>
<path d="M14.3753 12C13.8461 12 13.417 12.4477 13.417 13C13.417 13.5523 13.8461 14 14.3753 14H17.2503C17.7796 14 18.2087 13.5523 18.2087 13C18.2087 12.4477 17.7796 12 17.2503 12H14.3753Z" fill="#777E91"/>
</svg>
