<svg width="24" height="24" viewBox="0 0 24 24" fill="none" xmlns="http://www.w3.org/2000/svg">
<path fill-rule="evenodd" clip-rule="evenodd" d="M23 4.86852C23 2.99976 21 2.4997 19.5 3.50017L15.4453 6.16796C15.4299 6.17822 15.4148 6.18891 15.4 6.20001L12.3889 8.45836C12.0858 8.68563 11.6804 8.72218 11.3416 8.55279L9.34164 7.55279C8.49706 7.1305 7.50294 7.1305 6.65836 7.55279L2.65836 9.55279C1.64201 10.061 1 11.0998 1 12.2361V20C1 20.5523 1.44772 21 2 21H22C22.5523 21 23 20.5523 23 20V4.86852ZM4 11.9999C3.44772 11.9999 3 12.4476 3 12.9999V17.9999C3 18.5522 3.44772 18.9999 4 18.9999C4.55228 18.9999 5 18.5522 5 17.9999V12.9999C5 12.4476 4.55228 11.9999 4 11.9999ZM7 10.9999C7 10.4476 7.44772 9.99992 8 9.99992C8.55228 9.99992 9 10.4476 9 10.9999V17.9999C9 18.5522 8.55228 18.9999 8 18.9999C7.44772 18.9999 7 18.5522 7 17.9999V10.9999ZM12 10.9999C11.4477 10.9999 11 11.4476 11 11.9999V17.9999C11 18.5522 11.4477 18.9999 12 18.9999C12.5523 18.9999 13 18.5522 13 17.9999V11.9999C13 11.4476 12.5523 10.9999 12 10.9999ZM15 9.99992C15 9.44764 15.4477 8.99992 16 8.99992C16.5523 8.99992 17 9.44764 17 9.99992V17.9999C17 18.5522 16.5523 18.9999 16 18.9999C15.4477 18.9999 15 18.5522 15 17.9999V9.99992ZM20 5.99993C19.4477 5.99993 19 6.44764 19 6.99993V17.9999C19 18.5522 19.4477 18.9999 20 18.9999C20.5523 18.9999 21 18.5522 21 17.9999V6.99993C21 6.44764 20.5523 5.99993 20 5.99993Z" fill="#777E91"/>
</svg>
