<svg width="24" height="24" viewBox="0 0 24 24" fill="none" xmlns="http://www.w3.org/2000/svg">
<path d="M22 7C21.4477 7 21 7.44772 21 8V20C21 20.5523 21.4477 21 22 21C22.5523 21 23 20.5523 23 20V8C23 7.44772 22.5523 7 22 7Z" fill="#777E91"/>
<path d="M16 12C16 11.4477 16.4477 11 17 11C17.5523 11 18 11.4477 18 12V20C18 20.5523 17.5523 21 17 21C16.4477 21 16 20.5523 16 20V12Z" fill="#777E91"/>
<path d="M6 13C6 12.4477 6.44772 12 7 12C7.55228 12 8 12.4477 8 13V20C8 20.5523 7.55228 21 7 21C6.44772 21 6 20.5523 6 20V13Z" fill="#777E91"/>
<path d="M1 15C1 14.4477 1.44772 14 2 14C2.55228 14 3 14.4477 3 15V20C3 20.5523 2.55228 21 2 21C1.44772 21 1 20.5523 1 20V15Z" fill="#777E91"/>
<path d="M12 13C11.4477 13 11 13.4477 11 14V20C11 20.5523 11.4477 21 12 21C12.5523 21 13 20.5523 13 20V14C13 13.4477 12.5523 13 12 13Z" fill="#777E91"/>
<path fill-rule="evenodd" clip-rule="evenodd" d="M22.7811 3.37534C23.1261 3.8066 23.0562 4.4359 22.625 4.78091L17.8564 8.59576C17.6262 8.7799 17.3702 8.92911 17.0965 9.03858L12.9237 10.7077C12.3833 10.9238 11.7918 10.9781 11.2212 10.864L7.38715 10.0972C7.19693 10.0592 6.99975 10.0773 6.81964 10.1493L2.37166 11.9285C1.85887 12.1336 1.2769 11.8842 1.07179 11.3714C0.866676 10.8586 1.11609 10.2767 1.62888 10.0716L6.07686 8.29237C6.61719 8.07623 7.20872 8.02192 7.77938 8.13605L11.6134 8.90286C11.8036 8.9409 12.0008 8.9228 12.1809 8.85075L16.3537 7.18163C16.4449 7.14514 16.5303 7.0954 16.607 7.03402L21.3756 3.21917C21.8068 2.87416 22.4361 2.94408 22.7811 3.37534Z" fill="#777E91"/>
</svg>
