<svg width="24" height="24" viewBox="0 0 24 24" fill="none" xmlns="http://www.w3.org/2000/svg">
<path fill-rule="evenodd" clip-rule="evenodd" d="M1 20C1 19.4477 1.44772 19 2 19H22C22.5523 19 23 19.4477 23 20C23 20.5523 22.5523 21 22 21H2C1.44772 21 1 20.5523 1 20Z" fill="#777E91"/>
<path d="M4 3C3.44772 3 3 3.44772 3 4V16C3 16.5523 3.44772 17 4 17C4.55228 17 5 16.5523 5 16V4C5 3.44772 4.55228 3 4 3Z" fill="#777E91"/>
<path d="M20 5C19.4477 5 19 5.44771 19 6V16C19 16.5523 19.4477 17 20 17C20.5523 17 21 16.5523 21 16V6C21 5.44772 20.5523 5 20 5Z" fill="#777E91"/>
<path d="M15 12C15 11.4477 15.4477 11 16 11C16.5523 11 17 11.4477 17 12V16C17 16.5523 16.5523 17 16 17C15.4477 17 15 16.5523 15 16V12Z" fill="#777E91"/>
<path d="M7 14C7 13.4477 7.44772 13 8 13C8.55228 13 9 13.4477 9 14V16C9 16.5523 8.55228 17 8 17C7.44772 17 7 16.5523 7 16V14Z" fill="#777E91"/>
<path d="M11 8C11 7.44772 11.4477 7 12 7C12.5523 7 13 7.44772 13 8V16C13 16.5523 12.5523 17 12 17C11.4477 17 11 16.5523 11 16V8Z" fill="#777E91"/>
</svg>
