<svg width="24" height="24" viewBox="0 0 24 24" fill="none" xmlns="http://www.w3.org/2000/svg">
<path d="M22 13.8859C22 13.1877 21.3026 12.7044 20.6489 12.9496L15.8532 14.748C15.3598 14.933 14.8264 14.9848 14.3067 14.8981L9.36455 14.0745C9.1913 14.0456 9.01349 14.0629 8.84903 14.1245L2.64888 16.4496C2.25857 16.5959 2 16.9691 2 17.3859V20.0002C2 21.1048 2.89543 22.0002 4 22.0002H20C21.1046 22.0002 22 21.1048 22 20.0002V13.8859Z" fill="#777E91"/>
<path d="M22 4.13517C22 2.4395 20.0223 1.51318 18.7196 2.59873L15.0644 5.64479C14.8407 5.83117 14.5469 5.91083 14.2598 5.86296L9.94453 5.14376C9.19272 5.01846 8.42141 5.18401 7.78724 5.60679L3.3359 8.57435C2.5013 9.13074 2 10.0674 2 11.0705V13.1138C2 13.812 2.69737 14.2953 3.35112 14.0501L8.14678 12.2518C8.64017 12.0667 9.17358 12.0149 9.69335 12.1016L14.6355 12.9253C14.8087 12.9541 14.9865 12.9369 15.151 12.8752L21.3511 10.5501C21.7414 10.4038 22 10.0307 22 9.61381V4.13517Z" fill="#777E91"/>
</svg>
