<svg width="23" height="24" viewBox="0 0 23 24" fill="none" xmlns="http://www.w3.org/2000/svg">
<path fill-rule="evenodd" clip-rule="evenodd" d="M21.0837 5.2699C21.0837 2.72639 18.2407 1.33691 16.3681 2.96523L14.437 4.64447C14.2227 4.83085 13.9411 4.91051 13.6659 4.86265L9.5305 4.14344C8.81002 4.01814 8.07084 4.18369 7.46309 4.60647L3.19723 7.57403C2.39741 8.13043 1.91699 9.06712 1.91699 10.0702V18.9998C1.91699 20.6567 3.20417 21.9998 4.79199 21.9998H18.2087C19.7965 21.9998 21.0837 20.6567 21.0837 18.9998V5.2699ZM17.5952 4.50167C18.2193 3.9589 19.167 4.42205 19.167 5.2699V10.3819L14.5042 12.8146C14.3231 12.9091 14.1179 12.9413 13.9181 12.9066L9.39766 12.1204C8.79832 12.0162 8.18273 12.1128 7.63927 12.3963L3.83366 14.3819V10.0702C3.83366 9.73583 3.9938 9.4236 4.2604 9.23813L8.52627 6.27057C8.72885 6.12965 8.97524 6.07446 9.21541 6.11623L13.3508 6.83544C14.1764 6.97902 15.021 6.74004 15.664 6.18092L17.5952 4.50167ZM3.83366 16.6179V18.9998C3.83366 19.5521 4.26272 19.9998 4.79199 19.9998H18.2087C18.7379 19.9998 19.167 19.5521 19.167 18.9998V12.6179L15.3614 14.6035C14.8179 14.887 14.2023 14.9836 13.603 14.8794L9.08256 14.0932C8.88278 14.0585 8.67759 14.0907 8.49643 14.1852L3.83366 16.6179Z" fill="#777E91"/>
</svg>
