<svg width="23" height="24" viewBox="0 0 23 24" fill="none" xmlns="http://www.w3.org/2000/svg">
<path fill-rule="evenodd" clip-rule="evenodd" d="M11.5003 20C15.7345 20 19.167 16.4183 19.167 12C19.167 7.58172 15.7345 4 11.5003 4C7.26614 4 3.83366 7.58172 3.83366 12C3.83366 16.4183 7.26614 20 11.5003 20ZM11.5003 22C16.7931 22 21.0837 17.5228 21.0837 12C21.0837 6.47715 16.7931 2 11.5003 2C6.2076 2 1.91699 6.47715 1.91699 12C1.91699 17.5228 6.2076 22 11.5003 22Z" fill="#777E91"/>
<path d="M7.66699 10C7.66699 8.89543 8.52511 8 9.58366 8H13.417C14.4755 8 15.3337 8.89543 15.3337 10V14C15.3337 15.1046 14.4755 16 13.417 16H9.58366C8.52511 16 7.66699 15.1046 7.66699 14V10Z" fill="#777E91"/>
</svg>
