<svg width="24" height="24" viewBox="0 0 24 24" fill="none" xmlns="http://www.w3.org/2000/svg">
<path d="M1 20C1 19.4477 1.44772 19 2 19H16C16.5523 19 17 19.4477 17 20C17 20.5523 16.5523 21 16 21H2C1.44772 21 1 20.5523 1 20Z" fill="#777E91"/>
<path d="M23 9C23 6.79086 21.2091 5 19 5C18.4477 5 18 5.44772 18 6C18 6.55228 18.4477 7 19 7C20.1046 7 21 7.89543 21 9C21 10.1046 20.1046 11 19 11C18.4477 11 18 11.4477 18 12C18 12.5523 18.4477 13 19 13C21.2091 13 23 11.2091 23 9Z" fill="#777E91"/>
<path d="M1 5C1 3.89543 1.89543 3 3 3H14C15.1046 3 16 3.89543 16 5V10C16 13.3137 13.3137 16 10 16H7C3.68629 16 1 13.3137 1 10V5Z" fill="#777E91"/>
</svg>
