<svg width="23" height="24" viewBox="0 0 23 24" fill="none" xmlns="http://www.w3.org/2000/svg">
<path d="M0.958008 20C0.958008 19.4477 1.38707 19 1.91634 19H16.2913C16.8206 19 17.2497 19.4477 17.2497 20V20C17.2497 20.5523 16.8206 21 16.2913 21H1.91634C1.38707 21 0.958008 20.5523 0.958008 20V20Z" fill="#777E91"/>
<path fill-rule="evenodd" clip-rule="evenodd" d="M0.958008 6C0.958008 4.34315 2.24519 3 3.83301 3H14.3747C15.6265 3 16.6914 3.83481 17.0861 5H18.208C20.3251 5 22.0413 6.79086 22.0413 9C22.0413 11.2091 20.3251 13 18.208 13H16.6041C15.5275 15.3649 13.2174 17 10.5413 17H7.66634C3.96143 17 0.958008 13.866 0.958008 10V6ZM3.83301 5H14.3747C14.9039 5 15.333 5.44772 15.333 6V10C15.333 12.7614 13.1877 15 10.5413 15H7.66634C5.01998 15 2.87467 12.7614 2.87467 10V6C2.87467 5.44772 3.30373 5 3.83301 5ZM17.1817 11H18.208C19.2666 11 20.1247 10.1046 20.1247 9C20.1247 7.89543 19.2666 7 18.208 7H17.2497V10C17.2497 10.3395 17.2265 10.6734 17.1817 11Z" fill="#777E91"/>
</svg>
