<svg width="24" height="24" viewBox="0 0 24 24" fill="none" xmlns="http://www.w3.org/2000/svg">
<path fill-rule="evenodd" clip-rule="evenodd" d="M2.5 16C2.22386 16 2 16.2239 2 16.5V20C2 21.1046 2.89543 22 4 22H7.5C7.77614 22 8 21.7762 8 21.5V20C8 19.4478 8.44771 19 9 19C9.55229 19 10 19.4478 10 20V21.5C10 21.7762 10.2239 22 10.5 22H13.5C13.7761 22 14 21.7762 14 21.5V20C14 19.4478 14.4477 19 15 19C15.5523 19 16 19.4478 16 20V21.5C16 21.7762 16.2239 22 16.5 22H19.6716C21.4534 22 22.3457 19.8458 21.0858 18.5858L5.41421 2.91426C4.15428 1.65433 2 2.54666 2 4.32847V7.50005C2 7.77619 2.22386 8.00005 2.5 8.00005H4C4.55228 8.00005 5 8.44776 5 9.00005C5 9.55233 4.55228 10 4 10H2.5C2.22386 10 2 10.2239 2 10.5V13.5C2 13.7762 2.22386 14 2.5 14H4C4.55228 14 5 14.4478 5 15C5 15.5523 4.55228 16 4 16H2.5ZM8 14.9999V13.4142C8 12.5233 9.07714 12.0771 9.7071 12.7071L11.2929 14.2928C11.9229 14.9228 11.4767 15.9999 10.5858 15.9999H9C8.44772 15.9999 8 15.5522 8 14.9999Z" fill="#777E91"/>
</svg>
