<svg width="23" height="24" viewBox="0 0 23 24" fill="none" xmlns="http://www.w3.org/2000/svg">
<path d="M7.66699 14.9999V13.4141C7.66699 12.5232 8.69925 12.077 9.30297 12.707L10.8227 14.2928C11.4264 14.9228 10.9988 15.9999 10.145 15.9999H8.62533C8.09605 15.9999 7.66699 15.5522 7.66699 14.9999Z" fill="#777E91"/>
<path d="M2.87533 8C2.34605 8 1.91699 8.44772 1.91699 9C1.91699 9.55228 2.34605 10 2.87533 10H4.79199C5.32127 10 5.75033 9.55228 5.75033 9C5.75033 8.44772 5.32127 8 4.79199 8H2.87533Z" fill="#777E91"/>
<path d="M2.87533 14C2.34605 14 1.91699 14.4477 1.91699 15C1.91699 15.5523 2.34605 16 2.87533 16H4.79199C5.32127 16 5.75033 15.5523 5.75033 15C5.75033 14.4477 5.32127 14 4.79199 14H2.87533Z" fill="#777E91"/>
<path d="M8.62533 22C8.09605 22 7.66699 21.5523 7.66699 21V19C7.66699 18.4477 8.09605 18 8.62533 18C9.1546 18 9.58366 18.4477 9.58366 19V21C9.58366 21.5523 9.1546 22 8.62533 22Z" fill="#777E91"/>
<path d="M13.417 21C13.417 21.5523 13.8461 22 14.3753 22C14.9046 22 15.3337 21.5523 15.3337 21V19C15.3337 18.4477 14.9046 18 14.3753 18C13.8461 18 13.417 18.4477 13.417 19V21Z" fill="#777E91"/>
<path fill-rule="evenodd" clip-rule="evenodd" d="M3.83366 5.24283V19.0002C3.83366 19.5525 4.26272 20.0002 4.79199 20.0002H17.9761C18.8299 20.0002 19.2575 18.923 18.6538 18.2931L5.46964 4.53572C4.86592 3.90576 3.83366 4.35193 3.83366 5.24283ZM1.91699 5.24283V19.0002C1.91699 20.657 3.20417 22.0002 4.79199 22.0002H17.9761C20.5375 22.0002 21.8202 18.7688 20.0091 16.8789L6.82493 3.12151C5.01378 1.23162 1.91699 2.57011 1.91699 5.24283Z" fill="#777E91"/>
</svg>
