<svg width="23" height="24" viewBox="0 0 23 24" fill="none" xmlns="http://www.w3.org/2000/svg">
<path fill-rule="evenodd" clip-rule="evenodd" d="M12.178 3.29289C11.8037 2.90237 11.1969 2.90237 10.8227 3.29289C10.4484 3.68342 10.4484 4.31658 10.8227 4.70711L11.1034 5L5.56497 10.7792C4.43211 11.9613 3.94038 13.656 4.25458 15.2953L4.70999 17.6714L2.19768 20.2929C1.82343 20.6834 1.82343 21.3166 2.19768 21.7071C2.57193 22.0976 3.17872 22.0976 3.55297 21.7071L6.06529 19.0856L8.34232 19.5608C9.91331 19.8886 11.5374 19.3755 12.6703 18.1934L18.2087 12.4142L18.4893 12.7071C18.8636 13.0976 19.4704 13.0976 19.8446 12.7071C20.2189 12.3166 20.2189 11.6834 19.8446 11.2929L12.178 3.29289ZM12.4586 6.41424L6.92026 12.1934C6.24054 12.9027 5.9455 13.9195 6.13402 14.9031L6.56472 17.1502L8.71821 17.5996C9.6608 17.7963 10.6353 17.4885 11.315 16.7792L16.8533 11L12.4586 6.41424Z" fill="#777E91"/>
<path d="M14.094 11.2929C13.7197 10.9024 13.1129 10.9024 12.7387 11.2929C12.3644 11.6834 12.3644 12.3166 12.7387 12.7071L14.6554 14.7071C15.0296 15.0976 15.6364 15.0976 16.0107 14.7071C16.3849 14.3166 16.3849 13.6834 16.0107 13.2929L14.094 11.2929Z" fill="#777E91"/>
<path d="M11.219 14.2929C10.8447 13.9024 10.2379 13.9024 9.8637 14.2929C9.48944 14.6834 9.48944 15.3166 9.8637 15.7071L11.7804 17.7071C12.1546 18.0976 12.7614 18.0976 13.1357 17.7071C13.5099 17.3166 13.5099 16.6834 13.1357 16.2929L11.219 14.2929Z" fill="#777E91"/>
<path d="M16.9693 2.29289C16.5951 1.90237 15.9883 1.90237 15.614 2.29289C15.2398 2.68342 15.2398 3.31658 15.614 3.70711L16.8531 5.00004L15.3334 6.5858C14.9592 6.97633 14.9592 7.60949 15.3334 8.00001C15.7077 8.39054 16.3145 8.39054 16.6887 8.00001L18.2084 6.41426L19.4474 7.70711C19.8216 8.09763 20.4284 8.09763 20.8027 7.70711C21.1769 7.31658 21.1769 6.68342 20.8027 6.29289L16.9693 2.29289Z" fill="#777E91"/>
</svg>
