<svg width="24" height="24" viewBox="0 0 24 24" fill="none" xmlns="http://www.w3.org/2000/svg">
<path fill-rule="evenodd" clip-rule="evenodd" d="M12 22C17.5228 22 22 17.5228 22 12C22 6.47715 17.5228 2 12 2C6.47715 2 2 6.47715 2 12C2 17.5228 6.47715 22 12 22ZM9.76684 9.86561C10.2449 10.1421 10.8566 9.97879 11.1332 9.50073C12.0902 8.1154 13.9401 9.96 12.4234 10.8616C12.1507 11.0237 11.7942 11.2935 11.523 11.6239C11.2663 11.9368 11.0305 12.3672 11.0027 12.896C10.9992 12.9302 10.9974 12.9649 10.9974 13C10.9974 13.5523 11.4451 14 11.9974 14C12.7596 14 12.9047 13.595 13.0512 13.1864C13.1453 12.9235 13.2401 12.6591 13.5 12.5C14.3266 11.994 15 11.0977 15 10C15 8.34315 13.6569 7 12 7C10.8883 7 9.91916 7.60518 9.40196 8.49927C9.12542 8.97733 9.28878 9.58906 9.76684 9.86561ZM10.9974 16C10.9974 15.4477 11.4451 15 11.9974 15C12.5497 15 12.9974 15.4477 12.9974 16C12.9974 16.5523 12.5497 17 11.9974 17C11.4451 17 10.9974 16.5523 10.9974 16Z" fill="#777E91"/>
</svg>
