<svg width="23" height="24" viewBox="0 0 23 24" fill="none" xmlns="http://www.w3.org/2000/svg">
<path fill-rule="evenodd" clip-rule="evenodd" d="M11.5003 20C15.7345 20 19.167 16.4183 19.167 12C19.167 7.58172 15.7345 4 11.5003 4C7.26614 4 3.83366 7.58172 3.83366 12C3.83366 16.4183 7.26614 20 11.5003 20ZM11.5003 22C16.7931 22 21.0837 17.5228 21.0837 12C21.0837 6.47715 16.7931 2 11.5003 2C6.2076 2 1.91699 6.47715 1.91699 12C1.91699 17.5228 6.2076 22 11.5003 22Z" fill="#777E91"/>
<path fill-rule="evenodd" clip-rule="evenodd" d="M10.6689 9.50073C10.4039 9.97879 9.81763 10.1421 9.35949 9.86561C8.90135 9.58906 8.74479 8.97733 9.00981 8.49927C9.50547 7.60518 10.4342 7 11.4996 7C13.0874 7 14.3746 8.34315 14.3746 10C14.3746 11.0977 13.7293 11.994 12.9371 12.5C12.3008 12.9065 12.6975 14 11.4971 14C10.9678 14 10.5388 13.5523 10.5388 13C10.5388 12.9649 10.5405 12.9302 10.5439 12.896C10.5705 12.3672 10.7964 11.9368 11.0425 11.6239C11.3024 11.2935 11.6441 11.0237 11.9053 10.8616C13.3588 9.96 11.586 8.1154 10.6689 9.50073ZM11.4971 15C10.9678 15 10.5388 15.4477 10.5388 16C10.5388 16.5523 10.9678 17 11.4971 17C12.0264 17 12.4554 16.5523 12.4554 16C12.4554 15.4477 12.0264 15 11.4971 15Z" fill="#777E91"/>
</svg>
