<svg width="23" height="24" viewBox="0 0 23 24" fill="none" xmlns="http://www.w3.org/2000/svg">
<path fill-rule="evenodd" clip-rule="evenodd" d="M6.93406 6.75275L5.28547 7.18282C4.43223 7.4054 3.83366 8.20537 3.83366 9.12311V18C3.83366 19.1046 4.69178 20 5.75033 20H17.2503C18.3089 20 19.167 19.1046 19.167 18V9.12311C19.167 8.20537 18.5684 7.4054 17.7152 7.18282L16.0666 6.75275L14.5924 4.4453C14.4146 4.1671 14.1154 4 13.795 4H9.20565C8.88522 4 8.586 4.1671 8.40826 4.4453L6.93406 6.75275ZM5.75033 5L4.82061 5.24254C3.11413 5.6877 1.91699 7.28764 1.91699 9.12311V18C1.91699 20.2091 3.63323 22 5.75033 22H17.2503C19.3674 22 21.0837 20.2091 21.0837 18V9.12311C21.0837 7.28763 19.8865 5.6877 18.18 5.24254L17.2503 5L16.1872 3.3359C15.6539 2.5013 14.7563 2 13.795 2H9.20565C8.24438 2 7.34672 2.5013 6.8135 3.3359L5.75033 5Z" fill="#777E91"/>
<path fill-rule="evenodd" clip-rule="evenodd" d="M15.3337 13C15.3337 15.2091 13.6174 17 11.5003 17C9.38323 17 7.66699 15.2091 7.66699 13C7.66699 10.7909 9.38323 9 11.5003 9C13.6174 9 15.3337 10.7909 15.3337 13ZM13.417 13C13.417 14.1046 12.5589 15 11.5003 15C10.4418 15 9.58366 14.1046 9.58366 13C9.58366 11.8954 10.4418 11 11.5003 11C12.5589 11 13.417 11.8954 13.417 13Z" fill="#777E91"/>
<path d="M16.292 11C16.8213 11 17.2503 10.5523 17.2503 10C17.2503 9.44771 16.8213 9 16.292 9C15.7627 9 15.3337 9.44771 15.3337 10C15.3337 10.5523 15.7627 11 16.292 11Z" fill="#777E91"/>
</svg>
