<svg width="24" height="24" viewBox="0 0 24 24" fill="none" xmlns="http://www.w3.org/2000/svg">
<path d="M22.2929 7.29289C22.6834 6.90237 23.3166 6.90237 23.7071 7.29289C24.0976 7.68342 24.0976 8.31658 23.7071 8.70711L20.9142 11.5L23.7071 14.2929C24.0976 14.6834 24.0976 15.3166 23.7071 15.7071C23.3166 16.0976 22.6834 16.0976 22.2929 15.7071L19.5 12.9142L16.7071 15.7071C16.3166 16.0976 15.6834 16.0976 15.2929 15.7071C14.9024 15.3166 14.9024 14.6834 15.2929 14.2929L18.0858 11.5L15.2929 8.70711C14.9024 8.31658 14.9024 7.68342 15.2929 7.29289C15.6834 6.90237 16.3166 6.90237 16.7071 7.29289L19.5 10.0858L22.2929 7.29289Z" fill="#777E91"/>
<path d="M5 8.99981L9.63212 4.6572C10.9094 3.4597 13 4.36539 13 6.11627V17.8833C13 19.6342 10.9095 20.5399 9.63212 19.3424L5 14.9998H2C0.89543 14.9998 0 14.1044 0 12.9998V10.9998C0 9.89524 0.895431 8.99981 2 8.99981H5Z" fill="#777E91"/>
</svg>
