<svg width="23" height="24" viewBox="0 0 23 24" fill="none" xmlns="http://www.w3.org/2000/svg">
<path d="M21.364 7.29289C21.7383 6.90237 22.3451 6.90237 22.7193 7.29289C23.0936 7.68342 23.0936 8.31658 22.7193 8.70711L20.0428 11.5L22.7193 14.2929C23.0936 14.6834 23.0936 15.3166 22.7193 15.7071C22.3451 16.0976 21.7383 16.0976 21.364 15.7071L18.6875 12.9142L16.011 15.7071C15.6367 16.0976 15.0299 16.0976 14.6557 15.7071C14.2814 15.3166 14.2814 14.6834 14.6557 14.2929L17.3322 11.5L14.6557 8.70711C14.2814 8.31658 14.2814 7.68342 14.6557 7.29289C15.0299 6.90237 15.6367 6.90237 16.011 7.29289L18.6875 10.0858L21.364 7.29289Z" fill="#777E91"/>
<path fill-rule="evenodd" clip-rule="evenodd" d="M5.58558 9.9997H2.875C2.34573 9.9997 1.91667 10.4474 1.91667 10.9997V12.9997C1.91667 13.552 2.34573 13.9997 2.875 13.9997H5.58558L8.90569 17.4642C9.50941 18.0941 10.5417 17.648 10.5417 16.7571V7.24234C10.5417 6.35144 9.50941 5.90527 8.90569 6.53524L5.58558 9.9997ZM4.79167 15.9997L7.5504 18.8784C9.36155 20.7683 12.4583 19.4298 12.4583 16.7571V7.24234C12.4583 4.56963 9.36155 3.23113 7.5504 5.12102L4.79167 7.9997H2.875C1.28718 7.9997 0 9.34285 0 10.9997V12.9997C0 14.6566 1.28718 15.9997 2.875 15.9997H4.79167Z" fill="#777E91"/>
</svg>
