<svg width="24" height="24" viewBox="0 0 24 24" fill="none" xmlns="http://www.w3.org/2000/svg">
<path d="M20 14C20 13.4477 19.5523 13 19 13C18.4477 13 18 13.4477 18 14L18 21C18 21.5523 18.4477 22 19 22C19.5523 22 20 21.5523 20 21V14Z" fill="#777E91"/>
<path d="M19 2C19.5523 2 20 2.44772 20 3V4C20 4.55229 19.5523 5 19 5C18.4477 5 18 4.55229 18 4V3C18 2.44772 18.4477 2 19 2Z" fill="#777E91"/>
<path d="M13 20C13 19.4477 12.5523 19 12 19C11.4477 19 11 19.4477 11 20V21C11 21.5523 11.4477 22 12 22C12.5523 22 13 21.5523 13 21V20Z" fill="#777E91"/>
<path d="M12 2C12.5523 2 13 2.44772 13 3V10C13 10.5523 12.5523 11 12 11C11.4477 11 11 10.5523 11 10V3C11 2.44772 11.4477 2 12 2Z" fill="#777E91"/>
<path d="M6 17C6 16.4477 5.55229 16 5 16C4.44772 16 4 16.4477 4 17L4 21C4 21.5523 4.44772 22 5 22C5.55229 22 6 21.5523 6 21L6 17Z" fill="#777E91"/>
<path d="M6 3C6 2.44772 5.55229 2 5 2C4.44772 2 4 2.44772 4 3L4 7C4 7.55229 4.44772 8 5 8C5.55229 8 6 7.55229 6 7L6 3Z" fill="#777E91"/>
<path d="M19 11C17.8954 11 17 10.1046 17 9C17 7.89543 17.8954 7 19 7C20.1046 7 21 7.89543 21 9C21 10.1046 20.1046 11 19 11Z" fill="#777E91"/>
<path d="M10 15C10 16.1046 10.8954 17 12 17C13.1046 17 14 16.1046 14 15C14 13.8954 13.1046 13 12 13C10.8954 13 10 13.8954 10 15Z" fill="#777E91"/>
<path d="M3 12C3 13.1046 3.89543 14 5 14C6.10457 14 7 13.1046 7 12C7 10.8954 6.10457 10 5 10C3.89543 10 3 10.8954 3 12Z" fill="#777E91"/>
</svg>
