<svg width="23" height="24" viewBox="0 0 23 24" fill="none" xmlns="http://www.w3.org/2000/svg">
<path d="M4.79167 12C4.79167 12.5523 4.36261 13 3.83333 13C3.30406 13 2.875 12.5523 2.875 12C2.875 11.4477 3.30406 11 3.83333 11C4.36261 11 4.79167 11.4477 4.79167 12Z" fill="#777E91"/>
<path d="M4.79167 16C4.79167 16.5523 4.36261 17 3.83333 17C3.30406 17 2.875 16.5523 2.875 16C2.875 15.4477 3.30406 15 3.83333 15C4.36261 15 4.79167 15.4477 4.79167 16Z" fill="#777E91"/>
<path d="M4.79167 20C4.79167 20.5523 4.36261 21 3.83333 21C3.30406 21 2.875 20.5523 2.875 20C2.875 19.4477 3.30406 19 3.83333 19C4.36261 19 4.79167 19.4477 4.79167 20Z" fill="#777E91"/>
<path d="M11.5 17C12.0293 17 12.4583 16.5523 12.4583 16C12.4583 15.4477 12.0293 15 11.5 15C10.9707 15 10.5417 15.4477 10.5417 16C10.5417 16.5523 10.9707 17 11.5 17Z" fill="#777E91"/>
<path d="M11.5 21C12.0293 21 12.4583 20.5523 12.4583 20C12.4583 19.4477 12.0293 19 11.5 19C10.9707 19 10.5417 19.4477 10.5417 20C10.5417 20.5523 10.9707 21 11.5 21Z" fill="#777E91"/>
<path d="M20.125 20C20.125 20.5523 19.6959 21 19.1667 21C18.6374 21 18.2083 20.5523 18.2083 20C18.2083 19.4477 18.6374 19 19.1667 19C19.6959 19 20.125 19.4477 20.125 20Z" fill="#777E91"/>
<path fill-rule="evenodd" clip-rule="evenodd" d="M0.958008 6C0.958008 7.65685 2.24519 9 3.83301 9C5.42083 9 6.70801 7.65685 6.70801 6C6.70801 4.34315 5.42083 3 3.83301 3C2.24519 3 0.958008 4.34315 0.958008 6ZM2.87467 6C2.87467 6.55228 3.30373 7 3.83301 7C4.36228 7 4.79134 6.55228 4.79134 6C4.79134 5.44772 4.36228 5 3.83301 5C3.30373 5 2.87467 5.44772 2.87467 6Z" fill="#777E91"/>
<path fill-rule="evenodd" clip-rule="evenodd" d="M11.4997 13C9.91185 13 8.62467 11.6569 8.62467 10C8.62467 8.34315 9.91185 7 11.4997 7C13.0875 7 14.3747 8.34315 14.3747 10C14.3747 11.6569 13.0875 13 11.4997 13ZM11.4997 11C10.9704 11 10.5413 10.5523 10.5413 10C10.5413 9.44772 10.9704 9 11.4997 9C12.0289 9 12.458 9.44772 12.458 10C12.458 10.5523 12.0289 11 11.4997 11Z" fill="#777E91"/>
<path fill-rule="evenodd" clip-rule="evenodd" d="M19.1663 17C17.5785 17 16.2913 15.6569 16.2913 14C16.2913 12.3431 17.5785 11 19.1663 11C20.7542 11 22.0413 12.3431 22.0413 14C22.0413 15.6569 20.7542 17 19.1663 17ZM19.1663 15C18.6371 15 18.208 14.5523 18.208 14C18.208 13.4477 18.6371 13 19.1663 13C19.6956 13 20.1247 13.4477 20.1247 14C20.1247 14.5523 19.6956 15 19.1663 15Z" fill="#777E91"/>
</svg>
