<svg width="24" height="24" viewBox="0 0 24 24" fill="none" xmlns="http://www.w3.org/2000/svg">
<path fill-rule="evenodd" clip-rule="evenodd" d="M0 7C0 5.34315 1.34315 4 3 4H21C22.6569 4 24 5.34315 24 7V17C24 18.6569 22.6569 20 21 20H3C1.34315 20 0 18.6569 0 17V7ZM17 9C17 8.44771 17.4477 8 18 8H19C19.5523 8 20 8.44771 20 9V15C20 15.5523 19.5523 16 19 16H18C17.4477 16 17 15.5523 17 15V9ZM5 8C4.44772 8 4 8.44771 4 9V15C4 15.5523 4.44772 16 5 16C5.55228 16 6 15.5523 6 15V9C6 8.44771 5.55228 8 5 8ZM8 9C8 8.44771 8.44772 8 9 8H10C10.5523 8 11 8.44771 11 9V15C11 15.5523 10.5523 16 10 16H9C8.44771 16 8 15.5523 8 15V9ZM14 8C13.4477 8 13 8.44771 13 9V15C13 15.5523 13.4477 16 14 16C14.5523 16 15 15.5523 15 15V9C15 8.44771 14.5523 8 14 8Z" fill="#777E91"/>
</svg>
