<svg width="24" height="24" viewBox="0 0 24 24" fill="none" xmlns="http://www.w3.org/2000/svg">
<path fill-rule="evenodd" clip-rule="evenodd" d="M8 2C8.55228 2 9 2.44772 9 3C9 4.65685 10.3431 6 12 6C13.6569 6 15 4.65685 15 3C15 2.44772 15.4477 2 16 2H18C19.1046 2 20 2.89549 20 4.00006V5C20 7.75002 20.605 9.29002 21.1495 10.1191C21.5654 10.7523 22 11.4785 22 12.2361V20C22 21.1046 21.1046 22 20 22H4C2.89543 22 2 21.1046 2 20V12.2361C2 11.4785 2.43465 10.7523 2.85049 10.1191C3.39499 9.29002 4 7.75002 4 5V4.00006C4 2.89549 4.89543 2 6 2H8ZM13 11C13 10.4477 12.5523 10 12 10H11C10.4477 10 10 10.4477 10 11C10 11.5523 10.4477 12 11 12V16C10.4477 16 10 16.4477 10 17C10 17.5523 10.4477 18 11 18H13C13.5523 18 14 17.5523 14 17C14 16.4477 13.5523 16 13 16V11Z" fill="#777E91"/>
</svg>
