<svg width="23" height="24" viewBox="0 0 23 24" fill="none" xmlns="http://www.w3.org/2000/svg">
<path fill-rule="evenodd" clip-rule="evenodd" d="M4.79199 22C3.20417 22 1.91699 20.6569 1.91699 19V12.8541C1.91699 11.8746 2.38331 10.9105 2.81906 10.0096C2.88884 9.86537 2.95784 9.72271 3.02401 9.58188C3.44881 8.6778 3.83366 7.24048 3.83366 5C3.83366 3.34315 5.12084 2 6.70866 2H9.10449C9.36913 2 9.58366 2.22386 9.58366 2.5V4C9.58366 5.10457 10.4418 6 11.5003 6C12.5589 6 13.417 5.10457 13.417 4V2.5C13.417 2.22386 13.6315 2 13.8962 2H16.292C17.8798 2 19.167 3.34315 19.167 5C19.167 7.24048 19.5518 8.6778 19.9766 9.58188C20.0428 9.72271 20.1118 9.86537 20.1816 10.0096C20.6173 10.9105 21.0837 11.8746 21.0837 12.8541V19C21.0837 20.6569 19.7965 22 18.2087 22H4.79199ZM6.70866 4H7.18783C7.45246 4 7.66385 4.22498 7.69653 4.49901C7.93191 6.47264 9.54518 8 11.5003 8C13.4555 8 15.0687 6.47264 15.3041 4.49901C15.3368 4.22498 15.5482 4 15.8128 4H16.292C16.8213 4 17.2503 4.44772 17.2503 5C17.2503 7.47741 17.6761 9.22885 18.2557 10.4623C18.3267 10.6135 18.3999 10.7648 18.4681 10.9058L18.4705 10.9108C18.9574 11.9175 19.167 12.4396 19.167 12.8541V19C19.167 19.5523 18.7379 20 18.2087 20H4.79199C4.26272 20 3.83366 19.5523 3.83366 19V12.8541C3.83366 12.4396 4.04321 11.9175 4.53014 10.9108L4.53256 10.9058C4.60068 10.7649 4.67398 10.6134 4.74496 10.4623C5.32454 9.22885 5.75033 7.47741 5.75033 5C5.75033 4.44772 6.17939 4 6.70866 4Z" fill="#777E91"/>
<path d="M11.4997 10C12.0289 10 12.458 10.4477 12.458 11V16C12.9873 16 13.4163 16.4477 13.4163 17C13.4163 17.5523 12.9873 18 12.458 18H10.5413C10.0121 18 9.58301 17.5523 9.58301 17C9.58301 16.4477 10.0121 16 10.5413 16V12C10.0121 12 9.58301 11.5523 9.58301 11C9.58301 10.4477 10.0121 10 10.5413 10H11.4997Z" fill="#777E91"/>
</svg>
