<svg width="24" height="24" viewBox="0 0 24 24" fill="none" xmlns="http://www.w3.org/2000/svg">
<path fill-rule="evenodd" clip-rule="evenodd" d="M2.36899 6.54184C2.65912 4.34504 4.34504 2.65912 6.54184 2.36899C8.05208 2.16953 9.94127 2 12 2C14.0587 2 15.9479 2.16953 17.4582 2.36899C19.655 2.65912 21.3409 4.34504 21.631 6.54184C21.8305 8.05208 22 9.94127 22 12C22 14.0587 21.8305 15.9479 21.631 17.4582C21.3409 19.655 19.655 21.3409 17.4582 21.631C15.9479 21.8305 14.0587 22 12 22C9.94127 22 8.05208 21.8305 6.54184 21.631C4.34504 21.3409 2.65912 19.655 2.36899 17.4582C2.16953 15.9479 2 14.0587 2 12C2 9.94127 2.16953 8.05208 2.36899 6.54184ZM9.70711 8.29289C9.31658 7.90237 8.68342 7.90237 8.29289 8.29289C7.90237 8.68342 7.90237 9.31658 8.29289 9.70711L10.5858 12L8.29289 14.2929C7.90237 14.6834 7.90237 15.3166 8.29289 15.7071C8.68342 16.0976 9.31658 16.0976 9.70711 15.7071L12 13.4142L14.2929 15.7071C14.6834 16.0976 15.3166 16.0976 15.7071 15.7071C16.0976 15.3166 16.0976 14.6834 15.7071 14.2929L13.4142 12L15.7071 9.70711C16.0976 9.31658 16.0976 8.68342 15.7071 8.29289C15.3166 7.90237 14.6834 7.90237 14.2929 8.29289L12 10.5858L9.70711 8.29289Z" fill="#777E91"/>
</svg>
