<svg width="24" height="24" viewBox="0 0 24 24" fill="none" xmlns="http://www.w3.org/2000/svg">
<path fill-rule="evenodd" clip-rule="evenodd" d="M17.4582 2.36899C19.655 2.65912 21.3409 4.34504 21.631 6.54184C21.8305 8.05208 22 9.94127 22 12C22 14.0587 21.8305 15.9479 21.631 17.4582C21.3409 19.655 19.655 21.3409 17.4582 21.631C15.9479 21.8305 14.0587 22 12 22C9.94127 22 8.05208 21.8305 6.54184 21.631C4.34504 21.3409 2.65912 19.655 2.36899 17.4582C2.16953 15.9479 2 14.0587 2 12C2 9.94127 2.16953 8.05208 2.36899 6.54184C2.65912 4.34504 4.34504 2.65912 6.54184 2.36899C8.05208 2.16953 9.94127 2 12 2C14.0587 2 15.9479 2.16953 17.4582 2.36899ZM14.7929 9.79289C15.1834 9.40237 15.8166 9.40237 16.2071 9.79289C16.5976 10.1834 16.5976 10.8166 16.2071 11.2071L12.7071 14.7071C12.3166 15.0976 11.6834 15.0976 11.2929 14.7071L7.79289 11.2071C7.40237 10.8166 7.40237 10.1834 7.79289 9.79289C8.18342 9.40237 8.81658 9.40237 9.20711 9.79289L12 12.5858L14.7929 9.79289Z" fill="#777E91"/>
</svg>
