<svg width="24" height="24" viewBox="0 0 24 24" fill="none" xmlns="http://www.w3.org/2000/svg">
<path d="M3 4C1.34315 4 0 5.34315 0 7V7.5C0 7.77614 0.224978 8.00328 0.499007 7.96918C2.30917 7.74391 3.74391 6.30917 3.96918 4.49901C4.00328 4.22498 3.77614 4 3.5 4H3Z" fill="#777E91"/>
<path fill-rule="evenodd" clip-rule="evenodd" d="M6.5 4C6.22386 4 6.00217 4.22464 5.97948 4.49985C5.73906 7.41487 3.41487 9.73906 0.49985 9.97948C0.224642 10.0022 0 10.2239 0 10.5V13.5C0 13.7761 0.224642 13.9978 0.49985 14.0205C3.41487 14.2609 5.73906 16.5851 5.97948 19.5002C6.00217 19.7754 6.22386 20 6.5 20H17.5C17.7761 20 17.9978 19.7754 18.0205 19.5002C18.2609 16.5851 20.5851 14.2609 23.5002 14.0205C23.7754 13.9978 24 13.7761 24 13.5V10.5C24 10.2239 23.7754 10.0022 23.5002 9.97948C20.5851 9.73906 18.2609 7.41487 18.0205 4.49985C17.9978 4.22464 17.7761 4 17.5 4H6.5ZM12 15C13.6569 15 15 13.6569 15 12C15 10.3431 13.6569 9 12 9C10.3431 9 9 10.3431 9 12C9 13.6569 10.3431 15 12 15Z" fill="#777E91"/>
<path d="M24 7V7.5C24 7.77614 23.775 8.00328 23.501 7.96918C21.6908 7.74391 20.2561 6.30917 20.0308 4.49901C19.9967 4.22498 20.2239 4 20.5 4H21C22.6569 4 24 5.34315 24 7Z" fill="#777E91"/>
<path d="M24 16.5C24 16.2239 23.775 15.9967 23.501 16.0308C21.6908 16.2561 20.2561 17.6908 20.0308 19.501C19.9967 19.775 20.2239 20 20.5 20H21C22.6569 20 24 18.6569 24 17V16.5Z" fill="#777E91"/>
<path d="M0 17V16.5C0 16.2239 0.224978 15.9967 0.499007 16.0308C2.30917 16.2561 3.74391 17.6908 3.96918 19.501C4.00328 19.775 3.77614 20 3.5 20H3C1.34315 20 0 18.6569 0 17Z" fill="#777E91"/>
</svg>
