<svg width="23" height="24" viewBox="0 0 23 24" fill="none" xmlns="http://www.w3.org/2000/svg">
<path fill-rule="evenodd" clip-rule="evenodd" d="M19.1667 6H3.83333C2.77479 6 1.91667 6.89543 1.91667 8V16C1.91667 17.1046 2.77479 18 3.83333 18H19.1667C20.2252 18 21.0833 17.1046 21.0833 16V8C21.0833 6.89543 20.2252 6 19.1667 6ZM3.83333 4C1.71624 4 0 5.79086 0 8V16C0 18.2091 1.71624 20 3.83333 20H19.1667C21.2838 20 23 18.2091 23 16V8C23 5.79086 21.2838 4 19.1667 4H3.83333Z" fill="#777E91"/>
<path d="M22.0413 10C22.0413 10.5523 21.6123 11 21.083 11C18.4366 11 16.2913 8.76142 16.2913 6C16.2913 5.44772 16.7204 5 17.2497 5C17.7789 5 18.208 5.44772 18.208 6C18.208 7.65685 19.4952 9 21.083 9C21.6123 9 22.0413 9.44772 22.0413 10Z" fill="#777E91"/>
<path d="M1.91634 13C1.38707 13 0.958008 13.4477 0.958008 14C0.958008 14.5523 1.38707 15 1.91634 15C3.50416 15 4.79134 16.3431 4.79134 18C4.79134 18.5523 5.2204 19 5.74967 19C6.27895 19 6.70801 18.5523 6.70801 18C6.70801 15.2386 4.56271 13 1.91634 13Z" fill="#777E91"/>
<path d="M21.083 13C21.6123 13 22.0413 13.4477 22.0413 14C22.0413 14.5523 21.6123 15 21.083 15C19.4952 15 18.208 16.3431 18.208 18C18.208 18.5523 17.7789 19 17.2497 19C16.7204 19 16.2913 18.5523 16.2913 18C16.2913 15.2386 18.4366 13 21.083 13Z" fill="#777E91"/>
<path d="M1.91634 11C1.38707 11 0.958008 10.5523 0.958008 10C0.958008 9.44772 1.38707 9 1.91634 9C3.50416 9 4.79134 7.65685 4.79134 6C4.79134 5.44772 5.2204 5 5.74967 5C6.27895 5 6.70801 5.44772 6.70801 6C6.70801 8.76142 4.56271 11 1.91634 11Z" fill="#777E91"/>
<path fill-rule="evenodd" clip-rule="evenodd" d="M11.5003 14C12.5589 14 13.417 13.1046 13.417 12C13.417 10.8954 12.5589 10 11.5003 10C10.4418 10 9.58366 10.8954 9.58366 12C9.58366 13.1046 10.4418 14 11.5003 14ZM11.5003 16C13.6174 16 15.3337 14.2091 15.3337 12C15.3337 9.79086 13.6174 8 11.5003 8C9.38323 8 7.66699 9.79086 7.66699 12C7.66699 14.2091 9.38323 16 11.5003 16Z" fill="#777E91"/>
</svg>
