<svg width="23" height="24" viewBox="0 0 23 24" fill="none" xmlns="http://www.w3.org/2000/svg">
<path fill-rule="evenodd" clip-rule="evenodd" d="M14.1143 1.65111C12.2997 1.17775 10.542 2.60982 10.542 4.56154V18H12.4587V8.28076L16.553 9.34886C18.3676 9.82222 20.1253 8.39014 20.1253 6.43843V5.56154C20.1253 4.18493 19.2275 2.98498 17.9476 2.65111L14.1143 1.65111ZM12.4587 4.56154C12.4587 3.91097 13.0446 3.43361 13.6494 3.59139L17.4828 4.59139C17.9094 4.70269 18.2087 5.10267 18.2087 5.56154V6.43843C18.2087 7.089 17.6227 7.56636 17.0179 7.40857L12.4587 6.21921V4.56154Z" fill="#777E91"/>
<path fill-rule="evenodd" clip-rule="evenodd" d="M7.66667 21C9.25449 21 10.5417 19.6569 10.5417 18C10.5417 16.3431 9.25449 15 7.66667 15C6.07885 15 4.79167 16.3431 4.79167 18C4.79167 19.6569 6.07885 21 7.66667 21ZM7.66667 23C10.313 23 12.4583 20.7614 12.4583 18C12.4583 15.2386 10.313 13 7.66667 13C5.0203 13 2.875 15.2386 2.875 18C2.875 20.7614 5.0203 23 7.66667 23Z" fill="#777E91"/>
</svg>
