<svg width="23" height="24" viewBox="0 0 23 24" fill="none" xmlns="http://www.w3.org/2000/svg">
<path fill-rule="evenodd" clip-rule="evenodd" d="M11.5003 20C15.7345 20 19.167 16.4183 19.167 12C19.167 7.58172 15.7345 4 11.5003 4C7.26614 4 3.83366 7.58172 3.83366 12C3.83366 16.4183 7.26614 20 11.5003 20ZM11.5003 22C16.7931 22 21.0837 17.5228 21.0837 12C21.0837 6.47715 16.7931 2 11.5003 2C6.2076 2 1.91699 6.47715 1.91699 12C1.91699 17.5228 6.2076 22 11.5003 22Z" fill="#777E91"/>
<path fill-rule="evenodd" clip-rule="evenodd" d="M11.5003 6C12.0296 6 12.4587 6.44772 12.4587 7V11.5858L14.5738 13.7929C14.9481 14.1834 14.9481 14.8166 14.5738 15.2071C14.1995 15.5976 13.5928 15.5976 13.2185 15.2071L10.8227 12.7071C10.643 12.5196 10.542 12.2652 10.542 12V7C10.542 6.44772 10.9711 6 11.5003 6Z" fill="#777E91"/>
</svg>
