<svg width="24" height="24" viewBox="0 0 24 24" fill="none" xmlns="http://www.w3.org/2000/svg">
<path fill-rule="evenodd" clip-rule="evenodd" d="M2 3C2.55228 3 3 3.44772 3 4V18C3 18.5523 3.44772 19 4 19H22C22.5523 19 23 19.4477 23 20C23 20.5523 22.5523 21 22 21H4C2.34315 21 1 19.6569 1 18V4C1 3.44772 1.44772 3 2 3Z" fill="#777E91"/>
<path d="M19.3828 4.07588C19.2657 4.02735 19.1375 4.0004 19.003 4L19 4L18.997 4C18.7254 4.0008 18.4792 4.1099 18.2995 4.2864C18.297 4.28879 18.2946 4.29119 18.2922 4.29361L16.2929 6.29289C15.9024 6.68342 15.9024 7.31658 16.2929 7.70711C16.6834 8.09763 17.3166 8.09763 17.7071 7.70711L17.9889 7.42533C17.7678 11.6459 14.2756 15 10 15H6C5.44772 15 5 15.4477 5 16C5 16.5523 5.44772 17 6 17H10C15.3868 17 19.7788 12.7407 19.9919 7.40612L20.2929 7.70711C20.6834 8.09763 21.3166 8.09763 21.7071 7.70711C22.0976 7.31658 22.0976 6.68342 21.7071 6.29289L19.7078 4.29362C19.7054 4.2912 19.703 4.28879 19.7005 4.2864C19.6062 4.19374 19.498 4.12357 19.3828 4.07588Z" fill="#777E91"/>
</svg>
