<svg width="23" height="24" viewBox="0 0 23 24" fill="none" xmlns="http://www.w3.org/2000/svg">
<path fill-rule="evenodd" clip-rule="evenodd" d="M1.91699 6C1.91699 3.79086 3.63323 2 5.75033 2H17.2503C19.3674 2 21.0837 3.79086 21.0837 6V18C21.0837 20.2091 19.3674 22 17.2503 22H5.75033C3.63323 22 1.91699 20.2091 1.91699 18V6ZM5.75033 4H17.2503C18.3089 4 19.167 4.89543 19.167 6V11H3.83366V6C3.83366 4.89543 4.69178 4 5.75033 4ZM3.83366 13V18C3.83366 19.1046 4.69178 20 5.75033 20H17.2503C18.3089 20 19.167 19.1046 19.167 18V13H3.83366Z" fill="#777E91"/>
<path d="M9.58333 6C9.05406 6 8.625 6.44772 8.625 7C8.625 7.55228 9.05406 8 9.58333 8H13.4167C13.9459 8 14.375 7.55228 14.375 7C14.375 6.44772 13.9459 6 13.4167 6H9.58333Z" fill="#777E91"/>
<path d="M9.58333 15C9.05406 15 8.625 15.4477 8.625 16C8.625 16.5523 9.05406 17 9.58333 17H13.4167C13.9459 17 14.375 16.5523 14.375 16C14.375 15.4477 13.9459 15 13.4167 15H9.58333Z" fill="#777E91"/>
</svg>
