<svg width="23" height="24" viewBox="0 0 23 24" fill="none" xmlns="http://www.w3.org/2000/svg">
<path fill-rule="evenodd" clip-rule="evenodd" d="M19.1663 18.5C19.1663 17.6716 18.5227 17 17.7288 17L7.18717 17C4.27617 17 1.91634 14.5376 1.91634 11.5C1.91634 8.46243 4.27617 6 7.18717 6L8.62467 6L8.62467 8L7.18717 8C5.33472 8 3.83301 9.567 3.83301 11.5C3.83301 13.433 5.33472 15 7.18717 15L17.7288 15C19.5813 15 21.083 16.567 21.083 18.5C21.083 20.433 19.5813 22 17.7288 22L2.87467 22C2.3454 22 1.91634 21.5523 1.91634 21C1.91634 20.4477 2.3454 20 2.87467 20L17.7288 20C18.5227 20 19.1663 19.3284 19.1663 18.5Z" fill="#777E91"/>
<path fill-rule="evenodd" clip-rule="evenodd" d="M16.2917 4H12.4583C11.3998 4 10.5417 4.89543 10.5417 6V8C10.5417 9.10457 11.3998 10 12.4583 10H16.2917V4ZM12.4583 2C10.3412 2 8.625 3.79086 8.625 6V8C8.625 10.2091 10.3412 12 12.4583 12H17.25C17.7793 12 18.2083 11.5523 18.2083 11V3C18.2083 2.44772 17.7793 2 17.25 2H12.4583Z" fill="#777E91"/>
<path d="M20.1247 4H18.208V6H20.1247C20.6539 6 21.083 5.55228 21.083 5C21.083 4.44772 20.6539 4 20.1247 4Z" fill="#777E91"/>
<path d="M20.1247 8H18.208V10H20.1247C20.6539 10 21.083 9.55228 21.083 9C21.083 8.44772 20.6539 8 20.1247 8Z" fill="#777E91"/>
</svg>
