<svg width="24" height="24" viewBox="0 0 24 24" fill="none" xmlns="http://www.w3.org/2000/svg">
<path fill-rule="evenodd" clip-rule="evenodd" d="M16 12C16 11.4477 16.4477 11 17 11H23C23.5523 11 24 11.4477 24 12C24 12.5523 23.5523 13 23 13H17C16.4477 13 16 12.5523 16 12Z" fill="#777E91"/>
<path d="M5 8.99981L9.63212 4.6572C10.9094 3.4597 13 4.36539 13 6.11627V17.8833C13 19.6342 10.9095 20.5399 9.63212 19.3424L5 14.9998H2C0.89543 14.9998 0 14.1044 0 12.9998V10.9998C0 9.89524 0.895431 8.99981 2 8.99981H5Z" fill="#777E91"/>
</svg>
