<svg width="23" height="24" viewBox="0 0 23 24" fill="none" xmlns="http://www.w3.org/2000/svg">
<path fill-rule="evenodd" clip-rule="evenodd" d="M19.167 13H12.9378C12.6732 13 12.4587 13.2239 12.4587 13.5V20.5C12.4587 20.7761 12.6732 21 12.9378 21H19.167C19.6963 21 20.1253 20.5523 20.1253 20V14C20.1253 13.4477 19.6963 13 19.167 13ZM10.542 11V23H19.167C20.7548 23 22.042 21.6569 22.042 20V14C22.042 12.3431 20.7548 11 19.167 11H10.542Z" fill="#777E91"/>
<path d="M15.333 11H17.2497V14C17.2497 14.5523 16.8206 15 16.2913 15V15C15.7621 15 15.333 14.5523 15.333 14V11Z" fill="#777E91"/>
<path fill-rule="evenodd" clip-rule="evenodd" d="M10.5413 13.5C10.5413 13.2239 10.3268 13 10.0622 13H3.83301C3.30374 13 2.87467 13.4477 2.87467 14V20C2.87467 20.5523 3.30374 21 3.83301 21H10.0622C10.3268 21 10.5413 20.7761 10.5413 20.5V13.5ZM3.83301 11C2.24519 11 0.958008 12.3431 0.958008 14V20C0.958008 21.6569 2.24519 23 3.83301 23H12.458V11H3.83301Z" fill="#777E91"/>
<path d="M5.75 11H7.66667V14C7.66667 14.5523 7.23761 15 6.70833 15V15C6.17906 15 5.75 14.5523 5.75 14V11Z" fill="#777E91"/>
<path fill-rule="evenodd" clip-rule="evenodd" d="M14.375 3H8.625C8.09573 3 7.66667 3.44772 7.66667 4V11H15.3333V4C15.3333 3.44772 14.9043 3 14.375 3ZM8.625 1C7.03718 1 5.75 2.34315 5.75 4V13H17.25V4C17.25 2.34315 15.9628 1 14.375 1H8.625Z" fill="#777E91"/>
<path d="M10.542 1H12.4587V4C12.4587 4.55228 12.0296 5 11.5003 5V5C10.9711 5 10.542 4.55228 10.542 4V1Z" fill="#777E91"/>
</svg>
