<svg width="23" height="24" viewBox="0 0 23 24" fill="none" xmlns="http://www.w3.org/2000/svg">
<path fill-rule="evenodd" clip-rule="evenodd" d="M13.417 5C17.2002 5 20.1253 8.05228 20.1253 12C20.1253 15.9477 17.2002 19 13.417 19C9.63377 19 6.70866 15.9477 6.70866 12C6.70866 11.4477 6.2796 11 5.75033 11C5.22105 11 4.79199 11.4477 4.79199 12C4.79199 17.0523 8.57522 21 13.417 21C18.2588 21 22.042 17.0523 22.042 12C22.042 6.94772 18.2588 3 13.417 3H3.83366C3.30439 3 2.87533 3.44772 2.87533 4C2.87533 4.55228 3.30439 5 3.83366 5H13.417Z" fill="#777E91"/>
<path fill-rule="evenodd" clip-rule="evenodd" d="M1.2387 3.29289C0.864445 3.68342 0.864445 4.31658 1.2387 4.70711L3.15536 6.70711C3.52962 7.09763 4.1364 7.09763 4.51065 6.70711C4.8849 6.31658 4.8849 5.68342 4.51065 5.29289L3.27163 4L4.51065 2.70711C4.8849 2.31658 4.8849 1.68342 4.51065 1.29289C4.1364 0.902369 3.52962 0.902369 3.15536 1.29289L1.2387 3.29289Z" fill="#777E91"/>
<path d="M10.5413 8C10.0121 8 9.58301 8.44772 9.58301 9V15C9.58301 15.5523 10.0121 16 10.5413 16C11.0706 16 11.4997 15.5523 11.4997 15V9C11.4997 8.44772 11.0706 8 10.5413 8Z" fill="#777E91"/>
<path d="M13.8955 8C13.1016 8 12.458 8.67157 12.458 9.5V11.5C12.458 12.3284 13.1016 13 13.8955 13H15.333V14H13.4163C12.8871 14 12.458 14.4477 12.458 15C12.458 15.5523 12.8871 16 13.4163 16H15.8122C16.6061 16 17.2497 15.3284 17.2497 14.5V12.5C17.2497 11.6716 16.6061 11 15.8122 11H14.3747V10H16.2913C16.8206 10 17.2497 9.55228 17.2497 9C17.2497 8.44772 16.8206 8 16.2913 8H13.8955Z" fill="#777E91"/>
</svg>
