<svg width="24" height="24" viewBox="0 0 24 24" fill="none" xmlns="http://www.w3.org/2000/svg">
<path d="M12.7069 8.7072L15.2927 11.293C15.6833 11.6835 15.6833 12.3167 15.2927 12.7072L10.9902 17.0098C10.3332 17.6668 9.58777 18.229 8.77554 18.6803L4.05939 21.3003C3.18022 21.7888 2.21116 20.8197 2.69959 19.9405L5.31967 15.2244C5.77091 14.4122 6.33316 13.6668 6.99018 13.0098L11.2927 8.7072C11.6833 8.31668 12.3164 8.31668 12.7069 8.7072Z" fill="#777E91"/>
<path d="M19.0001 9.00012L19.7501 9.75017C20.1643 10.1644 20.1643 10.836 19.7501 11.2502C19.3359 11.6644 18.6643 11.6644 18.2501 11.2502L12.7501 5.75017C12.3359 5.33596 12.3359 4.66439 12.7501 4.25017C13.1643 3.83596 13.8359 3.83596 14.2501 4.25017L15.0001 5.00012L17.0001 3.00006C18.1047 1.89549 19.8956 1.89549 21.0001 3.00006C22.1047 4.10463 22.1047 5.89549 21.0001 7.00006L19.0001 9.00012Z" fill="#777E91"/>
</svg>
