<svg width="23" height="24" viewBox="0 0 23 24" fill="none" xmlns="http://www.w3.org/2000/svg">
<path fill-rule="evenodd" clip-rule="evenodd" d="M11.4996 6L17.2496 12L11.3655 18.1399C10.8189 18.7103 10.1955 19.1943 9.51491 19.5767L6.10201 21.4943C5.03962 22.0912 3.72777 21.8903 2.87457 21C2.02136 20.1097 1.82882 18.7408 2.40088 17.6322L4.2386 14.0709C4.60506 13.3608 5.06891 12.7103 5.61547 12.1399L11.4996 6ZM11.4996 8.82843L6.97076 13.5541C6.5561 13.9868 6.20419 14.4804 5.92617 15.0191L4.08845 18.5804C3.91768 18.9114 3.97516 19.32 4.22986 19.5858C4.48456 19.8516 4.87617 19.9115 5.19331 19.7333L8.60622 17.8157C9.12255 17.5256 9.59552 17.1584 10.0102 16.7257L14.539 12L11.4996 8.82843Z" fill="#777E91"/>
<path fill-rule="evenodd" clip-rule="evenodd" d="M17.2498 12L19.6457 9.49996C21.2335 7.84311 21.2335 5.15682 19.6457 3.49997C18.0579 1.84311 15.4835 1.84311 13.8957 3.49996L11.4998 6.00004L10.7811 5.25011C10.3842 4.8359 9.74057 4.8359 9.34361 5.25011C8.94666 5.66433 8.94666 6.3359 9.34361 6.75011L16.5311 14.2501C16.9281 14.6643 17.5717 14.6643 17.9686 14.2501C18.3656 13.8359 18.3656 13.1643 17.9686 12.7501L17.2498 12ZM12.8551 7.41426L15.8945 10.5858L18.2904 8.08575C19.1297 7.20995 19.1297 5.78998 18.2904 4.91418C17.4511 4.03837 16.0903 4.03837 15.251 4.91418L12.8551 7.41426Z" fill="#777E91"/>
</svg>
