<svg width="24" height="24" viewBox="0 0 24 24" fill="none" xmlns="http://www.w3.org/2000/svg">
<path d="M4 17C3.44772 17 3 17.4477 3 18C3 18.5523 3.44772 19 4 19C4.55228 19 5 18.5523 5 18C5 17.4477 4.55228 17 4 17Z" fill="#777E91"/>
<path d="M8 21C7.44772 21 7 21.4477 7 22C7 22.5523 7.44772 23 8 23C8.55229 23 9 22.5523 9 22C9 21.4477 8.55229 21 8 21Z" fill="#777E91"/>
<path d="M3 22C3 21.4477 3.44772 21 4 21C4.55228 21 5 21.4477 5 22C5 22.5523 4.55228 23 4 23C3.44772 23 3 22.5523 3 22Z" fill="#777E91"/>
<path d="M12 21C11.4477 21 11 21.4477 11 22C11 22.5523 11.4477 23 12 23C12.5523 23 13 22.5523 13 22C13 21.4477 12.5523 21 12 21Z" fill="#777E91"/>
<path d="M19 22C19 21.4477 19.4477 21 20 21C20.5523 21 21 21.4477 21 22C21 22.5523 20.5523 23 20 23C19.4477 23 19 22.5523 19 22Z" fill="#777E91"/>
<path d="M16 21C15.4477 21 15 21.4477 15 22C15 22.5523 15.4477 23 16 23C16.5523 23 17 22.5523 17 22C17 21.4477 16.5523 21 16 21Z" fill="#777E91"/>
<path d="M19 18C19 17.4477 19.4477 17 20 17C20.5523 17 21 17.4477 21 18C21 18.5523 20.5523 19 20 19C19.4477 19 19 18.5523 19 18Z" fill="#777E91"/>
<path d="M16 17C15.4477 17 15 17.4477 15 18C15 18.5523 15.4477 19 16 19C16.5523 19 17 18.5523 17 18C17 17.4477 16.5523 17 16 17Z" fill="#777E91"/>
<path d="M11 18C11 17.4477 11.4477 17 12 17C12.5523 17 13 17.4477 13 18C13 18.5523 12.5523 19 12 19C11.4477 19 11 18.5523 11 18Z" fill="#777E91"/>
<path d="M8 17C7.44772 17 7 17.4477 7 18C7 18.5523 7.44772 19 8 19C8.55229 19 9 18.5523 9 18C9 17.4477 8.55229 17 8 17Z" fill="#777E91"/>
<path d="M13 1C13.5523 1 14 1.44772 14 2V5C14 6.65685 15.3431 8 17 8H20C20.5523 8 21 8.44772 21 9V14C21 14.5523 20.5523 15 20 15H4C3.44772 15 3 14.5523 3 14V4C3 2.34315 4.34315 1 6 1H13Z" fill="#777E91"/>
<path d="M16.9774 1.17751C16.4681 0.963938 16 1.44772 16 2V5C16 5.55228 16.4477 6 17 6H20C20.5523 6 21.0361 5.53189 20.8225 5.02257C20.73 4.80207 20.5972 4.59716 20.4142 4.41421L17.5858 1.58579C17.4028 1.40284 17.1979 1.26998 16.9774 1.17751Z" fill="#777E91"/>
</svg>
