<svg width="24" height="24" viewBox="0 0 24 24" fill="none" xmlns="http://www.w3.org/2000/svg">
<path d="M3 18C3 17.4477 3.44772 17 4 17C4.55228 17 5 17.4477 5 18C5 18.5523 4.55228 19 4 19C3.44772 19 3 18.5523 3 18Z" fill="#777E91"/>
<path d="M7 22C7 21.4477 7.44772 21 8 21C8.55229 21 9 21.4477 9 22C9 22.5523 8.55229 23 8 23C7.44772 23 7 22.5523 7 22Z" fill="#777E91"/>
<path d="M4 21C3.44772 21 3 21.4477 3 22C3 22.5523 3.44772 23 4 23C4.55228 23 5 22.5523 5 22C5 21.4477 4.55228 21 4 21Z" fill="#777E91"/>
<path d="M11 22C11 21.4477 11.4477 21 12 21C12.5523 21 13 21.4477 13 22C13 22.5523 12.5523 23 12 23C11.4477 23 11 22.5523 11 22Z" fill="#777E91"/>
<path d="M20 21C19.4477 21 19 21.4477 19 22C19 22.5523 19.4477 23 20 23C20.5523 23 21 22.5523 21 22C21 21.4477 20.5523 21 20 21Z" fill="#777E91"/>
<path d="M15 22C15 21.4477 15.4477 21 16 21C16.5523 21 17 21.4477 17 22C17 22.5523 16.5523 23 16 23C15.4477 23 15 22.5523 15 22Z" fill="#777E91"/>
<path d="M20 17C19.4477 17 19 17.4477 19 18C19 18.5523 19.4477 19 20 19C20.5523 19 21 18.5523 21 18C21 17.4477 20.5523 17 20 17Z" fill="#777E91"/>
<path fill-rule="evenodd" clip-rule="evenodd" d="M5 5C5 3.89543 5.89543 3 7 3H14V5C14 6.65685 15.3431 8 17 8H19V14C19 14.5523 19.4477 15 20 15C20.5523 15 21 14.5523 21 14V6.74264C21 5.68178 20.5786 4.66436 19.8284 3.91421L18.0858 2.17157C17.3356 1.42143 16.3182 1 15.2574 1H7C4.79086 1 3 2.79086 3 5V14C3 14.5523 3.44772 15 4 15C4.55228 15 5 14.5523 5 14V5ZM18.857 6C18.7574 5.75083 18.6076 5.52186 18.4142 5.32843L16.6716 3.58579C16.4781 3.39235 16.2492 3.24264 16 3.14299V5C16 5.55228 16.4477 6 17 6H18.857Z" fill="#777E91"/>
</svg>
