<svg width="24" height="24" viewBox="0 0 24 24" fill="none" xmlns="http://www.w3.org/2000/svg">
<path d="M2 4C2 2.89543 2.89543 2 4 2H6.5C6.77614 2 7 2.22386 7 2.5V6.5C7 6.77614 6.77614 7 6.5 7H2.5C2.22386 7 2 6.77614 2 6.5V4Z" fill="#777E91"/>
<path d="M2 9.5C2 9.22386 2.22386 9 2.5 9H6.5C6.77614 9 7 9.22386 7 9.5V14.5C7 14.7761 6.77614 15 6.5 15H2.5C2.22386 15 2 14.7761 2 14.5V9.5Z" fill="#777E91"/>
<path d="M2.5 17C2.22386 17 2 17.2239 2 17.5V20C2 21.1046 2.89543 22 4 22H6.5C6.77614 22 7 21.7761 7 21.5V17.5C7 17.2239 6.77614 17 6.5 17H2.5Z" fill="#777E91"/>
<path d="M9.5 17C9.22386 17 9 17.2239 9 17.5V21.5C9 21.7761 9.22386 22 9.5 22H14.5C14.7761 22 15 21.7761 15 21.5V17.5C15 17.2239 14.7761 17 14.5 17L9.5 17Z" fill="#777E91"/>
<path d="M17.5 17C17.2239 17 17 17.2239 17 17.5V21.5C17 21.7761 17.2239 22 17.5 22H20C21.1046 22 22 21.1046 22 20V17.5C22 17.2239 21.7761 17 21.5 17H17.5Z" fill="#777E91"/>
<path d="M22 14.5C22 14.7761 21.7761 15 21.5 15H17.5C17.2239 15 17 14.7761 17 14.5V9.5C17 9.22386 17.2239 9 17.5 9H21.5C21.7761 9 22 9.22386 22 9.5V14.5Z" fill="#777E91"/>
<path d="M15 14.5C15 14.7761 14.7761 15 14.5 15L9.5 15C9.22386 15 9 14.7761 9 14.5V9.5C9 9.22386 9.22386 9 9.5 9H14.5C14.7761 9 15 9.22386 15 9.5V14.5Z" fill="#777E91"/>
<path d="M9 6.5C9 6.77614 9.22386 7 9.5 7H14.5C14.7761 7 15 6.77614 15 6.5V2.5C15 2.22386 14.7761 2 14.5 2H9.5C9.22386 2 9 2.22386 9 2.5V6.5Z" fill="#777E91"/>
<path d="M17 6.5C17 6.77614 17.2239 7 17.5 7H21.5C21.7761 7 22 6.77614 22 6.5V4C22 2.89543 21.1046 2 20 2H17.5C17.2239 2 17 2.22386 17 2.5V6.5Z" fill="#777E91"/>
</svg>
