<svg width="23" height="24" viewBox="0 0 23 24" fill="none" xmlns="http://www.w3.org/2000/svg">
<path fill-rule="evenodd" clip-rule="evenodd" d="M7.66699 2C7.13772 2 6.70866 2.44772 6.70866 3V7H2.87533C2.34605 7 1.91699 7.44771 1.91699 8C1.91699 8.55228 2.34605 9 2.87533 9H6.70866V15H2.87533C2.34605 15 1.91699 15.4477 1.91699 16C1.91699 16.5523 2.34605 17 2.87533 17H6.70866V21C6.70866 21.5523 7.13772 22 7.66699 22C8.19626 22 8.62533 21.5523 8.62533 21V17H14.3753V21C14.3753 21.5523 14.8044 22 15.3337 22C15.8629 22 16.292 21.5523 16.292 21V17H20.1253C20.6546 17 21.0837 16.5523 21.0837 16C21.0837 15.4477 20.6546 15 20.1253 15H16.292V9H20.1253C20.6546 9 21.0837 8.55228 21.0837 8C21.0837 7.44772 20.6546 7 20.1253 7H16.292V3C16.292 2.44772 15.8629 2 15.3337 2C14.8044 2 14.3753 2.44772 14.3753 3V7H8.62533V3C8.62533 2.44772 8.19626 2 7.66699 2ZM14.3753 15V9L8.62533 9V15L14.3753 15Z" fill="#777E91"/>
<path fill-rule="evenodd" clip-rule="evenodd" d="M18.2087 4H4.79199C4.26272 4 3.83366 4.44772 3.83366 5V19C3.83366 19.5523 4.26272 20 4.79199 20H18.2087C18.7379 20 19.167 19.5523 19.167 19V5C19.167 4.44771 18.7379 4 18.2087 4ZM4.79199 2C3.20417 2 1.91699 3.34315 1.91699 5V19C1.91699 20.6569 3.20417 22 4.79199 22H18.2087C19.7965 22 21.0837 20.6569 21.0837 19V5C21.0837 3.34315 19.7965 2 18.2087 2H4.79199Z" fill="#777E91"/>
</svg>
