<svg width="23" height="24" viewBox="0 0 23 24" fill="none" xmlns="http://www.w3.org/2000/svg">
<path fill-rule="evenodd" clip-rule="evenodd" d="M17.25 3H5.75C5.22073 3 4.79167 3.44772 4.79167 4V20C4.79167 20.5523 5.22073 21 5.75 21H17.25C17.7793 21 18.2083 20.5523 18.2083 20V4C18.2083 3.44772 17.7793 3 17.25 3ZM5.75 1C4.16218 1 2.875 2.34315 2.875 4V20C2.875 21.6569 4.16218 23 5.75 23H17.25C18.8378 23 20.125 21.6569 20.125 20V4C20.125 2.34315 18.8378 1 17.25 1H5.75Z" fill="#777E91"/>
<path d="M7.66634 7C8.19561 7 8.62467 6.55228 8.62467 6C8.62467 5.44772 8.19561 5 7.66634 5C7.13707 5 6.70801 5.44772 6.70801 6C6.70801 6.55228 7.13707 7 7.66634 7Z" fill="#777E91"/>
<path d="M15.333 7C15.8623 7 16.2913 6.55228 16.2913 6C16.2913 5.44772 15.8623 5 15.333 5C14.8037 5 14.3747 5.44772 14.3747 6C14.3747 6.55228 14.8037 7 15.333 7Z" fill="#777E91"/>
<path d="M8.62467 10C8.62467 10.5523 8.19561 11 7.66634 11C7.13707 11 6.70801 10.5523 6.70801 10C6.70801 9.44771 7.13707 9 7.66634 9C8.19561 9 8.62467 9.44771 8.62467 10Z" fill="#777E91"/>
<path d="M15.333 11C15.8623 11 16.2913 10.5523 16.2913 10C16.2913 9.44771 15.8623 9 15.333 9C14.8037 9 14.3747 9.44771 14.3747 10C14.3747 10.5523 14.8037 11 15.333 11Z" fill="#777E91"/>
<path d="M8.62467 14C8.62467 14.5523 8.19561 15 7.66634 15C7.13707 15 6.70801 14.5523 6.70801 14C6.70801 13.4477 7.13707 13 7.66634 13C8.19561 13 8.62467 13.4477 8.62467 14Z" fill="#777E91"/>
<path d="M15.333 15C15.8623 15 16.2913 14.5523 16.2913 14C16.2913 13.4477 15.8623 13 15.333 13C14.8037 13 14.3747 13.4477 14.3747 14C14.3747 14.5523 14.8037 15 15.333 15Z" fill="#777E91"/>
<path d="M8.62467 18C8.62467 18.5523 8.19561 19 7.66634 19C7.13707 19 6.70801 18.5523 6.70801 18C6.70801 17.4477 7.13707 17 7.66634 17C8.19561 17 8.62467 17.4477 8.62467 18Z" fill="#777E91"/>
<path d="M15.333 19C15.8623 19 16.2913 18.5523 16.2913 18C16.2913 17.4477 15.8623 17 15.333 17C14.8037 17 14.3747 17.4477 14.3747 18C14.3747 18.5523 14.8037 19 15.333 19Z" fill="#777E91"/>
</svg>
