<svg width="24" height="24" viewBox="0 0 24 24" fill="none" xmlns="http://www.w3.org/2000/svg">
<path fill-rule="evenodd" clip-rule="evenodd" d="M1 4.86851C1 2.99975 3 2.49969 4.5 3.50016L8.5547 6.16795C8.57009 6.17821 8.5852 6.1889 8.6 6.2L11.6111 8.45835C11.9142 8.68562 12.3196 8.72217 12.6584 8.55278L14.6584 7.55278C15.5029 7.13049 16.4971 7.13049 17.3416 7.55278L21.3416 9.55278C22.358 10.061 23 11.0998 23 12.2361V20C23 20.5523 22.5523 21 22 21H2C1.44772 21 1 20.5523 1 20V4.86851ZM20 11.9999C20.5523 11.9999 21 12.4476 21 12.9999V17.9999C21 18.5522 20.5523 18.9999 20 18.9999C19.4477 18.9999 19 18.5522 19 17.9999V12.9999C19 12.4476 19.4477 11.9999 20 11.9999ZM17 10.9999C17 10.4476 16.5523 9.99992 16 9.99992C15.4477 9.99992 15 10.4476 15 10.9999V17.9999C15 18.5522 15.4477 18.9999 16 18.9999C16.5523 18.9999 17 18.5522 17 17.9999V10.9999ZM12 10.9999C12.5523 10.9999 13 11.4476 13 11.9999V17.9999C13 18.5522 12.5523 18.9999 12 18.9999C11.4477 18.9999 11 18.5522 11 17.9999V11.9999C11 11.4476 11.4477 10.9999 12 10.9999ZM9 9.99992C9 9.44763 8.55229 8.99992 8 8.99992C7.44771 8.99992 7 9.44763 7 9.99992V17.9999C7 18.5522 7.44771 18.9999 8 18.9999C8.55229 18.9999 9 18.5522 9 17.9999V9.99992ZM4 5.99992C4.55228 5.99992 5 6.44763 5 6.99992V17.9999C5 18.5522 4.55228 18.9999 4 18.9999C3.44772 18.9999 3 18.5522 3 17.9999V6.99992C3 6.44763 3.44772 5.99992 4 5.99992Z" fill="#777E91"/>
</svg>
