<svg width="24" height="24" viewBox="0 0 24 24" fill="none" xmlns="http://www.w3.org/2000/svg">
<path d="M2 7C2.55228 7 3 7.44772 3 8V20C3 20.5523 2.55228 21 2 21C1.44772 21 1 20.5523 1 20V8C1 7.44772 1.44772 7 2 7Z" fill="#777E91"/>
<path d="M8 12C8 11.4477 7.55228 11 7 11C6.44772 11 6 11.4477 6 12V20C6 20.5523 6.44772 21 7 21C7.55228 21 8 20.5523 8 20V12Z" fill="#777E91"/>
<path d="M18 13C18 12.4477 17.5523 12 17 12C16.4477 12 16 12.4477 16 13V20C16 20.5523 16.4477 21 17 21C17.5523 21 18 20.5523 18 20V13Z" fill="#777E91"/>
<path d="M23 15C23 14.4477 22.5523 14 22 14C21.4477 14 21 14.4477 21 15V20C21 20.5523 21.4477 21 22 21C22.5523 21 23 20.5523 23 20V15Z" fill="#777E91"/>
<path d="M12 13C12.5523 13 13 13.4477 13 14V20C13 20.5523 12.5523 21 12 21C11.4477 21 11 20.5523 11 20V14C11 13.4477 11.4477 13 12 13Z" fill="#777E91"/>
<path fill-rule="evenodd" clip-rule="evenodd" d="M1.21887 3.37534C0.873856 3.8066 0.943777 4.4359 1.37504 4.78091L6.14361 8.59576C6.37378 8.7799 6.62984 8.92911 6.90352 9.03858L11.0763 10.7077C11.6167 10.9238 12.2082 10.9781 12.7788 10.864L16.6129 10.0972C16.8031 10.0592 17.0003 10.0773 17.1804 10.1493L21.6283 11.9285C22.1411 12.1336 22.7231 11.8842 22.9282 11.3714C23.1333 10.8586 22.8839 10.2767 22.3711 10.0716L17.9231 8.29237C17.3828 8.07623 16.7913 8.02192 16.2206 8.13605L12.3866 8.90286C12.1964 8.9409 11.9992 8.9228 11.8191 8.85075L7.6463 7.18163C7.55507 7.14514 7.46972 7.0954 7.393 7.03402L2.62443 3.21917C2.19317 2.87416 1.56388 2.94408 1.21887 3.37534Z" fill="#777E91"/>
</svg>
