<svg width="24" height="24" viewBox="0 0 24 24" fill="none" xmlns="http://www.w3.org/2000/svg">
<path fill-rule="evenodd" clip-rule="evenodd" d="M11 9.00488V14.0001C11 14.5524 11.4477 15.0001 12 15.0001C12.5523 15.0001 13 14.5524 13 14.0001V9.00488C15.0723 9.02492 16.6733 9.10554 17.8537 9.19609C19.4638 9.31959 20.6985 10.5348 20.8382 12.1435C20.9277 13.1756 21 14.4795 21 16.0001C21 17.5207 20.9277 18.8246 20.8382 19.8567C20.6985 21.4655 19.4638 22.6806 17.8537 22.8041C16.4899 22.9088 14.5647 23.0001 12 23.0001C9.43529 23.0001 7.51009 22.9088 6.14628 22.8041C4.53621 22.6806 3.30146 21.4655 3.16184 19.8567C3.07226 18.8246 3 17.5207 3 16.0001C3 14.4795 3.07226 13.1756 3.16184 12.1435C3.30146 10.5348 4.53621 9.31959 6.14628 9.19609C7.32672 9.10554 8.92774 9.02492 11 9.00488Z" fill="#777E91"/>
<path fill-rule="evenodd" clip-rule="evenodd" d="M9.20711 6.20711C8.81658 6.59763 8.18342 6.59763 7.79289 6.20711C7.40237 5.81658 7.40237 5.18342 7.79289 4.79289L11.2929 1.29289C11.6834 0.902369 12.3166 0.902369 12.7071 1.29289L16.2071 4.79289C16.5976 5.18342 16.5976 5.81658 16.2071 6.20711C15.8166 6.59763 15.1834 6.59763 14.7929 6.20711L13 4.41421V9H11V4.41421L9.20711 6.20711Z" fill="#777E91"/>
</svg>
