<svg width="24" height="24" viewBox="0 0 24 24" fill="none" xmlns="http://www.w3.org/2000/svg">
<path fill-rule="evenodd" clip-rule="evenodd" d="M8.99858 10.0401C9.02798 10.5916 8.60474 11.0625 8.05324 11.0919C7.30055 11.132 6.7044 11.1811 6.23854 11.2302C5.61292 11.2962 5.23278 11.6805 5.16959 12.2333C5.07886 13.0269 5 14.2279 5 16.0002C5 17.7724 5.07886 18.9735 5.16959 19.7671C5.23289 20.3208 5.61207 20.7041 6.23675 20.77C7.33078 20.8855 9.13925 21.0002 12 21.0002C14.8608 21.0002 16.6692 20.8855 17.7632 20.77C18.3879 20.7041 18.7671 20.3208 18.8304 19.7671C18.9211 18.9735 19 17.7724 19 16.0002C19 14.2279 18.9211 13.0269 18.8304 12.2333C18.7672 11.6805 18.3871 11.2962 17.7615 11.2302C17.2956 11.1811 16.6995 11.132 15.9468 11.0919C15.3953 11.0625 14.972 10.5916 15.0014 10.0401C15.0308 9.48855 15.5017 9.0653 16.0532 9.09471C16.8361 9.13644 17.4669 9.18805 17.9712 9.24124C19.4556 9.39779 20.6397 10.4509 20.8175 12.0061C20.9188 12.8925 21 14.1717 21 16.0002C21 17.8287 20.9188 19.1079 20.8175 19.9943C20.6398 21.5486 19.4585 22.6022 17.9732 22.7589C16.7919 22.8836 14.9108 23.0002 12 23.0002C9.08922 23.0002 7.20806 22.8836 6.02684 22.7589C4.54151 22.6022 3.36021 21.5486 3.18253 19.9943C3.0812 19.1079 3 17.8287 3 16.0002C3 14.1717 3.0812 12.8925 3.18253 12.0061C3.36031 10.4509 4.54436 9.39779 6.02877 9.24124C6.53306 9.18805 7.16393 9.13644 7.94676 9.09471C8.49827 9.0653 8.96918 9.48855 8.99858 10.0401Z" fill="#777E91"/>
<path fill-rule="evenodd" clip-rule="evenodd" d="M9.20711 6.20711C8.81658 6.59763 8.18342 6.59763 7.79289 6.20711C7.40237 5.81658 7.40237 5.18342 7.79289 4.79289L11.2929 1.29289C11.6834 0.902369 12.3166 0.902369 12.7071 1.29289L16.2071 4.79289C16.5976 5.18342 16.5976 5.81658 16.2071 6.20711C15.8166 6.59763 15.1834 6.59763 14.7929 6.20711L13 4.41421V14C13 14.5523 12.5523 15 12 15C11.4477 15 11 14.5523 11 14V4.41421L9.20711 6.20711Z" fill="#777E91"/>
</svg>
