<svg width="24" height="24" viewBox="0 0 24 24" fill="none" xmlns="http://www.w3.org/2000/svg">
<path fill-rule="evenodd" clip-rule="evenodd" d="M13.9998 19.9998L19.9998 13.9998C22.7612 11.2384 22.7612 6.7612 19.9998 3.99978C17.2384 1.23835 12.7612 1.23836 9.99978 3.99978L3.99978 9.99978C1.23835 12.7612 1.23836 17.2384 3.99978 19.9998C6.76121 22.7612 11.2384 22.7612 13.9998 19.9998ZM16.7069 8.70686C17.0974 8.31634 17.0974 7.68317 16.7069 7.29265C16.3163 6.90212 15.6832 6.90212 15.2926 7.29265L13.2926 9.29265C12.9021 9.68317 12.9021 10.3163 13.2926 10.7069C13.6832 11.0974 14.3163 11.0974 14.7069 10.7069L16.7069 8.70686Z" fill="#777E91"/>
</svg>
