<svg width="24" height="24" viewBox="0 0 24 24" fill="none" xmlns="http://www.w3.org/2000/svg">
<path fill-rule="evenodd" clip-rule="evenodd" d="M14.0856 18.0856L18.0856 14.0856C20.3422 11.8291 20.3422 8.17059 18.0856 5.91407C15.8291 3.65755 12.1706 3.65755 9.91407 5.91407L5.91407 9.91407C3.65755 12.1706 3.65755 15.8291 5.91407 18.0856C8.17058 20.3422 11.8291 20.3422 14.0856 18.0856ZM15.4999 19.4999L19.4999 15.4999C22.5374 12.4623 22.5374 7.53742 19.4999 4.49985C16.4623 1.46229 11.5374 1.46229 8.49986 4.49985L4.49985 8.49986C1.46229 11.5374 1.46229 16.4623 4.49985 19.4999C7.53742 22.5374 12.4623 22.5374 15.4999 19.4999Z" fill="#777E91"/>
<path fill-rule="evenodd" clip-rule="evenodd" d="M16.7071 7.29289C17.0976 7.68342 17.0976 8.31658 16.7071 8.70711L14.7071 10.7071C14.3166 11.0976 13.6834 11.0976 13.2929 10.7071C12.9024 10.3166 12.9024 9.68342 13.2929 9.29289L15.2929 7.29289C15.6834 6.90237 16.3166 6.90237 16.7071 7.29289Z" fill="#777E91"/>
</svg>
