<svg width="24" height="24" viewBox="0 0 24 24" fill="none" xmlns="http://www.w3.org/2000/svg">
<path d="M2.15845 19.9101L3.69552 15.8112C3.89601 15.2766 4.20865 14.791 4.61241 14.3873L4.64622 14.3535C4.84148 14.1582 5.15806 14.1582 5.35332 14.3535L9.64622 18.6464C9.84148 18.8416 9.84148 19.1582 9.64622 19.3535L9.61241 19.3873C9.20865 19.791 8.72312 20.1037 8.18848 20.3042L4.08963 21.8412C2.8838 22.2934 1.70627 21.1159 2.15845 19.9101Z" fill="#777E91"/>
<path d="M11.1462 17.1464C11.3415 17.3416 11.6581 17.3416 11.8533 17.1464L17.6462 11.3535C17.8415 11.1582 17.8415 10.8416 17.6462 10.6464L13.3533 6.35348C13.1581 6.15822 12.8415 6.15822 12.6462 6.35348L6.85332 12.1464C6.65806 12.3416 6.65806 12.6582 6.85332 12.8535L11.1462 17.1464Z" fill="#777E91"/>
<path d="M14.8535 4.14646C14.6582 4.34172 14.6582 4.6583 14.8535 4.85357L19.1464 9.14646C19.3416 9.34172 19.6582 9.34172 19.8535 9.14646L20.8786 8.12136C22.0502 6.94978 22.0502 5.05029 20.8786 3.87872L20.1212 3.12136C18.9496 1.94978 17.0502 1.94978 15.8786 3.12135L14.8535 4.14646Z" fill="#777E91"/>
</svg>
