<svg width="23" height="24" viewBox="0 0 23 24" fill="none" xmlns="http://www.w3.org/2000/svg">
<path fill-rule="evenodd" clip-rule="evenodd" d="M1.93864 18.3979L2.6331 15.1369C2.79125 14.3943 3.14906 13.7142 3.66457 13.1762L13.1022 3.32831C14.5992 1.76622 17.0263 1.76621 18.5233 3.32831L19.8105 4.67146C21.3075 6.23355 21.3075 8.76621 19.8105 10.3283L10.3729 20.1762C9.85739 20.7142 9.20557 21.0875 8.49389 21.2526L5.36886 21.9772C3.31467 22.4535 1.48216 20.5414 1.93864 18.3979ZM4.50412 15.5708L3.80967 18.8317C3.65751 19.5462 4.26834 20.1836 4.95307 20.0248L8.07811 19.3002C8.42033 19.2208 8.73487 19.0451 8.98773 18.7925L4.99062 14.6216C4.74856 14.8855 4.58017 15.2137 4.50412 15.5708ZM6.34558 13.2071L10.3433 17.3787L15.6964 11.7929L11.6986 7.62131L6.34558 13.2071ZM18.4552 8.9141L17.0517 10.3787L13.0539 6.20709L14.4575 4.74253C15.206 3.96148 16.4195 3.96148 17.168 4.74252L18.4552 6.08567C19.2037 6.86672 19.2037 8.13305 18.4552 8.9141Z" fill="#777E91"/>
</svg>
