<svg width="23" height="24" viewBox="0 0 23 24" fill="none" xmlns="http://www.w3.org/2000/svg">
<path d="M6.70833 5C6.17906 5 5.75 5.44772 5.75 6C5.75 6.55228 6.17906 7 6.70833 7H18.2083C18.7376 7 19.1667 6.55228 19.1667 6C19.1667 5.44772 18.7376 5 18.2083 5H6.70833Z" fill="#777E91"/>
<path d="M6.70833 9C6.17906 9 5.75 9.44771 5.75 10C5.75 10.5523 6.17906 11 6.70833 11H12.4583C12.9876 11 13.4167 10.5523 13.4167 10C13.4167 9.44771 12.9876 9 12.4583 9H6.70833Z" fill="#777E91"/>
<path d="M6.70833 13C6.17906 13 5.75 13.4477 5.75 14C5.75 14.5523 6.17906 15 6.70833 15H20.125C20.6543 15 21.0833 14.5523 21.0833 14C21.0833 13.4477 20.6543 13 20.125 13H6.70833Z" fill="#777E91"/>
<path d="M5.75 18C5.75 17.4477 6.17906 17 6.70833 17H16.2917C16.8209 17 17.25 17.4477 17.25 18C17.25 18.5523 16.8209 19 16.2917 19H6.70833C6.17906 19 5.75 18.5523 5.75 18Z" fill="#777E91"/>
<path fill-rule="evenodd" clip-rule="evenodd" d="M2.87533 2C3.4046 2 3.83366 2.44772 3.83366 3V21C3.83366 21.5523 3.4046 22 2.87533 22C2.34605 22 1.91699 21.5523 1.91699 21V3C1.91699 2.44772 2.34605 2 2.87533 2Z" fill="#777E91"/>
</svg>
