<svg width="24" height="24" viewBox="0 0 24 24" fill="none" xmlns="http://www.w3.org/2000/svg">
<path d="M6 11.5C6 11.2239 6.22386 11 6.5 11H17.5C17.7761 11 18 11.2239 18 11.5V16C18 17.3062 17.1652 18.4175 16 18.8293V21C16 21.5523 15.5523 22 15 22C14.4477 22 14 21.5523 14 21V19H10V21C10 21.5523 9.55228 22 9 22C8.44772 22 8 21.5523 8 21V18.8293C6.83481 18.4175 6 17.3062 6 16V11.5Z" fill="#777E91"/>
<path d="M3 9C2.44772 9 2 9.44772 2 10V14C2 14.5523 2.44772 15 3 15C3.55228 15 4 14.5523 4 14V10C4 9.44772 3.55228 9 3 9Z" fill="#777E91"/>
<path d="M21 9C20.4477 9 20 9.44772 20 10V14C20 14.5523 20.4477 15 21 15C21.5523 15 22 14.5523 22 14V10C22 9.44772 21.5523 9 21 9Z" fill="#777E91"/>
<path fill-rule="evenodd" clip-rule="evenodd" d="M7.5524 2.10579C8.04638 1.8588 8.64705 2.05903 8.89404 2.55301L9.41047 3.58586C10.1943 3.21032 11.0724 3 11.9996 3C12.9268 3 13.8049 3.21032 14.5888 3.58586L15.1052 2.55301C15.3522 2.05903 15.9529 1.8588 16.4469 2.10579C16.9408 2.35278 17.1411 2.95345 16.8941 3.44743L16.2402 4.75526C17.2169 5.73103 17.8589 7.04179 17.9791 8.50048C18.0018 8.77569 17.7758 9 17.4996 9H6.49964C6.22349 9 5.99745 8.77569 6.02013 8.50048C6.14036 7.04179 6.78237 5.73103 7.7591 4.75526L7.10518 3.44743C6.85819 2.95345 7.05842 2.35278 7.5524 2.10579Z" fill="#777E91"/>
</svg>
