<svg width="23" height="24" viewBox="0 0 23 24" fill="none" xmlns="http://www.w3.org/2000/svg">
<path fill-rule="evenodd" clip-rule="evenodd" d="M15.3333 18.8293C16.45 18.4175 17.25 17.3062 17.25 16V9H5.75V16C5.75 17.3062 6.55003 18.4175 7.66667 18.8293V21C7.66667 21.5523 8.09573 22 8.625 22C9.15427 22 9.58333 21.5523 9.58333 21V19H13.4167V21C13.4167 21.5523 13.8457 22 14.375 22C14.9043 22 15.3333 21.5523 15.3333 21V18.8293ZM15.3333 11H7.66667V16C7.66667 16.5523 8.09573 17 8.625 17H14.375C14.9043 17 15.3333 16.5523 15.3333 16V11Z" fill="#777E91"/>
<path d="M2.87533 9C2.34606 9 1.91699 9.44772 1.91699 10V14C1.91699 14.5523 2.34606 15 2.87533 15C3.40459 15 3.83366 14.5523 3.83366 14V10C3.83366 9.44772 3.40459 9 2.87533 9Z" fill="#777E91"/>
<path d="M20.1253 9C19.596 9 19.167 9.44772 19.167 10V14C19.167 14.5523 19.596 15 20.1253 15C20.6546 15 21.0837 14.5523 21.0837 14V10C21.0837 9.44772 20.6546 9 20.1253 9Z" fill="#777E91"/>
<path fill-rule="evenodd" clip-rule="evenodd" d="M7.23806 2.10579C7.71146 1.8588 8.2871 2.05903 8.5238 2.55301L9.01871 3.58586C9.76992 3.21032 10.6114 3 11.5 3C12.3886 3 13.2301 3.21032 13.9813 3.58586L14.4762 2.55301C14.7129 2.05903 15.2886 1.8588 15.7619 2.10579C16.2353 2.35278 16.4272 2.95345 16.1906 3.44743L15.5638 4.75526C16.6056 5.84121 17.25 7.34208 17.25 9V11H5.75V9C5.75 7.34208 6.39442 5.84121 7.43615 4.75526L6.80949 3.44743C6.57279 2.95345 6.76466 2.35278 7.23806 2.10579ZM13.7759 5.78098C13.7909 5.79346 13.8062 5.80552 13.822 5.81714C14.7406 6.5479 15.3333 7.70172 15.3333 9H7.66667C7.66667 7.70172 8.25941 6.5479 9.17792 5.81715C9.19373 5.80552 9.20912 5.79346 9.22409 5.78098C9.86058 5.29016 10.6478 5 11.5 5C12.3521 5 13.1394 5.29017 13.7759 5.78098Z" fill="#777E91"/>
</svg>
