<svg width="24" height="24" viewBox="0 0 24 24" fill="none" xmlns="http://www.w3.org/2000/svg">
<path d="M14 20C14 21.1046 13.1046 22 12 22C10.8954 22 10 21.1046 10 20C10 18.8954 10.8954 18 12 18C13.1046 18 14 18.8954 14 20Z" fill="#777E91"/>
<path d="M12.0001 2.99951C9.63629 2.99951 7.29564 3.4651 5.11178 4.36968C3.79803 4.91386 2.55649 5.61049 1.41185 6.4431C0.980692 6.75672 0.8714 7.35343 1.16341 7.7995L6.65681 16.191C6.81352 16.4304 7.06528 16.5912 7.34838 16.6327C7.63148 16.6742 7.9188 16.5925 8.13765 16.4082C9.18179 15.5288 10.5279 14.9998 12.0001 14.9998C13.4723 14.9998 14.8184 15.5288 15.8625 16.4082C16.0814 16.5925 16.3687 16.6742 16.6518 16.6327C16.9349 16.5912 17.1866 16.4304 17.3434 16.191L22.8367 7.7995C23.1288 7.35343 23.0195 6.75671 22.5883 6.4431C21.4437 5.61049 20.2021 4.91386 18.8884 4.36968C16.7045 3.4651 14.3639 2.99951 12.0001 2.99951Z" fill="#777E91"/>
</svg>
