<svg width="24" height="24" viewBox="0 0 24 24" fill="none" xmlns="http://www.w3.org/2000/svg">
<circle cx="12" cy="20" r="2" fill="#777E91"/>
<path d="M1.19138 7.84051C0.866507 7.39388 0.965208 6.76846 1.41184 6.44358C2.55648 5.61097 3.79802 4.91434 5.11177 4.37017C7.29563 3.46558 9.63628 3 12.0001 3C14.3639 3 16.7045 3.46558 18.8884 4.37017C20.2021 4.91434 21.4437 5.61098 22.5883 6.44358C23.0349 6.76846 23.1336 7.39388 22.8088 7.84051C22.4839 8.28713 21.8585 8.38584 21.4118 8.06096C20.3944 7.32086 19.2908 6.70164 18.123 6.21793C16.1818 5.41385 14.1012 5 12.0001 5C9.89892 5 7.81835 5.41385 5.87714 6.21793C4.70936 6.70164 3.60577 7.32086 2.58831 8.06096C2.14168 8.38584 1.51625 8.28714 1.19138 7.84051Z" fill="#777E91"/>
<path d="M7.02518 8.98975C8.60242 8.33644 10.2929 8.00018 12.0001 8.00018C13.7073 8.00018 15.3977 8.3365 16.975 8.98981C17.8994 9.37275 18.7744 9.86022 19.5834 10.4412C20.032 10.7634 20.1345 11.3882 19.8123 11.8368C19.4901 12.2854 18.8653 12.3878 18.4167 12.0657C17.7322 11.5741 16.9918 11.1616 16.2096 10.8376C14.875 10.2848 13.4446 10.0002 12.0001 10.0002C10.5555 10.0002 9.12513 10.2847 7.79055 10.8375C7.00829 11.1615 6.26793 11.574 5.58341 12.0656C5.13482 12.3878 4.51001 12.2853 4.18784 11.8367C3.86568 11.3881 3.96816 10.7633 4.41674 10.4411C5.22572 9.86016 6.10069 9.37269 7.02518 8.98975Z" fill="#777E91"/>
<path d="M7.05139 14.7145C6.61745 15.0561 6.54261 15.6848 6.88424 16.1188C7.22586 16.5527 7.85459 16.6276 8.28854 16.2859C8.71927 15.9468 9.19534 15.6677 9.70387 15.457C10.4318 15.1555 11.212 15.0003 12 15.0003C12.7879 15.0003 13.5681 15.1555 14.2961 15.457C14.8046 15.6677 15.2807 15.9468 15.7114 16.2859C16.1454 16.6276 16.7741 16.5527 17.1157 16.1188C17.4573 15.6848 17.3825 15.0561 16.9486 14.7145C16.3742 14.2624 15.7395 13.8901 15.0614 13.6093C14.0908 13.2072 13.0505 13.0003 12 13.0003C10.9494 13.0003 9.90911 13.2072 8.93851 13.6093C8.26046 13.8901 7.6257 14.2624 7.05139 14.7145Z" fill="#777E91"/>
</svg>
