<svg width="24" height="24" viewBox="0 0 24 24" fill="none" xmlns="http://www.w3.org/2000/svg">
<path d="M3.27644 16.0707C3.03186 15.9407 2.72505 16.0211 2.58627 16.2608L2.54031 16.3402C1.63233 17.9085 1.95901 19.8584 3.6319 20.5552C5.38699 21.2863 8.09924 21.9997 12.0006 21.9997C15.9019 21.9997 18.6142 21.2863 20.3692 20.5552C22.0421 19.8584 22.3688 17.9085 21.4608 16.3402L21.4148 16.2607C21.2761 16.021 20.9692 15.9406 20.7247 16.0707C20.5153 16.182 20.2887 16.295 20.0445 16.4077C18.2912 17.2169 15.6485 17.9997 12.0005 17.9997C8.35244 17.9997 5.70974 17.2169 3.95643 16.4077C3.71228 16.295 3.48573 16.182 3.27644 16.0707Z" fill="#777E91"/>
<path fill-rule="evenodd" clip-rule="evenodd" d="M4.08873 13.6651C3.95089 13.9032 4.03085 14.2089 4.27456 14.3365C4.43488 14.4205 4.60799 14.5061 4.79411 14.592C6.2908 15.2828 8.6481 16 12.0001 16C15.352 16 17.7093 15.2828 19.206 14.592C19.3922 14.5061 19.5653 14.4205 19.7257 14.3365C19.9694 14.2088 20.0493 13.9031 19.9115 13.6651L18.7222 11.6108C17.8235 12.0395 16.7946 12.1185 15.8376 11.8279C14.8226 11.5196 13.9715 10.8207 13.4717 9.88489C12.972 8.94913 12.8644 7.85315 13.1727 6.83807C13.4366 5.96915 13.9867 5.22043 14.7266 4.70935L13.731 2.98962C12.9607 1.65905 11.0396 1.65906 10.2693 2.98963L4.08873 13.6651ZM11.0001 13C11.0001 13.5523 10.5523 14 10.0001 14C9.44777 14 9.00005 13.5523 9.00005 13C9.00005 12.4477 9.44777 12 10.0001 12C10.5523 12 11.0001 12.4477 11.0001 13Z" fill="#777E91"/>
<path d="M15.7351 6.45117C15.4298 6.70046 15.2025 7.03649 15.0863 7.41914C14.9322 7.92668 14.986 8.47467 15.2358 8.94256C15.4857 9.41044 15.9113 9.75989 16.4188 9.91404C16.8457 10.0437 17.3012 10.0262 17.7136 9.86871L15.7351 6.45117Z" fill="#777E91"/>
</svg>
