<svg width="23" height="24" viewBox="0 0 23 24" fill="none" xmlns="http://www.w3.org/2000/svg">
<path fill-rule="evenodd" clip-rule="evenodd" d="M8.98049 3.77934L2.69207 15.7099C1.66471 17.6591 2.08572 20.0433 4.08933 20.8032C5.76747 21.4396 8.18598 22 11.4996 22C14.8132 22 17.2318 21.4396 18.9099 20.8032C20.9135 20.0433 21.3345 17.6591 20.3071 15.7099L14.0187 3.77934C12.9264 1.70701 10.0728 1.70702 8.98049 3.77934ZM5.2777 14.9545L10.6599 4.74318C11.024 4.0524 11.9752 4.05241 12.3393 4.74318L17.7215 14.9544C17.6433 14.997 17.5562 15.0411 17.4592 15.0861C16.5439 15.5106 14.772 15.9999 11.4995 15.9999C8.22699 15.9999 6.4551 15.5106 5.53973 15.0861C5.44287 15.0412 5.35581 14.9971 5.2777 14.9545ZM18.6451 16.7072C18.52 16.7765 18.3845 16.8456 18.2377 16.9137C16.9968 17.4892 14.9353 17.9999 11.4995 17.9999C8.06363 17.9999 6.00219 17.4892 4.7613 16.9137C4.61457 16.8457 4.47911 16.7766 4.3541 16.7073C4.05952 17.2841 4.02068 17.8356 4.11188 18.2107C4.19189 18.5397 4.37167 18.7822 4.74401 18.9234C6.20122 19.4761 8.39715 20 11.4996 20C14.6021 20 16.798 19.4761 18.2552 18.9234C18.6276 18.7822 18.8073 18.5397 18.8873 18.2107C18.9785 17.8356 18.9397 17.284 18.6451 16.7072Z" fill="#777E91"/>
<path d="M16.0813 11.8418L17.0073 13.5988C16.1405 14.0379 15.1448 14.121 14.2194 13.8277C13.2466 13.5194 12.431 12.8205 11.952 11.8848C11.4731 10.949 11.37 9.85302 11.6654 8.83794C11.9373 7.90376 12.5263 7.10852 13.3174 6.59814L14.2435 8.35514C13.8892 8.61067 13.6258 8.98489 13.4994 9.41915C13.3517 9.92669 13.4032 10.4747 13.6427 10.9426C13.8822 11.4104 14.29 11.7599 14.7763 11.914C15.2077 12.0507 15.6695 12.0239 16.0813 11.8418Z" fill="#777E91"/>
<path d="M10.5417 13C10.5417 13.5523 10.1126 14 9.58333 14C9.05406 14 8.625 13.5523 8.625 13C8.625 12.4477 9.05406 12 9.58333 12C10.1126 12 10.5417 12.4477 10.5417 13Z" fill="#777E91"/>
</svg>
