<svg width="24" height="24" viewBox="0 0 24 24" fill="none" xmlns="http://www.w3.org/2000/svg">
<path d="M4.25699 17.7427L2.46402 19.5357C1.91173 20.0879 1.91173 20.9834 2.46402 21.5357C3.0163 22.0879 3.91173 22.0879 4.46402 21.5357L6.25699 19.7427L4.25699 17.7427Z" fill="#777E91"/>
<path fill-rule="evenodd" clip-rule="evenodd" d="M20.9647 8.03554L13.0523 15.948C12.6678 16.3324 12.186 16.6052 11.6585 16.7371L9.00211 17.4012C8.65045 17.4891 8.32929 17.6709 8.07297 17.9272L7.67188 18.3283L5.67188 16.3283L6.07297 15.9272C6.32929 15.6709 6.51113 15.3498 6.59904 14.9981L7.26315 12.3417C7.39502 11.8142 7.66778 11.3324 8.05226 10.948L15.9647 3.03553C17.3454 1.65482 19.584 1.65482 20.9647 3.03553C22.3454 4.41625 22.3454 6.65482 20.9647 8.03554ZM17.4647 8.53555L15.4647 10.5356C14.9124 11.0878 14.017 11.0878 13.4647 10.5356C12.9124 9.98327 12.9124 9.08784 13.4647 8.53555L15.4647 6.53555C16.017 5.98327 16.9124 5.98327 17.4647 6.53555C18.017 7.08784 18.017 7.98327 17.4647 8.53555Z" fill="#777E91"/>
</svg>
