<svg width="23" height="24" viewBox="0 0 23 24" fill="none" xmlns="http://www.w3.org/2000/svg">
<path fill-rule="evenodd" clip-rule="evenodd" d="M5.18688 14.5876C5.55533 14.2031 5.81672 13.7214 5.9431 13.1939L6.51516 10.8062C6.64154 10.2787 6.90293 9.79695 7.27139 9.41247L12.9375 3.50004C14.7899 1.56704 17.7933 1.56704 19.6458 3.50004C21.4983 5.43304 21.4983 8.56704 19.6458 10.5L13.9797 16.4125C13.6113 16.7969 13.1496 17.0697 12.6441 17.2016L10.3559 17.7985C9.85033 17.9304 9.38867 18.2031 9.02021 18.5876L6.7083 21C5.64975 22.1046 3.93351 22.1046 2.87496 21C1.81642 19.8955 1.81642 18.1046 2.87496 17L5.18688 14.5876ZM12.1792 15.2613L9.89099 15.8582C9.04847 16.078 8.27902 16.5326 7.66492 17.1734L5.35301 19.5858C5.04297 19.9093 4.54029 19.9093 4.23025 19.5858C3.92021 19.2623 3.92021 18.7378 4.23025 18.4143L6.54216 16.0018C7.15626 15.361 7.59191 14.5581 7.80254 13.679L8.3746 11.2913C8.41673 11.1154 8.50386 10.9548 8.62667 10.8267L14.2928 4.91425C15.3967 3.76231 17.1866 3.76231 18.2905 4.91425C19.3945 6.0662 19.3945 7.93388 18.2905 9.08582L12.6244 14.9983C12.5016 15.1264 12.3477 15.2173 12.1792 15.2613Z" fill="#777E91"/>
<path d="M16.2918 9.00015L14.3751 11.0002C13.8459 11.5524 12.9878 11.5524 12.4585 11.0002C11.9292 10.4479 11.9292 9.55244 12.4585 9.00015L14.3751 7.00015C14.9044 6.44787 15.7625 6.44787 16.2918 7.00015C16.8211 7.55244 16.8211 8.44787 16.2918 9.00015Z" fill="#777E91"/>
<path fill-rule="evenodd" clip-rule="evenodd" d="M8.62476 18.9999C8.25051 19.3904 7.64373 19.3904 7.26948 18.9999L4.79143 16.4141C4.41718 16.0236 4.41718 15.3904 4.79143 14.9999C5.16568 14.6094 5.77247 14.6094 6.14672 14.9999L8.62476 17.5857C8.99902 17.9762 8.99902 18.6094 8.62476 18.9999Z" fill="#777E91"/>
</svg>
