<svg width="24" height="24" viewBox="0 0 24 24" fill="none" xmlns="http://www.w3.org/2000/svg">
<path d="M6 13.0001C7.13466 13.0001 8.05598 12.6213 8.75764 12.1572C8.90434 12.0602 9.09565 12.0602 9.24235 12.1572C9.94402 12.6213 10.8653 13.0001 12 13.0001C13.1347 13.0001 14.056 12.6213 14.7576 12.1572C14.9043 12.0602 15.0957 12.0602 15.2424 12.1572C15.944 12.6213 16.8653 13.0001 18 13.0001C18.4414 13.0001 18.8874 12.9627 19.3234 12.8744C19.6601 12.8063 20 13.0493 20 13.3928V18.0001C20 19.6569 18.6569 21.0001 17 21.0001H15C14.4477 21.0001 14 20.5524 14 20.0001V17.0001C14 15.8955 13.1046 15.0001 12 15.0001C10.8954 15.0001 10 15.8955 10 17.0001V20.0001C10 20.5524 9.55228 21.0001 9 21.0001H7C5.34315 21.0001 4 19.6569 4 18.0001V13.3928C4 13.0493 4.33995 12.8063 4.67662 12.8744C5.11256 12.9627 5.55857 13.0001 6 13.0001Z" fill="#777E91"/>
<path d="M4.90014 4.23781C5.5688 3.4142 6.59599 3 7.65685 3H16.3431C17.404 3 18.4312 3.4142 19.0999 4.23781C19.9561 5.29247 21 6.82022 21 8C21 10 20 11 18 11C16.525 11 15.5939 9.9122 15.2067 9.34109C15.1142 9.20468 14.8858 9.20468 14.7933 9.34109C14.4061 9.9122 13.475 11 12 11C10.525 11 9.59391 9.9122 9.20672 9.34109C9.11424 9.20468 8.88576 9.20468 8.79328 9.34109C8.40609 9.9122 7.47499 11 6 11C4 11 3 10 3 8C3 6.82022 4.04391 5.29247 4.90014 4.23781Z" fill="#777E91"/>
</svg>
