<svg width="23" height="24" viewBox="0 0 23 24" fill="none" xmlns="http://www.w3.org/2000/svg">
<path fill-rule="evenodd" clip-rule="evenodd" d="M4.79167 18V10H2.875V18C2.875 20.2091 4.59124 22 6.70833 22H16.2917C18.4088 22 20.125 20.2091 20.125 18V10H18.2083V18C18.2083 19.1046 17.3502 20 16.2917 20H14.375V17C14.375 15.3431 13.0878 14 11.5 14C9.91218 14 8.625 15.3431 8.625 17V20H6.70833C5.64979 20 4.79167 19.1046 4.79167 18ZM10.5417 20H12.4583V17C12.4583 16.4477 12.0293 16 11.5 16C10.9707 16 10.5417 16.4477 10.5417 17V20Z" fill="#777E91"/>
<path fill-rule="evenodd" clip-rule="evenodd" d="M7.28898 2C5.70463 2 4.1432 2.82386 3.28469 4.35022C3.0097 4.83914 2.69881 5.42359 2.45078 5.98204C2.32699 6.26075 2.20492 6.56394 2.11054 6.86585C2.02585 7.13672 1.91699 7.54847 1.91699 8C1.91699 8.79714 2.10426 9.80859 2.78051 10.6554C3.508 11.5663 4.57065 12 5.75033 12C6.87024 12 7.73811 11.4551 8.2951 10.9686C8.48503 10.8027 8.76563 10.8027 8.95556 10.9686C9.51254 11.4551 10.3804 12 11.5003 12C12.6202 12 13.4881 11.4551 14.0451 10.9686C14.235 10.8027 14.5156 10.8027 14.7056 10.9686C15.2625 11.4551 16.1304 12 17.2503 12C18.43 12 19.4927 11.5663 20.2201 10.6554C20.8964 9.80859 21.0837 8.79714 21.0837 8C21.0837 7.54847 20.9748 7.13672 20.8901 6.86585C20.7957 6.56394 20.6737 6.26075 20.5499 5.98204C20.3018 5.42359 19.991 4.83914 19.716 4.35022C18.8575 2.82386 17.296 2 15.7117 2H7.28898ZM7.28898 4C6.32771 4 5.42425 4.49749 4.93769 5.36256C4.41525 6.29142 3.83366 7.44915 3.83366 8C3.83366 9 4.31283 10 5.75033 10C6.75822 10 7.53056 9.01679 7.90217 8.42911C8.06391 8.17334 8.33166 8 8.62533 8C8.91899 8 9.18674 8.17334 9.34848 8.42911C9.72009 9.01679 10.4924 10 11.5003 10C12.5082 10 13.2806 9.01679 13.6522 8.42911C13.8139 8.17334 14.0817 8 14.3753 8C14.669 8 14.9367 8.17334 15.0985 8.42911C15.4701 9.01679 16.2424 10 17.2503 10C18.6878 10 19.167 9 19.167 8C19.167 7.44915 18.5854 6.29142 18.063 5.36256C17.5764 4.49749 16.6729 4 15.7117 4H7.28898Z" fill="#777E91"/>
</svg>
