<svg width="24" height="24" viewBox="0 0 24 24" fill="none" xmlns="http://www.w3.org/2000/svg">
<path d="M4.6098 16C4.29428 16 4.05751 16.2882 4.11919 16.5977C4.27998 17.4043 4.56212 18.8238 4.7016 19.5497C4.90331 20.5994 5.50948 21 6.34446 21C7.25885 21 8.00011 20.2587 8.00011 19.3444V16.5C8.00011 16.2239 7.77625 16 7.50011 16H4.6098Z" fill="#777E91"/>
<path d="M4 8C2.34315 8 1 9.34315 1 11C1 12.6569 2.34315 14 4 14C5.5 14 6 14 7.5 14C7.77614 14 8 13.7761 8 13.5V8.5C8 8.22386 7.77614 8 7.5 8C6 8 5.5 8 4 8Z" fill="#777E91"/>
<path d="M10.3093 7.1302C10.1237 7.21316 10 7.39518 10 7.59853V14.4015C10 14.6048 10.1237 14.7869 10.3093 14.8698C10.6742 15.0328 11.0302 15.2181 11.3751 15.4251L15.971 18.1826C17.3041 18.9824 19 18.0222 19 16.4676V5.53238C19 3.9778 17.3041 3.01757 15.971 3.8174L11.3751 6.57493C11.0302 6.78188 10.6742 6.96716 10.3093 7.1302Z" fill="#777E91"/>
<path d="M21 10C21 9.44772 21.4477 9 22 9C22.5523 9 23 9.44772 23 10V12C23 12.5523 22.5523 13 22 13C21.4477 13 21 12.5523 21 12V10Z" fill="#777E91"/>
</svg>
