<svg width="23" height="24" viewBox="0 0 23 24" fill="none" xmlns="http://www.w3.org/2000/svg">
<path d="M4.08886 14.9331C4.08571 15.0366 4.09023 15.1419 4.10297 15.2483L4.51334 18.674C4.67254 20.0029 5.75518 21.0002 7.03868 21.0002C8.44424 21.0002 9.58367 19.8113 9.58367 18.3446V15.2829C8.95684 15.124 8.31473 15.0311 7.66701 15.0067V18.3446C7.66701 18.7067 7.3857 19.0002 7.03868 19.0002C6.7218 19.0002 6.45451 18.754 6.41521 18.4259L6.00484 15.0002C8.37856 15.0002 5.98637 15.0002 4.7919 15.0002C4.55175 15.0002 4.31677 14.9772 4.08886 14.9331Z" fill="#777E91"/>
<path fill-rule="evenodd" clip-rule="evenodd" d="M7.32069 8.99987H4.79134C3.7328 8.99987 2.87467 9.8953 2.87467 10.9999C2.87467 12.1044 3.7328 12.9999 4.79134 12.9999H7.32069C9.10601 12.9999 10.8668 13.4336 12.4636 14.2667L17.7794 17.0402C18.4166 17.3726 19.1663 16.8891 19.1663 16.1458V5.85397C19.1663 5.11059 18.4166 4.62709 17.7794 4.95954L12.4636 7.73299C10.8668 8.56613 9.10601 8.99987 7.32069 8.99987ZM4.79134 6.99987C2.67425 6.99987 0.958008 8.79073 0.958008 10.9999C0.958008 13.209 2.67425 14.9999 4.79134 14.9999H7.32069C8.80845 14.9999 10.2758 15.3613 11.6065 16.0556L16.9223 18.829C18.8339 19.8264 21.083 18.3759 21.083 16.1458V5.85397C21.083 3.62382 18.8339 2.17333 16.9223 3.17069L11.6065 5.94414C10.2758 6.63842 8.80845 6.99987 7.32069 6.99987H4.79134Z" fill="#777E91"/>
<path d="M10.5417 15.5817C9.92048 15.3504 9.27816 15.1867 8.625 15.0931V6.90707C9.27816 6.81346 9.92048 6.64975 10.5417 6.41846V15.5817Z" fill="#777E91"/>
<path d="M21.083 12.9147C21.6413 12.7088 22.0413 12.1532 22.0413 11.5001V10.5001C22.0413 9.84699 21.6413 9.29137 21.083 9.08545V12.9147Z" fill="#777E91"/>
</svg>
