<svg width="24" height="24" viewBox="0 0 24 24" fill="none" xmlns="http://www.w3.org/2000/svg">
<path d="M22 19C22 20.6569 20.6569 22 19 22C17.3431 22 16 20.6569 16 19C16 17.3431 17.3431 16 19 16C20.6569 16 22 17.3431 22 19Z" fill="#777E91"/>
<path fill-rule="evenodd" clip-rule="evenodd" d="M15.5 4C14.1193 4 13 5.11929 13 6.5V17.5C13 19.9853 10.9853 22 8.5 22C6.01472 22 4 19.9853 4 17.5V10C4 9.44772 4.44772 9 5 9C5.55228 9 6 9.44772 6 10V17.5C6 18.8807 7.11929 20 8.5 20C9.88071 20 11 18.8807 11 17.5V6.5C11 4.01472 13.0147 2 15.5 2C17.9853 2 20 4.01472 20 6.5V13C20 13.5523 19.5523 14 19 14C18.4477 14 18 13.5523 18 13V6.5C18 5.11929 16.8807 4 15.5 4Z" fill="#777E91"/>
<path d="M4.13595 2.48099C4.52183 1.81949 5.47763 1.81949 5.86351 2.48099L7.62247 5.49636C8.01135 6.16302 7.53048 7.00023 6.75869 7.00023H3.24076C2.46897 7.00023 1.9881 6.16301 2.37699 5.49636L4.13595 2.48099Z" fill="#777E91"/>
</svg>
