<svg width="23" height="24" viewBox="0 0 23 24" fill="none" xmlns="http://www.w3.org/2000/svg">
<path fill-rule="evenodd" clip-rule="evenodd" d="M18.208 20C18.7373 20 19.1663 19.5523 19.1663 19C19.1663 18.4477 18.7373 18 18.208 18C17.6787 18 17.2497 18.4477 17.2497 19C17.2497 19.5523 17.6787 20 18.208 20ZM18.208 22C19.7958 22 21.083 20.6569 21.083 19C21.083 17.3431 19.7958 16 18.208 16C16.6202 16 15.333 17.3431 15.333 19C15.333 20.6569 16.6202 22 18.208 22Z" fill="#777E91"/>
<path fill-rule="evenodd" clip-rule="evenodd" d="M14.8538 4C13.5307 4 12.458 5.11929 12.458 6.5V17.5C12.458 19.9853 10.5272 22 8.14551 22C5.76378 22 3.83301 19.9853 3.83301 17.5V10C3.83301 9.44772 4.26207 9 4.79134 9C5.32061 9 5.74967 9.44772 5.74967 10V17.5C5.74967 18.8807 6.82233 20 8.14551 20C9.46869 20 10.5413 18.8807 10.5413 17.5V6.5C10.5413 4.01472 12.4721 2 14.8538 2C17.2356 2 19.1663 4.01472 19.1663 6.5V13C19.1663 13.5523 18.7373 14 18.208 14C17.6787 14 17.2497 13.5523 17.2497 13V6.5C17.2497 5.11929 16.177 4 14.8538 4Z" fill="#777E91"/>
<path d="M3.96415 2.48099C4.33395 1.81949 5.24992 1.81949 5.61972 2.48099L7.3054 5.49636C7.67807 6.16302 7.21724 7.00023 6.47761 7.00023H3.10626C2.36663 7.00023 1.90579 6.16301 2.27847 5.49636L3.96415 2.48099Z" fill="#777E91"/>
</svg>
