<svg width="24" height="24" viewBox="0 0 24 24" fill="none" xmlns="http://www.w3.org/2000/svg">
<path fill-rule="evenodd" clip-rule="evenodd" d="M6 16H10V9C10 5.13401 8.20914 2 6 2C3.79086 2 2 5.13401 2 9C2 12.866 3.79086 16 6 16ZM6 11C6.55228 11 7 10.1046 7 9C7 7.89543 6.55228 7 6 7C5.44772 7 5 7.89543 5 9C5 10.1046 5.44772 11 6 11Z" fill="#777E91"/>
<path fill-rule="evenodd" clip-rule="evenodd" d="M9 2C11.2091 2 12 6 12 9V14H13C13.5523 14 14 14.4477 14 15C14 15.5523 13.5523 16 13 16H12L12 20C12 21.1046 12.8954 22 14 22H20C21.1046 22 22 21.1046 22 20V16H21C20.4477 16 20 15.5523 20 15C20 14.4477 20.4477 14 21 14H22V9C22 7.0648 21.4478 5.35865 20.567 4.11082C19.6987 2.88077 18.4287 2 17 2H9ZM16 15C16 14.4477 16.4477 14 17 14C17.5523 14 18 14.4477 18 15C18 15.5523 17.5523 16 17 16C16.4477 16 16 15.5523 16 15Z" fill="#777E91"/>
</svg>
