<svg width="24" height="24" viewBox="0 0 24 24" fill="none" xmlns="http://www.w3.org/2000/svg">
<path fill-rule="evenodd" clip-rule="evenodd" d="M12 9C12 5.13401 9.76142 2 7 2C4.23858 2 2 5.13401 2 9C2 12.866 4.23858 16 7 16H12V9ZM8.90807 12.7873C9.54409 11.8968 10 10.5642 10 9C10 7.43579 9.54409 6.10316 8.90807 5.21273C8.2693 4.31845 7.56717 4 7 4C6.43283 4 5.7307 4.31845 5.09193 5.21273C4.45591 6.10316 4 7.43579 4 9C4 10.5642 4.45591 11.8968 5.09193 12.7873C5.7307 13.6815 6.43283 14 7 14C7.56717 14 8.2693 13.6815 8.90807 12.7873Z" fill="#777E91"/>
<ellipse cx="7" cy="9" rx="1" ry="2" fill="#777E91"/>
<path fill-rule="evenodd" clip-rule="evenodd" d="M7 2C6.44772 2 6 2.44772 6 3C6 3.55228 6.44864 4 7.00092 4C7.57224 4 8.3013 4.36923 8.93303 5.26418C9.55221 6.14135 10 7.4352 10 9V19C10 20.6569 11.3431 22 13 22H19C20.6569 22 22 20.6569 22 19V9C22 7.0648 21.4478 5.35865 20.567 4.11082C19.6987 2.88077 18.4287 2 17 2H7ZM10.5671 4.11082C10.5408 4.07355 10.5141 4.03661 10.4871 4H17.0001C17.5714 4 18.3014 4.36923 18.9331 5.26418C19.5523 6.14135 20.0001 7.4352 20.0001 9V19C20.0001 19.5523 19.5524 20 19.0001 20H13.0001C12.4478 20 12.0001 19.5523 12.0001 19V9C12.0001 7.0648 11.4479 5.35865 10.5671 4.11082Z" fill="#777E91"/>
<path d="M11 15C11 14.4477 11.4477 14 12 14C12.5523 14 13 14.4477 13 15C13 15.5523 12.5523 16 12 16C11.4477 16 11 15.5523 11 15Z" fill="#777E91"/>
<path d="M15 15C15 14.4477 15.4477 14 16 14C16.5523 14 17 14.4477 17 15C17 15.5523 16.5523 16 16 16C15.4477 16 15 15.5523 15 15Z" fill="#777E91"/>
<path d="M20 14C19.4477 14 19 14.4477 19 15C19 15.5523 19.4477 16 20 16C20.5523 16 21 15.5523 21 15C21 14.4477 20.5523 14 20 14Z" fill="#777E91"/>
</svg>
