<svg width="23" height="24" viewBox="0 0 23 24" fill="none" xmlns="http://www.w3.org/2000/svg">
<path fill-rule="evenodd" clip-rule="evenodd" d="M7.66634 12C8.19561 12 8.62467 12.4477 8.62467 13V15.5C8.62467 17.9853 10.5554 20 12.9372 20C15.3189 20 17.2497 17.9853 17.2497 15.5V14C17.2497 13.4477 17.6787 13 18.208 13C18.7373 13 19.1663 13.4477 19.1663 14V15.5C19.1663 19.0899 16.3774 22 12.9372 22C9.4969 22 6.70801 19.0899 6.70801 15.5V13C6.70801 12.4477 7.13707 12 7.66634 12Z" fill="#777E91"/>
<path fill-rule="evenodd" clip-rule="evenodd" d="M4.47255 4C4.1197 4 3.83366 4.29848 3.83366 4.66667V8C3.83366 10.2091 5.5499 12 7.66699 12C9.78408 12 11.5003 10.2091 11.5003 8V4.66667C11.5003 4.29848 11.2143 4 10.8614 4H10.542C10.0127 4 9.58366 3.55228 9.58366 3C9.58366 2.44772 10.0127 2 10.542 2H10.8614C12.2728 2 13.417 3.19391 13.417 4.66667V8C13.417 11.3137 10.8426 14 7.66699 14C4.49135 14 1.91699 11.3137 1.91699 8V4.66667C1.91699 3.19391 3.06115 2 4.47255 2H4.79199C5.32126 2 5.75033 2.44772 5.75033 3C5.75033 3.55228 5.32126 4 4.79199 4H4.47255Z" fill="#777E91"/>
<path fill-rule="evenodd" clip-rule="evenodd" d="M18.208 13C18.7373 13 19.1663 12.5523 19.1663 12C19.1663 11.4477 18.7373 11 18.208 11C17.6787 11 17.2497 11.4477 17.2497 12C17.2497 12.5523 17.6787 13 18.208 13ZM18.208 15C19.7958 15 21.083 13.6569 21.083 12C21.083 10.3431 19.7958 9 18.208 9C16.6202 9 15.333 10.3431 15.333 12C15.333 13.6569 16.6202 15 18.208 15Z" fill="#777E91"/>
</svg>
