<svg width="24" height="24" viewBox="0 0 24 24" fill="none" xmlns="http://www.w3.org/2000/svg">
<path d="M18.7858 12.3929L14.9724 10.4862C14.5903 10.2951 14.1601 10.6402 14.2637 11.0547L14.9443 13.7769C14.9797 13.9185 15.0752 14.0376 15.2057 14.1029L17.3858 15.1929C18.2378 15.6189 19.2695 15.1915 19.5708 14.2879C19.8171 13.5489 19.4825 12.7413 18.7858 12.3929Z" fill="#777E91"/>
<path d="M6.81087 8.75746C6.92217 8.3123 7.32215 8 7.78102 8H10.2195C10.6783 8 11.0783 8.3123 11.1896 8.75746L13.8446 19.3775C13.9394 19.7568 13.8045 20.1566 13.4992 20.4009L9.62493 23.5002C9.25972 23.7924 8.74076 23.7924 8.37554 23.5002L4.50132 20.4009C4.196 20.1566 4.06104 19.7568 4.15587 19.3775L6.81087 8.75746Z" fill="#777E91"/>
<path d="M5.72374 0.552786C5.89313 0.214002 6.23939 0 6.61816 0H11.3821C11.7609 0 12.1071 0.214002 12.2765 0.552786L12.7765 1.55279C12.9173 1.83431 12.9173 2.16569 12.7765 2.44721L11.2765 5.44721C11.1071 5.786 10.7609 6 10.3821 6H7.61816C7.23939 6 6.89313 5.786 6.72374 5.44721L5.22374 2.44721C5.08297 2.16569 5.08297 1.83431 5.22374 1.55279L5.72374 0.552786Z" fill="#777E91"/>
</svg>
