<svg width="24" height="24" viewBox="0 0 24 24" fill="none" xmlns="http://www.w3.org/2000/svg">
<path fill-rule="evenodd" clip-rule="evenodd" d="M17.3381 12.2873L12.3575 9.36652C11.9044 9.10083 11.7349 8.52938 11.9698 8.0596C12.2279 7.5433 12.869 7.35312 13.3669 7.64512L18.2326 10.4984C19.3744 11.0693 19.9227 12.393 19.519 13.6041C19.0253 15.085 17.3344 15.7854 15.9381 15.0873L13.5524 13.8944C13.0584 13.6474 12.8582 13.0467 13.1051 12.5528C13.3521 12.0588 13.9528 11.8585 14.4468 12.1055L16.8326 13.2984C17.1402 13.4523 17.5128 13.2979 17.6216 12.9716C17.7106 12.7047 17.5897 12.4131 17.3381 12.2873Z" fill="#777E91"/>
<path fill-rule="evenodd" clip-rule="evenodd" d="M8.59093 8L6.3636 17.6518C6.27877 18.0193 6.40801 18.4033 6.6978 18.6448L9.35972 20.8631C9.73056 21.1721 10.2692 21.1721 10.6401 20.8631L13.302 18.6448C13.5918 18.4033 13.721 18.0193 13.6362 17.6518L11.4089 8H8.59093ZM13.1788 6.77514C13.0741 6.32141 12.67 6 12.2044 6H7.79541C7.32976 6 6.92573 6.32141 6.82102 6.77514L4.41481 17.202C4.16035 18.3047 4.54805 19.4568 5.41743 20.1813L8.07935 22.3995C9.19188 23.3267 10.8079 23.3267 11.9205 22.3995L14.5824 20.1813C15.4517 19.4568 15.8395 18.3047 15.585 17.202L13.1788 6.77514Z" fill="#777E91"/>
<path fill-rule="evenodd" clip-rule="evenodd" d="M12.394 2H7.60513C7.27078 2 6.95855 2.1671 6.77308 2.4453L6.71678 2.52976C6.50242 2.8513 6.49251 3.26758 6.69134 3.59895L7.84066 5.5145C8.02138 5.8157 8.34689 6 8.69815 6H11.301C11.6523 6 11.9778 5.8157 12.1585 5.51449L13.3078 3.59895C13.5067 3.26758 13.4967 2.8513 13.2824 2.52976L13.2261 2.4453C13.0406 2.1671 12.7284 2 12.394 2ZM7.60513 0C6.60208 0 5.66538 0.501303 5.10898 1.3359L5.05268 1.42036C4.40959 2.38499 4.37987 3.63382 4.97635 4.62795L6.12568 6.54349C6.66785 7.4471 7.64437 8 8.69815 8H11.301C12.3548 8 13.3313 7.4471 13.8735 6.54349L15.0228 4.62795C15.6193 3.63382 15.5896 2.38499 14.9465 1.42036L14.8902 1.3359C14.3338 0.501303 13.3971 0 12.394 0H7.60513Z" fill="#777E91"/>
</svg>
