<svg width="24" height="24" viewBox="0 0 24 24" fill="none" xmlns="http://www.w3.org/2000/svg">
<path fill-rule="evenodd" clip-rule="evenodd" d="M14 2C14 1.44772 13.5523 1 13 1H6C4.34315 1 3 2.34315 3 4V20C3 21.6569 4.34315 23 6 23H18C19.6569 23 21 21.6569 21 20V9C21 8.44772 20.5523 8 20 8H17C15.3431 8 14 6.65685 14 5V2ZM11 12C11 11.4477 11.4477 11 12 11C12.5523 11 13 11.4477 13 12V17C13 17.5523 12.5523 18 12 18C11.4477 18 11 17.5523 11 17V12ZM7 15C7 14.4477 7.44772 14 8 14C8.55229 14 9 14.4477 9 15V17C9 17.5523 8.55229 18 8 18C7.44772 18 7 17.5523 7 17V15ZM15 14C15 13.4477 15.4477 13 16 13C16.5523 13 17 13.4477 17 14V17C17 17.5523 16.5523 18 16 18C15.4477 18 15 17.5523 15 17V14Z" fill="#777E91"/>
<path d="M16.9774 1.17757C16.4681 0.963989 16 1.44777 16 2.00005V5.00005C16 5.55234 16.4477 6.00005 17 6.00005H20C20.5523 6.00005 21.0361 5.53194 20.8225 5.02262C20.73 4.80212 20.5972 4.59721 20.4142 4.41427L17.5858 1.58584C17.4028 1.40289 17.1979 1.27003 16.9774 1.17757Z" fill="#777E91"/>
</svg>
