<svg width="23" height="24" viewBox="0 0 23 24" fill="none" xmlns="http://www.w3.org/2000/svg">
<path fill-rule="evenodd" clip-rule="evenodd" d="M2.875 5C2.875 2.79086 4.59124 1 6.70833 1H14.7038C15.7205 1 16.6955 1.42143 17.4144 2.17157L19.0022 3.82843C19.7211 4.57857 20.125 5.59599 20.125 6.65685V19C20.125 21.2091 18.4088 23 16.2917 23H6.70833C4.59124 23 2.875 21.2091 2.875 19V5ZM18.2083 8V19C18.2083 20.1046 17.3502 21 16.2917 21H6.70833C5.64979 21 4.79167 20.1046 4.79167 19V5C4.79167 3.89543 5.64979 3 6.70833 3H13.4167V5C13.4167 6.65685 14.7038 8 16.2917 8H18.2083ZM18.102 6C18.0079 5.7176 17.8534 5.45808 17.647 5.24264L16.0591 3.58579C15.8527 3.37035 15.604 3.20914 15.3333 3.11094V5C15.3333 5.55228 15.7624 6 16.2917 6H18.102Z" fill="#777E91"/>
<path d="M10.5413 12C10.5413 11.4477 10.9704 11 11.4997 11C12.0289 11 12.458 11.4477 12.458 12V17C12.458 17.5523 12.0289 18 11.4997 18C10.9704 18 10.5413 17.5523 10.5413 17V12Z" fill="#777E91"/>
<path d="M6.70801 15C6.70801 14.4477 7.13707 14 7.66634 14C8.19561 14 8.62467 14.4477 8.62467 15V17C8.62467 17.5523 8.19561 18 7.66634 18C7.13707 18 6.70801 17.5523 6.70801 17V15Z" fill="#777E91"/>
<path d="M15.333 13C14.8037 13 14.3747 13.4477 14.3747 14V17C14.3747 17.5523 14.8037 18 15.333 18C15.8623 18 16.2913 17.5523 16.2913 17V14C16.2913 13.4477 15.8623 13 15.333 13Z" fill="#777E91"/>
</svg>
