<svg width="23" height="24" viewBox="0 0 23 24" fill="none" xmlns="http://www.w3.org/2000/svg">
<path fill-rule="evenodd" clip-rule="evenodd" d="M1.91634 16C1.38707 16 0.958008 16.4477 0.958008 17C0.958008 17.5523 1.38707 18 1.91634 18H12.458C12.9873 18 13.4163 17.5523 13.4163 17C13.4163 16.4477 12.9873 16 12.458 16H1.91634ZM18.208 16C17.6787 16 17.2497 16.4477 17.2497 17C17.2497 17.5523 17.6787 18 18.208 18H21.083C21.6123 18 22.0413 17.5523 22.0413 17C22.0413 16.4477 21.6123 16 21.083 16H18.208Z" fill="#777E91"/>
<path fill-rule="evenodd" clip-rule="evenodd" d="M15.3333 19C16.3919 19 17.25 18.1046 17.25 17C17.25 15.8954 16.3919 15 15.3333 15C14.2748 15 13.4167 15.8954 13.4167 17C13.4167 18.1046 14.2748 19 15.3333 19ZM15.3333 21C17.4504 21 19.1667 19.2091 19.1667 17C19.1667 14.7909 17.4504 13 15.3333 13C13.2162 13 11.5 14.7909 11.5 17C11.5 19.2091 13.2162 21 15.3333 21Z" fill="#777E91"/>
<path fill-rule="evenodd" clip-rule="evenodd" d="M1.91634 6C1.38707 6 0.958008 6.44772 0.958008 7C0.958008 7.55228 1.38707 8 1.91634 8H4.79134C5.32061 8 5.74967 7.55228 5.74967 7C5.74967 6.44772 5.32061 6 4.79134 6H1.91634ZM10.5413 6C10.0121 6 9.58301 6.44772 9.58301 7C9.58301 7.55228 10.0121 8 10.5413 8H21.083C21.6123 8 22.0413 7.55228 22.0413 7C22.0413 6.44772 21.6123 6 21.083 6H10.5413Z" fill="#777E91"/>
<path fill-rule="evenodd" clip-rule="evenodd" d="M7.66634 9C8.72489 9 9.58301 8.10457 9.58301 7C9.58301 5.89543 8.72489 5 7.66634 5C6.6078 5 5.74967 5.89543 5.74967 7C5.74967 8.10457 6.6078 9 7.66634 9ZM7.66634 11C9.78343 11 11.4997 9.20914 11.4997 7C11.4997 4.79086 9.78343 3 7.66634 3C5.54925 3 3.83301 4.79086 3.83301 7C3.83301 9.20914 5.54925 11 7.66634 11Z" fill="#777E91"/>
</svg>
