<svg width="24" height="24" viewBox="0 0 24 24" fill="none" xmlns="http://www.w3.org/2000/svg">
<path d="M12.7068 12.7071C13.0973 12.3166 13.0973 11.6834 12.7068 11.2929C12.3163 10.9024 11.6831 10.9024 11.2926 11.2929L9.58548 13H5.82812C5.29769 13 4.78898 13.2107 4.41391 13.5858L3.41391 14.5858C2.63286 15.3668 2.63286 16.6332 3.41391 17.4142L6.58548 20.5858C7.36653 21.3668 8.63286 21.3668 9.41391 20.5858L10.4139 19.5858C10.789 19.2107 10.9997 18.702 10.9997 18.1716V14.4142L12.7068 12.7071Z" fill="#777E91"/>
<path d="M17.0002 10.0002L18.0002 9.00023C18.8287 8.1718 18.8287 6.82865 18.0002 6.00023C17.1718 5.1718 15.8287 5.1718 15.0002 6.00023L14.0002 7.00023C13.1718 7.82865 13.1718 9.1718 14.0002 10.0002C14.8287 10.8287 16.1718 10.8287 17.0002 10.0002Z" fill="#777E91"/>
<path fill-rule="evenodd" clip-rule="evenodd" d="M21.7071 2.29289C22.0976 2.68342 22.0976 3.31658 21.7071 3.70711L20.7071 4.70711C20.3166 5.09763 19.6834 5.09763 19.2929 4.70711C18.9024 4.31658 18.9024 3.68342 19.2929 3.29289L20.2929 2.29289C20.6834 1.90237 21.3166 1.90237 21.7071 2.29289Z" fill="#777E91"/>
</svg>
