<svg width="24" height="24" viewBox="0 0 24 24" fill="none" xmlns="http://www.w3.org/2000/svg">
<path d="M21.7071 2.29289C22.0976 2.68342 22.0976 3.31658 21.7071 3.70711L19.5784 5.83583C19.4417 5.53283 19.2488 5.24898 18.9998 5C18.7509 4.75109 18.4671 4.55827 18.1642 4.42154L20.2929 2.29289C20.6834 1.90237 21.3166 1.90237 21.7071 2.29289Z" fill="#777E91"/>
<path d="M12.4214 10.1644L9.29289 13.2929C8.90237 13.6834 8.90237 14.3166 9.29289 14.7071C9.68342 15.0976 10.3166 15.0976 10.7071 14.7071L13.8356 11.5786C13.5326 11.4418 13.2488 11.249 12.9998 11C12.7509 10.7511 12.5581 10.4673 12.4214 10.1644Z" fill="#777E91"/>
<path d="M21.7071 3.70711C22.0976 3.31658 22.0976 2.68342 21.7071 2.29289C21.3166 1.90237 20.6834 1.90237 20.2929 2.29289L17.7929 4.79289C17.4024 5.18342 17.4024 5.81658 17.7929 6.20711C18.1834 6.59763 18.8166 6.59763 19.2071 6.20711L21.7071 3.70711Z" fill="#777E91"/>
<path d="M14.2071 11.2071C14.5976 10.8166 14.5976 10.1834 14.2071 9.79289C13.8166 9.40237 13.1834 9.40237 12.7929 9.79289L9.29289 13.2929C8.90237 13.6834 8.90237 14.3166 9.29289 14.7071C9.68342 15.0976 10.3166 15.0976 10.7071 14.7071L14.2071 11.2071Z" fill="#777E91"/>
<path fill-rule="evenodd" clip-rule="evenodd" d="M15.5861 9.58609L17.5861 7.58609C17.9096 7.26257 17.9096 6.73804 17.5861 6.41452C17.2626 6.091 16.738 6.09099 16.4145 6.41452L14.4145 8.41452C14.091 8.73804 14.091 9.26257 14.4145 9.58609C14.738 9.90961 15.2626 9.90961 15.5861 9.58609ZM19.0003 9.0003L17.0003 11.0003C15.8957 12.1049 14.1049 12.1049 13.0003 11.0003C11.8957 9.89573 11.8957 8.10487 13.0003 7.0003L15.0003 5.0003C16.1049 3.89573 17.8957 3.89573 19.0003 5.0003C20.1049 6.10487 20.1049 7.89573 19.0003 9.0003Z" fill="#777E91"/>
<path fill-rule="evenodd" clip-rule="evenodd" d="M5.87823 20.8786C7.0498 22.0502 8.9493 22.0502 10.1209 20.8786L10.9079 20.0916C11.593 19.4065 11.905 18.4328 11.7457 17.4771L11.117 13.7045C11.0467 13.283 10.7165 12.9528 10.295 12.8825L6.52239 12.2537C5.56672 12.0945 4.59296 12.4065 3.90788 13.0916L3.12087 13.8786C1.94929 15.0502 1.94929 16.9497 3.12087 18.1213L5.87823 20.8786ZM9.37904 15.4424C9.3088 15.021 8.97852 14.6907 8.55705 14.6204L6.1936 14.2265C5.87504 14.1734 5.55045 14.2775 5.32209 14.5058L4.53508 15.2928C4.14456 15.6834 4.14456 16.3165 4.53508 16.707L7.29244 19.4644C7.68296 19.8549 8.31613 19.8549 8.70665 19.4644L9.49367 18.6774C9.72203 18.449 9.82604 18.1244 9.77295 17.8059L9.37904 15.4424Z" fill="#777E91"/>
</svg>
