<svg width="23" height="24" viewBox="0 0 23 24" fill="none" xmlns="http://www.w3.org/2000/svg">
<path d="M2.87533 9C3.4046 9 3.83366 8.55228 3.83366 8V5C3.83366 4.44772 4.26272 4 4.79199 4H7.66699C8.19627 4 8.62533 3.55228 8.62533 3C8.62533 2.44772 8.19627 2 7.66699 2H4.79199C3.20417 2 1.91699 3.34315 1.91699 5V8C1.91699 8.55228 2.34605 9 2.87533 9Z" fill="#777E91"/>
<path d="M3.83366 16C3.83366 15.4477 3.4046 15 2.87533 15C2.34605 15 1.91699 15.4477 1.91699 16V19C1.91699 20.6569 3.20417 22 4.79199 22H7.66699C8.19627 22 8.62533 21.5523 8.62533 21C8.62533 20.4477 8.19627 20 7.66699 20H4.79199C4.26272 20 3.83366 19.5523 3.83366 19V16Z" fill="#777E91"/>
<path d="M19.167 16C19.167 15.4477 19.5961 15 20.1253 15C20.6546 15 21.0837 15.4477 21.0837 16V19C21.0837 20.6569 19.7965 22 18.2087 22H15.3337C14.8044 22 14.3753 21.5523 14.3753 21C14.3753 20.4477 14.8044 20 15.3337 20H18.2087C18.7379 20 19.167 19.5523 19.167 19V16Z" fill="#777E91"/>
<path d="M19.167 8C19.167 8.55228 19.5961 9 20.1253 9C20.6546 9 21.0837 8.55228 21.0837 8V5C21.0837 3.34315 19.7965 2 18.2087 2H15.3337C14.8044 2 14.3753 2.44772 14.3753 3C14.3753 3.55228 14.8044 4 15.3337 4H18.2087C18.7379 4 19.167 4.44772 19.167 5V8Z" fill="#777E91"/>
</svg>
