<svg width="23" height="24" viewBox="0 0 23 24" fill="none" xmlns="http://www.w3.org/2000/svg">
<path d="M19.1667 13C19.6959 13 20.125 12.5523 20.125 12C20.125 11.4477 19.6959 11 19.1667 11C18.6374 11 18.2083 11.4477 18.2083 12C18.2083 12.5523 18.6374 13 19.1667 13Z" fill="#777E91"/>
<path d="M19.1667 17C19.6959 17 20.125 16.5523 20.125 16C20.125 15.4477 19.6959 15 19.1667 15C18.6374 15 18.2083 15.4477 18.2083 16C18.2083 16.5523 18.6374 17 19.1667 17Z" fill="#777E91"/>
<path d="M19.1667 21C19.6959 21 20.125 20.5523 20.125 20C20.125 19.4477 19.6959 19 19.1667 19C18.6374 19 18.2083 19.4477 18.2083 20C18.2083 20.5523 18.6374 21 19.1667 21Z" fill="#777E91"/>
<path d="M11.5 17C12.0293 17 12.4583 16.5523 12.4583 16C12.4583 15.4477 12.0293 15 11.5 15C10.9707 15 10.5417 15.4477 10.5417 16C10.5417 16.5523 10.9707 17 11.5 17Z" fill="#777E91"/>
<path d="M11.5 21C12.0293 21 12.4583 20.5523 12.4583 20C12.4583 19.4477 12.0293 19 11.5 19C10.9707 19 10.5417 19.4477 10.5417 20C10.5417 20.5523 10.9707 21 11.5 21Z" fill="#777E91"/>
<path d="M3.83333 21C4.36261 21 4.79167 20.5523 4.79167 20C4.79167 19.4477 4.36261 19 3.83333 19C3.30406 19 2.875 19.4477 2.875 20C2.875 20.5523 3.30406 21 3.83333 21Z" fill="#777E91"/>
<path fill-rule="evenodd" clip-rule="evenodd" d="M19.1663 9C17.5785 9 16.2913 7.65685 16.2913 6C16.2913 4.34315 17.5785 3 19.1663 3C20.7542 3 22.0413 4.34315 22.0413 6C22.0413 7.65685 20.7542 9 19.1663 9ZM19.1663 7C18.6371 7 18.208 6.55228 18.208 6C18.208 5.44772 18.6371 5 19.1663 5C19.6956 5 20.1247 5.44772 20.1247 6C20.1247 6.55228 19.6956 7 19.1663 7Z" fill="#777E91"/>
<path fill-rule="evenodd" clip-rule="evenodd" d="M11.4997 13C9.91185 13 8.62467 11.6569 8.62467 10C8.62467 8.34315 9.91185 7 11.4997 7C13.0875 7 14.3747 8.34315 14.3747 10C14.3747 11.6569 13.0875 13 11.4997 13ZM11.4997 11C10.9704 11 10.5413 10.5523 10.5413 10C10.5413 9.44772 10.9704 9 11.4997 9C12.0289 9 12.458 9.44772 12.458 10C12.458 10.5523 12.0289 11 11.4997 11Z" fill="#777E91"/>
<path fill-rule="evenodd" clip-rule="evenodd" d="M0.958008 14C0.958008 15.6569 2.24519 17 3.83301 17C5.42083 17 6.70801 15.6569 6.70801 14C6.70801 12.3431 5.42083 11 3.83301 11C2.24519 11 0.958008 12.3431 0.958008 14ZM2.87467 14C2.87467 14.5523 3.30373 15 3.83301 15C4.36228 15 4.79134 14.5523 4.79134 14C4.79134 13.4477 4.36228 13 3.83301 13C3.30373 13 2.87467 13.4477 2.87467 14Z" fill="#777E91"/>
</svg>
