<svg width="23" height="24" viewBox="0 0 23 24" fill="none" xmlns="http://www.w3.org/2000/svg">
<path fill-rule="evenodd" clip-rule="evenodd" d="M12.8975 11.1595L19.5734 6.66511C20.2111 6.2358 21.0513 6.71351 21.0513 7.50541V16.4941C21.0513 17.286 20.2111 17.7637 19.5734 17.3344L12.8975 12.8401C12.3124 12.4462 12.3124 11.5533 12.8975 11.1595ZM18.5344 4.98452C20.4475 3.69659 22.968 5.12971 22.968 7.50541V16.4941C22.968 18.8698 20.4475 20.3029 18.5344 19.015L11.8584 14.5206C10.1032 13.339 10.1032 10.6605 11.8584 9.47887L18.5344 4.98452Z" fill="#777E91"/>
<path fill-rule="evenodd" clip-rule="evenodd" d="M2.35546 11.1595L9.03144 6.66511C9.66915 6.2358 10.5093 6.71351 10.5093 7.50541V16.4941C10.5093 17.286 9.66915 17.7637 9.03144 17.3344L2.35546 12.8401C1.7704 12.4462 1.7704 11.5533 2.35546 11.1595ZM7.99237 4.98452C9.90548 3.69659 12.426 5.12971 12.426 7.50541V16.4941C12.426 18.8698 9.90548 20.3029 7.99236 19.015L1.31638 14.5206C-0.438796 13.339 -0.438795 10.6605 1.31639 9.47887L7.99237 4.98452Z" fill="#777E91"/>
</svg>
