<svg width="24" height="24" viewBox="0 0 24 24" fill="none" xmlns="http://www.w3.org/2000/svg">
<path d="M4 17C4 17.5523 3.55228 18 3 18C2.44772 18 2 17.5523 2 17C2 16.4477 2.44772 16 3 16C3.55228 16 4 16.4477 4 17Z" fill="#777E91"/>
<path d="M4 21C4 21.5523 3.55228 22 3 22C2.44772 22 2 21.5523 2 21C2 20.4477 2.44772 20 3 20C3.55228 20 4 20.4477 4 21Z" fill="#777E91"/>
<path d="M7 21C7.55228 21 8 20.5523 8 20C8 19.4477 7.55228 19 7 19C6.44772 19 6 19.4477 6 20C6 20.5523 6.44772 21 7 21Z" fill="#777E91"/>
<path fill-rule="evenodd" clip-rule="evenodd" d="M13.8782 3.12136C15.0498 1.94978 16.9493 1.94978 18.1209 3.12135L20.8782 5.87872C22.0498 7.05029 22.0498 8.94978 20.8782 10.1214L13.1209 17.8787C11.9493 19.0503 10.0498 19.0503 8.87823 17.8787L6.12087 15.1214C4.94929 13.9498 4.94929 12.0503 6.12087 10.8787L13.8782 3.12136ZM16.7067 4.53557L19.464 7.29293C19.8545 7.68345 19.8545 8.31662 19.464 8.70714L14.5853 13.5858L10.4138 9.41425L15.2924 4.53557C15.683 4.14504 16.3161 4.14505 16.7067 4.53557ZM8.91376 10.9142L7.53508 12.2929C7.14456 12.6835 7.14456 13.3166 7.53508 13.7071L10.2924 16.4645C10.683 16.855 11.3161 16.855 11.7067 16.4645L13.0853 15.0858L8.91376 10.9142Z" fill="#777E91"/>
</svg>
