<svg width="24" height="24" viewBox="0 0 24 24" fill="none" xmlns="http://www.w3.org/2000/svg">
<path d="M12.2129 3.79831L20.2024 11.7878C22.2076 9.56712 22.1403 6.1398 20.0006 4.00012C17.8609 1.86043 14.4336 1.79316 12.2129 3.79831Z" fill="#777E91"/>
<path fill-rule="evenodd" clip-rule="evenodd" d="M10.7935 5.20725L18.7935 13.2073L13.2077 18.793L5.20768 10.793L10.7935 5.20725ZM13.0005 10.0001C13.0005 10.5524 12.5528 11.0001 12.0005 11.0001C11.4482 11.0001 11.0005 10.5524 11.0005 10.0001C11.0005 9.44784 11.4482 9.00012 12.0005 9.00012C12.5528 9.00012 13.0005 9.44784 13.0005 10.0001ZM13.0005 14.0001C13.0005 14.5524 12.5528 15.0001 12.0005 15.0001C11.4482 15.0001 11.0005 14.5524 11.0005 14.0001C11.0005 13.4478 11.4482 13.0001 12.0005 13.0001C12.5528 13.0001 13.0005 13.4478 13.0005 14.0001ZM11.0005 12.0001C11.0005 12.5524 10.5528 13.0001 10.0005 13.0001C9.4482 13.0001 9.00049 12.5524 9.00049 12.0001C9.00049 11.4478 9.4482 11.0001 10.0005 11.0001C10.5528 11.0001 11.0005 11.4478 11.0005 12.0001ZM15.0005 12.0001C15.0005 12.5524 14.5528 13.0001 14.0005 13.0001C13.4482 13.0001 13.0005 12.5524 13.0005 12.0001C13.0005 11.4478 13.4482 11.0001 14.0005 11.0001C14.5528 11.0001 15.0005 11.4478 15.0005 12.0001Z" fill="#777E91"/>
<path d="M4.00061 20.0001C1.86094 17.8604 1.79365 14.4332 3.79874 12.2125L11.7882 20.202C9.56755 22.2071 6.14027 22.1398 4.00061 20.0001Z" fill="#777E91"/>
</svg>
