<svg width="23" height="24" viewBox="0 0 23 24" fill="none" xmlns="http://www.w3.org/2000/svg">
<path fill-rule="evenodd" clip-rule="evenodd" d="M11.5006 20.0001L19.1673 12.0001C21.2843 9.79097 21.2843 6.20926 19.1672 4.00012C17.0502 1.79098 13.6177 1.79098 11.5006 4.00012L3.83391 12.0001C1.71682 14.2093 1.71682 17.791 3.83391 20.0001C5.95101 22.2093 9.38349 22.2093 11.5006 20.0001ZM11.3021 17.3788L16.6551 11.793L11.699 6.62147L6.34598 12.2073L11.3021 17.3788ZM9.93895 18.7849L4.99853 13.6296C3.82388 15.0664 3.88743 17.2275 5.1892 18.5859C6.49097 19.9443 8.56206 20.0106 9.93895 18.7849ZM13.0621 5.21543L18.0026 10.3707C19.1773 8.9339 19.1138 6.77272 17.812 5.41433C16.5102 4.05594 14.439 3.98964 13.0621 5.21543Z" fill="#777E91"/>
<path d="M11.5 11C12.0293 11 12.4583 10.5523 12.4583 10C12.4583 9.44771 12.0293 9 11.5 9C10.9707 9 10.5417 9.44771 10.5417 10C10.5417 10.5523 10.9707 11 11.5 11Z" fill="#777E91"/>
<path d="M11.5 15C12.0293 15 12.4583 14.5523 12.4583 14C12.4583 13.4477 12.0293 13 11.5 13C10.9707 13 10.5417 13.4477 10.5417 14C10.5417 14.5523 10.9707 15 11.5 15Z" fill="#777E91"/>
<path d="M10.5417 12C10.5417 12.5523 10.1126 13 9.58333 13C9.05406 13 8.625 12.5523 8.625 12C8.625 11.4477 9.05406 11 9.58333 11C10.1126 11 10.5417 11.4477 10.5417 12Z" fill="#777E91"/>
<path d="M13.4167 13C13.9459 13 14.375 12.5523 14.375 12C14.375 11.4477 13.9459 11 13.4167 11C12.8874 11 12.4583 11.4477 12.4583 12C12.4583 12.5523 12.8874 13 13.4167 13Z" fill="#777E91"/>
</svg>
