<svg width="24" height="24" viewBox="0 0 24 24" fill="none" xmlns="http://www.w3.org/2000/svg">
<path d="M2.61235 9C2.08162 9 1.64333 9.41461 1.61389 9.94453L1.17561 17.8336C1.08008 19.5532 2.44874 21 4.17099 21H7.39781C8.89077 21 10.1565 19.9022 10.3677 18.4243L10.8583 14.9899C10.9394 14.4219 11.4259 14 11.9997 14C12.5735 14 13.06 14.4219 13.1411 14.9899L13.6317 18.4243C13.8429 19.9022 15.1086 21 16.6016 21H19.8284C21.5507 21 22.9193 19.5532 22.8238 17.8336L22.3855 9.94453C22.3561 9.41462 21.9178 9 21.387 9L2.61235 9Z" fill="#777E91"/>
<path d="M3.89209 3H20.1081C21.1696 3 22.0462 3.82923 22.1051 4.88906L22.1637 5.94453C22.1955 6.51773 21.7393 7 21.1652 7L2.83499 7C2.26091 7 1.80469 6.51773 1.83653 5.94453L1.89517 4.88906C1.95405 3.82923 2.83062 3 3.89209 3Z" fill="#777E91"/>
</svg>
