<svg width="23" height="24" viewBox="0 0 23 24" fill="none" xmlns="http://www.w3.org/2000/svg">
<path fill-rule="evenodd" clip-rule="evenodd" d="M1.75013 6.75049C1.8764 4.64235 3.55176 3 5.576 3H17.4242C19.4484 3 21.1238 4.64235 21.25 6.75049L21.849 16.7505C21.9869 19.0533 20.2343 21 18.0231 21H15.8522C13.9784 21 12.3791 19.5863 12.0711 17.6576L11.6707 15.1508C11.6568 15.0638 11.5846 15 11.5001 15C11.4155 15 11.3434 15.0638 11.3295 15.1508L10.9291 17.6576C10.621 19.5863 9.0218 21 7.14792 21H4.97704C2.76589 21 1.01324 19.0533 1.15117 16.7505L1.75013 6.75049ZM5.576 5C4.56388 5 3.7262 5.82117 3.66307 6.87524L3.06411 16.8752C2.99514 18.0266 3.87147 19 4.97704 19H7.14792C8.08486 19 8.88448 18.2932 9.03851 17.3288L9.4389 14.822C9.60683 13.7706 10.4786 13 11.5001 13C12.5216 13 13.3933 13.7706 13.5613 14.822L13.9616 17.3288C14.1157 18.2932 14.9153 19 15.8522 19H18.0231C19.1287 19 20.005 18.0266 19.936 16.8752L19.3371 6.87524C19.274 5.82117 18.4363 5 17.4242 5H5.576Z" fill="#777E91"/>
<path d="M1.55566 10L1.67546 8H21.325L21.4448 10H1.55566Z" fill="#777E91"/>
</svg>
