<svg width="23" height="24" viewBox="0 0 23 24" fill="none" xmlns="http://www.w3.org/2000/svg">
<path fill-rule="evenodd" clip-rule="evenodd" d="M0.958008 6C0.958008 4.34315 2.24519 3 3.83301 3H17.2497C18.8375 3 20.1247 4.34315 20.1247 6V11C20.1247 11.5523 19.6956 12 19.1663 12C18.6371 12 18.208 11.5523 18.208 11V6C18.208 5.44772 17.7789 5 17.2497 5H3.83301C3.30373 5 2.87467 5.44772 2.87467 6V16C2.87467 16.5523 3.30373 17 3.83301 17H10.5413C11.0706 17 11.4997 17.4477 11.4997 18C11.4997 18.5523 11.0706 19 10.5413 19H3.83301C2.24519 19 0.958008 17.6569 0.958008 16V6Z" fill="#777E91"/>
<path d="M13.417 15C13.417 14.4477 13.8461 14 14.3753 14H21.0837C21.6129 14 22.042 14.4477 22.042 15V20C22.042 20.5523 21.6129 21 21.0837 21H14.3753C13.8461 21 13.417 20.5523 13.417 20V15Z" fill="#777E91"/>
</svg>
