<svg width="23" height="24" viewBox="0 0 23 24" fill="none" xmlns="http://www.w3.org/2000/svg">
<path fill-rule="evenodd" clip-rule="evenodd" d="M11.5003 20C15.7345 20 19.167 16.4183 19.167 12C19.167 7.58172 15.7345 4 11.5003 4C7.26614 4 3.83366 7.58172 3.83366 12C3.83366 16.4183 7.26614 20 11.5003 20ZM11.5003 22C16.7931 22 21.0837 17.5228 21.0837 12C21.0837 6.47715 16.7931 2 11.5003 2C6.2076 2 1.91699 6.47715 1.91699 12C1.91699 17.5228 6.2076 22 11.5003 22Z" fill="#777E91"/>
<path fill-rule="evenodd" clip-rule="evenodd" d="M11.5003 7C10.9711 7 10.542 7.44772 10.542 8C10.542 8.55229 10.9711 9 11.5003 9C12.0296 9 12.4587 8.55229 12.4587 8C12.4587 7.44772 12.0296 7 11.5003 7ZM11.5003 11C10.9711 11 10.542 11.4477 10.542 12V16C10.542 16.5523 10.9711 17 11.5003 17C12.0296 17 12.4587 16.5523 12.4587 16V12C12.4587 11.4477 12.0296 11 11.5003 11Z" fill="#777E91"/>
</svg>
