<svg width="24" height="24" viewBox="0 0 24 24" fill="none" xmlns="http://www.w3.org/2000/svg">
<path fill-rule="evenodd" clip-rule="evenodd" d="M18 18.3758C18 18.5713 17.8864 18.7496 17.7068 18.827C16.0415 19.545 14.1117 20 12 20C9.88825 20 7.95852 19.545 6.29318 18.827C6.11362 18.7496 6 18.5713 6 18.3758V5.6242C6 5.42866 6.11362 5.25037 6.29318 5.17296C7.95852 4.45505 9.88825 4 12 4C14.1117 4 16.0415 4.45505 17.7068 5.17296C17.8864 5.25037 18 5.42866 18 5.6242V18.3758ZM10 9C9.44771 9 9 9.44772 9 10V11C8.44771 11 8 11.4477 8 12C8 12.5523 8.44771 13 9 13V14C9 14.5523 9.44771 15 10 15C10.5523 15 11 14.5523 11 14V13H13V14C13 14.5523 13.4477 15 14 15C14.5523 15 15 14.5523 15 14V13C15.5523 13 16 12.5523 16 12C16 11.4477 15.5523 11 15 11V10C15 9.44772 14.5523 9 14 9C13.4477 9 13 9.44772 13 10V11H11V10C11 9.44772 10.5523 9 10 9Z" fill="#777E91"/>
<path d="M20 16.6328C20 17.0337 20.4459 17.2673 20.761 17.0195C22.8032 15.4141 24 13.4677 24 12C24 10.5323 22.8032 8.58588 20.761 6.98046C20.4459 6.73274 20 6.96632 20 7.36716V16.6328Z" fill="#777E91"/>
<path d="M0 12C0 10.5323 1.19676 8.58588 3.23898 6.98046C3.5541 6.73274 4 6.96632 4 7.36716V16.6328C4 17.0337 3.5541 17.2673 3.23898 17.0195C1.19676 15.4141 0 13.4677 0 12Z" fill="#777E91"/>
</svg>
