<svg width="23" height="24" viewBox="0 0 23 24" fill="none" xmlns="http://www.w3.org/2000/svg">
<path fill-rule="evenodd" clip-rule="evenodd" d="M20.5388 13.4267C20.9751 12.7253 21.0833 12.2291 21.0833 12C21.0833 11.7709 20.9751 11.2747 20.5388 10.5733C20.1194 9.89901 19.4692 9.15623 18.6013 8.46372C16.8673 7.08004 14.3949 6 11.5 6C8.6051 6 6.13268 7.08004 4.39865 8.46372C3.5308 9.15623 2.88065 9.89901 2.46118 10.5733C2.02489 11.2747 1.91667 11.7709 1.91667 12C1.91667 12.2291 2.02489 12.7253 2.46118 13.4267C2.88065 14.101 3.5308 14.8438 4.39865 15.5363C6.13268 16.92 8.6051 18 11.5 18C14.3949 18 16.8673 16.92 18.6013 15.5363C19.4692 14.8438 20.1194 14.101 20.5388 13.4267ZM11.5 20C18.2083 20 23 15 23 12C23 9 18.2083 4 11.5 4C4.79167 4 0 9 0 12C0 15 4.79167 20 11.5 20Z" fill="#777E91"/>
<path d="M5.74967 5.30322C5.05818 5.63375 4.41703 6.01334 3.83301 6.42542V17.5745C4.41703 17.9865 5.05818 18.3661 5.74967 18.6967V5.30322Z" fill="#777E91"/>
<path d="M19.1663 17.5745C18.5823 17.9865 17.9412 18.3661 17.2497 18.6967V5.30322C17.9412 5.63375 18.5823 6.01334 19.1663 6.42542V17.5745Z" fill="#777E91"/>
<path d="M8.62533 10C8.62533 9.44772 9.05439 9 9.58366 9C10.1129 9 10.542 9.44772 10.542 10V11H12.4587V10C12.4587 9.44772 12.8877 9 13.417 9C13.9463 9 14.3753 9.44772 14.3753 10V11C14.9046 11 15.3337 11.4477 15.3337 12C15.3337 12.5523 14.9046 13 14.3753 13V14C14.3753 14.5523 13.9463 15 13.417 15C12.8877 15 12.4587 14.5523 12.4587 14V13H10.542V14C10.542 14.5523 10.1129 15 9.58366 15C9.05439 15 8.62533 14.5523 8.62533 14V13C8.09605 13 7.66699 12.5523 7.66699 12C7.66699 11.4477 8.09605 11 8.62533 11V10Z" fill="#777E91"/>
</svg>
