<svg width="23" height="24" viewBox="0 0 23 24" fill="none" xmlns="http://www.w3.org/2000/svg">
<path fill-rule="evenodd" clip-rule="evenodd" d="M16.2913 2C18.9377 2 21.083 4.23858 21.083 7V14C21.083 14.4589 20.7837 14.8589 20.3571 14.9701L17.2497 15.7808V21C17.2497 21.5523 16.8206 22 16.2913 22C15.7621 22 15.333 21.5523 15.333 21V3C15.333 2.44772 15.7621 2 16.2913 2ZM17.2497 13.7192L19.1663 13.2192V7C19.1663 5.69378 18.3663 4.58254 17.2497 4.17071V13.7192Z" fill="#777E91"/>
<path d="M3.83366 3C3.83366 2.44772 3.4046 2 2.87533 2C2.34605 2 1.91699 2.44772 1.91699 3V7C1.91699 9.41896 3.56318 11.4367 5.75033 11.9V21C5.75033 21.5523 6.17939 22 6.70866 22C7.23793 22 7.66699 21.5523 7.66699 21V11.9C9.85414 11.4367 11.5003 9.41896 11.5003 7V3C11.5003 2.44772 11.0713 2 10.542 2C10.0127 2 9.58366 2.44772 9.58366 3V7C9.58366 8.30622 8.78363 9.41746 7.66699 9.82929V3C7.66699 2.44772 7.23793 2 6.70866 2C6.17939 2 5.75033 2.44772 5.75033 3V9.82929C4.63368 9.41746 3.83366 8.30622 3.83366 7V3Z" fill="#777E91"/>
</svg>
