<svg width="23" height="24" viewBox="0 0 23 24" fill="none" xmlns="http://www.w3.org/2000/svg">
<path fill-rule="evenodd" clip-rule="evenodd" d="M12.4587 19H10.542C10.0127 19 9.58366 19.4477 9.58366 20C9.58366 20.5523 10.0127 21 10.542 21H12.4587C12.9879 21 13.417 20.5523 13.417 20C13.417 19.4477 12.9879 19 12.4587 19ZM10.542 17C8.95417 17 7.66699 18.3431 7.66699 20C7.66699 21.6569 8.95417 23 10.542 23H12.4587C14.0465 23 15.3337 21.6569 15.3337 20C15.3337 18.3431 14.0465 17 12.4587 17H10.542Z" fill="#777E91"/>
<path fill-rule="evenodd" clip-rule="evenodd" d="M15.3337 11H7.66699C7.13772 11 6.70866 11.4477 6.70866 12C6.70866 12.5523 7.13772 13 7.66699 13H15.3337C15.8629 13 16.292 12.5523 16.292 12C16.292 11.4477 15.8629 11 15.3337 11ZM7.66699 9C6.07917 9 4.79199 10.3431 4.79199 12C4.79199 13.6569 6.07917 15 7.66699 15H15.3337C16.9215 15 18.2087 13.6569 18.2087 12C18.2087 10.3431 16.9215 9 15.3337 9H7.66699Z" fill="#777E91"/>
<path fill-rule="evenodd" clip-rule="evenodd" d="M18.2087 3H4.79199C4.26272 3 3.83366 3.44772 3.83366 4C3.83366 4.55229 4.26272 5 4.79199 5H18.2087C18.7379 5 19.167 4.55228 19.167 4C19.167 3.44771 18.7379 3 18.2087 3ZM4.79199 1C3.20417 1 1.91699 2.34315 1.91699 4C1.91699 5.65685 3.20417 7 4.79199 7H18.2087C19.7965 7 21.0837 5.65685 21.0837 4C21.0837 2.34315 19.7965 1 18.2087 1H4.79199Z" fill="#777E91"/>
</svg>
