<svg width="24" height="24" viewBox="0 0 24 24" fill="none" xmlns="http://www.w3.org/2000/svg">
<path fill-rule="evenodd" clip-rule="evenodd" d="M14 12C14 10.8954 14.8954 10 16 10H20C21.1046 10 22 10.8954 22 12V20C22 21.1046 21.1046 22 20 22H16C14.8954 22 14 21.1046 14 20V12ZM18 14C18.5523 14 19 14.4477 19 15C19 15.5523 18.5523 16 18 16C17.4477 16 17 15.5523 17 15C17 14.4477 17.4477 14 18 14ZM19 18C19 17.4477 18.5523 17 18 17C17.4477 17 17 17.4477 17 18C17 18.5523 17.4477 19 18 19C18.5523 19 19 18.5523 19 18Z" fill="#777E91"/>
<path fill-rule="evenodd" clip-rule="evenodd" d="M4 2C2.89543 2 2 2.89543 2 4V20C2 21.1046 2.89543 22 4 22C4.55228 22 5 21.5523 5 21V19C5 18.4477 5.44772 18 6 18H8C8.55228 18 9 18.4477 9 19V21C9 21.5523 9.44772 22 10 22C11.1046 22 12 21.1046 12 20V4C12 2.89543 11.1046 2 10 2H4ZM8 6C8.55228 6 9 6.44772 9 7C9 7.55229 8.55228 8 8 8H6C5.44772 8 5 7.55228 5 7C5 6.44772 5.44772 6 6 6H8ZM8 10C8.55228 10 9 10.4477 9 11C9 11.5523 8.55228 12 8 12H6C5.44772 12 5 11.5523 5 11C5 10.4477 5.44772 10 6 10H8ZM8 14C8.55228 14 9 14.4477 9 15C9 15.5523 8.55228 16 8 16H6C5.44772 16 5 15.5523 5 15C5 14.4477 5.44772 14 6 14H8Z" fill="#777E91"/>
</svg>
