<svg width="23" height="24" viewBox="0 0 23 24" fill="none" xmlns="http://www.w3.org/2000/svg">
<path fill-rule="evenodd" clip-rule="evenodd" d="M18.2083 12H13.4167V20H18.2083C18.7376 20 19.1667 19.5523 19.1667 19V13C19.1667 12.4477 18.7376 12 18.2083 12ZM11.5 10V22H18.2083C19.7962 22 21.0833 20.6569 21.0833 19V13C21.0833 11.3431 19.7962 10 18.2083 10H11.5Z" fill="#777E91"/>
<path d="M17.2497 15C17.2497 14.4477 16.8206 14 16.2913 14C15.7621 14 15.333 14.4477 15.333 15C15.333 15.5523 15.7621 16 16.2913 16C16.8206 16 17.2497 15.5523 17.2497 15Z" fill="#777E91"/>
<path d="M17.2497 18C17.2497 17.4477 16.8206 17 16.2913 17C15.7621 17 15.333 17.4477 15.333 18C15.333 18.5523 15.7621 19 16.2913 19C16.8206 19 17.2497 18.5523 17.2497 18Z" fill="#777E91"/>
<path fill-rule="evenodd" clip-rule="evenodd" d="M4.79199 22C3.20417 22 1.91699 20.6569 1.91699 19V5C1.91699 3.34315 3.20417 2 4.79199 2H10.542C12.1298 2 13.417 3.34315 13.417 5V22H4.79199ZM4.79199 4H10.542C11.0713 4 11.5003 4.44772 11.5003 5V20H9.58366V19C9.58366 18.4477 9.1546 18 8.62532 18H6.70866C6.17939 18 5.75033 18.4477 5.75033 19V20H4.79199C4.26272 20 3.83366 19.5523 3.83366 19V5C3.83366 4.44772 4.26272 4 4.79199 4Z" fill="#777E91"/>
<path d="M8.625 6C9.15427 6 9.58333 6.44772 9.58333 7C9.58333 7.55228 9.15427 8 8.625 8H6.70833C6.17906 8 5.75 7.55228 5.75 7C5.75 6.44772 6.17906 6 6.70833 6H8.625Z" fill="#777E91"/>
<path d="M8.625 10C9.15427 10 9.58333 10.4477 9.58333 11C9.58333 11.5523 9.15427 12 8.625 12H6.70833C6.17906 12 5.75 11.5523 5.75 11C5.75 10.4477 6.17906 10 6.70833 10H8.625Z" fill="#777E91"/>
<path d="M9.58333 15C9.58333 14.4477 9.15427 14 8.625 14H6.70833C6.17906 14 5.75 14.4477 5.75 15C5.75 15.5523 6.17906 16 6.70833 16H8.625C9.15427 16 9.58333 15.5523 9.58333 15Z" fill="#777E91"/>
</svg>
