<svg width="24" height="24" viewBox="0 0 24 24" fill="none" xmlns="http://www.w3.org/2000/svg">
<path fill-rule="evenodd" clip-rule="evenodd" d="M5.41832 2.32482C5.71048 2.19892 6.01314 2.42741 6.09093 2.73588C6.41905 4.03693 7.59706 4.99994 9 4.99994H15C16.4029 4.99994 17.5809 4.03693 17.9091 2.73588C17.9869 2.42741 18.2895 2.19892 18.5817 2.32482C20.0042 2.93785 21 4.3526 21 5.99994V18.9999C21 21.2091 19.2091 22.9999 17 22.9999H7C4.79086 22.9999 3 21.2091 3 18.9999V5.99994C3 4.3526 3.99582 2.93785 5.41832 2.32482ZM9 9.99994C9 10.5522 8.55228 10.9999 8 10.9999C7.44772 10.9999 7 10.5522 7 9.99994C7 9.44765 7.44772 8.99994 8 8.99994C8.55228 8.99994 9 9.44765 9 9.99994ZM11 9.99994C11 9.44765 11.4477 8.99994 12 8.99994H16C16.5523 8.99994 17 9.44765 17 9.99994C17 10.5522 16.5523 10.9999 16 10.9999H12C11.4477 10.9999 11 10.5522 11 9.99994ZM12 12.9999C11.4477 12.9999 11 13.4477 11 13.9999C11 14.5522 11.4477 14.9999 12 14.9999H16C16.5523 14.9999 17 14.5522 17 13.9999C17 13.4477 16.5523 12.9999 16 12.9999H12ZM12 16.9999C11.4477 16.9999 11 17.4477 11 17.9999C11 18.5522 11.4477 18.9999 12 18.9999H14C14.5523 18.9999 15 18.5522 15 17.9999C15 17.4477 14.5523 16.9999 14 16.9999H12ZM9 13.9999C9 14.5522 8.55228 14.9999 8 14.9999C7.44772 14.9999 7 14.5522 7 13.9999C7 13.4477 7.44772 12.9999 8 12.9999C8.55228 12.9999 9 13.4477 9 13.9999ZM9 17.9999C9 18.5522 8.55228 18.9999 8 18.9999C7.44772 18.9999 7 18.5522 7 17.9999C7 17.4477 7.44772 16.9999 8 16.9999C8.55228 16.9999 9 17.4477 9 17.9999Z" fill="#777E91"/>
<path d="M9 1H15C15.5523 1 16 1.44772 16 2C16 2.55228 15.5523 3 15 3H9C8.44772 3 8 2.55228 8 2C8 1.44772 8.44772 1 9 1Z" fill="#777E91"/>
</svg>
