<svg width="24" height="24" viewBox="0 0 24 24" fill="none" xmlns="http://www.w3.org/2000/svg">
<path d="M20.0001 18.8003V8.96639L21.4857 9.85771C21.9592 10.1419 22.5735 9.98829 22.8576 9.51471C23.1418 9.04113 22.9882 8.42687 22.5146 8.14272L17.4927 5.12957L13.6515 2.81528L13.6514 2.81521C13.3722 2.64699 13.1579 2.51789 12.9763 2.42081C12.9339 2.3971 12.8909 2.37505 12.8473 2.35465C12.6962 2.28089 12.5651 2.2318 12.4305 2.20213C12.147 2.13965 11.8533 2.13965 11.5697 2.20214C11.4348 2.23188 11.3034 2.28115 11.1518 2.35523C11.109 2.37529 11.0667 2.39695 11.0251 2.42021C10.8432 2.51736 10.6286 2.64664 10.3488 2.81522L10.3488 2.81526L6.50181 5.13303L1.48566 8.14272C1.01208 8.42687 0.85851 9.04113 1.14266 9.51471C1.42681 9.98829 2.04107 10.1419 2.51465 9.85771L4.00012 8.96642V18.8003C4.00012 19.9204 4.00012 20.4804 4.21811 20.9083C4.40986 21.2846 4.71582 21.5906 5.09214 21.7823C5.51996 22.0003 6.08002 22.0003 7.20012 22.0003L9.00012 22.0002V16.0002C9.00012 14.3434 10.3433 13.0002 12.0001 13.0002C13.657 13.0002 15.0001 14.3434 15.0001 16.0002V22.0002L16.8001 22.0003C17.9202 22.0003 18.4803 22.0003 18.9081 21.7823C19.2844 21.5906 19.5904 21.2846 19.7821 20.9083C20.0001 20.4804 20.0001 19.9204 20.0001 18.8003Z" fill="#777E91"/>
</svg>
