<svg width="23" height="24" viewBox="0 0 23 24" fill="none" xmlns="http://www.w3.org/2000/svg">
<path fill-rule="evenodd" clip-rule="evenodd" d="M11.4918 4.17144L11.4998 4.1671L11.5082 4.17163L15.776 6.8437L17.2498 7.77022V18.8003C17.2498 19.3933 17.2483 19.7179 17.23 19.951L17.2278 19.9774L17.2026 19.9797C16.9791 19.9987 16.6681 20.0003 16.0998 20.0003H6.89979C6.33145 20.0003 6.02046 19.9987 5.79701 19.9797L5.77174 19.9774L5.76954 19.951C5.75128 19.7179 5.74979 19.3933 5.74979 18.8003V7.77025L7.21812 6.84712L11.4918 4.17144ZM6.23058 5.13303L1.42343 8.14272C0.96958 8.42687 0.822413 9.04113 1.09472 9.51471C1.36703 9.98829 1.9557 10.1419 2.40954 9.85771L3.83312 8.96642V18.8003C3.83312 19.9204 3.83312 20.4804 4.04203 20.9083C4.22579 21.2846 4.519 21.5906 4.87964 21.7823C5.28964 22.0003 5.82636 22.0003 6.89979 22.0003H16.0998C17.1732 22.0003 17.7099 22.0003 18.1199 21.7823C18.4806 21.5906 18.7738 21.2846 18.9576 20.9083C19.1665 20.4804 19.1665 19.9204 19.1665 18.8003V8.96639L20.5901 9.85771C21.0439 10.1419 21.6326 9.98829 21.9049 9.51471C22.1772 9.04113 22.0301 8.42687 21.5762 8.14272L16.7635 5.12957L13.0824 2.81528C12.8148 2.64702 12.6094 2.5179 12.4353 2.42081C12.3947 2.3971 12.3535 2.37505 12.3117 2.35465C12.1668 2.28089 12.0413 2.2318 11.9123 2.20213C11.6405 2.13965 11.359 2.13965 11.0873 2.20214C10.958 2.23188 10.8321 2.28115 10.6868 2.35523C10.6458 2.37529 10.6053 2.39695 10.5654 2.42021C10.3911 2.51737 10.1854 2.64667 9.9172 2.81528L6.23058 5.13303Z" fill="#777E91"/>
<path fill-rule="evenodd" clip-rule="evenodd" d="M12.4583 20V16C12.4583 15.4477 12.0293 15 11.5 15C10.9707 15 10.5417 15.4477 10.5417 16V20H12.4583ZM11.5 13C9.91218 13 8.625 14.3431 8.625 16V22H14.375V16C14.375 14.3431 13.0878 13 11.5 13Z" fill="#777E91"/>
</svg>
