<svg width="24" height="24" viewBox="0 0 24 24" fill="none" xmlns="http://www.w3.org/2000/svg">
<path fill-rule="evenodd" clip-rule="evenodd" d="M12.0006 20C17.0271 20 20.4745 16.8417 22.3428 14.494C23.5187 13.0163 23.5187 10.9837 22.3428 9.506C20.4745 7.15826 17.0271 4 12.0006 4C6.97402 4 3.52661 7.15826 1.65833 9.506C0.482379 10.9837 0.482378 13.0163 1.65833 14.494C3.52661 16.8417 6.97402 20 12.0006 20ZM12.0005 16C14.2097 16 16.0005 14.2091 16.0005 12C16.0005 9.79086 14.2097 8 12.0005 8C9.7914 8 8.00054 9.79086 8.00054 12C8.00054 14.2091 9.7914 16 12.0005 16Z" fill="#777E91"/>
<path fill-rule="evenodd" clip-rule="evenodd" d="M10.0018 11.9153C10.0006 11.9434 10 11.9716 10 12C10 12.5072 10.1888 12.9703 10.5 13.3229C10.7284 13.5817 11.0228 13.781 11.3569 13.8943C11.5587 13.9628 11.775 14 12 14C13.1046 14 14 13.1046 14 12C14 11.775 13.9628 11.5587 13.8943 11.3569C13.781 11.0228 13.5817 10.7284 13.3229 10.5C12.9703 10.1888 12.5072 10 12 10C11.9716 10 11.9434 10.0006 11.9153 10.0018C11.9701 10.1577 12 10.3253 12 10.5C12 10.6308 11.9833 10.7577 11.9518 10.8786C11.8155 11.4028 11.4028 11.8155 10.8786 11.9518C10.7577 11.9833 10.6308 12 10.5 12C10.3253 12 10.1577 11.9701 10.0018 11.9153Z" fill="#777E91"/>
</svg>
