<svg width="23" height="24" viewBox="0 0 23 24" fill="none" xmlns="http://www.w3.org/2000/svg">
<path fill-rule="evenodd" clip-rule="evenodd" d="M11.4997 18C15.4533 18 18.2647 15.4076 19.9112 13.2486C20.4823 12.4998 20.4823 11.5002 19.9112 10.7514C18.2647 8.59239 15.4533 6 11.4997 6C7.54607 6 4.7346 8.59238 3.08813 10.7514C2.51706 11.5002 2.51706 12.4998 3.08813 13.2486C4.7346 15.4076 7.54607 18 11.4997 18ZM21.411 14.494C22.5379 13.0163 22.5379 10.9837 21.411 9.506C19.6205 7.15826 16.3168 4 11.4997 4C6.68258 4 3.37881 7.15826 1.58838 9.506C0.461425 10.9837 0.461425 13.0163 1.58838 14.494C3.37881 16.8417 6.68258 20 11.4997 20C16.3168 20 19.6205 16.8417 21.411 14.494Z" fill="#777E91"/>
<path fill-rule="evenodd" clip-rule="evenodd" d="M13.417 12C13.417 13.1046 12.5589 14 11.5003 14C10.4418 14 9.58366 13.1046 9.58366 12C9.58366 11.9716 9.58423 11.9434 9.58535 11.9153C9.73474 11.9701 9.89544 12 10.0628 12C10.8567 12 11.5003 11.3284 11.5003 10.5C11.5003 10.3253 11.4717 10.1577 11.4191 10.0018C11.4461 10.0006 11.4731 10 11.5003 10C12.5589 10 13.417 10.8954 13.417 12ZM15.3337 12C15.3337 14.2091 13.6174 16 11.5003 16C9.38323 16 7.66699 14.2091 7.66699 12C7.66699 9.79086 9.38323 8 11.5003 8C13.6174 8 15.3337 9.79086 15.3337 12Z" fill="#777E91"/>
</svg>
