<svg width="24" height="24" viewBox="0 0 24 24" fill="none" xmlns="http://www.w3.org/2000/svg">
<path fill-rule="evenodd" clip-rule="evenodd" d="M19 18V6C19 5.44772 19.4477 5 20 5C20.5523 5 21 5.44772 21 6V18C21 18.5523 20.5523 19 20 19C19.4477 19 19 18.5523 19 18ZM20 3C21.6569 3 23 4.34315 23 6V18C23 19.6569 21.6569 21 20 21C18.3431 21 17 19.6569 17 18V6C17 4.34315 18.3431 3 20 3Z" fill="#777E91"/>
<path fill-rule="evenodd" clip-rule="evenodd" d="M3.4 11.2001L11.4 5.20008C12.0592 4.70565 13 5.17603 13 6.00008V18.0001C13 18.8241 12.0592 19.2945 11.4 18.8001L3.4 12.8001C2.86667 12.4001 2.86667 11.6001 3.4 11.2001ZM10.2 3.60008C12.1777 2.11679 15 3.52794 15 6.00008V18.0001C15 20.4722 12.1777 21.8834 10.2 20.4001L2.2 14.4001C0.600001 13.2001 0.6 10.8001 2.2 9.60008L10.2 3.60008Z" fill="#777E91"/>
</svg>
