<svg width="24" height="24" viewBox="0 0 24 24" fill="none" xmlns="http://www.w3.org/2000/svg">
<path fill-rule="evenodd" clip-rule="evenodd" d="M17 10.03C17 7.26855 14.7614 5 12 5C9.23858 5 7 7.26855 7 10.03C7 11.3496 6.40502 12.5907 5.79337 13.76C5.2866 14.7288 5 15.8309 5 17C5 20.866 8.13401 24 12 24C15.866 24 19 20.866 19 17C19 15.8309 18.7134 14.7288 18.2066 13.76C17.595 12.5907 17 11.3496 17 10.03Z" fill="#777E91"/>
<path fill-rule="evenodd" clip-rule="evenodd" d="M16.7084 2C15.4817 2 14.3786 2.74685 13.923 3.88583L12.9287 6.37139C12.7236 6.88417 12.1417 7.13359 11.6289 6.92848C11.1161 6.72336 10.8667 6.14139 11.0718 5.62861L12.066 3.14305C12.8253 1.24476 14.6639 0 16.7084 0H19.0003C19.5526 0 20.0003 0.447715 20.0003 1C20.0003 1.55228 19.5526 2 19.0003 2H16.7084Z" fill="#777E91"/>
<path d="M6.66667 0H4.66667C4.29848 0 4 0.298477 4 0.666667C4 2.50762 5.49238 4 7.33333 4H9.33333C9.70152 4 10 3.70152 10 3.33333C10 1.49238 8.50762 0 6.66667 0Z" fill="#777E91"/>
</svg>
