<svg width="23" height="24" viewBox="0 0 23 24" fill="none" xmlns="http://www.w3.org/2000/svg">
<path fill-rule="evenodd" clip-rule="evenodd" d="M8.62533 9V9.7524C8.62533 11.6597 7.83887 13.3864 7.27904 14.6155C7.23889 14.7037 7.19991 14.7892 7.16247 14.8722C6.872 15.5153 6.70866 16.235 6.70866 17C6.70866 19.7614 8.85396 22 11.5003 22C14.1467 22 16.292 19.7614 16.292 17C16.292 16.235 16.1287 15.5153 15.8382 14.8722C15.8007 14.7892 15.7618 14.7037 15.7216 14.6155C15.1618 13.3864 14.3753 11.6597 14.3753 9.7524V9C14.3753 7.34315 13.0881 6 11.5003 6C9.91251 6 8.62533 7.34315 8.62533 9ZM11.5003 4C14.1467 4 16.292 6.23858 16.292 9V9.7524C16.292 11.1918 16.8999 12.5347 17.4908 13.8401C17.5179 13.9 17.545 13.9598 17.572 14.0196C17.9804 14.9239 18.2087 15.9341 18.2087 17C18.2087 20.866 15.2052 24 11.5003 24C7.79542 24 4.79199 20.866 4.79199 17C4.79199 15.9341 5.0203 14.9239 5.42867 14.0196C5.45566 13.9598 5.48275 13.9 5.50987 13.8401C6.10076 12.5347 6.70866 11.1918 6.70866 9.7524V9C6.70866 6.23858 8.85396 4 11.5003 4Z" fill="#777E91"/>
<path fill-rule="evenodd" clip-rule="evenodd" d="M15.7855 2C14.6965 2 13.701 2.64201 13.214 3.65836L12.7854 4.55279C12.5487 5.04676 11.9731 5.24699 11.4997 5C11.0263 4.75301 10.8344 4.15234 11.0711 3.65836L11.4997 2.76393C12.3114 1.07001 13.9705 0 15.7855 0H18.208C18.7373 0 19.1664 0.447715 19.1664 1C19.1664 1.55228 18.7373 2 18.208 2H15.7855Z" fill="#777E91"/>
<path fill-rule="evenodd" clip-rule="evenodd" d="M3.83301 2.33333C3.83301 1.04467 4.83415 0 6.06912 0H8.94412C10.8848 0 12.458 1.64162 12.458 3.66667C12.458 4.95533 11.4569 6 10.2219 6H7.3469C5.40623 6 3.83301 4.35838 3.83301 2.33333ZM6.06912 2C5.89269 2 5.74967 2.14924 5.74967 2.33333C5.74967 3.25381 6.46478 4 7.3469 4H10.2219C10.3983 4 10.5413 3.85076 10.5413 3.66667C10.5413 2.74619 9.82624 2 8.94412 2H6.06912Z" fill="#777E91"/>
</svg>
