<svg width="23" height="24" viewBox="0 0 23 24" fill="none" xmlns="http://www.w3.org/2000/svg">
<path fill-rule="evenodd" clip-rule="evenodd" d="M11.5003 20C15.7345 20 19.167 16.4183 19.167 12C19.167 7.58172 15.7345 4 11.5003 4C7.26614 4 3.83366 7.58172 3.83366 12C3.83366 16.4183 7.26614 20 11.5003 20ZM11.5003 22C16.7931 22 21.0837 17.5228 21.0837 12C21.0837 6.47715 16.7931 2 11.5003 2C6.2076 2 1.91699 6.47715 1.91699 12C1.91699 17.5228 6.2076 22 11.5003 22Z" fill="#777E91"/>
<path d="M10.542 7C10.542 6.44772 10.9711 6 11.5003 6C12.0296 6 12.4587 6.44772 12.4587 7C14.0465 7 15.3337 8.34315 15.3337 10C15.3337 10.5523 14.9046 11 14.3753 11C13.8461 11 13.417 10.5523 13.417 10C13.417 9.44772 12.9879 9 12.4587 9H10.2961C9.90263 9 9.58366 9.33284 9.58366 9.74342C9.58366 10.0634 9.77989 10.3475 10.0708 10.4487L13.5359 11.6539C14.6095 12.0274 15.3337 13.0757 15.3337 14.2566C15.3337 15.7717 14.1566 17 12.7046 17H12.4587C12.4587 17.5523 12.0296 18 11.5003 18C10.9711 18 10.542 17.5523 10.542 17C8.95417 17 7.66699 15.6569 7.66699 14C7.66699 13.4477 8.09605 13 8.62533 13C9.1546 13 9.58366 13.4477 9.58366 14C9.58366 14.5523 10.0127 15 10.542 15H12.7046C13.098 15 13.417 14.6672 13.417 14.2566C13.417 13.9366 13.2208 13.6525 12.9298 13.5513L9.4647 12.3461C8.39113 11.9726 7.66699 10.9243 7.66699 9.74342C7.66699 8.22827 8.84408 7 10.2961 7H10.542Z" fill="#777E91"/>
</svg>
