<svg width="24" height="24" viewBox="0 0 24 24" fill="none" xmlns="http://www.w3.org/2000/svg">
<path d="M2 13.8859C2 13.1877 2.69737 12.7044 3.35112 12.9496L8.14677 14.748C8.64016 14.933 9.17357 14.9848 9.69334 14.8981L14.6354 14.0745C14.8087 14.0456 14.9865 14.0629 15.151 14.1245L21.3511 16.4496C21.7414 16.5959 22 16.9691 22 17.3859V20.0002C22 21.1048 21.1046 22.0002 20 22.0002H4C2.89543 22.0002 2 21.1048 2 20.0002V13.8859Z" fill="#777E91"/>
<path d="M2 4.13517C2 2.4395 3.97771 1.51318 5.28037 2.59873L8.93565 5.64479C9.1593 5.83117 9.45306 5.91083 9.74023 5.86296L14.0555 5.14376C14.8073 5.01846 15.5786 5.18401 16.2128 5.60679L20.6641 8.57435C21.4987 9.13074 22 10.0674 22 11.0705V13.1138C22 13.812 21.3026 14.2953 20.6489 14.0501L15.8532 12.2518C15.3598 12.0667 14.8264 12.0149 14.3067 12.1016L9.36454 12.9253C9.19129 12.9541 9.01348 12.9369 8.84902 12.8752L2.64888 10.5501C2.25857 10.4038 2 10.0307 2 9.61381V4.13517Z" fill="#777E91"/>
</svg>
