<svg width="23" height="24" viewBox="0 0 23 24" fill="none" xmlns="http://www.w3.org/2000/svg">
<path fill-rule="evenodd" clip-rule="evenodd" d="M1.91699 5.2699C1.91699 2.72639 4.75995 1.33691 6.63252 2.96523L8.56365 4.64447C8.77798 4.83085 9.05951 4.91051 9.33471 4.86265L13.4701 4.14344C14.1906 4.01814 14.9298 4.18369 15.5376 4.60647L19.8034 7.57403C20.6032 8.13043 21.0837 9.06712 21.0837 10.0702V18.9998C21.0837 20.6567 19.7965 21.9998 18.2087 21.9998H4.79199C3.20417 21.9998 1.91699 20.6567 1.91699 18.9998V5.2699ZM5.4055 4.50167C4.78131 3.9589 3.83366 4.42205 3.83366 5.2699V10.3819L8.49643 12.8146C8.67758 12.9091 8.88278 12.9413 9.08256 12.9066L13.603 12.1204C14.2023 12.0162 14.8179 12.1128 15.3614 12.3963L19.167 14.3819V10.0702C19.167 9.73583 19.0069 9.4236 18.7402 9.23813L14.4744 6.27057C14.2718 6.12965 14.0254 6.07446 13.7852 6.11623L9.64981 6.83544C8.82421 6.97902 7.97963 6.74004 7.33663 6.18092L5.4055 4.50167ZM19.167 16.6179L14.5042 14.1852C14.3231 14.0907 14.1179 14.0585 13.9181 14.0932L9.39766 14.8794C8.79831 14.9836 8.18273 14.887 7.63927 14.6035L3.83366 12.6179V18.9998C3.83366 19.5521 4.26272 19.9998 4.79199 19.9998H18.2087C18.7379 19.9998 19.167 19.5521 19.167 18.9998V16.6179Z" fill="#777E91"/>
</svg>
