<svg width="23" height="24" viewBox="0 0 23 24" fill="none" xmlns="http://www.w3.org/2000/svg">
<path fill-rule="evenodd" clip-rule="evenodd" d="M4.79134 9C5.32061 9 5.74967 9.44771 5.74967 10V11C5.74967 14.3137 8.32404 17 11.4997 17C14.6753 17 17.2497 14.3137 17.2497 11V10C17.2497 9.44771 17.6787 9 18.208 9C18.7373 9 19.1663 9.44771 19.1663 10V11C19.1663 15.0796 16.2399 18.446 12.458 18.9381V22H15.333C15.8623 22 16.2913 22.4477 16.2913 23C16.2913 23.5523 15.8623 24 15.333 24H12.458H10.5413H7.66634C7.13707 24 6.70801 23.5523 6.70801 23C6.70801 22.4477 7.13707 22 7.66634 22H10.5413V18.9381C6.75946 18.446 3.83301 15.0796 3.83301 11V10C3.83301 9.44771 4.26207 9 4.79134 9Z" fill="#777E91"/>
<path fill-rule="evenodd" clip-rule="evenodd" d="M13.417 11V4C13.417 2.89543 12.5589 2 11.5003 2C10.4418 2 9.58366 2.89543 9.58366 4V11C9.58366 12.1046 10.4418 13 11.5003 13C12.5589 13 13.417 12.1046 13.417 11ZM11.5003 0C9.38323 0 7.66699 1.79086 7.66699 4V11C7.66699 13.2091 9.38323 15 11.5003 15C13.6174 15 15.3337 13.2091 15.3337 11V4C15.3337 1.79086 13.6174 0 11.5003 0Z" fill="#777E91"/>
</svg>
