<svg width="24" height="24" viewBox="0 0 24 24" fill="none" xmlns="http://www.w3.org/2000/svg">
<path fill-rule="evenodd" clip-rule="evenodd" d="M18 9H6V19C6 20.1046 6.89543 21 8 21H16C17.1046 21 18 20.1046 18 19V9ZM4 7V19C4 21.2091 5.79086 23 8 23H16C18.2091 23 20 21.2091 20 19V7H4Z" fill="#777E91"/>
<path d="M12 12C11.4477 12 11 12.4477 11 13V14H10C9.44772 14 9 14.4477 9 15C9 15.5523 9.44771 16 10 16H11V17C11 17.5523 11.4477 18 12 18C12.5523 18 13 17.5523 13 17V16H14C14.5523 16 15 15.5523 15 15C15 14.4477 14.5523 14 14 14H13V13C13 12.4477 12.5523 12 12 12Z" fill="#777E91"/>
<path fill-rule="evenodd" clip-rule="evenodd" d="M18 9C19.6569 9 21 7.65685 21 6V4C21 2.34315 19.6569 1 18 1H6C4.34315 1 3 2.34315 3 4V6C3 7.65685 4.34315 9 6 9H18ZM6 3H18C18.5523 3 19 3.44772 19 4V6C19 6.55228 18.5523 7 18 7H17V6C17 5.44772 16.5523 5 16 5C15.4477 5 15 5.44772 15 6V7H13V6C13 5.44772 12.5523 5 12 5C11.4477 5 11 5.44772 11 6V7H9V6C9 5.44772 8.55229 5 8 5C7.44772 5 7 5.44772 7 6V7H6C5.44772 7 5 6.55228 5 6V4C5 3.44772 5.44772 3 6 3Z" fill="#777E91"/>
</svg>
