<svg width="24" height="24" viewBox="0 0 24 24" fill="none" xmlns="http://www.w3.org/2000/svg">
<path fill-rule="evenodd" clip-rule="evenodd" d="M3 4C1.34315 4 0 5.34315 0 7V17C0 18.6569 1.34315 20 3 20H21C22.6569 20 24 18.6569 24 17V7C24 5.34315 22.6569 4 21 4H3ZM16 8C15.4477 8 15 8.44772 15 9C15 9.55228 15.4477 10 16 10H18V11H16.5C15.6716 11 15 11.6716 15 12.5V14.5C15 15.3284 15.6716 16 16.5 16H19C19.5523 16 20 15.5523 20 15C20 14.4477 19.5523 14 19 14H17V13H18.5C19.3284 13 20 12.3284 20 11.5V9.5C20 8.67157 19.3284 8 18.5 8H16ZM12 9C11.4477 9 11 9.44772 11 10C11 10.5523 11.4477 11 12 11C12.5523 11 13 10.5523 13 10C13 9.44772 12.5523 9 12 9ZM12 13C11.4477 13 11 13.4477 11 14C11 14.5523 11.4477 15 12 15C12.5523 15 13 14.5523 13 14C13 13.4477 12.5523 13 12 13ZM8 9C8 8.44772 7.55228 8 7 8H6C5.44772 8 5 8.44772 5 9C5 9.55228 5.44772 10 6 10V14C5.44772 14 5 14.4477 5 15C5 15.5523 5.44772 16 6 16H8C8.55228 16 9 15.5523 9 15C9 14.4477 8.55228 14 8 14V9Z" fill="#777E91"/>
</svg>
