<svg width="23" height="24" viewBox="0 0 23 24" fill="none" xmlns="http://www.w3.org/2000/svg">
<path fill-rule="evenodd" clip-rule="evenodd" d="M19.1667 6H3.83333C2.77479 6 1.91667 6.89543 1.91667 8V16C1.91667 17.1046 2.77479 18 3.83333 18H19.1667C20.2252 18 21.0833 17.1046 21.0833 16V8C21.0833 6.89543 20.2252 6 19.1667 6ZM3.83333 4C1.71624 4 0 5.79086 0 8V16C0 18.2091 1.71624 20 3.83333 20H19.1667C21.2838 20 23 18.2091 23 16V8C23 5.79086 21.2838 4 19.1667 4H3.83333Z" fill="#777E91"/>
<path fill-rule="evenodd" clip-rule="evenodd" d="M14.375 9C14.375 8.44772 14.8041 8 15.3333 8H17.7292C18.5231 8 19.1667 8.67157 19.1667 9.5V11.5C19.1667 12.3284 18.5231 13 17.7292 13H16.2917V14H18.2083C18.7376 14 19.1667 14.4477 19.1667 15C19.1667 15.5523 18.7376 16 18.2083 16H15.8125C15.0186 16 14.375 15.3284 14.375 14.5V12.5C14.375 11.6716 15.0186 11 15.8125 11H17.25V10H15.3333C14.8041 10 14.375 9.55228 14.375 9Z" fill="#777E91"/>
<path d="M11.5003 9C10.9711 9 10.542 9.44772 10.542 10C10.542 10.5523 10.9711 11 11.5003 11C12.0296 11 12.4587 10.5523 12.4587 10C12.4587 9.44772 12.0296 9 11.5003 9Z" fill="#777E91"/>
<path d="M11.5003 13C10.9711 13 10.542 13.4477 10.542 14C10.542 14.5523 10.9711 15 11.5003 15C12.0296 15 12.4587 14.5523 12.4587 14C12.4587 13.4477 12.0296 13 11.5003 13Z" fill="#777E91"/>
<path d="M6.70866 8C7.23793 8 7.66699 8.44772 7.66699 9V14C8.19626 14 8.62533 14.4477 8.62533 15C8.62533 15.5523 8.19626 16 7.66699 16H5.75033C5.22105 16 4.79199 15.5523 4.79199 15C4.79199 14.4477 5.22105 14 5.75033 14V10C5.22105 10 4.79199 9.55228 4.79199 9C4.79199 8.44772 5.22105 8 5.75033 8H6.70866Z" fill="#777E91"/>
</svg>
