<svg width="24" height="24" viewBox="0 0 24 24" fill="none" xmlns="http://www.w3.org/2000/svg">
<path fill-rule="evenodd" clip-rule="evenodd" d="M14 2C14 1.44772 13.5523 1 13 1H6C4.34315 1 3 2.34315 3 4V20C3 21.6569 4.34315 23 6 23H18C19.6569 23 21 21.6569 21 20V9C21 8.44772 20.5523 8 20 8H17C15.3431 8 14 6.65685 14 5V2ZM11 11C11 12.1046 10.1046 13 9 13C7.89543 13 7 12.1046 7 11C7 9.89543 7.89543 9 9 9C10.1046 9 11 9.89543 11 11ZM16.7004 16.3754L14.781 13.9761C14.3807 13.4757 13.6196 13.4757 13.2192 13.9761L11.2999 16.3754C10.7761 17.0301 11.2422 18 12.0807 18H15.9195C16.758 18 17.2242 17.0301 16.7004 16.3754Z" fill="#777E91"/>
<path d="M16.9774 1.17757C16.4681 0.963989 16 1.44777 16 2.00005V5.00005C16 5.55234 16.4477 6.00005 17 6.00005H20C20.5523 6.00005 21.0361 5.53194 20.8225 5.02262C20.73 4.80212 20.5972 4.59721 20.4142 4.41427L17.5858 1.58584C17.4028 1.40289 17.1979 1.27003 16.9774 1.17757Z" fill="#777E91"/>
</svg>
