<svg width="24" height="24" viewBox="0 0 24 24" fill="none" xmlns="http://www.w3.org/2000/svg">
<path fill-rule="evenodd" clip-rule="evenodd" d="M3 5C3 2.79086 4.79086 1 7 1H15.3431C16.404 1 17.4214 1.42143 18.1716 2.17157L19.8284 3.82843C20.5786 4.57857 21 5.59599 21 6.65685V19C21 21.2091 19.2091 23 17 23H7C4.79086 23 3 21.2091 3 19V5ZM19 8V19C19 20.1046 18.1046 21 17 21H7C5.89543 21 5 20.1046 5 19V5C5 3.89543 5.89543 3 7 3H14V5C14 6.65685 15.3431 8 17 8H19ZM18.8891 6C18.7909 5.7176 18.6296 5.45808 18.4142 5.24264L16.7574 3.58579C16.5419 3.37035 16.2824 3.20914 16 3.11094V5C16 5.55228 16.4477 6 17 6H18.8891Z" fill="#777E91"/>
<path d="M9 13C10.1046 13 11 12.1046 11 11C11 9.89543 10.1046 9 9 9C7.89543 9 7 9.89543 7 11C7 12.1046 7.89543 13 9 13Z" fill="#777E91"/>
<path d="M14.781 13.9761L16.7004 16.3754C17.2242 17.0301 16.758 18 15.9195 18H12.0807C11.2422 18 10.7761 17.0301 11.2999 16.3754L13.2192 13.9761C13.6196 13.4757 14.3807 13.4757 14.781 13.9761Z" fill="#777E91"/>
</svg>
