<svg width="24" height="24" viewBox="0 0 24 24" fill="none" xmlns="http://www.w3.org/2000/svg">
<path d="M12 22C17.5228 22 22 17.5228 22 12C22 6.47715 17.5228 2 12 2C6.47715 2 2 6.47715 2 12C2 15.9463 4.28591 19.3587 7.60584 20.9853C7.87648 21.1179 8.19448 20.9636 8.27514 20.6732L11.0365 10.7324C11.1843 10.2002 11.7355 9.88867 12.2677 10.0365C12.7998 10.1843 13.1114 10.7355 12.9635 11.2676L11.9112 15.056C13.1622 15.3211 14.0396 15.0944 14.627 14.7061C15.3701 14.215 15.8472 13.3358 15.9668 12.2917C16.0864 11.2467 15.8305 10.1502 15.2459 9.33801C14.6827 8.55555 13.7931 8 12.5 8C10.5791 8 9.4357 8.83125 8.87791 9.85386C8.2973 10.9183 8.27861 12.3212 8.89443 13.5528C9.14141 14.0468 8.94119 14.6474 8.44721 14.8944C7.95323 15.1414 7.35256 14.9412 7.10557 14.4472C6.2214 12.6788 6.20273 10.5817 7.12213 8.89614C8.06435 7.16875 9.92097 6 12.5 6C14.457 6 15.9423 6.88195 16.8692 8.16961C17.7746 9.42758 18.1239 11.0338 17.9538 12.5192C17.7836 14.0056 17.0762 15.4847 15.7299 16.3746C14.5809 17.134 13.1012 17.3769 11.3753 16.9852L10.18 21.2882C10.1022 21.5684 10.2789 21.8567 10.5667 21.8981C11.0348 21.9652 11.5133 22 12 22Z" fill="#777E91"/>
</svg>
