<svg width="23" height="24" viewBox="0 0 23 24" fill="none" xmlns="http://www.w3.org/2000/svg">
<path fill-rule="evenodd" clip-rule="evenodd" d="M11.5003 20C15.7345 20 19.167 16.4183 19.167 12C19.167 7.58172 15.7345 4 11.5003 4C7.26614 4 3.83366 7.58172 3.83366 12C3.83366 16.4183 7.26614 20 11.5003 20ZM11.5003 22C16.793 22 21.0837 17.5228 21.0837 12C21.0837 6.47715 16.793 2 11.5003 2C6.20759 2 1.91699 6.47715 1.91699 12C1.91699 17.5228 6.20759 22 11.5003 22Z" fill="#777E91"/>
<path fill-rule="evenodd" clip-rule="evenodd" d="M8.50766 9.85385C7.95124 10.9183 7.93334 12.3212 8.52349 13.5528C8.76018 14.0468 8.5683 14.6474 8.09491 14.8944C7.62151 15.1414 7.04587 14.9412 6.80917 14.4472C5.96184 12.6788 5.94395 10.5817 6.82504 8.89615C7.728 7.16875 9.50726 6 11.9788 6C13.8543 6 15.2777 6.88195 16.166 8.16961C17.0337 9.42758 17.3684 11.0338 17.2054 12.5192C17.0423 14.0056 16.3644 15.4847 15.0742 16.3746C13.973 17.134 12.555 17.3769 10.901 16.9852L10.0272 20.2676C9.88555 20.7998 9.3573 21.1113 8.84734 20.9635C8.33738 20.8157 8.03881 20.2645 8.18047 19.7324L9.31066 15.4868C9.31231 15.4804 9.31401 15.4739 9.3158 15.4675L10.5763 10.7324C10.718 10.2002 11.2462 9.88867 11.7562 10.0365C12.2661 10.1843 12.5647 10.7355 12.423 11.2676L11.4146 15.056C12.6134 15.3211 13.4543 15.0944 14.0172 14.7061C14.7293 14.215 15.1866 13.3358 15.3012 12.2917C15.4158 11.2467 15.1706 10.1502 14.6103 9.33801C14.0706 8.55555 13.2181 8 11.9788 8C10.138 8 9.04221 8.83125 8.50766 9.85385Z" fill="#777E91"/>
</svg>
