<svg width="23" height="24" viewBox="0 0 23 24" fill="none" xmlns="http://www.w3.org/2000/svg">
<path fill-rule="evenodd" clip-rule="evenodd" d="M11.5003 20C15.7345 20 19.167 16.4183 19.167 12C19.167 7.58172 15.7345 4 11.5003 4C7.26614 4 3.83366 7.58172 3.83366 12C3.83366 16.4183 7.26614 20 11.5003 20ZM11.5003 22C16.7931 22 21.0837 17.5228 21.0837 12C21.0837 6.47715 16.7931 2 11.5003 2C6.2076 2 1.91699 6.47715 1.91699 12C1.91699 17.5228 6.2076 22 11.5003 22Z" fill="#777E91"/>
<path fill-rule="evenodd" clip-rule="evenodd" d="M7.94768 8.29289C8.32193 7.90237 8.92872 7.90237 9.30297 8.29289L11.5003 10.5858L13.6977 8.29289C14.0719 7.90237 14.6787 7.90237 15.053 8.29289C15.4272 8.68342 15.4272 9.31658 15.053 9.70711L12.8556 12L15.053 14.2929C15.4272 14.6834 15.4272 15.3166 15.053 15.7071C14.6787 16.0976 14.0719 16.0976 13.6977 15.7071L11.5003 13.4142L9.30297 15.7071C8.92872 16.0976 8.32193 16.0976 7.94768 15.7071C7.57343 15.3166 7.57343 14.6834 7.94768 14.2929L10.145 12L7.94768 9.70711C7.57343 9.31658 7.57343 8.68342 7.94768 8.29289Z" fill="#777E91"/>
</svg>
