<svg width="23" height="24" viewBox="0 0 23 24" fill="none" xmlns="http://www.w3.org/2000/svg">
<path fill-rule="evenodd" clip-rule="evenodd" d="M3.875 12C3.875 7.54118 7.32851 4 11.5 4C15.6715 4 19.125 7.54118 19.125 12C19.125 16.4588 15.6715 20 11.5 20C7.32851 20 3.875 16.4588 3.875 12ZM11.5 2C6.14458 2 1.875 6.51769 1.875 12C1.875 17.4823 6.14458 22 11.5 22C16.8554 22 21.125 17.4823 21.125 12C21.125 6.51769 16.8554 2 11.5 2ZM8.64082 13.7741C8.51606 13.2361 7.97878 12.9011 7.44077 13.0258C6.90276 13.1506 6.56776 13.6879 6.69252 14.2259C6.94234 15.3032 7.55714 16.2614 8.43138 16.9456C9.30524 17.6294 10.3873 18 11.5 18C12.6127 18 13.6948 17.6294 14.5686 16.9456C15.4429 16.2614 16.0577 15.3032 16.3075 14.2259C16.4322 13.6879 16.0972 13.1506 15.5592 13.0258C15.0212 12.9011 14.4839 13.2361 14.3592 13.7741C14.2138 14.4009 13.8547 14.9646 13.336 15.3705C12.8169 15.7768 12.1696 16 11.5 16C10.8304 16 10.1831 15.7768 9.66399 15.3705C9.14525 14.9646 8.78616 14.4009 8.64082 13.7741ZM8.625 10.286C8.76746 10.7656 9.24974 11.073 9.75468 10.9852C10.2988 10.8906 10.6632 10.3728 10.5685 9.82865C10.4902 9.37818 10.291 8.93405 9.96007 8.58875C9.62417 8.23824 9.15687 8 8.625 8C8.09313 8 7.62583 8.23824 7.28993 8.58875C6.95902 8.93405 6.7598 9.37818 6.68146 9.82865C6.58682 10.3728 6.9512 10.8906 7.49532 10.9852C8.00026 11.073 8.48254 10.7656 8.625 10.286ZM15.5047 10.9852C14.9997 11.073 14.5175 10.7656 14.375 10.286C14.2325 10.7656 13.7503 11.073 13.2453 10.9852C12.7012 10.8906 12.3368 10.3728 12.4315 9.82865C12.5098 9.37818 12.709 8.93405 13.0399 8.58875C13.3758 8.23824 13.8431 8 14.375 8C14.9069 8 15.3742 8.23824 15.7101 8.58875C16.041 8.93404 16.2402 9.37818 16.3185 9.82865C16.4132 10.3728 16.0488 10.8906 15.5047 10.9852Z" fill="#777E91"/>
</svg>
