<svg width="24" height="24" viewBox="0 0 24 24" fill="none" xmlns="http://www.w3.org/2000/svg">
<path fill-rule="evenodd" clip-rule="evenodd" d="M11 3C11 2.44772 11.4477 2 12 2C17.5228 2 22 6.47715 22 12C22 17.5228 17.5228 22 12 22C6.47715 22 2 17.5228 2 12C2 11.4477 2.44772 11 3 11C3.55228 11 4 11.4477 4 12C4 16.4183 7.58172 20 12 20C16.4183 20 20 16.4183 20 12C20 7.58172 16.4183 4 12 4C11.4477 4 11 3.55228 11 3Z" fill="#777E91"/>
<path fill-rule="evenodd" clip-rule="evenodd" d="M11 8C11 7.44772 11.4477 7 12 7C14.7614 7 17 9.23858 17 12C17 14.7614 14.7614 17 12 17C11.4477 17 11 16.5523 11 16C11 15.4477 11.4477 15 12 15C13.6569 15 15 13.6569 15 12C15 10.3431 13.6569 9 12 9C11.4477 9 11 8.55228 11 8Z" fill="#777E91"/>
</svg>
