<svg width="23" height="24" viewBox="0 0 23 24" fill="none" xmlns="http://www.w3.org/2000/svg">
<path fill-rule="evenodd" clip-rule="evenodd" d="M10.9573 18.9747C11.2844 18.74 11.7162 18.74 12.0432 18.9747L12.5862 19.3642C13.1857 19.7943 13.785 20 14.3752 20C15.4452 20 16.6125 19.2909 17.6073 17.8375C18.5915 16.3997 19.167 14.5512 19.167 13C19.167 10.1046 17.1501 8 14.3752 8C13.596 8 12.8928 8.16518 12.2843 8.44981L11.8923 8.63317C11.6429 8.74982 11.3576 8.74982 11.1083 8.63317L10.7163 8.44982C10.1077 8.16518 9.40448 8 8.62524 8C5.85042 8 3.83366 10.1045 3.83366 13C3.83366 14.5512 4.4091 16.3998 5.39325 17.8375C6.3881 19.2909 7.55529 20 8.62524 20C9.21545 20 9.81484 19.7943 10.4144 19.3642L10.9573 18.9747ZM11.5003 6.62478C12.3621 6.22165 13.3333 6 14.3752 6C18.2087 6 21.0837 9 21.0837 13C21.0837 17 18.2087 22 14.3752 22C13.3333 22 12.3621 21.6306 11.5003 21.0122C10.6384 21.6306 9.66722 22 8.62524 22C4.79182 22 1.91699 17 1.91699 13C1.91699 9 4.79182 6 8.62524 6C9.66722 6 10.6384 6.22165 11.5003 6.62478Z" fill="#777E91"/>
<path d="M8.14616 12C7.88152 12 7.66699 12.2239 7.66699 12.5V13.5C7.66699 14.3284 8.31058 15 9.10449 15C9.36913 15 9.58366 14.7761 9.58366 14.5V13.5C9.58366 12.6716 8.94007 12 8.14616 12Z" fill="#777E91"/>
<path d="M14.8545 12C15.1191 12 15.3337 12.2239 15.3337 12.5V13.5C15.3337 14.3284 14.6901 15 13.8962 15C13.6315 15 13.417 14.7761 13.417 14.5V13.5C13.417 12.6716 14.0606 12 14.8545 12Z" fill="#777E91"/>
<path fill-rule="evenodd" clip-rule="evenodd" d="M7.66667 4C8.92493 4 9.99441 4.84347 10.3841 6.01811C10.5573 6.54 10.9707 7 11.5 7C12.0293 7 12.4683 6.54777 12.3637 6.00638C11.9221 3.72096 9.987 2 7.66667 2H6.70833C6.17906 2 5.75 2.44772 5.75 3C5.75 3.55228 6.17906 4 6.70833 4H7.66667Z" fill="#777E91"/>
<path fill-rule="evenodd" clip-rule="evenodd" d="M19.167 4.33333C19.167 3.04467 18.1659 2 16.9309 2H14.0559C12.1152 2 10.542 3.64162 10.542 5.66667C10.542 6.95533 11.5431 8 12.7781 8H15.6531C17.5938 8 19.167 6.35838 19.167 4.33333ZM16.9309 4C17.1073 4 17.2503 4.14924 17.2503 4.33333C17.2503 5.25381 16.5352 6 15.6531 6H12.7781C12.6017 6 12.4587 5.85076 12.4587 5.66667C12.4587 4.74619 13.1738 4 14.0559 4H16.9309Z" fill="#777E91"/>
</svg>
