<svg width="23" height="24" viewBox="0 0 23 24" fill="none" xmlns="http://www.w3.org/2000/svg">
<path fill-rule="evenodd" clip-rule="evenodd" d="M18.003 20.3419C18.1094 18.3948 18.2083 15.6142 18.2083 12C18.2083 8.8112 18.1313 6.52151 18.0411 4.93337C17.9833 3.91589 17.3052 3.20915 16.3498 3.14511C15.1451 3.06436 13.5438 3 11.4999 3C9.45621 3 7.8549 3.06436 6.65019 3.1451C5.69477 3.20914 5.01664 3.91593 4.95884 4.9335C4.86861 6.52165 4.79169 8.81131 4.79167 12C4.79164 15.6142 4.89046 18.3948 4.99693 20.3419L9.84198 16.7731C10.8359 16.041 12.1639 16.041 13.1579 16.7731L18.003 20.3419ZM6.52734 1.14921C4.59684 1.2786 3.16001 2.8001 3.04553 4.81514C2.95272 6.44881 2.87502 8.77846 2.875 12C2.87497 17.0256 3.06405 20.4726 3.20466 22.3412C3.2613 23.0939 4.06834 23.4739 4.65951 23.0385L10.9473 18.4071C11.2786 18.163 11.7213 18.163 12.0526 18.4071L18.3404 23.0385C18.9315 23.4739 19.7386 23.0939 19.7952 22.3412C19.9358 20.4726 20.1249 17.0256 20.1249 12C20.1249 8.77836 20.0472 6.44867 19.9544 4.81499C19.8399 2.80002 18.4031 1.27861 16.4727 1.14922C15.2246 1.06557 13.5822 1 11.4999 1C9.41773 1 7.77537 1.06557 6.52734 1.14921Z" fill="#777E91"/>
</svg>
