<svg width="24" height="24" viewBox="0 0 24 24" fill="none" xmlns="http://www.w3.org/2000/svg">
<path fill-rule="evenodd" clip-rule="evenodd" d="M5 2C3.34315 2 2 3.34315 2 5V19C2 20.6569 3.34315 22 5 22H19C20.6569 22 22 20.6569 22 19V5C22 3.34315 20.6569 2 19 2H5ZM13 6C13.5523 6 14 6.44772 14 7C14 8.10457 14.8954 9 16 9C16.5523 9 17 9.44771 17 10C17 10.5523 16.5523 11 16 11C15.2714 11 14.5883 10.8052 14 10.4649V14.5V14.5032C13.9982 16.4347 12.4319 18 10.5 18C8.567 18 7 16.433 7 14.5C7 12.9227 8.1731 11.3506 9.80107 11.0202C10.3423 10.9103 10.8701 11.26 10.98 11.8013C11.0899 12.3425 10.7402 12.8703 10.1989 12.9802C9.56207 13.1095 9 13.8125 9 14.5C9 15.3284 9.67157 16 10.5 16C11.3284 16 12 15.3284 12 14.5V7C12 6.44772 12.4477 6 13 6Z" fill="#777E91"/>
</svg>
