<svg width="23" height="24" viewBox="0 0 23 24" fill="none" xmlns="http://www.w3.org/2000/svg">
<path fill-rule="evenodd" clip-rule="evenodd" d="M17.2503 4H5.75033C4.69178 4 3.83366 4.89543 3.83366 6V18C3.83366 19.1046 4.69178 20 5.75033 20H17.2503C18.3089 20 19.167 19.1046 19.167 18V6C19.167 4.89543 18.3089 4 17.2503 4ZM5.75033 2C3.63323 2 1.91699 3.79086 1.91699 6V18C1.91699 20.2091 3.63323 22 5.75033 22H17.2503C19.3674 22 21.0837 20.2091 21.0837 18V6C21.0837 3.79086 19.3674 2 17.2503 2H5.75033Z" fill="#777E91"/>
<path d="M13.4163 7C13.4163 6.44772 12.9873 6 12.458 6C11.9287 6 11.4997 6.44772 11.4997 7V14.5C11.4997 15.3284 10.8561 16 10.0622 16C9.26826 16 8.62467 15.3284 8.62467 14.5C8.62467 13.8125 9.16333 13.1095 9.77362 12.9802C10.2924 12.8703 10.6275 12.3425 10.5222 11.8013C10.4169 11.26 9.91105 10.9103 9.39237 11.0202C7.83223 11.3506 6.70801 12.9227 6.70801 14.5C6.70801 16.433 8.20972 18 10.0622 18C11.9136 18 13.4146 16.4347 13.4163 14.5032V14.5V10.4649C13.9801 10.8052 14.6348 11 15.333 11C15.8623 11 16.2913 10.5523 16.2913 10C16.2913 9.44771 15.8623 9 15.333 9C14.2744 9 13.4163 8.10457 13.4163 7Z" fill="#777E91"/>
</svg>
