<svg width="24" height="24" viewBox="0 0 24 24" fill="none" xmlns="http://www.w3.org/2000/svg">
<path fill-rule="evenodd" clip-rule="evenodd" d="M14 2C14 1.44772 13.5523 1 13 1H6C4.34315 1 3 2.34315 3 4V20C3 21.6569 4.34315 23 6 23H18C19.6569 23 21 21.6569 21 20V9C21 8.44772 20.5523 8 20 8H17C15.3431 8 14 6.65685 14 5V2ZM9 13C8.44772 13 8 13.4477 8 14C8 14.5523 8.44772 15 9 15H15C15.5523 15 16 14.5523 16 14C16 13.4477 15.5523 13 15 13H9Z" fill="#777E91"/>
<path d="M16.9774 1.17757C16.4681 0.963989 16 1.44777 16 2.00005V5.00005C16 5.55234 16.4477 6.00005 17 6.00005H20C20.5523 6.00005 21.0361 5.53194 20.8225 5.02262C20.73 4.80212 20.5972 4.59721 20.4142 4.41427L17.5858 1.58584C17.4028 1.40289 17.1979 1.27003 16.9774 1.17757Z" fill="#777E91"/>
</svg>
