<svg width="24" height="24" viewBox="0 0 24 24" fill="none" xmlns="http://www.w3.org/2000/svg">
<path fill-rule="evenodd" clip-rule="evenodd" d="M7.85345 13.8535C7.65819 13.6582 7.34161 13.6582 7.14635 13.8535L1.70701 19.2928C1.07704 19.9228 1.52321 20.9999 2.41411 20.9999H9.9999C10.5522 20.9999 10.9999 20.5522 10.9999 19.9999V17.207C10.9999 17.0744 10.9472 16.9472 10.8535 16.8535L7.85345 13.8535Z" fill="#777E91"/>
<path fill-rule="evenodd" clip-rule="evenodd" d="M9.35348 12.3537C9.15822 12.1584 9.15822 11.8418 9.35348 11.6466L18.9999 2.00019C19.8443 1.15584 21.1556 1.15587 21.9999 2.00023C22.8214 2.82172 22.7892 4.14777 21.9999 5.00023L12.8526 15.1103C12.6607 15.3224 12.3304 15.3306 12.1283 15.1284L9.35348 12.3537Z" fill="#777E91"/>
</svg>
