<svg width="24" height="24" viewBox="0 0 24 24" fill="none" xmlns="http://www.w3.org/2000/svg">
<path fill-rule="evenodd" clip-rule="evenodd" d="M12.9998 17.9999V15.9999L20.9998 7.99989C22.3805 6.61918 22.3805 4.3806 20.9998 2.99989C19.619 1.61918 17.3805 1.61918 15.9998 2.99989L2.26752 16.7321C0.692606 18.307 1.80802 20.9999 4.03528 20.9999H9.99975C11.6566 20.9999 12.9998 19.6567 12.9998 17.9999ZM10.9998 16L8.41391 13.4142L3.68173 18.1463C3.36675 18.4613 3.58983 18.9999 4.03528 18.9999H9.99975C10.552 18.9999 10.9998 18.5522 10.9998 17.9999V16ZM9.91391 11.9142L17.414 4.4141C18.0136 3.81444 18.9859 3.81444 19.5855 4.4141C20.1852 5.01377 20.1852 5.98601 19.5855 6.58568L12.0855 14.0857L9.91391 11.9142Z" fill="#777E91"/>
</svg>
