<svg width="24" height="24" viewBox="0 0 24 24" fill="none" xmlns="http://www.w3.org/2000/svg">
<path d="M6.54511 20.3826C6.26614 20.2007 6.26618 19.8008 6.51864 19.5836C8.6502 17.7497 10 15.0325 10 12C10 8.96753 8.6502 6.25032 6.51864 4.41641C6.26618 4.19921 6.26614 3.79934 6.54511 3.61744C8.11387 2.59449 9.98751 2 12 2C14.0125 2 15.8861 2.59449 17.4549 3.61744C17.7339 3.79934 17.7338 4.19921 17.4814 4.41641C15.3498 6.25032 14 8.96753 14 12C14 15.0325 15.3498 17.7497 17.4814 19.5836C17.7338 19.8008 17.7339 20.2007 17.4549 20.3826C15.8861 21.4055 14.0125 22 12 22C9.98751 22 8.11387 21.4055 6.54511 20.3826Z" fill="#777E91"/>
<path d="M4.85795 5.64335C4.65779 5.49015 4.37417 5.5259 4.21581 5.722C2.82989 7.43828 2 9.62222 2 12C2 14.3778 2.82989 16.5617 4.21581 18.278C4.37417 18.4741 4.65779 18.5098 4.85795 18.3566C6.76807 16.8947 8 14.5912 8 12C8 9.4088 6.76807 7.10534 4.85795 5.64335Z" fill="#777E91"/>
<path d="M19.142 5.64336C19.3422 5.49015 19.6258 5.5259 19.7842 5.722C21.1701 7.43828 22 9.62222 22 12C22 14.3778 21.1701 16.5617 19.7842 18.278C19.6258 18.4741 19.3422 18.5098 19.142 18.3566C17.2319 16.8947 16 14.5912 16 12C16 9.4088 17.2319 7.10534 19.142 5.64336Z" fill="#777E91"/>
</svg>
