<svg width="23" height="24" viewBox="0 0 23 24" fill="none" xmlns="http://www.w3.org/2000/svg">
<path fill-rule="evenodd" clip-rule="evenodd" d="M11.5003 20C15.7345 20 19.167 16.4183 19.167 12C19.167 7.58172 15.7345 4 11.5003 4C7.26614 4 3.83366 7.58172 3.83366 12C3.83366 16.4183 7.26614 20 11.5003 20ZM11.5003 22C16.7931 22 21.0837 17.5228 21.0837 12C21.0837 6.47715 16.7931 2 11.5003 2C6.2076 2 1.91699 6.47715 1.91699 12C1.91699 17.5228 6.2076 22 11.5003 22Z" fill="#777E91"/>
<path d="M5.7496 20.0005C8.07729 18.1761 9.58293 15.2714 9.58293 11.9998C9.58293 8.72812 8.07729 5.82344 5.7496 3.99902C5.22646 4.40906 4.74484 4.87365 4.3125 5.38472C6.33701 6.82473 7.66627 9.25026 7.66627 11.9998C7.66627 14.7492 6.33701 17.1748 4.3125 18.6148C4.74484 19.1259 5.22646 19.5905 5.7496 20.0005Z" fill="#777E91"/>
<path d="M17.2496 3.99903C14.9219 5.82344 13.4163 8.72812 13.4163 11.9998C13.4163 15.2714 14.9219 18.1761 17.2496 20.0005C17.7727 19.5905 18.2544 19.1259 18.6867 18.6148C16.6622 17.1748 15.3329 14.7492 15.3329 11.9998C15.3329 9.25026 16.6622 6.82473 18.6867 5.38472C18.2544 4.87366 17.7727 4.40906 17.2496 3.99903Z" fill="#777E91"/>
</svg>
