<svg width="24" height="24" viewBox="0 0 24 24" fill="none" xmlns="http://www.w3.org/2000/svg">
<path d="M12 12C11.4477 12 11 11.5523 11 11C11 10.4477 11.4477 10 12 10C12.5523 10 13 10.4477 13 11C13 11.5523 12.5523 12 12 12Z" fill="#777E91"/>
<path fill-rule="evenodd" clip-rule="evenodd" d="M5 2C3.34315 2 2 3.34315 2 5V17C2 18.6569 3.34315 20 5 20L5 21C5 21.5523 5.44772 22 6 22C6.55228 22 7 21.5523 7 21V20H17V21C17 21.5523 17.4477 22 18 22C18.5523 22 19 21.5523 19 21V20C20.6569 20 22 18.6569 22 17V5C22 3.34315 20.6569 2 19 2H5ZM12 6C11.4477 6 11 6.44772 11 7V8.17071C10.1476 8.47199 9.47199 9.14759 9.17071 10H8C7.44772 10 7 10.4477 7 11C7 11.5523 7.44772 12 8 12H9.17071C9.47199 12.8524 10.1476 13.528 11 13.8293V15C11 15.5523 11.4477 16 12 16C12.5523 16 13 15.5523 13 15V13.8293C13.8524 13.528 14.528 12.8524 14.8293 12H16C16.5523 12 17 11.5523 17 11C17 10.4477 16.5523 10 16 10H14.8293C14.528 9.14759 13.8524 8.47199 13 8.17071V7C13 6.44772 12.5523 6 12 6Z" fill="#777E91"/>
</svg>
