<svg width="23" height="24" viewBox="0 0 23 24" fill="none" xmlns="http://www.w3.org/2000/svg">
<path fill-rule="evenodd" clip-rule="evenodd" d="M18.2087 19.874C19.862 19.4299 21.0837 17.8638 21.0837 16V6C21.0837 3.79086 19.3674 2 17.2503 2H5.75033C3.63323 2 1.91699 3.79086 1.91699 6V16C1.91699 17.8638 3.13865 19.4299 4.79199 19.874V21C4.79199 21.5523 5.22105 22 5.75033 22C6.2796 22 6.70866 21.5523 6.70866 21V20H16.292V21C16.292 21.5523 16.7211 22 17.2503 22C17.7796 22 18.2087 21.5523 18.2087 21V19.874ZM17.2503 4H5.75033C4.69178 4 3.83366 4.89543 3.83366 6V16C3.83366 17.1046 4.69178 18 5.75033 18H17.2503C18.3089 18 19.167 17.1046 19.167 16V6C19.167 4.89543 18.3089 4 17.2503 4Z" fill="#777E91"/>
<path fill-rule="evenodd" clip-rule="evenodd" d="M10.5413 7C10.5413 6.44772 10.9704 6 11.4997 6C12.0289 6 12.458 6.44772 12.458 7V8.17071C13.2749 8.47199 13.9224 9.14759 14.2111 10H15.333C15.8623 10 16.2913 10.4477 16.2913 11C16.2913 11.5523 15.8623 12 15.333 12H14.2111C13.9224 12.8524 13.2749 13.528 12.458 13.8293V15C12.458 15.5523 12.0289 16 11.4997 16C10.9704 16 10.5413 15.5523 10.5413 15V13.8293C9.72445 13.528 9.077 12.8524 8.78827 12H7.66634C7.13707 12 6.70801 11.5523 6.70801 11C6.70801 10.4477 7.13707 10 7.66634 10H8.78827C9.077 9.14759 9.72445 8.47199 10.5413 8.17071V7ZM10.5413 11C10.5413 11.5523 10.9704 12 11.4997 12C12.0289 12 12.458 11.5523 12.458 11C12.458 10.4477 12.0289 10 11.4997 10C10.9704 10 10.5413 10.4477 10.5413 11Z" fill="#777E91"/>
</svg>
