<svg width="23" height="24" viewBox="0 0 23 24" fill="none" xmlns="http://www.w3.org/2000/svg">
<path fill-rule="evenodd" clip-rule="evenodd" d="M15.9481 16.2445C17.2905 14.3001 18.2083 12.1631 18.2083 10C18.2083 6.13401 15.2049 3 11.5 3C7.79509 3 4.79167 6.13401 4.79167 10C4.79167 12.1631 5.70945 14.3001 7.05186 16.2445C8.38415 18.1742 10.0224 19.7503 11.1903 20.7485C11.3819 20.9122 11.6181 20.9122 11.8097 20.7485C12.9776 19.7503 14.6159 18.1742 15.9481 16.2445ZM13.0241 22.2957C15.5007 20.1791 20.125 15.4917 20.125 10C20.125 5.02944 16.2635 1 11.5 1C6.73654 1 2.875 5.02944 2.875 10C2.875 15.4917 7.49932 20.1791 9.97587 22.2957C10.8738 23.0631 12.1262 23.0631 13.0241 22.2957Z" fill="#777E91"/>
<path fill-rule="evenodd" clip-rule="evenodd" d="M11.5003 8C10.4418 8 9.58366 8.89543 9.58366 10C9.58366 11.1046 10.4418 12 11.5003 12C12.5589 12 13.417 11.1046 13.417 10C13.417 8.89543 12.5589 8 11.5003 8ZM7.66699 10C7.66699 7.79086 9.38323 6 11.5003 6C13.6174 6 15.3337 7.79086 15.3337 10C15.3337 12.2091 13.6174 14 11.5003 14C9.38323 14 7.66699 12.2091 7.66699 10Z" fill="#777E91"/>
</svg>
