<svg width="23" height="24" viewBox="0 0 23 24" fill="none" xmlns="http://www.w3.org/2000/svg">
<path fill-rule="evenodd" clip-rule="evenodd" d="M6.70866 4H4.79199C4.26272 4 3.83366 4.44772 3.83366 5V19C3.83366 19.5523 4.26272 20 4.79199 20H6.70866C7.23793 20 7.66699 19.5523 7.66699 19V5C7.66699 4.44772 7.23793 4 6.70866 4ZM4.79199 2C3.20417 2 1.91699 3.34315 1.91699 5V19C1.91699 20.6569 3.20417 22 4.79199 22H6.70866C8.29648 22 9.58366 20.6569 9.58366 19V5C9.58366 3.34315 8.29648 2 6.70866 2H4.79199Z" fill="#777E91"/>
<path fill-rule="evenodd" clip-rule="evenodd" d="M18.2087 4H16.292C15.7627 4 15.3337 4.44772 15.3337 5V19C15.3337 19.5523 15.7627 20 16.292 20H18.2087C18.7379 20 19.167 19.5523 19.167 19V5C19.167 4.44772 18.7379 4 18.2087 4ZM16.292 2C14.7042 2 13.417 3.34315 13.417 5V19C13.417 20.6569 14.7042 22 16.292 22H18.2087C19.7965 22 21.0837 20.6569 21.0837 19V5C21.0837 3.34315 19.7965 2 18.2087 2H16.292Z" fill="#777E91"/>
</svg>
