<svg width="23" height="24" viewBox="0 0 23 24" fill="none" xmlns="http://www.w3.org/2000/svg">
<path d="M5.23073 8.7207L6.87077 11.1166C6.23174 11.3084 5.68402 11.7252 5.31146 12.2796L3.67134 9.88357C4.31039 9.69183 4.85814 9.27504 5.23073 8.7207Z" fill="#777E91"/>
<path d="M9.66285 11.8407C10.1247 12.3056 10.4377 12.9303 10.5203 13.6294L13.3378 12.1594C12.876 11.6945 12.5629 11.0699 12.4804 10.3707L9.66285 11.8407Z" fill="#777E91"/>
<path d="M17.6891 11.7207L19.3291 14.1166C18.6901 14.3084 18.1424 14.7252 17.7698 15.2796L16.1297 12.8836C16.7687 12.6918 17.3165 12.275 17.6891 11.7207Z" fill="#777E91"/>
<path fill-rule="evenodd" clip-rule="evenodd" d="M4.76837e-07 7C4.76837e-07 8.65685 1.28718 10 2.875 10C4.46282 10 5.75 8.65685 5.75 7C5.75 5.34315 4.46282 4 2.875 4C1.28718 4 4.76837e-07 5.34315 4.76837e-07 7ZM1.91667 7C1.91667 7.55228 2.34573 8 2.875 8C3.40427 8 3.83333 7.55228 3.83333 7C3.83333 6.44772 3.40427 6 2.875 6C2.34573 6 1.91667 6.44772 1.91667 7Z" fill="#777E91"/>
<path fill-rule="evenodd" clip-rule="evenodd" d="M12.4583 10C12.4583 11.6569 13.7455 13 15.3333 13C16.9212 13 18.2083 11.6569 18.2083 10C18.2083 8.34315 16.9212 7 15.3333 7C13.7455 7 12.4583 8.34315 12.4583 10ZM14.375 10C14.375 10.5523 14.8041 11 15.3333 11C15.8626 11 16.2917 10.5523 16.2917 10C16.2917 9.44772 15.8626 9 15.3333 9C14.8041 9 14.375 9.44772 14.375 10Z" fill="#777E91"/>
<path fill-rule="evenodd" clip-rule="evenodd" d="M17.25 17C17.25 18.6569 18.5372 20 20.125 20C21.7128 20 23 18.6569 23 17C23 15.3431 21.7128 14 20.125 14C18.5372 14 17.25 15.3431 17.25 17ZM19.1667 17C19.1667 17.5523 19.5957 18 20.125 18C20.6543 18 21.0833 17.5523 21.0833 17C21.0833 16.4477 20.6543 16 20.125 16C19.5957 16 19.1667 16.4477 19.1667 17Z" fill="#777E91"/>
<path fill-rule="evenodd" clip-rule="evenodd" d="M7.66667 17C6.07885 17 4.79167 15.6569 4.79167 14C4.79167 12.3431 6.07885 11 7.66667 11C9.25449 11 10.5417 12.3431 10.5417 14C10.5417 15.6569 9.25449 17 7.66667 17ZM7.66667 15C7.13739 15 6.70833 14.5523 6.70833 14C6.70833 13.4477 7.13739 13 7.66667 13C8.19594 13 8.625 13.4477 8.625 14C8.625 14.5523 8.19594 15 7.66667 15Z" fill="#777E91"/>
</svg>
