<svg width="24" height="24" viewBox="0 0 24 24" fill="none" xmlns="http://www.w3.org/2000/svg">
<path d="M3 3C1.89543 3 1 3.89543 1 5V11C1 12.1046 1.89543 13 3 13C3.55228 13 4 12.5523 4 12V9C4 7.89543 4.89543 7 6 7H18C19.1046 7 20 7.89543 20 9V12C20 12.5523 20.4477 13 21 13C22.1046 13 23 12.1046 23 11V5C23 3.89543 22.1046 3 21 3H3Z" fill="#777E91"/>
<path d="M12 9.5C12 9.22386 11.7761 9 11.5 9H7C6.44772 9 6 9.44772 6 10V18C6 19.6569 7.34315 21 9 21H11.5C11.7761 21 12 20.7761 12 20.5V9.5Z" fill="#777E91"/>
<path d="M14 20.5C14 20.7761 14.2239 21 14.5 21H15C16.6569 21 18 19.6569 18 18V10C18 9.44772 17.5523 9 17 9H14.5C14.2239 9 14 9.22386 14 9.5V20.5Z" fill="#777E91"/>
</svg>
