<svg width="23" height="24" viewBox="0 0 23 24" fill="none" xmlns="http://www.w3.org/2000/svg">
<path d="M3.83301 5H19.1663C19.6956 5 20.1247 5.44772 20.1247 6V10C20.1247 10.5523 19.6956 11 19.1663 11H17.2497C16.7204 11 16.2913 11.4477 16.2913 12C16.2913 12.5523 16.7204 13 17.2497 13H19.1663C20.7542 13 22.0413 11.6569 22.0413 10V6C22.0413 4.34315 20.7542 3 19.1663 3H3.83301C2.24519 3 0.958008 4.34315 0.958008 6V10C0.958008 11.6569 2.24519 13 3.83301 13H5.74967C6.27895 13 6.70801 12.5523 6.70801 12C6.70801 11.4477 6.27895 11 5.74967 11H3.83301C3.30373 11 2.87467 10.5523 2.87467 10V6C2.87467 5.44772 3.30373 5 3.83301 5Z" fill="#777E91"/>
<path fill-rule="evenodd" clip-rule="evenodd" d="M18.2087 8V18C18.2087 19.6569 16.9215 21 15.3337 21H7.66699C6.07917 21 4.79199 19.6569 4.79199 18V8H18.2087ZM13.417 10H16.292V18C16.292 18.5523 15.8629 19 15.3337 19H13.417V10ZM11.5003 19H7.66699C7.13772 19 6.70866 18.5523 6.70866 18V10H11.5003V19Z" fill="#777E91"/>
</svg>
