<svg width="24" height="24" viewBox="0 0 24 24" fill="none" xmlns="http://www.w3.org/2000/svg">
<path fill-rule="evenodd" clip-rule="evenodd" d="M19.0709 4.92897C18.6804 4.53845 18.0472 4.53845 17.6567 4.92897L16.1921 6.39355C15.2759 5.70736 14.1859 5.24051 13 5.07089V3C13 2.44772 12.5523 2 12 2C11.4477 2 11 2.44772 11 3L11 5.07089C9.81407 5.24052 8.72403 5.70741 7.80778 6.39365L6.34304 4.92891C5.95251 4.53839 5.31935 4.53839 4.92882 4.92891C4.5383 5.31944 4.5383 5.9526 4.92882 6.34313L6.39358 7.80788C5.70738 8.72411 5.24052 9.81412 5.07089 11L3 11C2.44772 11 2 11.4477 2 12C2 12.5523 2.44772 13 3 13L5.07089 13C5.24051 14.1859 5.70736 15.2759 6.39355 16.1921L4.92873 17.6569C4.5382 18.0474 4.5382 18.6806 4.92873 19.0711C5.31925 19.4616 5.95242 19.4616 6.34294 19.0711L7.80774 17.6063C8.724 18.2926 9.81405 18.7595 11 18.9291V21C11 21.5523 11.4477 22 12 22C12.5523 22 13 21.5523 13 21V18.9291C14.1859 18.7595 15.2759 18.2926 16.1921 17.6064L17.6568 19.0711C18.0473 19.4616 18.6804 19.4616 19.071 19.0711C19.4615 18.6805 19.4615 18.0474 19.071 17.6568L17.6063 16.1922C18.2926 15.276 18.7595 14.1859 18.9291 13H21C21.5523 13 22 12.5523 22 12C22 11.4477 21.5523 11 21 11H18.9291C18.7595 9.81405 18.2926 8.724 17.6063 7.80774L19.0709 6.34318C19.4614 5.95266 19.4614 5.31949 19.0709 4.92897Z" fill="#777E91"/>
<path d="M15 2C15 1.44772 14.5523 1 14 1L10 1C9.44772 1 9 1.44772 9 2C9 2.55228 9.44772 3 10 3L14 3C14.5523 3 15 2.55228 15 2Z" fill="#777E91"/>
<path d="M2 15C2.55228 15 3 14.5523 3 14L3 10C3 9.44772 2.55229 9 2 9C1.44772 9 1 9.44772 1 10L1 14C1 14.5523 1.44772 15 2 15Z" fill="#777E91"/>
<path d="M22 15C22.5523 15 23 14.5523 23 14V10C23 9.44772 22.5523 9 22 9C21.4477 9 21 9.44771 21 10V14C21 14.5523 21.4477 15 22 15Z" fill="#777E91"/>
<path d="M14 21C14.5523 21 15 21.4477 15 22C15 22.5523 14.5523 23 14 23H10C9.44772 23 9 22.5523 9 22C9 21.4477 9.44772 21 10 21H14Z" fill="#777E91"/>
<path d="M4.22175 7.05026C3.83122 7.44078 3.19806 7.44078 2.80753 7.05026C2.41701 6.65973 2.41701 6.02657 2.80753 5.63604L5.63596 2.80762C6.02648 2.41709 6.65965 2.41709 7.05017 2.80762C7.4407 3.19814 7.4407 3.83131 7.05017 4.22183L4.22175 7.05026Z" fill="#777E91"/>
<path d="M16.9497 21.1924C17.3402 21.5829 17.9734 21.5829 18.3639 21.1924L21.1923 18.364C21.5828 17.9734 21.5828 17.3403 21.1923 16.9498C20.8018 16.5592 20.1686 16.5592 19.7781 16.9498L16.9497 19.7782C16.5591 20.1687 16.5591 20.8019 16.9497 21.1924Z" fill="#777E91"/>
<path d="M7.05014 19.7782C7.44066 20.1687 7.44066 20.8019 7.05014 21.1924C6.65961 21.5829 6.02645 21.5829 5.63592 21.1924L2.8075 18.364C2.41697 17.9735 2.41697 17.3403 2.8075 16.9498C3.19802 16.5592 3.83119 16.5592 4.22171 16.9498L7.05014 19.7782Z" fill="#777E91"/>
<path d="M21.1923 7.05027C21.5828 6.65975 21.5828 6.02658 21.1923 5.63606L18.3638 2.80763C17.9733 2.41711 17.3402 2.41711 16.9496 2.80763C16.5591 3.19816 16.5591 3.83132 16.9496 4.22185L19.7781 7.05027C20.1686 7.4408 20.8017 7.4408 21.1923 7.05027Z" fill="#777E91"/>
</svg>
