<svg width="23" height="24" viewBox="0 0 23 24" fill="none" xmlns="http://www.w3.org/2000/svg">
<path fill-rule="evenodd" clip-rule="evenodd" d="M18.2766 4.92897C17.9023 4.53845 17.2955 4.53845 16.9213 4.92897L15.5177 6.39355C14.6397 5.70736 13.5951 5.24051 12.4587 5.07089V3C12.4587 2.44772 12.0296 2 11.5003 2C10.9711 2 10.542 2.44772 10.542 3L10.542 5.07089C9.40548 5.24052 8.36086 5.70741 7.48278 6.39365L6.07907 4.92891C5.70482 4.53839 5.09803 4.53839 4.72378 4.92891C4.34953 5.31944 4.34953 5.9526 4.72378 6.34313L6.1275 7.80788C5.46989 8.72411 5.02249 9.81412 4.85993 11L2.87533 11C2.34605 11 1.91699 11.4477 1.91699 12C1.91699 12.5523 2.34605 13 2.87533 13L4.85993 13C5.02248 14.1859 5.46988 15.2759 6.12748 16.1921L4.72369 17.6569C4.34944 18.0474 4.34944 18.6806 4.72369 19.0711C5.09794 19.4616 5.70473 19.4616 6.07898 19.0711L7.48274 17.6063C8.36083 18.2926 9.40546 18.7595 10.542 18.9291V21C10.542 21.5523 10.9711 22 11.5003 22C12.0296 22 12.4587 21.5523 12.4587 21V18.9291C13.5951 18.7595 14.6397 18.2926 15.5178 17.6064L16.9214 19.0711C17.2956 19.4616 17.9024 19.4616 18.2767 19.0711C18.6509 18.6805 18.6509 18.0474 18.2767 17.6568L16.8731 16.1922C17.5307 15.276 17.9782 14.1859 18.1407 13H20.1253C20.6546 13 21.0837 12.5523 21.0837 12C21.0837 11.4477 20.6546 11 20.1253 11H18.1407C17.9782 9.81405 17.5307 8.724 16.873 7.80774L18.2766 6.34318C18.6508 5.95266 18.6508 5.31949 18.2766 4.92897ZM11.5003 17C14.1467 17 16.292 14.7614 16.292 12C16.292 9.23858 14.1467 7 11.5003 7C8.85396 7 6.70866 9.23858 6.70866 12C6.70866 14.7614 8.85396 17 11.5003 17Z" fill="#777E91"/>
<path d="M14.3747 2C14.3747 1.44772 13.9456 1 13.4163 1L9.58301 1C9.05373 1 8.62467 1.44772 8.62467 2C8.62467 2.55228 9.05373 3 9.58301 3L13.4163 3C13.9456 3 14.3747 2.55228 14.3747 2Z" fill="#777E91"/>
<path d="M1.91634 15C2.44561 15 2.87467 14.5523 2.87467 14L2.87467 10C2.87467 9.44772 2.44561 9 1.91634 9C1.38707 9 0.958008 9.44772 0.958008 10L0.958008 14C0.958008 14.5523 1.38707 15 1.91634 15Z" fill="#777E91"/>
<path d="M21.083 15C21.6123 15 22.0413 14.5523 22.0413 14V10C22.0413 9.44772 21.6123 9 21.083 9C20.5537 9 20.1247 9.44771 20.1247 10V14C20.1247 14.5523 20.5537 15 21.083 15Z" fill="#777E91"/>
<path d="M13.4163 21C13.9456 21 14.3747 21.4477 14.3747 22C14.3747 22.5523 13.9456 23 13.4163 23H9.58301C9.05373 23 8.62467 22.5523 8.62467 22C8.62467 21.4477 9.05373 21 9.58301 21H13.4163Z" fill="#777E91"/>
<path d="M4.04551 7.05026C3.67126 7.44078 3.06448 7.44078 2.69023 7.05026C2.31597 6.65973 2.31597 6.02657 2.69023 5.63604L5.4008 2.80762C5.77505 2.41709 6.38184 2.41709 6.75609 2.80762C7.13034 3.19814 7.13034 3.83131 6.75609 4.22183L4.04551 7.05026Z" fill="#777E91"/>
<path d="M16.2431 21.1924C16.6174 21.5829 17.2241 21.5829 17.5984 21.1924L20.309 18.364C20.6832 17.9734 20.6832 17.3403 20.309 16.9498C19.9347 16.5592 19.3279 16.5592 18.9537 16.9498L16.2431 19.7782C15.8689 20.1687 15.8689 20.8019 16.2431 21.1924Z" fill="#777E91"/>
<path d="M6.75605 19.7782C7.13031 20.1687 7.13031 20.8019 6.75605 21.1924C6.3818 21.5829 5.77502 21.5829 5.40077 21.1924L2.69019 18.364C2.31594 17.9735 2.31594 17.3403 2.69019 16.9498C3.06444 16.5592 3.67123 16.5592 4.04548 16.9498L6.75605 19.7782Z" fill="#777E91"/>
<path d="M20.3089 7.05027C20.6832 6.65975 20.6832 6.02658 20.3089 5.63606L17.5984 2.80763C17.2241 2.41711 16.6173 2.41711 16.2431 2.80763C15.8688 3.19816 15.8688 3.83132 16.2431 4.22185L18.9536 7.05027C19.3279 7.4408 19.9347 7.4408 20.3089 7.05027Z" fill="#777E91"/>
</svg>
