<svg width="24" height="24" viewBox="0 0 24 24" fill="none" xmlns="http://www.w3.org/2000/svg">
<path fill-rule="evenodd" clip-rule="evenodd" d="M12.0001 2C10.8955 2 10.0001 2.89543 10.0001 4C10.0001 4.14834 9.89944 4.27718 9.75703 4.3187C9.19521 4.48248 8.65895 4.70622 8.15564 4.98253C8.02525 5.05412 7.86254 5.03411 7.75736 4.92893C6.97631 4.14788 5.70998 4.14788 4.92893 4.92893C4.14788 5.70998 4.14788 6.97631 4.92893 7.75736C5.03411 7.86254 5.05412 8.02525 4.98253 8.15564C4.70623 8.65893 4.4825 9.19516 4.31872 9.75695C4.2772 9.89937 4.14835 10 4 10C2.89543 10 2 10.8954 2 12C2 13.1046 2.89543 14 4 14C4.14835 14 4.2772 14.1006 4.31872 14.2431C4.4825 14.8048 4.70623 15.3411 4.98253 15.8444C5.05412 15.9747 5.03411 16.1375 4.92893 16.2426C4.14788 17.0237 4.14788 18.29 4.92893 19.0711C5.70998 19.8521 6.97631 19.8521 7.75736 19.0711C7.86254 18.9659 8.02525 18.9459 8.15564 19.0175C8.65895 19.2938 9.19521 19.5175 9.75703 19.6813C9.89944 19.7228 10.0001 19.8517 10.0001 20C10.0001 21.1046 10.8955 22 12.0001 22C13.1046 22 14.0001 21.1046 14.0001 20C14.0001 19.8516 14.1007 19.7228 14.2431 19.6813C14.8049 19.5175 15.3411 19.2938 15.8444 19.0175C15.9747 18.9459 16.1375 18.9659 16.2426 19.0711C17.0237 19.8521 18.29 19.8521 19.0711 19.0711C19.8521 18.29 19.8521 17.0237 19.0711 16.2426C18.9659 16.1375 18.9459 15.9747 19.0175 15.8444C19.2938 15.3411 19.5175 14.8048 19.6813 14.2431C19.7228 14.1006 19.8517 14 20 14C21.1046 14 22 13.1046 22 12C22 10.8954 21.1046 10 20 10C19.8517 10 19.7228 9.89937 19.6813 9.75695C19.5175 9.19516 19.2938 8.65893 19.0175 8.15564C18.9459 8.02525 18.9659 7.86254 19.0711 7.75736C19.8521 6.97631 19.8521 5.70998 19.0711 4.92893C18.29 4.14788 17.0237 4.14788 16.2426 4.92893C16.1375 5.03411 15.9748 5.05412 15.8444 4.98253C15.3411 4.70625 14.8049 4.48252 14.2431 4.31875C14.1007 4.27722 14.0001 4.14836 14.0001 4C14.0001 2.89543 13.1046 2 12.0001 2ZM12.0001 15C13.657 15 15.0001 13.6569 15.0001 12C15.0001 10.3431 13.657 9 12.0001 9C10.3433 9 9.00012 10.3431 9.00012 12C9.00012 13.6569 10.3433 15 12.0001 15Z" fill="#777E91"/>
</svg>
