<svg width="23" height="24" viewBox="0 0 23 24" fill="none" xmlns="http://www.w3.org/2000/svg">
<path fill-rule="evenodd" clip-rule="evenodd" d="M19.1186 7.09041C19.1285 6.30932 18.8479 5.52493 18.2768 4.92893C17.7056 4.33293 16.9539 4.04013 16.2053 4.05052C16.2051 4.05053 16.2056 4.05052 16.2053 4.05052C15.7916 4.05639 15.378 4.1549 14.9973 4.34601C14.8608 4.41451 14.7285 4.49489 14.6017 4.58717C14.5528 4.62271 14.49 4.63082 14.435 4.60703C14.38 4.58325 14.341 4.53113 14.3306 4.47002C14.3035 4.3112 14.2644 4.1567 14.2143 4.00759C14.0746 3.59151 13.8495 3.21732 13.5609 2.9079C13.5607 2.90769 13.5611 2.90811 13.5609 2.9079C13.0386 2.34823 12.3081 2 11.5003 2C10.6926 2 9.96263 2.3476 9.44036 2.90727C9.44017 2.90748 9.44056 2.90706 9.44036 2.90727C9.15179 3.21669 8.92608 3.59151 8.78636 4.00759C8.73629 4.1567 8.69718 4.31119 8.67005 4.47001C8.65961 4.53113 8.62062 4.58325 8.56567 4.60702C8.51067 4.63082 8.44782 4.62271 8.39898 4.58717C8.27218 4.49489 8.13984 4.4145 8.00339 4.34601C7.62263 4.15489 7.20988 4.0564 6.79615 4.05053C6.79587 4.05053 6.79643 4.05054 6.79615 4.05053C6.0476 4.04014 5.29505 4.33293 4.72389 4.92893C4.15272 5.52493 3.87212 6.30931 3.88208 7.09041C3.88208 7.09071 3.88207 7.09012 3.88208 7.09041C3.8877 7.52213 3.9821 7.95371 4.16525 8.35101C4.23089 8.4934 4.30793 8.63149 4.39637 8.76381C4.43042 8.81477 4.4382 8.88036 4.41539 8.93775C4.3926 8.99509 4.34265 9.03578 4.28409 9.04667C4.13188 9.07498 3.98382 9.11579 3.84092 9.16804C3.44218 9.31384 3.08359 9.54874 2.78706 9.84986C2.78686 9.85006 2.78727 9.84965 2.78706 9.84986C2.25072 10.3948 1.91699 11.1571 1.91699 12C1.91699 12.8429 2.25011 13.6046 2.78646 14.1495C2.78666 14.1497 2.78626 14.1493 2.78646 14.1495C3.08298 14.4506 3.44218 14.6862 3.84091 14.832C3.98382 14.8842 4.13188 14.925 4.28409 14.9533C4.34265 14.9642 4.3926 15.0049 4.41539 15.0623C4.4382 15.1196 4.43042 15.1852 4.39637 15.2362C4.30793 15.3685 4.23089 15.5066 4.16525 15.649C3.9821 16.0463 3.88771 16.477 3.88209 16.9087C3.88208 16.909 3.88209 16.9084 3.88209 16.9087C3.87213 17.6898 4.15272 18.4751 4.72389 19.0711C5.29505 19.6671 6.04675 19.9599 6.79531 19.9495C6.79559 19.9495 6.79502 19.9495 6.79531 19.9495C7.20903 19.9436 7.62262 19.8451 8.00336 19.654C8.13982 19.5855 8.27217 19.5051 8.39898 19.4128C8.44781 19.3773 8.51067 19.3692 8.56566 19.393C8.62062 19.4168 8.65961 19.4689 8.67005 19.53C8.69718 19.6888 8.73629 19.8433 8.78637 19.9924C8.92609 20.4085 9.15121 20.7827 9.43977 21.0921C9.43997 21.0923 9.43958 21.0919 9.43977 21.0921C9.96204 21.6518 10.6926 22 11.5003 22C12.3081 22 13.038 21.6524 13.5603 21.0927C13.5605 21.0925 13.5601 21.0929 13.5603 21.0927C13.8489 20.7833 14.0746 20.4085 14.2143 19.9924C14.2644 19.8433 14.3035 19.6888 14.3306 19.53C14.341 19.4689 14.38 19.4168 14.435 19.393C14.49 19.3692 14.5528 19.3773 14.6017 19.4128C14.7285 19.5051 14.8608 19.5855 14.9973 19.654C15.378 19.8451 15.7908 19.9436 16.2045 19.9495C16.2048 19.9495 16.2042 19.9495 16.2045 19.9495C16.9531 19.9599 17.7056 19.6671 18.2768 19.0711C18.8479 18.4751 19.1285 17.6907 19.1186 16.9096C19.1186 16.9093 19.1186 16.9099 19.1186 16.9096C19.113 16.4779 19.0186 16.0463 18.8354 15.649C18.7698 15.5066 18.6927 15.3685 18.6043 15.2362C18.5702 15.1852 18.5625 15.1196 18.5853 15.0623C18.6081 15.0049 18.658 14.9642 18.7166 14.9533C18.8688 14.925 19.0168 14.8842 19.1597 14.832C19.5585 14.6862 19.9171 14.4513 20.2136 14.1501C20.2138 14.1499 20.2134 14.1503 20.2136 14.1501C20.7499 13.6052 21.0837 12.8429 21.0837 12C21.0837 11.1571 20.7505 10.3954 20.2142 9.85047C20.214 9.85027 20.2144 9.85068 20.2142 9.85047C19.9177 9.54936 19.5585 9.31384 19.1597 9.16804C19.0168 9.11579 18.8688 9.07498 18.7166 9.04667C18.658 9.03578 18.6081 8.99509 18.5853 8.93775C18.5625 8.88036 18.5702 8.81477 18.6043 8.76381C18.6927 8.63149 18.7698 8.49339 18.8354 8.351C19.0186 7.9537 19.113 7.52213 19.1186 7.09041C19.1186 7.09012 19.1186 7.09071 19.1186 7.09041ZM16.9215 6.34315C16.5895 5.99673 16.0707 5.95644 15.6981 6.22762C15.1328 6.63904 14.382 6.74922 13.7008 6.45448C13.0214 6.16051 12.5648 5.52985 12.4437 4.82099C12.364 4.3543 11.9698 4 11.5003 4C11.0308 4 10.6367 4.35429 10.557 4.82099C10.4359 5.52984 9.97923 6.16051 9.29984 6.45448C8.61869 6.74922 7.8679 6.63904 7.30256 6.22761C6.92994 5.95644 6.41116 5.99673 6.07917 6.34314C5.74719 6.68956 5.70858 7.2309 5.96846 7.61972C6.36274 8.20964 6.46832 8.99308 6.18587 9.70384C5.90414 10.4128 5.29975 10.8893 4.62044 11.0156C4.17319 11.0988 3.83366 11.5101 3.83366 12C3.83366 12.4899 4.17319 12.9012 4.62044 12.9844C5.29976 13.1107 5.90415 13.5872 6.18587 14.2962C6.46833 15.0069 6.36274 15.7904 5.96846 16.3803C5.70858 16.7691 5.74719 17.3104 6.07917 17.6569C6.41116 18.0033 6.92993 18.0436 7.30256 17.7724C7.86789 17.361 8.61868 17.2508 9.29984 17.5455C9.97922 17.8395 10.4359 18.4702 10.557 19.179C10.6367 19.6457 11.0308 20 11.5003 20C11.9698 20 12.364 19.6457 12.4437 19.179C12.5648 18.4702 13.0214 17.8395 13.7008 17.5455C14.382 17.2508 15.1328 17.361 15.6981 17.7724C16.0707 18.0436 16.5895 18.0033 16.9215 17.6569C17.2535 17.3104 17.2921 16.7691 17.0322 16.3803C16.6379 15.7904 16.5323 15.0069 16.8148 14.2962C17.0965 13.5872 17.7009 13.1107 18.3802 12.9844C18.8275 12.9012 19.167 12.4899 19.167 12C19.167 11.5101 18.8275 11.0988 18.3802 11.0156C17.7009 10.8893 17.0965 10.4128 16.8148 9.70384C16.5323 8.99307 16.6379 8.20963 17.0322 7.61972C17.2921 7.2309 17.2535 6.68957 16.9215 6.34315Z" fill="#777E91"/>
<path fill-rule="evenodd" clip-rule="evenodd" d="M11.5003 14C12.5589 14 13.417 13.1046 13.417 12C13.417 10.8954 12.5589 10 11.5003 10C10.4418 10 9.58366 10.8954 9.58366 12C9.58366 13.1046 10.4418 14 11.5003 14ZM11.5003 16C13.6174 16 15.3337 14.2091 15.3337 12C15.3337 9.79086 13.6174 8 11.5003 8C9.38323 8 7.66699 9.79086 7.66699 12C7.66699 14.2091 9.38323 16 11.5003 16Z" fill="#777E91"/>
</svg>
