<svg width="23" height="24" viewBox="0 0 23 24" fill="none" xmlns="http://www.w3.org/2000/svg">
<path fill-rule="evenodd" clip-rule="evenodd" d="M19.1663 17.5C19.1663 17.0478 19.1064 16.4089 19.0191 15.7438C18.9814 15.4566 18.7899 15.2773 18.5387 15.2546C17.1735 15.1315 14.9158 15 11.4997 15C8.08357 15 5.82582 15.1315 4.46067 15.2546C4.20945 15.2773 4.0179 15.4566 3.9802 15.7438C3.89291 16.4089 3.83301 17.0478 3.83301 17.5C3.83301 17.9522 3.89291 18.5911 3.9802 19.2562C4.0179 19.5434 4.20945 19.7227 4.46067 19.7454C5.82582 19.8685 8.08357 20 11.4997 20C14.9158 20 17.1735 19.8685 18.5387 19.7454C18.7899 19.7227 18.9814 19.5434 19.0191 19.2562C19.1064 18.5911 19.1663 17.9522 19.1663 17.5ZM20.9181 15.4724C20.7606 14.2725 19.8601 13.3664 18.7038 13.2621C17.2755 13.1332 14.962 13 11.4997 13C8.03736 13 5.72381 13.1332 4.29553 13.2621C3.1392 13.3664 2.23875 14.2725 2.08126 15.4724C1.99094 16.1606 1.91634 16.9082 1.91634 17.5C1.91634 18.0918 1.99094 18.8394 2.08126 19.5276C2.23875 20.7275 3.1392 21.6336 4.29552 21.7379C5.72381 21.8668 8.03736 22 11.4997 22C14.962 22 17.2755 21.8668 18.7038 21.7379C19.8601 21.6336 20.7606 20.7275 20.9181 19.5276C21.0084 18.8394 21.083 18.0918 21.083 17.5C21.083 16.9082 21.0084 16.1606 20.9181 15.4724Z" fill="#777E91"/>
<path fill-rule="evenodd" clip-rule="evenodd" d="M19.1663 6.5C19.1663 6.04782 19.1064 5.40893 19.0191 4.74381C18.9814 4.45659 18.7899 4.27732 18.5387 4.25465C17.1735 4.13145 14.9158 4 11.4997 4C8.08357 4 5.82582 4.13145 4.46067 4.25465C4.20945 4.27732 4.0179 4.45659 3.9802 4.74381C3.89291 5.40892 3.83301 6.04782 3.83301 6.5C3.83301 6.95218 3.89291 7.59107 3.9802 8.25619C4.0179 8.54341 4.20945 8.72268 4.46067 8.74535C5.82582 8.86855 8.08357 9 11.4997 9C14.9158 9 17.1735 8.86855 18.5387 8.74535C18.7899 8.72268 18.9814 8.54341 19.0191 8.25619C19.1064 7.59107 19.1663 6.95218 19.1663 6.5ZM20.9181 4.47244C20.7606 3.27253 19.8601 2.36644 18.7038 2.26209C17.2755 2.13319 14.962 2 11.4997 2C8.03736 2 5.72381 2.13319 4.29553 2.26209C3.1392 2.36644 2.23875 3.27253 2.08126 4.47244C1.99094 5.16064 1.91634 5.90816 1.91634 6.5C1.91634 7.09184 1.99094 7.83935 2.08126 8.52756C2.23875 9.72747 3.1392 10.6336 4.29552 10.7379C5.72381 10.8668 8.03736 11 11.4997 11C14.962 11 17.2755 10.8668 18.7038 10.7379C19.8601 10.6336 20.7606 9.72747 20.9181 8.52756C21.0084 7.83935 21.083 7.09184 21.083 6.5C21.083 5.90816 21.0084 5.16065 20.9181 4.47244Z" fill="#777E91"/>
</svg>
