<svg width="23" height="24" viewBox="0 0 23 24" fill="none" xmlns="http://www.w3.org/2000/svg">
<path fill-rule="evenodd" clip-rule="evenodd" d="M2.19768 13.2929C2.57193 12.9024 3.17872 12.9024 3.55297 13.2929L6.70866 16.5858C7.08291 16.9763 7.08291 17.6095 6.70866 18C6.33441 18.3905 5.72762 18.3905 5.35337 18L2.19768 14.7071C1.82343 14.3166 1.82343 13.6834 2.19768 13.2929Z" fill="#777E91"/>
<path d="M20.8289 5.67829C21.1879 5.27246 21.1637 4.63981 20.7747 4.2652C20.3858 3.8906 19.7795 3.9159 19.4205 4.32172L8.57056 16.5869C8.21156 16.9927 8.23581 17.6254 8.62473 18C9.01364 18.3746 9.61994 18.3493 9.97893 17.9435L16.5941 10.4654C16.7787 10.2568 17.0926 10.2502 17.285 10.451L18.4888 11.7071C18.8631 12.0976 19.4698 12.0976 19.8441 11.7071C20.2183 11.3166 20.2183 10.6834 19.8441 10.2929L18.559 8.95195C18.3772 8.76219 18.3713 8.45645 18.5457 8.25926L20.8289 5.67829Z" fill="#777E91"/>
<path fill-rule="evenodd" clip-rule="evenodd" d="M5.63363 12.8787L3.94949 11.1214C2.82673 9.94979 2.82673 8.05029 3.94949 6.87872L7.55029 3.12135C8.67305 1.94978 10.4934 1.94978 11.6162 3.12136L13.3003 4.87871C14.423 6.05029 14.423 7.94978 13.3003 9.12136L9.69949 12.8787C8.57673 14.0503 6.75638 14.0503 5.63363 12.8787ZM5.30478 9.70714L6.98891 11.4645C7.36317 11.855 7.96995 11.855 8.3442 11.4645L11.945 7.70714C12.3193 7.31662 12.3193 6.68345 11.945 6.29293L10.2609 4.53557C9.88661 4.14504 9.27983 4.14505 8.90558 4.53557L5.30478 8.29293C4.93053 8.68345 4.93053 9.31662 5.30478 9.70714Z" fill="#777E91"/>
<path fill-rule="evenodd" clip-rule="evenodd" d="M7.66699 20C8.19627 20 8.62533 19.5523 8.62533 19C8.62533 18.4477 8.19627 18 7.66699 18C7.13772 18 6.70866 18.4477 6.70866 19C6.70866 19.5523 7.13772 20 7.66699 20ZM7.66699 22C9.25481 22 10.542 20.6569 10.542 19C10.542 17.3431 9.25481 16 7.66699 16C6.07917 16 4.79199 17.3431 4.79199 19C4.79199 20.6569 6.07917 22 7.66699 22Z" fill="#777E91"/>
</svg>
