<svg width="24" height="24" viewBox="0 0 24 24" fill="none" xmlns="http://www.w3.org/2000/svg">
<path fill-rule="evenodd" clip-rule="evenodd" d="M9.70711 14.2929C10.0976 14.6834 10.0976 15.3166 9.70711 15.7071L3.70711 21.7071C3.31658 22.0976 2.68342 22.0976 2.29289 21.7071C1.90237 21.3166 1.90237 20.6834 2.29289 20.2929L8.29289 14.2929C8.68342 13.9024 9.31658 13.9024 9.70711 14.2929Z" fill="#777E91"/>
<path fill-rule="evenodd" clip-rule="evenodd" d="M16.4998 13C19.5373 13 21.9998 10.5376 21.9998 7.5C21.9998 4.46243 19.5373 2 16.4998 2C13.4622 2 10.9998 4.46243 10.9998 7.5C10.9998 7.90102 11.0427 8.29202 11.1242 8.66865C11.1853 8.95122 11.0248 9.24375 10.7443 9.31387L9.71321 9.57164C8.95913 9.76016 8.69901 10.6993 9.24864 11.2489L12.7509 14.7511C13.3005 15.3007 14.2396 15.0406 14.4281 14.2865L14.6859 13.2555C14.756 12.975 15.0485 12.8144 15.3311 12.8756C15.7077 12.9571 16.0987 13 16.4998 13Z" fill="#777E91"/>
</svg>
