<svg width="24" height="24" viewBox="0 0 24 24" fill="none" xmlns="http://www.w3.org/2000/svg">
<path fill-rule="evenodd" clip-rule="evenodd" d="M10.2071 13.7929C10.5976 14.1834 10.5976 14.8166 10.2071 15.2071L3.70711 21.7071C3.31658 22.0976 2.68342 22.0976 2.29289 21.7071C1.90237 21.3166 1.90237 20.6834 2.29289 20.2929L8.79289 13.7929C9.18342 13.4024 9.81658 13.4024 10.2071 13.7929Z" fill="#777E91"/>
<path fill-rule="evenodd" clip-rule="evenodd" d="M22.0002 8C22.0002 11.3137 19.314 14 16.0002 14C15.5929 14 15.1951 13.9594 14.8106 13.8821L14.613 14.6723C14.1417 16.5576 11.794 17.2078 10.4199 15.8338L8.16653 13.5804C6.79246 12.2064 7.44274 9.85861 9.32796 9.3873L10.1182 9.18975C10.0408 8.80519 10.0002 8.40734 10.0002 8C10.0002 4.68629 12.6865 2 16.0002 2C19.314 2 22.0002 4.68629 22.0002 8ZM20.0002 8C20.0002 10.2091 18.2094 12 16.0002 12C13.7911 12 12.0002 10.2091 12.0002 8C12.0002 5.79086 13.7911 4 16.0002 4C18.2094 4 20.0002 5.79086 20.0002 8ZM10.844 11.0699L9.81303 11.3276C9.43599 11.4218 9.30593 11.8914 9.58075 12.1662L11.8341 14.4196C12.1089 14.6944 12.5785 14.5643 12.6727 14.1873L12.9305 13.1563C12.0737 12.6452 11.3551 11.9266 10.844 11.0699Z" fill="#777E91"/>
</svg>
