<svg width="24" height="24" viewBox="0 0 24 24" fill="none" xmlns="http://www.w3.org/2000/svg">
<path d="M4 4C4 2.34315 5.34315 1 7 1H10.3636C10.7151 1 11 1.28491 11 1.63636V6.36364C11 6.71509 10.7151 7 10.3636 7H7C5.34315 7 4 5.65685 4 4Z" fill="#777E91"/>
<path d="M4 12C4 10.3431 5.34315 9 7 9H10.3636C10.7151 9 11 9.28491 11 9.63636V14.3636C11 14.7151 10.7151 15 10.3636 15H7C5.34315 15 4 13.6569 4 12Z" fill="#777E91"/>
<path d="M13 1.63636C13 1.28491 13.2849 1 13.6364 1H17C18.6569 1 20 2.34315 20 4C20 5.65685 18.6569 7 17 7H13.6364C13.2849 7 13 6.71509 13 6.36364V1.63636Z" fill="#777E91"/>
<path d="M13 12C13 10.3431 14.3431 9 16 9C17.6569 9 19 10.3431 19 12C19 13.6569 17.6569 15 16 15C14.3431 15 13 13.6569 13 12Z" fill="#777E91"/>
<path d="M4 20.5C4 18.567 5.567 17 7.5 17H10.3636C10.7151 17 11 17.2849 11 17.6364V20.5C11 22.433 9.433 24 7.5 24C5.567 24 4 22.433 4 20.5Z" fill="#777E91"/>
</svg>
