<svg width="23" height="24" viewBox="0 0 23 24" fill="none" xmlns="http://www.w3.org/2000/svg">
<path fill-rule="evenodd" clip-rule="evenodd" d="M12.458 18.5C12.458 20.9853 10.5273 23 8.14551 23C5.76378 23 3.83301 20.9853 3.83301 18.5C3.83301 17.0864 4.45768 15.825 5.43471 15C4.45768 14.175 3.83301 12.9136 3.83301 11.5C3.83301 10.0864 4.45768 8.82498 5.43471 8C4.45768 7.17502 3.83301 5.91363 3.83301 4.5C3.83301 2.01472 5.76378 0 8.14551 0H14.8538C17.2356 0 19.1663 2.01472 19.1663 4.5C19.1663 5.91363 18.5417 7.17502 17.5647 8C18.5417 8.82498 19.1663 10.0864 19.1663 11.5C19.1663 13.9853 17.2356 16 14.8538 16C13.9673 16 13.1432 15.7209 12.458 15.2422V18.5ZM10.5413 2H8.14551C6.82233 2 5.74967 3.11929 5.74967 4.5C5.74967 5.88071 6.82233 7 8.14551 7H10.5413V2ZM8.14551 14H10.5413V9H8.14551C6.82233 9 5.74967 10.1193 5.74967 11.5C5.74967 12.8807 6.82233 14 8.14551 14ZM8.14551 16C6.82233 16 5.74967 17.1193 5.74967 18.5C5.74967 19.8807 6.82233 21 8.14551 21C9.46869 21 10.5413 19.8807 10.5413 18.5V16H8.14551ZM17.2497 11.5C17.2497 10.1193 16.177 9 14.8538 9C13.5307 9 12.458 10.1193 12.458 11.5C12.458 12.8807 13.5307 14 14.8538 14C16.177 14 17.2497 12.8807 17.2497 11.5ZM12.458 7H14.8538C16.177 7 17.2497 5.88071 17.2497 4.5C17.2497 3.11929 16.177 2 14.8538 2H12.458V7Z" fill="#777E91"/>
</svg>
