<svg width="24" height="24" viewBox="0 0 24 24" fill="none" xmlns="http://www.w3.org/2000/svg">
<path fill-rule="evenodd" clip-rule="evenodd" d="M17 2H7C6.44772 2 6 2.44772 6 3V21C6 21.5523 6.44772 22 7 22H17C17.5523 22 18 21.5523 18 21V3C18 2.44772 17.5523 2 17 2ZM7 0C5.34315 0 4 1.34315 4 3V21C4 22.6569 5.34315 24 7 24H17C18.6569 24 20 22.6569 20 21V3C20 1.34315 18.6569 0 17 0H7Z" fill="#777E91"/>
<path d="M13 19C13 19.5523 12.5523 20 12 20C11.4477 20 11 19.5523 11 19C11 18.4477 11.4477 18 12 18C12.5523 18 13 18.4477 13 19Z" fill="#777E91"/>
</svg>
