<svg width="24" height="24" viewBox="0 0 24 24" fill="none" xmlns="http://www.w3.org/2000/svg">
<path d="M7 21C7 20.4477 7.44772 20 8 20H16C16.5523 20 17 20.4477 17 21C17 21.5523 16.5523 22 16 22H8C7.44772 22 7 21.5523 7 21Z" fill="#777E91"/>
<path fill-rule="evenodd" clip-rule="evenodd" d="M5 18C3.34315 18 2 16.6569 2 15V5C2 3.34315 3.34315 2 5 2H19C20.6569 2 22 3.34315 22 5V15C22 16.6569 20.6569 18 19 18L5 18ZM6 7C6 6.44771 6.44772 6 7 6H14C14.5523 6 15 6.44771 15 7C15 7.55228 14.5523 8 14 8H7C6.44772 8 6 7.55228 6 7ZM7 10C6.44772 10 6 10.4477 6 11C6 11.5523 6.44772 12 7 12H9C9.55229 12 10 11.5523 10 11C10 10.4477 9.55229 10 9 10H7Z" fill="#777E91"/>
</svg>
