<svg width="23" height="24" viewBox="0 0 23 24" fill="none" xmlns="http://www.w3.org/2000/svg">
<path d="M8.62467 18H10.5413V20H12.458V18H14.3747V20H15.333C15.8623 20 16.2913 20.4477 16.2913 21C16.2913 21.5523 15.8623 22 15.333 22H7.66634C7.13707 22 6.70801 21.5523 6.70801 21C6.70801 20.4477 7.13707 20 7.66634 20H8.62467V18Z" fill="#777E91"/>
<path fill-rule="evenodd" clip-rule="evenodd" d="M3.83366 6L3.83366 14C3.83366 15.1046 4.69178 16 5.75033 16L17.2503 16C18.3089 16 19.167 15.1046 19.167 14L19.167 6C19.167 4.89543 18.3089 4 17.2503 4L5.75033 4C4.69178 4 3.83366 4.89543 3.83366 6ZM1.91699 14C1.91699 16.2091 3.63323 18 5.75033 18L17.2503 18C19.3674 18 21.0837 16.2091 21.0837 14L21.0837 6C21.0837 3.79086 19.3674 2 17.2503 2L5.75033 2C3.63323 2 1.91699 3.79086 1.91699 6L1.91699 14Z" fill="#777E91"/>
<path d="M6.70833 6C6.17906 6 5.75 6.44772 5.75 7C5.75 7.55228 6.17906 8 6.70833 8H13.4167C13.9459 8 14.375 7.55228 14.375 7C14.375 6.44772 13.9459 6 13.4167 6H6.70833Z" fill="#777E91"/>
<path d="M6.70833 10C6.17906 10 5.75 10.4477 5.75 11C5.75 11.5523 6.17906 12 6.70833 12H8.625C9.15427 12 9.58333 11.5523 9.58333 11C9.58333 10.4477 9.15427 10 8.625 10H6.70833Z" fill="#777E91"/>
</svg>
