<svg width="24" height="24" viewBox="0 0 24 24" fill="none" xmlns="http://www.w3.org/2000/svg">
<path d="M0 7C0 5.34315 1.34315 4 3 4H10.5C10.7761 4 11 4.22386 11 4.5V7.73841C11 7.96655 10.8442 8.16268 10.6298 8.24083C9.09552 8.8002 8 10.2722 8 12C8 13.7278 9.09552 15.1998 10.6298 15.7592C10.8442 15.8373 11 16.0334 11 16.2616V19.5C11 19.7761 10.7761 20 10.5 20H3C1.34315 20 0 18.6569 0 17V16.5C0 16.2239 0.223858 16 0.5 16H2C3.65685 16 5 14.6569 5 13V11C5 9.34315 3.65685 8 2 8H0.5C0.223858 8 0 7.77614 0 7.5V7Z" fill="#777E91"/>
<path d="M0.5 10C0.223858 10 0 10.2239 0 10.5V13.5C0 13.7761 0.223858 14 0.5 14H2C2.55228 14 3 13.5523 3 13V11C3 10.4477 2.55228 10 2 10H0.5Z" fill="#777E91"/>
<path d="M13.3702 8.24083C13.1558 8.16268 13 7.96655 13 7.73841V4.5C13 4.22386 13.2239 4 13.5 4H21C22.6569 4 24 5.34315 24 7V7.5C24 7.77614 23.7761 8 23.5 8H22C20.3431 8 19 9.34315 19 11V13C19 14.6569 20.3431 16 22 16H23.5C23.7761 16 24 16.2239 24 16.5V17C24 18.6569 22.6569 20 21 20H13.5C13.2239 20 13 19.7761 13 19.5V16.2616C13 16.0334 13.1558 15.8373 13.3702 15.7592C14.9045 15.1998 16 13.7278 16 12C16 10.2722 14.9045 8.8002 13.3702 8.24083Z" fill="#777E91"/>
<path d="M23.5 14C23.7761 14 24 13.7761 24 13.5V10.5C24 10.2239 23.7761 10 23.5 10H22C21.4477 10 21 10.4477 21 11V13C21 13.5523 21.4477 14 22 14H23.5Z" fill="#777E91"/>
<path d="M12 14C13.1046 14 14 13.1046 14 12C14 10.8954 13.1046 10 12 10C10.8954 10 10 10.8954 10 12C10 13.1046 10.8954 14 12 14Z" fill="#777E91"/>
</svg>
