<svg width="23" height="24" viewBox="0 0 23 24" fill="none" xmlns="http://www.w3.org/2000/svg">
<path fill-rule="evenodd" clip-rule="evenodd" d="M19.1667 6H3.83333C2.77479 6 1.91667 6.89543 1.91667 8V16C1.91667 17.1046 2.77479 18 3.83333 18H19.1667C20.2252 18 21.0833 17.1046 21.0833 16V8C21.0833 6.89543 20.2252 6 19.1667 6ZM3.83333 4C1.71624 4 0 5.79086 0 8V16C0 18.2091 1.71624 20 3.83333 20H19.1667C21.2838 20 23 18.2091 23 16V8C23 5.79086 21.2838 4 19.1667 4H3.83333Z" fill="#777E91"/>
<path fill-rule="evenodd" clip-rule="evenodd" d="M10.542 4H12.4587V8.12602C14.112 8.57006 15.3337 10.1362 15.3337 12C15.3337 13.8638 14.112 15.4299 12.4587 15.874V20H10.542V15.874C8.88865 15.4299 7.66699 13.8638 7.66699 12C7.66699 10.1362 8.88865 8.57006 10.542 8.12602V4ZM11.5003 14C12.5589 14 13.417 13.1046 13.417 12C13.417 10.8954 12.5589 10 11.5003 10C10.4418 10 9.58366 10.8954 9.58366 12C9.58366 13.1046 10.4418 14 11.5003 14Z" fill="#777E91"/>
<path fill-rule="evenodd" clip-rule="evenodd" d="M0 16V8H2.875C4.46282 8 5.75 9.34315 5.75 11V13C5.75 14.6569 4.46282 16 2.875 16H0ZM1.91667 10H2.875C3.40427 10 3.83333 10.4477 3.83333 11V13C3.83333 13.5523 3.40427 14 2.875 14H1.91667V10Z" fill="#777E91"/>
<path fill-rule="evenodd" clip-rule="evenodd" d="M23 16V8H20.125C18.5372 8 17.25 9.34315 17.25 11V13C17.25 14.6569 18.5372 16 20.125 16H23ZM21.0833 10H20.125C19.5957 10 19.1667 10.4477 19.1667 11V13C19.1667 13.5523 19.5957 14 20.125 14H21.0833V10Z" fill="#777E91"/>
</svg>
