<svg width="23" height="24" viewBox="0 0 23 24" fill="none" xmlns="http://www.w3.org/2000/svg">
<path fill-rule="evenodd" clip-rule="evenodd" d="M13.4167 13.6972C13.4167 13.4998 13.4727 13.3068 13.5777 13.1425L18.4254 5.5547C18.85 4.89015 18.3935 4 17.6281 4H5.37202C4.6066 4 4.15006 4.89015 4.57464 5.5547L9.42242 13.1425C9.52737 13.3068 9.58337 13.4998 9.58337 13.6972V19.5873C9.58337 20.3727 10.4113 20.8515 11.0496 20.4353L12.9663 19.1853C13.2465 19.0025 13.4167 18.682 13.4167 18.3373V13.6972ZM15.3334 14.3028C15.3334 14.1054 15.3894 13.9123 15.4943 13.7481L20.0202 6.6641C21.2939 4.67044 19.9243 2 17.6281 2H5.37202C3.07577 2 1.70615 4.67043 2.97988 6.6641L7.50575 13.7481C7.6107 13.9123 7.6667 14.1054 7.6667 14.3028V19.5873C7.6667 21.9436 10.1506 23.3801 12.0655 22.1313L13.9821 20.8813C14.8227 20.333 15.3334 19.3716 15.3334 18.3373V14.3028Z" fill="#777E91"/>
</svg>
