<svg width="24" height="24" viewBox="0 0 24 24" fill="none" xmlns="http://www.w3.org/2000/svg">
<path d="M2 9C2.55228 9 3 9.44772 3 10V20C3 20.5523 2.55228 21 2 21C1.44772 21 1 20.5523 1 20V10C1 9.44772 1.44772 9 2 9Z" fill="#777E91"/>
<path d="M22 9C21.4477 9 21 9.44772 21 10V20C21 20.5523 21.4477 21 22 21C22.5523 21 23 20.5523 23 20V10C23 9.44772 22.5523 9 22 9Z" fill="#777E91"/>
<path fill-rule="evenodd" clip-rule="evenodd" d="M5 6C5 4.34315 6.34315 3 8 3H16C17.6569 3 19 4.34315 19 6V20C19 20.5523 18.5523 21 18 21H14V17C14 16.4477 13.5523 16 13 16H11C10.4477 16 10 16.4477 10 17V21H6C5.44772 21 5 20.5523 5 20V6ZM12 6C11.4477 6 11 6.44772 11 7V8H10C9.44772 8 9 8.44771 9 9C9 9.55228 9.44771 10 10 10H11V11C11 11.5523 11.4477 12 12 12C12.5523 12 13 11.5523 13 11V10H14C14.5523 10 15 9.55229 15 9C15 8.44772 14.5523 8 14 8H13V7C13 6.44772 12.5523 6 12 6Z" fill="#777E91"/>
</svg>
