<svg width="23" height="24" viewBox="0 0 23 24" fill="none" xmlns="http://www.w3.org/2000/svg">
<path fill-rule="evenodd" clip-rule="evenodd" d="M4.79134 9V6C4.79134 4.34315 6.07852 3 7.66634 3H15.333C16.9208 3 18.208 4.34315 18.208 6V9H19.1663C20.7542 9 22.0413 10.3431 22.0413 12V18C22.0413 19.6569 20.7542 21 19.1663 21H3.83301C2.24519 21 0.958008 19.6569 0.958008 18V12C0.958008 10.3431 2.24519 9 3.83301 9H4.79134ZM7.66634 5H15.333C15.8623 5 16.2913 5.44772 16.2913 6V19H6.70801V6C6.70801 5.44772 7.13707 5 7.66634 5ZM4.79134 11H3.83301C3.30373 11 2.87467 11.4477 2.87467 12V18C2.87467 18.5523 3.30373 19 3.83301 19H4.79134V11ZM18.208 19H19.1663C19.6956 19 20.1247 18.5523 20.1247 18V12C20.1247 11.4477 19.6956 11 19.1663 11H18.208V19Z" fill="#777E91"/>
<path d="M9.58301 17C9.58301 16.4477 10.0121 16 10.5413 16H12.458C12.9873 16 13.4163 16.4477 13.4163 17V21H9.58301V17Z" fill="#777E91"/>
<path d="M11.5 7C10.9707 7 10.5417 7.44772 10.5417 8V9H9.58333C9.05406 9 8.625 9.44771 8.625 10C8.625 10.5523 9.05406 11 9.58333 11H10.5417V12C10.5417 12.5523 10.9707 13 11.5 13C12.0293 13 12.4583 12.5523 12.4583 12V11H13.4167C13.9459 11 14.375 10.5523 14.375 10C14.375 9.44772 13.9459 9 13.4167 9H12.4583V8C12.4583 7.44772 12.0293 7 11.5 7Z" fill="#777E91"/>
</svg>
