<svg width="24" height="24" viewBox="0 0 24 24" fill="none" xmlns="http://www.w3.org/2000/svg">
<path fill-rule="evenodd" clip-rule="evenodd" d="M18 19L6 19C5.44772 19 5 19.4477 5 20C5 20.5523 5.44772 21 6 21L18 21C18.5523 21 19 20.5523 19 20C19 19.4477 18.5523 19 18 19ZM3 20C3 21.6569 4.34315 23 6 23L18 23C19.6569 23 21 21.6569 21 20C21 18.3431 19.6569 17 18 17L6 17C4.34315 17 3 18.3431 3 20Z" fill="#777E91"/>
<path fill-rule="evenodd" clip-rule="evenodd" d="M11.1996 3.4L5.19959 11.4C4.70516 12.0592 5.17554 13 5.99959 13H17.9996C18.8236 13 19.294 12.0592 18.7996 11.4L12.7996 3.4C12.3996 2.86667 11.5996 2.86667 11.1996 3.4ZM3.59959 10.2C2.11631 12.1777 3.52745 15 5.99959 15H17.9996C20.4717 15 21.8829 12.1777 20.3996 10.2L14.3996 2.2C13.1996 0.6 10.7996 0.6 9.59959 2.2L3.59959 10.2Z" fill="#777E91"/>
</svg>
