<svg width="24" height="24" viewBox="0 0 24 24" fill="none" xmlns="http://www.w3.org/2000/svg">
<path fill-rule="evenodd" clip-rule="evenodd" d="M3.23949 13.1961C3.11573 12.5773 3.58902 12 4.22007 12H19.7805C20.4115 12 20.8848 12.5773 20.761 13.1961L19.4826 19.5883C19.2021 20.9906 17.9709 22 16.5409 22H7.45967C6.02963 22 4.79839 20.9906 4.51793 19.5883L3.23949 13.1961ZM13.0003 15C13.0003 14.4477 13.448 14 14.0003 14C14.5526 14 15.0003 14.4477 15.0003 15V19C15.0003 19.5523 14.5526 20 14.0003 20C13.448 20 13.0003 19.5523 13.0003 19V15ZM10.0003 14C9.44801 14 9.00029 14.4477 9.00029 15V19C9.00029 19.5523 9.44801 20 10.0003 20C10.5526 20 11.0003 19.5523 11.0003 19V15C11.0003 14.4477 10.5526 14 10.0003 14Z" fill="#777E91"/>
<path d="M2 9C2 8.44772 2.44772 8 3 8H21C21.5523 8 22 8.44772 22 9C22 9.55228 21.5523 10 21 10H3C2.44772 10 2 9.55228 2 9Z" fill="#777E91"/>
<path d="M10.7071 3.70711C11.0976 3.31658 11.0976 2.68342 10.7071 2.29289C10.3166 1.90237 9.68342 1.90237 9.29289 2.29289L7.29289 4.29289C6.90237 4.68342 6.90237 5.31658 7.29289 5.70711C7.68342 6.09763 8.31658 6.09763 8.70711 5.70711L10.7071 3.70711Z" fill="#777E91"/>
<path d="M13.2929 3.70711C12.9024 3.31658 12.9024 2.68342 13.2929 2.29289C13.6834 1.90237 14.3166 1.90237 14.7071 2.29289L16.7071 4.29289C17.0976 4.68342 17.0976 5.31658 16.7071 5.70711C16.3166 6.09763 15.6834 6.09763 15.2929 5.70711L13.2929 3.70711Z" fill="#777E91"/>
</svg>
