<svg width="23" height="24" viewBox="0 0 23 24" fill="none" xmlns="http://www.w3.org/2000/svg">
<path fill-rule="evenodd" clip-rule="evenodd" d="M5.70333 12C5.40724 12 5.18201 12.2774 5.23069 12.5822L6.14855 18.3288C6.30258 19.2932 7.10219 20 8.03913 20H14.9612C15.8981 20 16.6977 19.2932 16.8517 18.3288L17.7696 12.5822C17.8183 12.2774 17.5931 12 17.297 12H5.70333ZM4.00642 10C3.41423 10 2.96377 10.5549 3.06113 11.1644L4.25796 18.6576C4.56602 20.5863 6.16525 22 8.03913 22H14.9612C16.835 22 18.4343 20.5863 18.7423 18.6576L19.9392 11.1644C20.0365 10.5549 19.5861 10 18.9939 10H4.00642Z" fill="#777E91"/>
<path d="M9.58333 14C9.05406 14 8.625 14.4477 8.625 15V17C8.625 17.5523 9.05406 18 9.58333 18C10.1126 18 10.5417 17.5523 10.5417 17V15C10.5417 14.4477 10.1126 14 9.58333 14Z" fill="#777E91"/>
<path d="M13.4167 14C12.8874 14 12.4583 14.4477 12.4583 15V17C12.4583 17.5523 12.8874 18 13.4167 18C13.9459 18 14.375 17.5523 14.375 17V15C14.375 14.4477 13.9459 14 13.4167 14Z" fill="#777E91"/>
<path d="M10.2613 3.70711C10.6356 3.31658 10.6356 2.68342 10.2613 2.29289C9.88705 1.90237 9.28027 1.90237 8.90602 2.29289L5.07268 6.29289C4.69843 6.68342 4.69843 7.31658 5.07268 7.70711C5.44693 8.09763 6.05372 8.09763 6.42797 7.70711L10.2613 3.70711Z" fill="#777E91"/>
<path d="M12.7393 3.70711C12.3651 3.31658 12.3651 2.68342 12.7393 2.29289C13.1136 1.90237 13.7204 1.90237 14.0946 2.29289L17.928 6.29289C18.3022 6.68342 18.3022 7.31658 17.928 7.70711C17.5537 8.09763 16.9469 8.09763 16.5727 7.70711L12.7393 3.70711Z" fill="#777E91"/>
<path fill-rule="evenodd" clip-rule="evenodd" d="M18.2087 8H4.79199C4.26272 8 3.83366 8.44772 3.83366 9C3.83366 9.55229 4.26272 10 4.79199 10H18.2087C18.7379 10 19.167 9.55228 19.167 9C19.167 8.44771 18.7379 8 18.2087 8ZM4.79199 6C3.20417 6 1.91699 7.34315 1.91699 9C1.91699 10.6569 3.20417 12 4.79199 12H18.2087C19.7965 12 21.0837 10.6569 21.0837 9C21.0837 7.34315 19.7965 6 18.2087 6H4.79199Z" fill="#777E91"/>
</svg>
