<svg width="24" height="24" viewBox="0 0 24 24" fill="none" xmlns="http://www.w3.org/2000/svg">
<path fill-rule="evenodd" clip-rule="evenodd" d="M19 4H5C4.44771 4 4 4.44772 4 5V19C4 19.5523 4.44772 20 5 20H19C19.5523 20 20 19.5523 20 19V5C20 4.44771 19.5523 4 19 4ZM5 2C3.34315 2 2 3.34315 2 5V19C2 20.6569 3.34315 22 5 22H19C20.6569 22 22 20.6569 22 19V5C22 3.34315 20.6569 2 19 2H5Z" fill="#777E91"/>
<path d="M6.29289 12.7071C5.90237 12.3166 5.90237 11.6834 6.29289 11.2929L8.29289 9.29289C8.68342 8.90237 9.31658 8.90237 9.70711 9.29289C10.0976 9.68342 10.0976 10.3166 9.70711 10.7071L9.41421 11H14.5858L14.2929 10.7071C13.9024 10.3166 13.9024 9.68342 14.2929 9.29289C14.6834 8.90237 15.3166 8.90237 15.7071 9.29289L17.7071 11.2929C18.0976 11.6834 18.0976 12.3166 17.7071 12.7071L15.7071 14.7071C15.3166 15.0976 14.6834 15.0976 14.2929 14.7071C13.9024 14.3166 13.9024 13.6834 14.2929 13.2929L14.5858 13H9.41421L9.70711 13.2929C10.0976 13.6834 10.0976 14.3166 9.70711 14.7071C9.31658 15.0976 8.68342 15.0976 8.29289 14.7071L6.29289 12.7071Z" fill="#777E91"/>
</svg>
