<svg width="23" height="24" viewBox="0 0 23 24" fill="none" xmlns="http://www.w3.org/2000/svg">
<path fill-rule="evenodd" clip-rule="evenodd" d="M2.87533 2C2.34605 2 1.91699 2.44772 1.91699 3C1.91699 3.55228 2.34605 4 2.87533 4H3.83366V18C3.83366 20.2091 5.5499 22 7.66699 22H15.3337C17.4508 22 19.167 20.2091 19.167 18V4H20.1253C20.6546 4 21.0837 3.55228 21.0837 3C21.0837 2.44772 20.6546 2 20.1253 2H2.87533ZM17.2503 4H5.75033V18C5.75033 19.1046 6.60845 20 7.66699 20H15.3337C16.3922 20 17.2503 19.1046 17.2503 18V4Z" fill="#777E91"/>
<path d="M12.178 7.29289C11.8037 6.90237 11.1969 6.90237 10.8227 7.29289L7.94768 10.2929C7.57343 10.6834 7.57343 11.3166 7.94768 11.7071C8.32193 12.0976 8.92872 12.0976 9.30297 11.7071L10.542 10.4142V16C10.542 16.5523 10.9711 17 11.5003 17C12.0296 17 12.4587 16.5523 12.4587 16V10.4142L13.6977 11.7071C14.0719 12.0976 14.6787 12.0976 15.053 11.7071C15.4272 11.3166 15.4272 10.6834 15.053 10.2929L12.178 7.29289Z" fill="#777E91"/>
</svg>
