<svg width="23" height="24" viewBox="0 0 23 24" fill="none" xmlns="http://www.w3.org/2000/svg">
<path fill-rule="evenodd" clip-rule="evenodd" d="M2.875 5C2.875 2.79086 4.59124 1 6.70833 1H14.7038C15.7205 1 16.6955 1.42143 17.4144 2.17157L19.0022 3.82843C19.7211 4.57857 20.125 5.59599 20.125 6.65685V19C20.125 21.2091 18.4088 23 16.2917 23H6.70833C4.59124 23 2.875 21.2091 2.875 19V5ZM18.2083 8V19C18.2083 20.1046 17.3502 21 16.2917 21H6.70833C5.64979 21 4.79167 20.1046 4.79167 19V5C4.79167 3.89543 5.64979 3 6.70833 3H13.4167V5C13.4167 6.65685 14.7038 8 16.2917 8H18.2083ZM18.102 6C18.0079 5.7176 17.8534 5.45808 17.647 5.24264L16.0591 3.58579C15.8527 3.37035 15.604 3.20914 15.3333 3.11094V5C15.3333 5.55228 15.7624 6 16.2917 6H18.102Z" fill="#777E91"/>
<path fill-rule="evenodd" clip-rule="evenodd" d="M12.4886 15.4462C11.9179 15.7981 11.2522 16 10.5413 16C8.42425 16 6.70801 14.2091 6.70801 12C6.70801 9.79086 8.42425 8 10.5413 8C12.6584 8 14.3747 9.79086 14.3747 12C14.3747 12.7418 14.1812 13.4365 13.8439 14.032L16.0107 16.293C16.385 16.6835 16.385 17.3167 16.0107 17.7072C15.6365 18.0977 15.0297 18.0977 14.6554 17.7072L12.4886 15.4462ZM12.458 12C12.458 13.1046 11.5999 14 10.5413 14C9.48279 14 8.62467 13.1046 8.62467 12C8.62467 10.8954 9.48279 10 10.5413 10C11.5999 10 12.458 10.8954 12.458 12Z" fill="#777E91"/>
</svg>
