<svg width="24" height="24" viewBox="0 0 24 24" fill="none" xmlns="http://www.w3.org/2000/svg">
<path d="M22 19C22 20.1046 21.1046 21 20 21H4C2.89543 21 2 20.1046 2 19C2 18.4477 2.44772 18 3 18H21C21.5523 18 22 18.4477 22 19Z" fill="#777E91"/>
<path d="M1 15C1 14.4477 1.44772 14 2 14H22C22.5523 14 23 14.4477 23 15C23 15.5523 22.5523 16 22 16H2C1.44772 16 1 15.5523 1 15Z" fill="#777E91"/>
<path fill-rule="evenodd" clip-rule="evenodd" d="M10 3C5.58172 3 2 6.58172 2 11C2 11.5523 2.44772 12 3 12H21C21.5523 12 22 11.5523 22 11C22 6.58172 18.4183 3 14 3H10ZM8 9C8.55228 9 9 8.55228 9 8C9 7.44772 8.55228 7 8 7C7.44772 7 7 7.44772 7 8C7 8.55228 7.44772 9 8 9ZM13 8C13 8.55228 12.5523 9 12 9C11.4477 9 11 8.55228 11 8C11 7.44772 11.4477 7 12 7C12.5523 7 13 7.44772 13 8ZM16 9C16.5523 9 17 8.55228 17 8C17 7.44772 16.5523 7 16 7C15.4477 7 15 7.44772 15 8C15 8.55228 15.4477 9 16 9Z" fill="#777E91"/>
</svg>
