<svg width="24" height="24" viewBox="0 0 24 24" fill="none" xmlns="http://www.w3.org/2000/svg">
<path fill-rule="evenodd" clip-rule="evenodd" d="M2.80385 5C2 6.3923 2 8.26154 2 12C2 15.7385 2 17.6077 2.80385 19C3.33046 19.9121 4.08788 20.6695 5 21.1962C6.3923 22 8.26154 22 12 22C15.7385 22 17.6077 22 19 21.1962C19.9121 20.6695 20.6695 19.9121 21.1962 19C22 17.6077 22 15.7385 22 12C22 8.26154 22 6.3923 21.1962 5C20.6695 4.08788 19.9121 3.33046 19 2.80385C17.6077 2 15.7385 2 12 2C8.26154 2 6.3923 2 5 2.80385C4.08788 3.33046 3.33046 4.08788 2.80385 5ZM7 9C7 8.44772 7.44772 8 8 8H15.8975C16.4498 8 16.8975 8.44772 16.8975 9C16.8975 9.55228 16.4498 10 15.8975 10H8C7.44772 10 7 9.55228 7 9ZM7 15C7 14.4477 7.44772 14 8 14H15.8975C16.4498 14 16.8975 14.4477 16.8975 15C16.8975 15.5523 16.4498 16 15.8975 16H8C7.44772 16 7 15.5523 7 15Z" fill="#777E91"/>
</svg>
