<svg width="23" height="24" viewBox="0 0 23 24" fill="none" xmlns="http://www.w3.org/2000/svg">
<path fill-rule="evenodd" clip-rule="evenodd" d="M1.91699 10C1.91699 6.13401 4.92042 3 8.62533 3H14.3753C18.0802 3 21.0837 6.13401 21.0837 10C21.0837 11.6569 19.7965 13 18.2087 13H4.79199C3.20417 13 1.91699 11.6569 1.91699 10ZM8.62533 5H14.3753C17.0217 5 19.167 7.23858 19.167 10C19.167 10.5523 18.7379 11 18.2087 11H4.79199C4.26272 11 3.83366 10.5523 3.83366 10C3.83366 7.23858 5.97896 5 8.62533 5Z" fill="#777E91"/>
<path fill-rule="evenodd" clip-rule="evenodd" d="M21.0837 18C21.0837 19.6569 19.7965 21 18.2087 21H4.79199C3.20417 21 1.91699 19.6569 1.91699 18C1.91699 16.3431 3.20417 15 4.79199 15H18.2087C19.7965 15 21.0837 16.3431 21.0837 18ZM18.2087 19H4.79199C4.26272 19 3.83366 18.5523 3.83366 18C3.83366 17.4477 4.26272 17 4.79199 17H18.2087C18.7379 17 19.167 17.4477 19.167 18C19.167 18.5523 18.7379 19 18.2087 19Z" fill="#777E91"/>
<path fill-rule="evenodd" clip-rule="evenodd" d="M19.1663 13H3.83301C3.30373 13 2.87467 13.4477 2.87467 14C2.87467 14.5523 3.30373 15 3.83301 15H19.1663C19.6956 15 20.1247 14.5523 20.1247 14C20.1247 13.4477 19.6956 13 19.1663 13ZM3.83301 11C2.24519 11 0.958008 12.3431 0.958008 14C0.958008 15.6569 2.24519 17 3.83301 17H19.1663C20.7542 17 22.0413 15.6569 22.0413 14C22.0413 12.3431 20.7542 11 19.1663 11H3.83301Z" fill="#777E91"/>
<path d="M8.62467 8C8.62467 8.55229 8.19561 9 7.66634 9C7.13707 9 6.70801 8.55229 6.70801 8C6.70801 7.44772 7.13707 7 7.66634 7C8.19561 7 8.62467 7.44772 8.62467 8Z" fill="#777E91"/>
<path d="M12.458 8C12.458 8.55229 12.0289 9 11.4997 9C10.9704 9 10.5413 8.55229 10.5413 8C10.5413 7.44772 10.9704 7 11.4997 7C12.0289 7 12.458 7.44772 12.458 8Z" fill="#777E91"/>
<path d="M15.333 9C15.8623 9 16.2913 8.55229 16.2913 8C16.2913 7.44772 15.8623 7 15.333 7C14.8037 7 14.3747 7.44772 14.3747 8C14.3747 8.55229 14.8037 9 15.333 9Z" fill="#777E91"/>
</svg>
