<svg width="24" height="24" viewBox="0 0 24 24" fill="none" xmlns="http://www.w3.org/2000/svg">
<path fill-rule="evenodd" clip-rule="evenodd" d="M7 5C5.89543 5 5 5.89543 5 7V17C5 18.1046 5.89543 19 7 19H17C18.1046 19 19 18.1046 19 17V7C19 5.89543 18.1046 5 17 5H7ZM9 10C9 9.44772 9.44772 9 10 9H14C14.5523 9 15 9.44772 15 10V14C15 14.5523 14.5523 15 14 15H10C9.44772 15 9 14.5523 9 14V10Z" fill="#777E91"/>
<rect x="11" y="11" width="2" height="2" fill="#777E91"/>
<path d="M9 2C8.44772 2 8 2.44772 8 3V5H10V3C10 2.44772 9.55228 2 9 2Z" fill="#777E91"/>
<path d="M10 21V19H8V21C8 21.5523 8.44772 22 9 22C9.55228 22 10 21.5523 10 21Z" fill="#777E91"/>
<path d="M14 3C14 2.44772 14.4477 2 15 2C15.5523 2 16 2.44772 16 3V5H14V3Z" fill="#777E91"/>
<path d="M16 21V19H14V21C14 21.5523 14.4477 22 15 22C15.5523 22 16 21.5523 16 21Z" fill="#777E91"/>
<path d="M21 8C21.5523 8 22 8.44772 22 9C22 9.55229 21.5523 10 21 10H19V8H21Z" fill="#777E91"/>
<path d="M3 10H5V8H3C2.44772 8 2 8.44771 2 9C2 9.55229 2.44772 10 3 10Z" fill="#777E91"/>
<path d="M21 14C21.5523 14 22 14.4477 22 15C22 15.5523 21.5523 16 21 16H19V14H21Z" fill="#777E91"/>
<path d="M3 16H5V14H3C2.44772 14 2 14.4477 2 15C2 15.5523 2.44772 16 3 16Z" fill="#777E91"/>
</svg>
