<svg width="23" height="24" viewBox="0 0 23 24" fill="none" xmlns="http://www.w3.org/2000/svg">
<path fill-rule="evenodd" clip-rule="evenodd" d="M15.3337 7H7.66699C7.13772 7 6.70866 7.44772 6.70866 8V16C6.70866 16.5523 7.13772 17 7.66699 17H15.3337C15.8629 17 16.292 16.5523 16.292 16V8C16.292 7.44772 15.8629 7 15.3337 7ZM7.66699 5C6.07917 5 4.79199 6.34315 4.79199 8V16C4.79199 17.6569 6.07917 19 7.66699 19H15.3337C16.9215 19 18.2087 17.6569 18.2087 16V8C18.2087 6.34315 16.9215 5 15.3337 5H7.66699Z" fill="#777E91"/>
<path fill-rule="evenodd" clip-rule="evenodd" d="M10.5417 11V13H12.4583V11H10.5417ZM9.58333 9C9.05406 9 8.625 9.44772 8.625 10V14C8.625 14.5523 9.05406 15 9.58333 15H13.4167C13.9459 15 14.375 14.5523 14.375 14V10C14.375 9.44772 13.9459 9 13.4167 9H9.58333Z" fill="#777E91"/>
<path d="M8.62533 2C8.09605 2 7.66699 2.44772 7.66699 3V5H9.58366V3C9.58366 2.44772 9.1546 2 8.62533 2Z" fill="#777E91"/>
<path d="M9.58366 21V19H7.66699V21C7.66699 21.5523 8.09605 22 8.62533 22C9.1546 22 9.58366 21.5523 9.58366 21Z" fill="#777E91"/>
<path d="M13.417 3C13.417 2.44772 13.8461 2 14.3753 2C14.9046 2 15.3337 2.44772 15.3337 3V5H13.417V3Z" fill="#777E91"/>
<path d="M15.3337 21V19H13.417V21C13.417 21.5523 13.8461 22 14.3753 22C14.9046 22 15.3337 21.5523 15.3337 21Z" fill="#777E91"/>
<path d="M20.1253 8C20.6546 8 21.0837 8.44772 21.0837 9C21.0837 9.55229 20.6546 10 20.1253 10H18.2087V8H20.1253Z" fill="#777E91"/>
<path d="M2.87533 10H4.79199V8H2.87533C2.34605 8 1.91699 8.44771 1.91699 9C1.91699 9.55229 2.34605 10 2.87533 10Z" fill="#777E91"/>
<path d="M20.1253 14C20.6546 14 21.0837 14.4477 21.0837 15C21.0837 15.5523 20.6546 16 20.1253 16H18.2087V14H20.1253Z" fill="#777E91"/>
<path d="M2.87533 16H4.79199V14H2.87533C2.34605 14 1.91699 14.4477 1.91699 15C1.91699 15.5523 2.34605 16 2.87533 16Z" fill="#777E91"/>
</svg>
