<svg width="24" height="24" viewBox="0 0 24 24" fill="none" xmlns="http://www.w3.org/2000/svg">
<path d="M21.7071 3.70711C22.0976 3.31658 22.0976 2.68342 21.7071 2.29289C21.3166 1.90237 20.6834 1.90237 20.2929 2.29289L7.79289 14.7929C7.40237 15.1834 7.40237 15.8166 7.79289 16.2071C8.18342 16.5976 8.81658 16.5976 9.20711 16.2071L21.7071 3.70711Z" fill="#777E91"/>
<path d="M5.20711 20.2071C5.59763 19.8166 5.59763 19.1834 5.20711 18.7929C4.81658 18.4024 4.18342 18.4024 3.79289 18.7929L2.29289 20.2929C1.90237 20.6834 1.90237 21.3166 2.29289 21.7071C2.68342 22.0976 3.31658 22.0976 3.70711 21.7071L5.20711 20.2071Z" fill="#777E91"/>
<path fill-rule="evenodd" clip-rule="evenodd" d="M6.24649 19.4182C6.52373 19.6954 6.95335 19.8016 7.25799 19.5548C7.71058 19.1881 7.99989 18.6279 7.99989 18C7.99989 16.8954 7.10446 16 5.99989 16C5.37203 16 4.81175 16.2893 4.44508 16.7419C4.19826 17.0465 4.30448 17.4762 4.58172 17.7534L6.24649 19.4182ZM7.223 21.8095C6.46538 22.0526 5.68382 21.6839 5.12121 21.1213L2.87857 18.8787C2.31596 18.3161 1.9473 17.5345 2.19035 16.7769C2.70714 15.166 4.21735 14 5.99989 14C8.20903 14 9.99989 15.7909 9.99989 18C9.99989 19.7825 8.8339 21.2928 7.223 21.8095Z" fill="#777E91"/>
<path d="M2.29289 3.70711C1.90237 3.31658 1.90237 2.68342 2.29289 2.29289C2.68342 1.90237 3.31658 1.90237 3.70711 2.29289L16.2071 14.7929C16.5976 15.1834 16.5976 15.8166 16.2071 16.2071C15.8166 16.5976 15.1834 16.5976 14.7929 16.2071L2.29289 3.70711Z" fill="#777E91"/>
<path d="M18.7929 20.2071C18.4024 19.8166 18.4024 19.1834 18.7929 18.7929C19.1834 18.4024 19.8166 18.4024 20.2071 18.7929L21.7071 20.2929C22.0976 20.6834 22.0976 21.3166 21.7071 21.7071C21.3166 22.0976 20.6834 22.0976 20.2929 21.7071L18.7929 20.2071Z" fill="#777E91"/>
<path fill-rule="evenodd" clip-rule="evenodd" d="M17.7535 19.4182C17.4763 19.6954 17.0467 19.8016 16.742 19.5548C16.2894 19.1881 16.0001 18.6279 16.0001 18C16.0001 16.8954 16.8955 16 18.0001 16C18.628 16 19.1883 16.2893 19.5549 16.7419C19.8017 17.0465 19.6955 17.4762 19.4183 17.7534L17.7535 19.4182ZM16.777 21.8095C17.5346 22.0526 18.3162 21.6839 18.8788 21.1213L21.1214 18.8787C21.684 18.3161 22.0527 17.5345 21.8097 16.7769C21.2929 15.166 19.7827 14 18.0001 14C15.791 14 14.0001 15.7909 14.0001 18C14.0001 19.7825 15.1661 21.2928 16.777 21.8095Z" fill="#777E91"/>
</svg>
