<svg width="24" height="24" viewBox="0 0 24 24" fill="none" xmlns="http://www.w3.org/2000/svg">
<path fill-rule="evenodd" clip-rule="evenodd" d="M5 5C3.89543 5 3 5.89543 3 7L3 21C3 22.1046 3.89543 23 5 23H19C20.1046 23 21 22.1046 21 21V7C21 5.89543 20.1046 5 19 5L5 5ZM12 19C14.7614 19 17 16.7614 17 14C17 11.2386 14.7614 9 12 9C9.23858 9 7 11.2386 7 14C7 16.7614 9.23858 19 12 19Z" fill="#777E91"/>
<path d="M6 2C6 2.55228 6.44772 3 7 3H17C17.5523 3 18 2.55228 18 2C18 1.44772 17.5523 1 17 1H7C6.44772 1 6 1.44772 6 2Z" fill="#777E91"/>
</svg>
