<svg width="23" height="24" viewBox="0 0 23 24" fill="none" xmlns="http://www.w3.org/2000/svg">
<path fill-rule="evenodd" clip-rule="evenodd" d="M17.25 7H5.75C5.22073 7 4.79167 7.44772 4.79167 8V20C4.79167 20.5523 5.22073 21 5.75 21H17.25C17.7793 21 18.2083 20.5523 18.2083 20V8C18.2083 7.44772 17.7793 7 17.25 7ZM5.75 5C4.16218 5 2.875 6.34315 2.875 8L2.875 20C2.875 21.6569 4.16218 23 5.75 23H17.25C18.8378 23 20.125 21.6569 20.125 20V8C20.125 6.34315 18.8378 5 17.25 5H5.75Z" fill="#777E91"/>
<path d="M5.75 2C5.75 2.55228 6.17906 3 6.70833 3H16.2917C16.8209 3 17.25 2.55228 17.25 2C17.25 1.44772 16.8209 1 16.2917 1H6.70833C6.17906 1 5.75 1.44772 5.75 2Z" fill="#777E91"/>
<path fill-rule="evenodd" clip-rule="evenodd" d="M11.4997 17C13.0875 17 14.3747 15.6569 14.3747 14C14.3747 12.3431 13.0875 11 11.4997 11C9.91186 11 8.62467 12.3431 8.62467 14C8.62467 15.6569 9.91186 17 11.4997 17ZM11.4997 19C14.146 19 16.2913 16.7614 16.2913 14C16.2913 11.2386 14.146 9 11.4997 9C8.85331 9 6.70801 11.2386 6.70801 14C6.70801 16.7614 8.85331 19 11.4997 19Z" fill="#777E91"/>
</svg>
