<svg width="24" height="24" viewBox="0 0 24 24" fill="none" xmlns="http://www.w3.org/2000/svg">
<path fill-rule="evenodd" clip-rule="evenodd" d="M9.16437 2.98189C8.98368 2.46 8.55228 2 8 2H7C4.79086 2 3 3.79086 3 6V19C3 21.2091 4.79086 23 7 23H17C19.2091 23 21 21.2091 21 19V6C21 3.79086 19.2091 2 17 2H16C15.4477 2 15.0163 2.46 14.8356 2.98189C14.4289 4.15653 13.313 5 12 5C10.687 5 9.57105 4.15653 9.16437 2.98189ZM7 9C7 8.44771 7.44772 8 8 8H16C16.5523 8 17 8.44771 17 9C17 9.55229 16.5523 10 16 10H8C7.44772 10 7 9.55229 7 9ZM8 12C7.44772 12 7 12.4477 7 13C7 13.5523 7.44772 14 8 14H16C16.5523 14 17 13.5523 17 13C17 12.4477 16.5523 12 16 12H8ZM7 17C7 16.4477 7.44772 16 8 16H12C12.5523 16 13 16.4477 13 17C13 17.5523 12.5523 18 12 18H8C7.44772 18 7 17.5523 7 17Z" fill="#777E91"/>
<path d="M11 2C11 1.44772 11.4477 1 12 1C12.5523 1 13 1.44772 13 2C13 2.55228 12.5523 3 12 3C11.4477 3 11 2.55228 11 2Z" fill="#777E91"/>
</svg>
