<svg width="24" height="24" viewBox="0 0 24 24" fill="none" xmlns="http://www.w3.org/2000/svg">
<path d="M13 4C13 4.55228 13.4477 5 14 5H17C18.1046 5 19 5.89543 19 7V19C19 20.1046 18.1046 21 17 21H7C5.89543 21 5 20.1046 5 19V7C5 5.89543 5.89543 5 7 5H10C10.5523 5 11 4.55228 11 4C11 3.44772 10.5523 3 10 3H7C4.79086 3 3 4.79086 3 7V19C3 21.2091 4.79086 23 7 23H17C19.2091 23 21 21.2091 21 19V7C21 4.79086 19.2091 3 17 3H14C13.4477 3 13 3.44772 13 4Z" fill="#777E91"/>
<path fill-rule="evenodd" clip-rule="evenodd" d="M11 4C11 4.55228 11.4477 5 12 5C12.5523 5 13 4.55228 13 4C13 3.44772 12.5523 3 12 3C11.4477 3 11 3.44772 11 4ZM12 1C10.3431 1 9 2.34315 9 4C9 5.65685 10.3431 7 12 7C13.6569 7 15 5.65685 15 4C15 2.34315 13.6569 1 12 1Z" fill="#777E91"/>
<path d="M8 9C7.44772 9 7 9.44771 7 10C7 10.5523 7.44772 11 8 11H16C16.5523 11 17 10.5523 17 10C17 9.44771 16.5523 9 16 9H8Z" fill="#777E91"/>
<path d="M7 14C7 13.4477 7.44772 13 8 13H16C16.5523 13 17 13.4477 17 14C17 14.5523 16.5523 15 16 15H8C7.44772 15 7 14.5523 7 14Z" fill="#777E91"/>
<path d="M7 18C7 17.4477 7.44772 17 8 17H12C12.5523 17 13 17.4477 13 18C13 18.5523 12.5523 19 12 19H8C7.44772 19 7 18.5523 7 18Z" fill="#777E91"/>
</svg>
