<svg width="24" height="24" viewBox="0 0 24 24" fill="none" xmlns="http://www.w3.org/2000/svg">
<g clip-path="url(#clip0)">
<path d="M21.3905 19.5804L19.4856 21.4853C19.4856 21.4853 14.5358 23.6066 7.46477 16.5356C0.393706 9.46451 2.51503 4.51476 2.51503 4.51476L4.41996 2.60983C5.28058 1.74921 6.70391 1.85036 7.43417 2.82404L9.25245 5.24841C9.84963 6.04465 9.77044 7.15884 9.06666 7.86262L7.46477 9.46451C7.46477 9.46451 7.46477 10.8787 10.2932 13.7071C13.1216 16.5356 14.5358 16.5356 14.5358 16.5356L16.1377 14.9337C16.8415 14.2299 17.9557 14.1507 18.7519 14.7479L21.1763 16.5662C22.15 17.2964 22.2511 18.7198 21.3905 19.5804Z" fill="#777E91"/>
</g>
<defs>
<clipPath id="clip0">
<rect width="24" height="24" fill="white"/>
</clipPath>
</defs>
</svg>
