<svg width="24" height="24" viewBox="0 0 24 24" fill="none" xmlns="http://www.w3.org/2000/svg">
<path d="M11 12V10H13C13.5523 10 14 10.4477 14 11C14 11.5523 13.5523 12 13 12H11Z" fill="#777E91"/>
<path fill-rule="evenodd" clip-rule="evenodd" d="M12 22C17.5228 22 22 17.5228 22 12C22 6.47715 17.5228 2 12 2C6.47715 2 2 6.47715 2 12C2 17.5228 6.47715 22 12 22ZM13 14H11V16C11 16.5523 10.5523 17 10 17C9.44772 17 9 16.5523 9 16V9.29412C9 8.5794 9.5794 8 10.2941 8H13C14.6569 8 16 9.34315 16 11C16 12.6569 14.6569 14 13 14Z" fill="#777E91"/>
</svg>
