<svg width="23" height="24" viewBox="0 0 23 24" fill="none" xmlns="http://www.w3.org/2000/svg">
<path fill-rule="evenodd" clip-rule="evenodd" d="M11.5003 20C15.7345 20 19.167 16.4183 19.167 12C19.167 7.58172 15.7345 4 11.5003 4C7.26614 4 3.83366 7.58172 3.83366 12C3.83366 16.4183 7.26614 20 11.5003 20ZM11.5003 22C16.793 22 21.0837 17.5228 21.0837 12C21.0837 6.47715 16.793 2 11.5003 2C6.20759 2 1.91699 6.47715 1.91699 12C1.91699 17.5228 6.20759 22 11.5003 22Z" fill="#777E91"/>
<path fill-rule="evenodd" clip-rule="evenodd" d="M10.5417 10V12H12.4583C12.9876 12 13.4167 11.5523 13.4167 11C13.4167 10.4477 12.9876 10 12.4583 10H10.5417ZM10.5417 14H12.4583C14.0462 14 15.3333 12.6569 15.3333 11C15.3333 9.34315 14.0462 8 12.4583 8H9.86518C9.18026 8 8.625 8.5794 8.625 9.29412V16C8.625 16.5523 9.05407 17 9.58333 17C10.1126 17 10.5417 16.5523 10.5417 16V14Z" fill="#777E91"/>
</svg>
