<svg width="24" height="24" viewBox="0 0 24 24" fill="none" xmlns="http://www.w3.org/2000/svg">
<rect x="3" y="21" width="18" height="2" rx="1" fill="#777E91"/>
<path fill-rule="evenodd" clip-rule="evenodd" d="M4.08576 11.5L3.58579 12C3.21071 12.375 3 12.8838 3 13.4142V17C3 18.1045 3.89543 19 5 19H8.58579C9.11622 19 9.62493 18.7893 10 18.4142L10.5 17.9142L4.08576 11.5Z" fill="#777E91"/>
<path fill-rule="evenodd" clip-rule="evenodd" d="M5.5 10.0858L11.5858 4L18 10.4142L11.9142 16.5L5.5 10.0858Z" fill="#777E91"/>
<path fill-rule="evenodd" clip-rule="evenodd" d="M18.1214 1.7068C16.9498 0.535232 15.0503 0.535232 13.8787 1.7068L13 2.58551L19.4142 8.99973L20.2929 8.12102C21.4645 6.94945 21.4645 5.04995 20.2929 3.87838L18.1214 1.7068Z" fill="#777E91"/>
</svg>
