<svg width="23" height="24" viewBox="0 0 23 24" fill="none" xmlns="http://www.w3.org/2000/svg">
<path fill-rule="evenodd" clip-rule="evenodd" d="M11.5003 20C15.7345 20 19.167 16.4183 19.167 12C19.167 7.58172 15.7345 4 11.5003 4C7.26614 4 3.83366 7.58172 3.83366 12C3.83366 16.4183 7.26614 20 11.5003 20ZM11.5003 22C16.7931 22 21.0837 17.5228 21.0837 12C21.0837 6.47715 16.7931 2 11.5003 2C6.2076 2 1.91699 6.47715 1.91699 12C1.91699 17.5228 6.2076 22 11.5003 22Z" fill="#777E91"/>
<path d="M8.625 8.80433C8.625 8.0189 9.45295 7.54005 10.0912 7.95633L14.9914 11.1521C15.592 11.5438 15.592 12.4564 14.9914 12.8481L10.0912 16.0438C9.45295 16.4601 8.625 15.9813 8.625 15.1958V8.80433Z" fill="#777E91"/>
</svg>
