<svg width="23" height="24" viewBox="0 0 23 24" fill="none" xmlns="http://www.w3.org/2000/svg">
<path d="M7.66699 2C7.13772 2 6.70866 2.44772 6.70866 3L6.70866 6C6.70866 6.55228 6.2796 7 5.75033 7L2.87533 7C2.34605 7 1.91699 7.44771 1.91699 8C1.91699 8.55228 2.34605 9 2.87533 9L5.75033 9C7.33814 9 8.62533 7.65685 8.62533 6L8.62533 3C8.62533 2.44772 8.19627 2 7.66699 2Z" fill="#777E91"/>
<path d="M6.70866 21C6.70866 21.5523 7.13772 22 7.66699 22C8.19627 22 8.62533 21.5523 8.62533 21L8.62533 18C8.62533 16.3431 7.33814 15 5.75033 15L2.87533 15C2.34605 15 1.91699 15.4477 1.91699 16C1.91699 16.5523 2.34605 17 2.87533 17L5.75033 17C6.2796 17 6.70866 17.4477 6.70866 18L6.70866 21Z" fill="#777E91"/>
<path d="M16.292 21C16.292 21.5523 15.8629 22 15.3337 22C14.8044 22 14.3753 21.5523 14.3753 21L14.3753 18C14.3753 16.3431 15.6625 15 17.2503 15H20.1253C20.6546 15 21.0837 15.4477 21.0837 16C21.0837 16.5523 20.6546 17 20.1253 17H17.2503C16.7211 17 16.292 17.4477 16.292 18L16.292 21Z" fill="#777E91"/>
<path d="M16.292 3C16.292 2.44772 15.8629 2 15.3337 2C14.8044 2 14.3753 2.44772 14.3753 3V6C14.3753 7.65685 15.6625 9 17.2503 9H20.1253C20.6546 9 21.0837 8.55228 21.0837 8C21.0837 7.44772 20.6546 7 20.1253 7H17.2503C16.7211 7 16.292 6.55228 16.292 6V3Z" fill="#777E91"/>
</svg>
