<svg width="24" height="24" viewBox="0 0 24 24" fill="none" xmlns="http://www.w3.org/2000/svg">
<path d="M7 5C6.44772 5 6 5.44772 6 6C6 6.55228 6.44772 7 7 7H13C13.5523 7 14 6.55228 14 6C14 5.44772 13.5523 5 13 5H7Z" fill="#777E91"/>
<path d="M7 17C6.44772 17 6 17.4477 6 18C6 18.5523 6.44772 19 7 19H21C21.5523 19 22 18.5523 22 18C22 17.4477 21.5523 17 21 17H7Z" fill="#777E91"/>
<path d="M6 14C6 13.4477 6.44772 13 7 13H17C17.5523 13 18 13.4477 18 14C18 14.5523 17.5523 15 17 15H7C6.44771 15 6 14.5523 6 14Z" fill="#777E91"/>
<path d="M7 9C6.44772 9 6 9.44772 6 10C6 10.5523 6.44772 11 7 11H19C19.5523 11 20 10.5523 20 10C20 9.44772 19.5523 9 19 9H7Z" fill="#777E91"/>
<path fill-rule="evenodd" clip-rule="evenodd" d="M3 2C3.55228 2 4 2.44772 4 3V21C4 21.5523 3.55228 22 3 22C2.44772 22 2 21.5523 2 21V3C2 2.44772 2.44772 2 3 2Z" fill="#777E91"/>
</svg>
