<svg width="24" height="24" viewBox="0 0 24 24" fill="none" xmlns="http://www.w3.org/2000/svg">
<path fill-rule="evenodd" clip-rule="evenodd" d="M2 5C2 3.34315 3.34315 2 5 2H19C20.6569 2 22 3.34315 22 5V19C22 20.6569 20.6569 22 19 22H5C3.34315 22 2 20.6569 2 19V5ZM5 7C5 5.89543 5.89543 5 7 5H9C10.1046 5 11 5.89543 11 7V17C11 18.1046 10.1046 19 9 19H7C5.89543 19 5 18.1046 5 17V7ZM15 5C13.8954 5 13 5.89543 13 7V10C13 11.1046 13.8954 12 15 12H17C18.1046 12 19 11.1046 19 10V7C19 5.89543 18.1046 5 17 5H15Z" fill="#777E91"/>
</svg>
