<svg width="23" height="24" viewBox="0 0 23 24" fill="none" xmlns="http://www.w3.org/2000/svg">
<path fill-rule="evenodd" clip-rule="evenodd" d="M17.2503 4H5.75033C4.69178 4 3.83366 4.89543 3.83366 6V18C3.83366 19.1046 4.69178 20 5.75033 20H17.2503C18.3089 20 19.167 19.1046 19.167 18V6C19.167 4.89543 18.3089 4 17.2503 4ZM5.75033 2C3.63323 2 1.91699 3.79086 1.91699 6V18C1.91699 20.2091 3.63323 22 5.75033 22H17.2503C19.3674 22 21.0837 20.2091 21.0837 18V6C21.0837 3.79086 19.3674 2 17.2503 2H5.75033Z" fill="#777E91"/>
<path d="M6.70833 6C6.17907 6 5.75 6.44772 5.75 7V17C5.75 17.5523 6.17907 18 6.70833 18H9.58333C10.1126 18 10.5417 17.5523 10.5417 17V7C10.5417 6.44772 10.1126 6 9.58333 6H6.70833Z" fill="#777E91"/>
<path d="M13.4163 6C12.8871 6 12.458 6.44772 12.458 7V11C12.458 11.5523 12.8871 12 13.4163 12H16.2913C16.8206 12 17.2497 11.5523 17.2497 11V7C17.2497 6.44772 16.8206 6 16.2913 6H13.4163Z" fill="#777E91"/>
</svg>
