<svg width="23" height="24" viewBox="0 0 23 24" fill="none" xmlns="http://www.w3.org/2000/svg">
<path fill-rule="evenodd" clip-rule="evenodd" d="M11.5003 4C9.62944 4 7.90482 4.161 6.52054 4.35177C5.27473 4.52346 4.33531 5.50372 4.17078 6.80371C3.98796 8.24816 3.83366 10.0478 3.83366 12C3.83366 13.9522 3.98796 15.7518 4.17078 17.1963C4.33531 18.4963 5.27473 19.4765 6.52054 19.6482C7.90481 19.839 9.62944 20 11.5003 20C13.3712 20 15.0958 19.839 16.4801 19.6482C17.7259 19.4765 18.6653 18.4963 18.8299 17.1963C19.0127 15.7518 19.167 13.9522 19.167 12C19.167 10.0478 19.0127 8.24816 18.8299 6.80371C18.6653 5.50372 17.7259 4.52346 16.4801 4.35177C15.0958 4.16101 13.3712 4 11.5003 4ZM6.26959 2.36899C4.16433 2.65912 2.54865 4.34504 2.27061 6.54184C2.07946 8.05208 1.91699 9.94127 1.91699 12C1.91699 14.0587 2.07946 15.9479 2.27061 17.4582C2.54865 19.655 4.16433 21.3409 6.26959 21.631C7.7169 21.8305 9.52738 22 11.5003 22C13.4733 22 15.2837 21.8305 16.7311 21.631C18.8363 21.3409 20.452 19.655 20.73 17.4582C20.9212 15.9479 21.0837 14.0587 21.0837 12C21.0837 9.94127 20.9212 8.05208 20.73 6.54184C20.452 4.34504 18.8363 2.65912 16.7311 2.36899C15.2837 2.16953 13.4733 2 11.5003 2C9.52738 2 7.7169 2.16953 6.26959 2.36899Z" fill="#777E91"/>
<path d="M8.62485 11C9.6834 11 10.5415 10.1046 10.5415 9C10.5415 7.89543 9.6834 7 8.62485 7C7.56631 7 6.70819 7.89543 6.70819 9C6.70819 10.1046 7.56631 11 8.62485 11Z" fill="#777E91"/>
<path d="M17.3661 12.7073L19.0857 14.5016C19.0263 15.4378 18.9397 16.3065 18.8442 17.0781L16.0108 14.1215C15.6366 13.731 15.0298 13.731 14.6555 14.1215L12.5744 16.2931C11.4517 17.4647 9.63134 17.4647 8.50858 16.2931L8.34416 16.1215C7.96991 15.731 7.36312 15.731 6.98887 16.1215L4.68018 18.5306C4.41274 18.1522 4.23379 17.6981 4.17029 17.1963C4.13565 16.9227 4.10204 16.6363 4.07031 16.3385L5.63359 14.7073C6.75634 13.5357 8.57669 13.5357 9.69945 14.7073L9.86387 14.8789C10.2381 15.2694 10.8449 15.2694 11.2192 14.8789L13.3003 12.7073C14.423 11.5357 16.2434 11.5357 17.3661 12.7073Z" fill="#777E91"/>
</svg>
