<svg width="24" height="24" viewBox="0 0 24 24" fill="none" xmlns="http://www.w3.org/2000/svg">
<path d="M22 20.0001C22 21.1047 21.1046 22.0001 20 22.0001C18.8954 22.0001 18 21.1047 18 20.0001C18 18.8592 19.1571 17.7183 19.711 17.2374C19.8788 17.0918 20.1212 17.0918 20.289 17.2374C20.8429 17.7183 22 18.8592 22 20.0001Z" fill="#777E91"/>
<path fill-rule="evenodd" clip-rule="evenodd" d="M12.0613 3.11008C10.1186 1.5772 7.29259 1.70719 5.49974 3.50004C3.73654 5.26324 3.58166 8.02573 5.0351 9.96448L2.41391 12.5858C1.63286 13.3668 1.63286 14.6332 2.41391 15.4142L8.58549 21.5858C9.36653 22.3668 10.6329 22.3668 11.4139 21.5858L17.7856 15.2141C17.9252 15.0745 18.103 14.9793 18.2966 14.9406L21.1675 14.3664C21.5851 14.2829 21.8632 13.9692 21.9462 13.6089C22.0189 13.2934 21.9421 12.9423 21.6785 12.6786L12.9499 3.95004C12.9071 3.90695 12.8645 3.86365 12.8218 3.82034C12.5781 3.57306 12.3338 3.32516 12.0613 3.11008ZM10.5251 4.47449L6.47419 8.52539C5.7878 7.39093 5.93439 5.89382 6.91395 4.91425C7.89352 3.93469 9.39063 3.7881 10.5251 4.47449ZM14.5431 15.87C14.8813 15.5625 14.6638 15 14.2068 15H5.79336C5.33635 15 5.11886 15.5625 5.45703 15.87L9.32739 19.3885C9.70881 19.7352 10.2913 19.7352 10.6727 19.3885L14.5431 15.87Z" fill="#777E91"/>
</svg>
