<svg width="23" height="24" viewBox="0 0 23 24" fill="none" xmlns="http://www.w3.org/2000/svg">
<path fill-rule="evenodd" clip-rule="evenodd" d="M5.27106 3.50004C6.9892 1.70719 9.69747 1.5772 11.5592 3.11008C11.8204 3.32516 12.0545 3.57306 12.288 3.82034C12.3289 3.86366 12.3698 3.90695 12.4108 3.95004L20.7757 12.6786C21.3169 13.2434 21.0365 14.2097 20.286 14.3663L17.5347 14.9405C17.3492 14.9792 17.1788 15.0743 17.045 15.2139L11.6165 20.8785C10.4937 22.0501 8.67338 22.0501 7.55062 20.8785L2.99148 16.1212C1.86872 14.9496 1.86873 13.0501 2.99148 11.8785L4.82577 9.96448C3.43289 8.02573 3.58132 5.26324 5.27106 3.50004ZM6.20491 8.52539L10.087 4.47449C8.99982 3.7881 7.56509 3.93469 6.62634 4.91425C5.68759 5.89382 5.54711 7.39093 6.20491 8.52539ZM8.90591 19.4643L4.34677 14.707C3.97252 14.3164 3.97252 13.6833 4.34677 13.2927L11.5002 5.82828L18.1542 12.7716L17.1589 12.9793C16.6023 13.0955 16.0911 13.3809 15.6898 13.7997L10.2612 19.4643C9.88694 19.8548 9.28016 19.8548 8.90591 19.4643Z" fill="#777E91"/>
<path d="M12.6222 17H6.54362L4.62695 15H14.5388L12.6222 17Z" fill="#777E91"/>
<path d="M21.0833 20.0001C21.0833 21.1047 20.2252 22.0001 19.1667 22.0001C18.1081 22.0001 17.25 21.1047 17.25 20.0001C17.25 18.8592 18.3588 17.7183 18.8897 17.2374C19.0506 17.0918 19.2828 17.0918 19.4436 17.2374C19.9745 17.7183 21.0833 18.8592 21.0833 20.0001Z" fill="#777E91"/>
</svg>
