<svg width="23" height="24" viewBox="0 0 23 24" fill="none" xmlns="http://www.w3.org/2000/svg">
<path d="M8.62533 10C8.09605 10 7.66699 10.4477 7.66699 11V21C7.66699 21.5523 8.09605 22 8.62533 22C9.1546 22 9.58366 21.5523 9.58366 21V11C9.58366 10.4477 9.1546 10 8.62533 10Z" fill="#777E91"/>
<path d="M2.87533 12C2.34605 12 1.91699 12.4477 1.91699 13V21C1.91699 21.5523 2.34605 22 2.87533 22C3.4046 22 3.83366 21.5523 3.83366 21V13C3.83366 12.4477 3.4046 12 2.87533 12Z" fill="#777E91"/>
<path d="M19.167 12C19.167 11.4477 19.5961 11 20.1253 11C20.6546 11 21.0837 11.4477 21.0837 12V21C21.0837 21.5523 20.6546 22 20.1253 22C19.5961 22 19.167 21.5523 19.167 21V12Z" fill="#777E91"/>
<path d="M14.3753 13C13.8461 13 13.417 13.4477 13.417 14V21C13.417 21.5523 13.8461 22 14.3753 22C14.9046 22 15.3337 21.5523 15.3337 21V14C15.3337 13.4477 14.9046 13 14.3753 13Z" fill="#777E91"/>
<path d="M2.87533 2C2.34605 2 1.91699 2.44772 1.91699 3V9C1.91699 9.55228 2.34605 10 2.87533 10C3.4046 10 3.83366 9.55228 3.83366 9V3C3.83366 2.44772 3.4046 2 2.87533 2Z" fill="#777E91"/>
<path d="M8.62533 2C8.09605 2 7.66699 2.44772 7.66699 3V7C7.66699 7.55228 8.09605 8 8.62533 8C9.1546 8 9.58366 7.55228 9.58366 7V3C9.58366 2.44772 9.1546 2 8.62533 2Z" fill="#777E91"/>
<path d="M19.167 3C19.167 2.44772 19.5961 2 20.1253 2C20.6546 2 21.0837 2.44772 21.0837 3V8C21.0837 8.55228 20.6546 9 20.1253 9C19.5961 9 19.167 8.55228 19.167 8V3Z" fill="#777E91"/>
<path d="M14.3753 2C13.8461 2 13.417 2.44772 13.417 3V10C13.417 10.5523 13.8461 11 14.3753 11C14.9046 11 15.3337 10.5523 15.3337 10V3C15.3337 2.44772 14.9046 2 14.3753 2Z" fill="#777E91"/>
</svg>
