<svg width="24" height="24" viewBox="0 0 24 24" fill="none" xmlns="http://www.w3.org/2000/svg">
<path d="M2.8 18C2.35817 18 2 18.3582 2 18.8C2 20.5673 3.43269 22 5.2 22H18.8C20.5673 22 22 20.5673 22 18.8C22 18.3582 21.6418 18 21.2 18H2.8Z" fill="#777E91"/>
<path fill-rule="evenodd" clip-rule="evenodd" d="M14.655 6.39803C14.8753 5.98056 15 5.50484 15 5C15 3.34315 13.6569 2 12 2C10.3431 2 9 3.34315 9 5C9 5.50484 9.1247 5.98056 9.34498 6.39803C5.67037 7.53089 3 10.9536 3 15V15.5238C3 15.7868 3.2132 16 3.47619 16H20.5238C20.7868 16 21 15.7868 21 15.5238V15C21 10.9536 18.3296 7.53089 14.655 6.39803ZM13 5C13 5.55228 12.5523 6 12 6C11.4477 6 11 5.55228 11 5C11 4.44772 11.4477 4 12 4C12.5523 4 13 4.44772 13 5Z" fill="#777E91"/>
</svg>
