<svg width="24" height="24" viewBox="0 0 24 24" fill="none" xmlns="http://www.w3.org/2000/svg">
<path d="M21.1668 16.8334L16.8334 21.1668C16.0971 21.9031 14.9031 21.9031 14.1668 21.1668C13.7986 20.7986 13.7986 20.2016 14.1668 19.8334L19.8334 14.1668C20.2016 13.7986 20.7986 13.7986 21.1668 14.1668C21.9031 14.9031 21.9031 16.0971 21.1668 16.8334Z" fill="#777E91"/>
<path d="M9.01387 10.7652C9.03461 10.5878 8.9902 10.4043 8.86395 10.278L2.9958 4.40989C2.74167 4.15576 2.32649 4.28402 2.37731 4.63981L3.54088 12.7848C3.82744 14.7907 5.10709 16.5165 6.94327 17.3734L10.8655 19.2037C11.2465 19.3816 11.6981 19.302 11.9955 19.0047L19.0049 11.9952C19.3023 11.6979 19.3818 11.2463 19.204 10.8652L17.3736 6.94303C16.5167 5.10684 14.791 3.8272 12.7851 3.54064L4.64005 2.37707C4.28416 2.32623 4.15587 2.74154 4.41008 2.99575L10.2781 8.86374C10.4043 8.98999 10.5879 9.0344 10.7652 9.01365C10.8423 9.00463 10.9207 8.99999 11.0002 8.99999C12.1048 8.99999 13.0002 9.89542 13.0002 11C13.0002 12.1046 12.1048 13 11.0002 13C9.89566 13 9.00023 12.1046 9.00023 11C9.00023 10.9205 9.00486 10.8422 9.01387 10.7652Z" fill="#777E91"/>
</svg>
