<svg width="23" height="24" viewBox="0 0 23 24" fill="none" xmlns="http://www.w3.org/2000/svg">
<path fill-rule="evenodd" clip-rule="evenodd" d="M12.732 3.50476C14.9101 3.80779 16.7322 5.37957 17.427 7.55476L18.968 12.3787L20.4055 13.8787C21.5283 15.0503 21.5283 16.9497 20.4055 18.1213L17.3661 21.2929C16.2433 22.4645 14.423 22.4645 13.3002 21.2929L11.8627 19.7929L7.23979 18.1849C5.15524 17.4598 3.64895 15.5585 3.35854 13.2858L2.24772 4.59242C2.08082 3.28619 3.14908 2.17148 4.40089 2.34564L12.732 3.50476ZM13.6149 18.7929L14.6555 19.8787C15.0298 20.2692 15.6365 20.2692 16.0108 19.8787L19.0502 16.7071C19.4245 16.3166 19.4245 15.6834 19.0502 15.2929L18.0097 14.2071L13.6149 18.7929ZM11.9405 17.7117L16.9736 12.4598L15.6087 8.18721C15.1455 6.73709 13.9307 5.68923 12.4787 5.48721L4.14758 4.3281L5.2584 13.0215C5.452 14.5366 6.4562 15.8042 7.8459 16.2875L11.9405 17.7117Z" fill="#777E91"/>
<path d="M10.0449 9.06772L3.65021 2.39502C2.99243 2.57918 2.47141 3.12286 2.29492 3.80923L8.68952 10.4819C8.64716 10.6471 8.62458 10.8208 8.62458 11C8.62458 12.1046 9.4827 13 10.5412 13C11.5998 13 12.4579 12.1046 12.4579 11C12.4579 9.89543 11.5998 9 10.5412 9C10.3696 9 10.2032 9.02355 10.0449 9.06772Z" fill="#777E91"/>
</svg>
