<svg width="24" height="24" viewBox="0 0 24 24" fill="none" xmlns="http://www.w3.org/2000/svg">
<path fill-rule="evenodd" clip-rule="evenodd" d="M3 21C1.89543 21 1 20.1046 1 19V5C1 3.89543 1.89543 3 3 3H21C22.1046 3 23 3.89543 23 5V19C23 20.1046 22.1046 21 21 21H3ZM20.8682 17.5037C21.1422 17.9832 20.9756 18.5941 20.4961 18.8681C20.0166 19.1421 19.4058 18.9755 19.1317 18.496L15.8834 12.8114C15.6612 12.4225 15.2073 12.2288 14.7727 12.3374L9.71238 13.6025C8.40847 13.9285 7.04688 13.3474 6.38005 12.1805L3.13174 6.49597C2.85773 6.01645 3.02433 5.4056 3.50385 5.13159C3.98337 4.85758 4.59422 5.02417 4.86823 5.50369L8.11653 11.1882C8.33881 11.5772 8.79268 11.7709 9.22731 11.6622L14.2876 10.3972C15.5915 10.0712 16.9531 10.6522 17.6199 11.8192L20.8682 17.5037Z" fill="#777E91"/>
</svg>
