<svg width="23" height="24" viewBox="0 0 23 24" fill="none" xmlns="http://www.w3.org/2000/svg">
<path fill-rule="evenodd" clip-rule="evenodd" d="M1.91634 3C2.44561 3 2.87467 3.44772 2.87467 4V18C2.87467 18.5523 3.30373 19 3.83301 19H21.083C21.6123 19 22.0413 19.4477 22.0413 20C22.0413 20.5523 21.6123 21 21.083 21H3.83301C2.24519 21 0.958008 19.6569 0.958008 18V4C0.958008 3.44772 1.38707 3 1.91634 3Z" fill="#777E91"/>
<path fill-rule="evenodd" clip-rule="evenodd" d="M5.27502 5.13168C4.81549 5.40569 4.65583 6.01655 4.91842 6.49607L7.97218 12.0725C8.65212 13.3141 10.0774 13.8823 11.3775 13.4301L14.369 12.3896C14.7499 12.2571 15.1696 12.3864 15.4204 12.7136L18.4188 16.6246C18.7495 17.0559 19.3525 17.1258 19.7658 16.7808C20.1791 16.4358 20.2461 15.8065 19.9155 15.3752L16.917 11.4642C16.1646 10.4828 14.9056 10.0948 13.7629 10.4922L10.7714 11.5328C10.3381 11.6835 9.86296 11.4941 9.63631 11.0802L6.58256 5.50379C6.31996 5.02427 5.73456 4.85767 5.27502 5.13168Z" fill="#777E91"/>
</svg>
