<svg width="24" height="24" viewBox="0 0 24 24" fill="none" xmlns="http://www.w3.org/2000/svg">
<path fill-rule="evenodd" clip-rule="evenodd" d="M15.4879 2.6253C18.9919 3.92971 21.5671 7.14241 21.9501 11H17.9789C17.8173 7.11917 16.7252 4.39579 15.4936 2.62743L15.4879 2.6253ZM11.9995 2C8.95675 3.44197 8.11076 8.08485 7.97793 11H15.977C15.8381 7.95156 14.9729 3.64755 11.9995 2ZM8.44579 2.64984C7.2206 4.41872 6.13696 7.13553 5.97605 11H2.04883C2.42945 7.16638 4.9751 3.96966 8.44579 2.64984ZM15.4882 21.3747C18.9921 20.0703 21.5673 16.8576 21.9503 13H17.9791C17.8175 16.8808 16.7254 19.6042 15.4938 21.3726L15.4882 21.3747ZM11.9998 22C8.957 20.558 8.11101 15.9152 7.97817 13H15.9772C15.8383 16.0484 14.9731 20.3525 11.9998 22ZM8.44603 21.3502C7.22084 19.5813 6.1372 16.8645 5.97629 13H2.04907C2.4297 16.8336 4.97535 20.0303 8.44603 21.3502Z" fill="#777E91"/>
</svg>
