<svg width="23" height="24" viewBox="0 0 23 24" fill="none" xmlns="http://www.w3.org/2000/svg">
<path fill-rule="evenodd" clip-rule="evenodd" d="M11.5003 20C15.7345 20 19.167 16.4183 19.167 12C19.167 7.58172 15.7345 4 11.5003 4C7.26614 4 3.83366 7.58172 3.83366 12C3.83366 16.4183 7.26614 20 11.5003 20ZM11.5003 22C16.7931 22 21.0837 17.5228 21.0837 12C21.0837 6.47715 16.7931 2 11.5003 2C6.2076 2 1.91699 6.47715 1.91699 12C1.91699 17.5228 6.2076 22 11.5003 22Z" fill="#777E91"/>
<path fill-rule="evenodd" clip-rule="evenodd" d="M13.1736 18.1766C13.8815 16.6992 14.3747 14.5183 14.3747 12C14.3747 9.48174 13.8815 7.30077 13.1736 5.82336C12.4083 4.22632 11.7058 4 11.4997 4C11.2936 4 10.591 4.22632 9.82577 5.82336C9.11785 7.30077 8.62467 9.48174 8.62467 12C8.62467 14.5183 9.11785 16.6992 9.82577 18.1766C10.591 19.7737 11.2936 20 11.4997 20C11.7058 20 12.4083 19.7737 13.1736 18.1766ZM11.4997 22C14.146 22 16.2913 17.5228 16.2913 12C16.2913 6.47715 14.146 2 11.4997 2C8.85331 2 6.70801 6.47715 6.70801 12C6.70801 17.5228 8.85331 22 11.4997 22Z" fill="#777E91"/>
<path fill-rule="evenodd" clip-rule="evenodd" d="M21.0363 13C21.0676 12.6711 21.0837 12.3375 21.0837 12C21.0837 11.6625 21.0676 11.3289 21.0363 11H1.96431C1.93301 11.3289 1.91699 11.6625 1.91699 12C1.91699 12.3375 1.93301 12.6711 1.96431 13H21.0363Z" fill="#777E91"/>
</svg>
