<svg width="24" height="24" viewBox="0 0 24 24" fill="none" xmlns="http://www.w3.org/2000/svg">
<path fill-rule="evenodd" clip-rule="evenodd" d="M4 3C2.34315 3 1 4.34315 1 6V8H23V6C23 4.34315 21.6569 3 20 3H4ZM23 10H1V18C1 19.6569 2.34315 21 4 21H20C21.6569 21 23 19.6569 23 18V10ZM8 15.5C8 16.3284 7.32843 17 6.5 17C5.67157 17 5 16.3284 5 15.5C5 14.6716 5.67157 14 6.5 14C7.32843 14 8 14.6716 8 15.5ZM11.5 17C12.3284 17 13 16.3284 13 15.5C13 14.6716 12.3284 14 11.5 14C10.6716 14 10 14.6716 10 15.5C10 16.3284 10.6716 17 11.5 17Z" fill="#777E91"/>
</svg>
