<svg width="23" height="24" viewBox="0 0 23 24" fill="none" xmlns="http://www.w3.org/2000/svg">
<path fill-rule="evenodd" clip-rule="evenodd" d="M19.1663 5H3.83301C3.30373 5 2.87467 5.44772 2.87467 6V18C2.87467 18.5523 3.30373 19 3.83301 19H19.1663C19.6956 19 20.1247 18.5523 20.1247 18V6C20.1247 5.44772 19.6956 5 19.1663 5ZM3.83301 3C2.24519 3 0.958008 4.34315 0.958008 6V18C0.958008 19.6569 2.24519 21 3.83301 21H19.1663C20.7542 21 22.0413 19.6569 22.0413 18V6C22.0413 4.34315 20.7542 3 19.1663 3H3.83301Z" fill="#777E91"/>
<path d="M7.66699 15.5C7.66699 16.3284 7.0234 17 6.22949 17C5.43558 17 4.79199 16.3284 4.79199 15.5C4.79199 14.6716 5.43558 14 6.22949 14C7.0234 14 7.66699 14.6716 7.66699 15.5Z" fill="#777E91"/>
<path d="M12.458 15.5C12.458 16.3284 11.8144 17 11.0205 17C10.2266 17 9.58301 16.3284 9.58301 15.5C9.58301 14.6716 10.2266 14 11.0205 14C11.8144 14 12.458 14.6716 12.458 15.5Z" fill="#777E91"/>
<path d="M0.958008 8H22.0413V10H0.958008V8Z" fill="#777E91"/>
</svg>
