<svg width="24" height="24" viewBox="0 0 24 24" fill="none" xmlns="http://www.w3.org/2000/svg">
<path d="M6 0C6.55228 0 7 0.447715 7 1V3C7 3.55228 6.55228 4 6 4C5.44772 4 5 3.55228 5 3V1C5 0.447715 5.44772 0 6 0Z" fill="#777E91"/>
<path d="M6 18C6.55228 18 7 18.4477 7 19V21C7 21.5523 6.55228 22 6 22C5.44772 22 5 21.5523 5 21V19C5 18.4477 5.44772 18 6 18Z" fill="#777E91"/>
<path d="M18 4C18.5523 4 19 4.44772 19 5V9C19 9.55228 18.5523 10 18 10C17.4477 10 17 9.55228 17 9V5C17 4.44772 17.4477 4 18 4Z" fill="#777E91"/>
<path d="M18 20C18.5523 20 19 20.4477 19 21V23C19 23.5523 18.5523 24 18 24C17.4477 24 17 23.5523 17 23V21C17 20.4477 17.4477 20 18 20Z" fill="#777E91"/>
<path d="M5 6C4.44772 6 4 6.44772 4 7V15C4 15.5523 4.44772 16 5 16H7C7.55228 16 8 15.5523 8 15V7C8 6.44772 7.55228 6 7 6H5Z" fill="#777E91"/>
<path d="M17 12C16.4477 12 16 12.4477 16 13V17C16 17.5523 16.4477 18 17 18H19C19.5523 18 20 17.5523 20 17V13C20 12.4477 19.5523 12 19 12H17Z" fill="#777E91"/>
</svg>
