<svg width="23" height="24" viewBox="0 0 23 24" fill="none" xmlns="http://www.w3.org/2000/svg">
<path d="M6.70833 0C7.23761 0 7.66667 0.447715 7.66667 1V3C7.66667 3.55228 7.23761 4 6.70833 4C6.17906 4 5.75 3.55228 5.75 3V1C5.75 0.447715 6.17906 0 6.70833 0Z" fill="#777E91"/>
<path d="M6.70833 12C7.23761 12 7.66667 12.4477 7.66667 13V19C7.66667 19.5523 7.23761 20 6.70833 20C6.17906 20 5.75 19.5523 5.75 19V13C5.75 12.4477 6.17906 12 6.70833 12Z" fill="#777E91"/>
<path d="M16.2917 4C16.8209 4 17.25 4.44772 17.25 5V13C17.25 13.5523 16.8209 14 16.2917 14C15.7624 14 15.3333 13.5523 15.3333 13V5C15.3333 4.44772 15.7624 4 16.2917 4Z" fill="#777E91"/>
<path d="M16.2917 18C16.8209 18 17.25 18.4477 17.25 19V23C17.25 23.5523 16.8209 24 16.2917 24C15.7624 24 15.3333 23.5523 15.3333 23V19C15.3333 18.4477 15.7624 18 16.2917 18Z" fill="#777E91"/>
<path fill-rule="evenodd" clip-rule="evenodd" d="M3.83301 5C3.83301 3.34315 5.12019 2 6.70801 2C8.29583 2 9.58301 3.34315 9.58301 5V11C9.58301 12.6569 8.29583 14 6.70801 14C5.12019 14 3.83301 12.6569 3.83301 11V5ZM7.66634 5V11C7.66634 11.5523 7.23728 12 6.70801 12C6.17873 12 5.74967 11.5523 5.74967 11V5C5.74967 4.44772 6.17873 4 6.70801 4C7.23728 4 7.66634 4.44772 7.66634 5Z" fill="#777E91"/>
<path fill-rule="evenodd" clip-rule="evenodd" d="M13.4163 15C13.4163 13.3431 14.7035 12 16.2913 12C17.8792 12 19.1663 13.3431 19.1663 15V17C19.1663 18.6569 17.8792 20 16.2913 20C14.7035 20 13.4163 18.6569 13.4163 17V15ZM17.2497 15V17C17.2497 17.5523 16.8206 18 16.2913 18C15.7621 18 15.333 17.5523 15.333 17V15C15.333 14.4477 15.7621 14 16.2913 14C16.8206 14 17.2497 14.4477 17.2497 15Z" fill="#777E91"/>
</svg>
