<svg width="23" height="24" viewBox="0 0 23 24" fill="none" xmlns="http://www.w3.org/2000/svg">
<path d="M17.7693 8.7207L16.1292 11.1166C16.7683 11.3084 17.316 11.7252 17.6885 12.2796L19.3287 9.88357C18.6896 9.69183 18.1419 9.27504 17.7693 8.7207Z" fill="#777E91"/>
<path d="M13.3371 11.8407C12.8753 12.3056 12.5623 12.9303 12.4797 13.6294L9.66215 12.1594C10.124 11.6945 10.4371 11.0699 10.5196 10.3707L13.3371 11.8407Z" fill="#777E91"/>
<path d="M5.31093 11.7207L3.6709 14.1166C4.30992 14.3084 4.85765 14.7252 5.23021 15.2796L6.87033 12.8836C6.23128 12.6918 5.68353 12.275 5.31093 11.7207Z" fill="#777E91"/>
<path fill-rule="evenodd" clip-rule="evenodd" d="M23 7C23 8.65685 21.7128 10 20.125 10C18.5372 10 17.25 8.65685 17.25 7C17.25 5.34315 18.5372 4 20.125 4C21.7128 4 23 5.34315 23 7ZM21.0833 7C21.0833 7.55228 20.6543 8 20.125 8C19.5957 8 19.1667 7.55228 19.1667 7C19.1667 6.44772 19.5957 6 20.125 6C20.6543 6 21.0833 6.44772 21.0833 7Z" fill="#777E91"/>
<path fill-rule="evenodd" clip-rule="evenodd" d="M10.5417 10C10.5417 11.6569 9.25449 13 7.66667 13C6.07885 13 4.79167 11.6569 4.79167 10C4.79167 8.34315 6.07885 7 7.66667 7C9.25449 7 10.5417 8.34315 10.5417 10ZM8.625 10C8.625 10.5523 8.19594 11 7.66667 11C7.13739 11 6.70833 10.5523 6.70833 10C6.70833 9.44772 7.13739 9 7.66667 9C8.19594 9 8.625 9.44772 8.625 10Z" fill="#777E91"/>
<path fill-rule="evenodd" clip-rule="evenodd" d="M5.75 17C5.75 18.6569 4.46282 20 2.875 20C1.28718 20 0 18.6569 0 17C0 15.3431 1.28718 14 2.875 14C4.46282 14 5.75 15.3431 5.75 17ZM3.83333 17C3.83333 17.5523 3.40427 18 2.875 18C2.34573 18 1.91667 17.5523 1.91667 17C1.91667 16.4477 2.34573 16 2.875 16C3.40427 16 3.83333 16.4477 3.83333 17Z" fill="#777E91"/>
<path fill-rule="evenodd" clip-rule="evenodd" d="M15.3333 17C16.9212 17 18.2083 15.6569 18.2083 14C18.2083 12.3431 16.9212 11 15.3333 11C13.7455 11 12.4583 12.3431 12.4583 14C12.4583 15.6569 13.7455 17 15.3333 17ZM15.3333 15C15.8626 15 16.2917 14.5523 16.2917 14C16.2917 13.4477 15.8626 13 15.3333 13C14.8041 13 14.375 13.4477 14.375 14C14.375 14.5523 14.8041 15 15.3333 15Z" fill="#777E91"/>
</svg>
