<svg width="23" height="24" viewBox="0 0 23 24" fill="none" xmlns="http://www.w3.org/2000/svg">
<path fill-rule="evenodd" clip-rule="evenodd" d="M15.1349 4.79312C16.3031 3.57417 18.197 3.57417 19.3652 4.79312C20.5334 6.01207 20.5334 7.98838 19.3652 9.20733L7.8652 21.2073C6.69704 22.4263 4.80307 22.4263 3.63491 21.2073C2.46675 19.9884 2.46675 18.0121 3.63491 16.7931L15.1349 4.79312ZM18.0099 6.20733C17.5903 5.76943 16.9099 5.76943 16.4902 6.20733L4.9902 18.2073C4.57054 18.6452 4.57054 19.3552 4.9902 19.7931C5.40985 20.231 6.09025 20.231 6.50991 19.7931L18.0099 7.79312C18.4296 7.35522 18.4296 6.64524 18.0099 6.20733Z" fill="#777E91"/>
<path d="M12.7393 1.29289C13.1136 0.902369 13.7204 0.902369 14.0946 1.29289L16.9696 4.29289C17.3439 4.68342 17.3439 5.31658 16.9696 5.70711C16.5954 6.09763 15.9886 6.09763 15.6143 5.70711L12.7393 2.70711C12.3651 2.31658 12.3651 1.68342 12.7393 1.29289Z" fill="#777E91"/>
<path d="M10.8227 4.29289C11.1969 3.90237 11.8037 3.90237 12.178 4.29289L14.5738 6.79289C14.9481 7.18342 14.9481 7.81658 14.5738 8.20711C14.1995 8.59763 13.5928 8.59763 13.2185 8.20711L10.8227 5.70711C10.4484 5.31658 10.4484 4.68342 10.8227 4.29289Z" fill="#777E91"/>
<path d="M9.30297 6.29289C8.92872 5.90237 8.32193 5.90237 7.94768 6.29289C7.57343 6.68342 7.57343 7.31658 7.94768 7.70711L10.8227 10.7071C11.1969 11.0976 11.8037 11.0976 12.178 10.7071C12.5522 10.3166 12.5522 9.68342 12.178 9.29289L9.30297 6.29289Z" fill="#777E91"/>
</svg>
