<svg width="24" height="24" viewBox="0 0 24 24" fill="none" xmlns="http://www.w3.org/2000/svg">
<g clip-path="url(#clip0)">
<path d="M4 2C4 0.895431 4.89543 0 6 0H18.763C20.0363 0 20.9854 1.17403 20.7186 2.41906L19.8217 6.60476C19.7723 6.8353 19.5685 7 19.3328 7H12C11.4477 7 11 7.44772 11 8C11 8.55229 11.4477 9 12 9H18.6899C19.0082 9 19.2455 9.29351 19.1788 9.60476L18.1472 14.4191C17.9496 15.3412 17.1347 16 16.1916 16H12.9075C12.6192 16 12.3448 16.1245 12.155 16.3415L5.75258 23.6585C5.47824 23.972 5.03826 24.0826 4.64827 23.9361C4.25828 23.7896 4 23.4166 4 23V2Z" fill="#777E91"/>
</g>
<defs>
<clipPath id="clip0">
<rect width="24" height="24" fill="white"/>
</clipPath>
</defs>
</svg>
