<svg width="23" height="24" viewBox="0 0 23 24" fill="none" xmlns="http://www.w3.org/2000/svg">
<g clip-path="url(#clip0)">
<path fill-rule="evenodd" clip-rule="evenodd" d="M6.70801 0C5.12019 0 3.83301 1.34314 3.83301 3V23C3.83301 23.4166 4.08053 23.7896 4.45427 23.9361C4.82801 24.0826 5.24965 23.972 5.51256 23.6585L11.6482 16.3415C11.8301 16.1245 12.0931 16 12.3694 16H14.7419C16.0976 16 17.269 15.0118 17.5531 13.6286L19.6066 3.62859C19.9901 1.76105 18.6258 0 16.7954 0H6.70801ZM5.74967 3C5.74967 2.44772 6.17873 2 6.70801 2H16.7954C17.4056 2 17.8603 2.58702 17.7325 3.20953L16.9541 7H11.4997C10.9704 7 10.5413 7.44772 10.5413 8C10.5413 8.55228 10.9704 9 11.4997 9H16.5434L15.679 13.2095C15.5843 13.6706 15.1938 14 14.7419 14H12.3694C11.5403 14 10.7517 14.3734 10.2057 15.0245L5.74967 20.3386V3Z" fill="#777E91"/>
</g>
<defs>
<clipPath id="clip0">
<rect width="23" height="24" fill="white"/>
</clipPath>
</defs>
</svg>
