<svg width="24" height="24" viewBox="0 0 24 24" fill="none" xmlns="http://www.w3.org/2000/svg">
<path fill-rule="evenodd" clip-rule="evenodd" d="M1.45309 8.37983C1.76586 5.87768 3.89286 4 6.41448 4H17.5867C20.1083 4 22.2353 5.87768 22.548 8.37983L23.3225 14.5757C23.6826 17.456 21.4367 20 18.5341 20C16.9306 20 15.5009 19.2154 14.6217 18H9.37943C8.50019 19.2154 7.07058 20 5.46705 20C2.56439 20 0.318571 17.456 0.678601 14.5757L1.45309 8.37983ZM8.00049 8C7.4482 8 7.00049 8.44772 7.00049 9V10H6.00049C5.4482 10 5.00049 10.4477 5.00049 11C5.00049 11.5523 5.4482 12 6.00049 12H7.00049V13C7.00049 13.5523 7.4482 14 8.00049 14C8.55277 14 9.00049 13.5523 9.00049 13V12H10.0005C10.5528 12 11.0005 11.5523 11.0005 11C11.0005 10.4477 10.5528 10 10.0005 10H9.00049V9C9.00049 8.44772 8.55277 8 8.00049 8ZM19.0005 9C19.0005 9.55229 18.5528 10 18.0005 10C17.4482 10 17.0005 9.55229 17.0005 9C17.0005 8.44771 17.4482 8 18.0005 8C18.5528 8 19.0005 8.44771 19.0005 9ZM17.0005 13C17.0005 13.5523 16.5528 14 16.0005 14C15.4482 14 15.0005 13.5523 15.0005 13C15.0005 12.4477 15.4482 12 16.0005 12C16.5528 12 17.0005 12.4477 17.0005 13Z" fill="#777E91"/>
</svg>
