<svg width="24" height="24" viewBox="0 0 24 24" fill="none" xmlns="http://www.w3.org/2000/svg">
<path fill-rule="evenodd" clip-rule="evenodd" d="M15.6434 16L16.2422 16.8278C16.7599 17.5435 17.5967 18 18.5341 18C20.2337 18 21.5488 16.5103 21.338 14.8238L20.5635 8.6279C20.3758 7.12661 19.0996 6 17.5867 6H6.41448C4.90151 6 3.62531 7.12661 3.43764 8.6279L2.66316 14.8238C2.45234 16.5103 3.76739 18 5.46705 18C6.40444 18 7.24125 17.5435 7.75897 16.8278L8.35778 16H15.6434ZM14.6217 18C15.5009 19.2154 16.9306 20 18.5341 20C21.4367 20 23.6826 17.456 23.3225 14.5757L22.548 8.37983C22.2353 5.87768 20.1083 4 17.5867 4H6.41448C3.89286 4 1.76586 5.87768 1.45309 8.37983L0.678601 14.5757C0.318571 17.456 2.56439 20 5.46705 20C7.07058 20 8.50019 19.2154 9.37943 18H14.6217Z" fill="#777E91"/>
<path d="M8 8C7.44772 8 7 8.44772 7 9V10H6C5.44772 10 5 10.4477 5 11C5 11.5523 5.44772 12 6 12H7V13C7 13.5523 7.44772 14 8 14C8.55228 14 9 13.5523 9 13V12H10C10.5523 12 11 11.5523 11 11C11 10.4477 10.5523 10 10 10H9V9C9 8.44772 8.55228 8 8 8Z" fill="#777E91"/>
<path d="M18 10C18.5523 10 19 9.55229 19 9C19 8.44771 18.5523 8 18 8C17.4477 8 17 8.44771 17 9C17 9.55229 17.4477 10 18 10Z" fill="#777E91"/>
<path d="M16 14C16.5523 14 17 13.5523 17 13C17 12.4477 16.5523 12 16 12C15.4477 12 15 12.4477 15 13C15 13.5523 15.4477 14 16 14Z" fill="#777E91"/>
</svg>
