<svg width="23" height="24" viewBox="0 0 23 24" fill="none" xmlns="http://www.w3.org/2000/svg">
<path fill-rule="evenodd" clip-rule="evenodd" d="M16.7705 4C16.3372 4 15.7249 4.0625 15.0875 4.15359C14.8122 4.19293 14.6404 4.3928 14.6187 4.65495C14.5006 6.07946 14.3747 8.43537 14.3747 12C14.3747 15.5646 14.5006 17.9205 14.6187 19.345C14.6404 19.6072 14.8122 19.8071 15.0875 19.8464C15.7249 19.9375 16.3372 20 16.7705 20C17.2038 20 17.8161 19.9375 18.4535 19.8464C18.7288 19.8071 18.9006 19.6072 18.9223 19.345C19.0404 17.9205 19.1663 15.5646 19.1663 12C19.1663 8.43537 19.0404 6.07946 18.9223 4.65495C18.9006 4.3928 18.7288 4.19293 18.4535 4.15359C17.8161 4.0625 17.2038 4 16.7705 4ZM14.8274 2.17209C13.6775 2.33642 12.8092 3.27603 12.7092 4.48263C12.5856 5.97301 12.458 8.38715 12.458 12C12.458 15.6129 12.5856 18.027 12.7092 19.5174C12.8092 20.724 13.6775 21.6636 14.8274 21.8279C15.487 21.9222 16.2033 22 16.7705 22C17.3377 22 18.0541 21.9222 18.7136 21.8279C19.8635 21.6636 20.7318 20.724 20.8318 19.5174C20.9554 18.027 21.083 15.6129 21.083 12C21.083 8.38715 20.9554 5.97302 20.8318 4.48263C20.7318 3.27603 19.8635 2.33642 18.7136 2.17209C18.0541 2.07784 17.3377 2 16.7705 2C16.2033 2 15.487 2.07784 14.8274 2.17209Z" fill="#777E91"/>
<path fill-rule="evenodd" clip-rule="evenodd" d="M6.22949 4C5.79615 4 5.18388 4.0625 4.54648 4.15359C4.27122 4.19293 4.09942 4.3928 4.0777 4.65495C3.95963 6.07946 3.83366 8.43537 3.83366 12C3.83366 15.5646 3.95963 17.9205 4.0777 19.345C4.09942 19.6072 4.27122 19.8071 4.54648 19.8464C5.18388 19.9375 5.79615 20 6.22949 20C6.66283 20 7.27511 19.9375 7.91251 19.8464C8.18776 19.8071 8.35956 19.6072 8.38129 19.345C8.49935 17.9205 8.62533 15.5646 8.62533 12C8.62533 8.43537 8.49935 6.07946 8.38129 4.65495C8.35956 4.3928 8.18776 4.19293 7.91251 4.15359C7.27511 4.0625 6.66283 4 6.22949 4ZM4.28641 2.17209C3.1365 2.33642 2.26816 3.27603 2.16816 4.48263C2.04463 5.97301 1.91699 8.38715 1.91699 12C1.91699 15.6129 2.04463 18.027 2.16816 19.5174C2.26816 20.724 3.1365 21.6636 4.28641 21.8279C4.94594 21.9222 5.66231 22 6.22949 22C6.79667 22 7.51304 21.9222 8.17257 21.8279C9.32248 21.6636 10.1908 20.724 10.2908 19.5174C10.4144 18.027 10.542 15.6129 10.542 12C10.542 8.38715 10.4144 5.97302 10.2908 4.48263C10.1908 3.27603 9.32248 2.33642 8.17257 2.17209C7.51304 2.07784 6.79667 2 6.22949 2C5.66231 2 4.94594 2.07784 4.28641 2.17209Z" fill="#777E91"/>
</svg>
