<svg width="23" height="24" viewBox="0 0 23 24" fill="none" xmlns="http://www.w3.org/2000/svg">
<path fill-rule="evenodd" clip-rule="evenodd" d="M15.9649 10.6783C16.4679 10.0428 16.8172 9.26585 16.9608 8.41477C17.1226 7.45563 17.25 6.41137 17.25 5.5V0H5.75V5.5C5.75 6.41137 5.87736 7.45563 6.03922 8.41477C6.18284 9.26585 6.53207 10.0428 7.03515 10.6783C7.48703 11.2492 8.06303 11.706 8.72566 12C8.06303 12.294 7.48703 12.7508 7.03515 13.3217C6.53207 13.9572 6.18284 14.7341 6.03922 15.5852C5.87736 16.5444 5.75 17.5886 5.75 18.5V24H17.25V18.5C17.25 17.5886 17.1226 16.5444 16.9608 15.5852C16.8172 14.7341 16.4679 13.9572 15.9649 13.3217C15.513 12.7508 14.937 12.294 14.2743 12C14.937 11.706 15.513 11.2492 15.9649 10.6783ZM15.3333 22V18.5C15.3333 17.7568 15.2268 16.8427 15.0732 15.9321C14.9092 14.9606 14.3077 14.1881 13.5243 13.8405L11.5 12.9423L9.47566 13.8405C8.69233 14.1881 8.09077 14.9606 7.92684 15.9321C7.77317 16.8427 7.66667 17.7568 7.66667 18.5V22H15.3333ZM11.5 11.0577L13.5243 10.1595C14.3077 9.81191 14.9092 9.03936 15.0732 8.06793C15.2268 7.15732 15.3333 6.24321 15.3333 5.5V2H7.66667V5.5C7.66667 6.24321 7.77317 7.15732 7.92684 8.06793C8.09077 9.03936 8.69233 9.81191 9.47566 10.1595L11.5 11.0577Z" fill="#777E91"/>
<path d="M3.83301 23C3.83301 22.4477 4.26207 22 4.79134 22H18.208C18.7373 22 19.1663 22.4477 19.1663 23V23C19.1663 23.5523 18.7373 24 18.208 24H4.79134C4.26207 24 3.83301 23.5523 3.83301 23V23Z" fill="#777E91"/>
<path d="M3.83301 1C3.83301 0.447715 4.26207 0 4.79134 0H18.208C18.7373 0 19.1663 0.447715 19.1663 1V1C19.1663 1.55228 18.7373 2 18.208 2H4.79134C4.26207 2 3.83301 1.55228 3.83301 1V1Z" fill="#777E91"/>
<path d="M7.66699 21.9998C7.66699 21.3869 7.99883 20.8266 8.52415 20.5526L10.6432 19.447C11.1828 19.1655 11.8179 19.1655 12.3575 19.447L14.4765 20.5526C15.0018 20.8266 15.3337 21.3869 15.3337 21.9998V21.9998H7.66699V21.9998Z" fill="#777E91"/>
</svg>
