<svg width="23" height="24" viewBox="0 0 23 24" fill="none" xmlns="http://www.w3.org/2000/svg">
<path fill-rule="evenodd" clip-rule="evenodd" d="M7.92777 5.23259L7.3331 9.57623C7.20597 10.5049 6.95532 11.3627 6.70825 12.1155C6.5979 12.4517 6.49754 12.7421 6.40318 13.0151C6.26413 13.4174 6.13811 13.782 6.01232 14.2002C5.84214 14.7659 5.74967 15.3698 5.74967 16C5.74967 19.3137 8.32404 22 11.4997 22C14.6753 22 17.2497 19.3137 17.2497 16C17.2497 15.3698 17.1572 14.7659 16.987 14.2002C16.8612 13.7821 16.7352 13.4174 16.5962 13.0151C16.5018 12.7421 16.4015 12.4517 16.2911 12.1155C16.044 11.3627 15.7934 10.5049 15.6662 9.57623L15.0716 5.23259C14.8176 3.37774 13.2953 2 11.4997 2C9.70407 2 8.1817 3.37774 7.92777 5.23259ZM11.4997 0C14.2491 0 16.5802 2.1096 16.969 4.94975L17.5636 9.29338C17.7039 10.3181 18.041 11.2965 18.3781 12.2747C18.53 12.7155 18.6818 13.1562 18.8157 13.6012C19.0435 14.3585 19.1663 15.1643 19.1663 16C19.1663 20.4183 15.7339 24 11.4997 24C7.26549 24 3.83301 20.4183 3.83301 16C3.83301 15.1643 3.95582 14.3585 4.18364 13.6012C4.3175 13.1562 4.46936 12.7155 4.62122 12.2747C4.9583 11.2965 5.29541 10.3181 5.4357 9.29338L6.03036 4.94975C6.41919 2.1096 8.75024 0 11.4997 0Z" fill="#777E91"/>
<path fill-rule="evenodd" clip-rule="evenodd" d="M11.5003 18C12.5589 18 13.417 17.1046 13.417 16C13.417 14.8954 12.5589 14 11.5003 14C10.4418 14 9.58366 14.8954 9.58366 16C9.58366 17.1046 10.4418 18 11.5003 18ZM11.5003 20C13.6174 20 15.3337 18.2091 15.3337 16C15.3337 13.7909 13.6174 12 11.5003 12C9.38323 12 7.66699 13.7909 7.66699 16C7.66699 18.2091 9.38323 20 11.5003 20Z" fill="#777E91"/>
</svg>
