<svg width="24" height="24" viewBox="0 0 24 24" fill="none" xmlns="http://www.w3.org/2000/svg">
<path fill-rule="evenodd" clip-rule="evenodd" d="M4 12C4 7.58172 7.58172 4 12 4C16.4183 4 20 7.58172 20 12C20 12.2444 19.9956 13.1009 19.7388 13.8713C19.6121 14.2514 19.4466 14.5388 19.2545 14.7223C19.0862 14.8831 18.8638 15 18.5 15C18.0962 15 17.902 14.8892 17.7695 14.7538C17.6032 14.5838 17.4253 14.2591 17.2876 13.6534C17.0062 12.415 17 10.5531 17 8C17 7.44772 16.5523 7 16 7C15.4478 7 15.0002 7.44752 15 7.99964C14.1643 7.37195 13.1256 7 12 7C9.23858 7 7 9.23858 7 12C7 14.7614 9.23858 17 12 17C13.4937 17 14.8343 16.3451 15.7505 15.3067C15.9047 15.6175 16.0971 15.9043 16.3399 16.1524C16.9105 16.7358 17.6538 17 18.5 17C19.3862 17 20.1013 16.6794 20.6362 16.1683C21.1472 15.68 21.4504 15.0611 21.6362 14.5037C22.0003 13.4115 22.0001 12.2812 22 12.0089V12C22 6.47715 17.5228 2 12 2C6.47715 2 2 6.47715 2 12C2 17.5228 6.47715 22 12 22C13.5947 22 15.1049 21.626 16.445 20.96C16.9396 20.7142 17.1413 20.114 16.8955 19.6194C16.6497 19.1249 16.0495 18.9232 15.555 19.169C14.4852 19.7006 13.279 20 12 20C7.58172 20 4 16.4183 4 12Z" fill="#777E91"/>
</svg>
