<svg width="23" height="24" viewBox="0 0 23 24" fill="none" xmlns="http://www.w3.org/2000/svg">
<path fill-rule="evenodd" clip-rule="evenodd" d="M3.83366 12C3.83366 7.58172 7.26614 4 11.5003 4C15.7345 4 19.167 7.58172 19.167 12C19.167 12.2444 19.1628 13.1009 18.9167 13.8713C18.7953 14.2514 18.6366 14.5388 18.4525 14.7223C18.2912 14.8831 18.0781 15 17.7295 15C17.3425 15 17.1564 14.8892 17.0295 14.7538C16.87 14.5838 16.6996 14.2591 16.5676 13.6534C16.2979 12.415 16.292 10.5531 16.292 8C16.292 7.44772 15.8629 7 15.3337 7C14.8045 7 14.3755 7.44752 14.3753 7.99964C13.5745 7.37195 12.579 7 11.5003 7C8.85396 7 6.70866 9.23858 6.70866 12C6.70866 14.7614 8.85396 17 11.5003 17C12.9317 17 14.2166 16.3451 15.0946 15.3067C15.2423 15.6175 15.4268 15.9043 15.6594 16.1524C16.2062 16.7358 16.9185 17 17.7295 17C18.5788 17 19.2641 16.6794 19.7767 16.1683C20.2664 15.68 20.5569 15.0611 20.735 14.5037C21.0839 13.4115 21.0837 12.2812 21.0837 12.0089V12C21.0837 6.47715 16.7931 2 11.5003 2C6.2076 2 1.91699 6.47715 1.91699 12C1.91699 17.5228 6.2076 22 11.5003 22C13.0286 22 14.4758 21.626 15.7601 20.96C16.2341 20.7142 16.4274 20.114 16.1919 19.6194C15.9563 19.1249 15.3811 18.9232 14.9072 19.169C13.882 19.7006 12.726 20 11.5003 20C7.26614 20 3.83366 16.4183 3.83366 12ZM14.3753 12C14.3753 13.6569 13.0881 15 11.5003 15C9.91251 15 8.62533 13.6569 8.62533 12C8.62533 10.3431 9.91251 9 11.5003 9C13.0881 9 14.3753 10.3431 14.3753 12Z" fill="#777E91"/>
</svg>
