<svg width="23" height="24" viewBox="0 0 23 24" fill="none" xmlns="http://www.w3.org/2000/svg">
<path d="M11.5003 2C10.9711 2 10.542 2.44772 10.542 3V5C10.542 5.55228 10.9711 6 11.5003 6C12.0296 6 12.4587 5.55228 12.4587 5V3C12.4587 2.44772 12.0296 2 11.5003 2Z" fill="#777E91"/>
<path d="M11.5003 18C10.9711 18 10.542 18.4477 10.542 19V21C10.542 21.5523 10.9711 22 11.5003 22C12.0296 22 12.4587 21.5523 12.4587 21V19C12.4587 18.4477 12.0296 18 11.5003 18Z" fill="#777E91"/>
<path d="M20.1253 11C20.6546 11 21.0837 11.4477 21.0837 12C21.0837 12.5523 20.6546 13 20.1253 13H18.2087C17.6794 13 17.2503 12.5523 17.2503 12C17.2503 11.4477 17.6794 11 18.2087 11H20.1253Z" fill="#777E91"/>
<path d="M5.75033 12C5.75033 11.4477 5.32127 11 4.79199 11H2.87533C2.34605 11 1.91699 11.4477 1.91699 12C1.91699 12.5523 2.34605 13 2.87533 13H4.79199C5.32127 13 5.75033 12.5523 5.75033 12Z" fill="#777E91"/>
<path d="M16.9215 4.92903C17.2958 4.53851 17.9026 4.53851 18.2768 4.92903C18.6511 5.31955 18.6511 5.95272 18.2768 6.34324L16.9215 7.75746C16.5473 8.14798 15.9405 8.14798 15.5662 7.75746C15.192 7.36693 15.192 6.73377 15.5662 6.34324L16.9215 4.92903Z" fill="#777E91"/>
<path d="M7.4345 16.2428C7.06025 15.8522 6.45346 15.8522 6.07921 16.2428L4.72392 17.657C4.34967 18.0475 4.34967 18.6807 4.72392 19.0712C5.09818 19.4617 5.70496 19.4617 6.07921 19.0712L7.4345 17.657C7.80875 17.2664 7.80875 16.6333 7.4345 16.2428Z" fill="#777E91"/>
<path d="M18.2768 17.6569C18.651 18.0474 18.651 18.6806 18.2768 19.0711C17.9025 19.4616 17.2958 19.4616 16.9215 19.0711L15.5662 17.6569C15.192 17.2664 15.192 16.6332 15.5662 16.2427C15.9405 15.8522 16.5472 15.8522 16.9215 16.2427L18.2768 17.6569Z" fill="#777E91"/>
<path d="M7.43447 7.7574C7.80873 7.36688 7.80873 6.73371 7.43447 6.34319L6.07918 4.92897C5.70493 4.53845 5.09815 4.53845 4.7239 4.92897C4.34964 5.3195 4.34964 5.95266 4.7239 6.34319L6.07918 7.7574C6.45344 8.14792 7.06022 8.14792 7.43447 7.7574Z" fill="#777E91"/>
<path fill-rule="evenodd" clip-rule="evenodd" d="M11.5003 14C12.5589 14 13.417 13.1046 13.417 12C13.417 10.8954 12.5589 10 11.5003 10C10.4418 10 9.58366 10.8954 9.58366 12C9.58366 13.1046 10.4418 14 11.5003 14ZM11.5003 16C13.6174 16 15.3337 14.2091 15.3337 12C15.3337 9.79086 13.6174 8 11.5003 8C9.38323 8 7.66699 9.79086 7.66699 12C7.66699 14.2091 9.38323 16 11.5003 16Z" fill="#777E91"/>
</svg>
