<svg width="24" height="24" viewBox="0 0 24 24" fill="none" xmlns="http://www.w3.org/2000/svg">
<path d="M9 1.5C9 1.22386 8.77614 1 8.5 1H6C4.34315 1 3 2.34315 3 4V14.5C3 14.7761 3.22386 15 3.5 15H8.5C8.77614 15 9 14.7761 9 14.5V1.5Z" fill="#777E91"/>
<path d="M3.5 17C3.22386 17 3 17.2239 3 17.5V20C3 21.6569 4.34315 23 6 23H8.5C8.77614 23 9 22.7761 9 22.5V17.5C9 17.2239 8.77614 17 8.5 17H3.5Z" fill="#777E91"/>
<path d="M11 22.5C11 22.7761 11.2239 23 11.5 23H18C19.6569 23 21 21.6569 21 20V17.5C21 17.2239 20.7761 17 20.5 17H11.5C11.2239 17 11 17.2239 11 17.5V22.5Z" fill="#777E91"/>
<path d="M21 14.5C21 14.7761 20.7761 15 20.5 15H11.5C11.2239 15 11 14.7761 11 14.5V1.5C11 1.22386 11.2239 1 11.5 1H13C13.5523 1 14 1.44772 14 2V5C14 6.65685 15.3431 8 17 8H20C20.5523 8 21 8.44772 21 9V14.5Z" fill="#777E91"/>
<path d="M16.9774 1.17757C16.4681 0.963989 16 1.44777 16 2.00005V5.00005C16 5.55234 16.4477 6.00005 17 6.00005H20C20.5523 6.00005 21.0361 5.53194 20.8225 5.02262C20.73 4.80212 20.5972 4.59721 20.4142 4.41427L17.5858 1.58584C17.4028 1.40289 17.1979 1.27003 16.9774 1.17757Z" fill="#777E91"/>
</svg>
