<svg width="23" height="24" viewBox="0 0 23 24" fill="none" xmlns="http://www.w3.org/2000/svg">
<path fill-rule="evenodd" clip-rule="evenodd" d="M2.875 5C2.875 2.79086 4.59124 1 6.70833 1H14.7038C15.7205 1 16.6955 1.42143 17.4144 2.17157L19.0022 3.82843C19.7211 4.57857 20.125 5.59599 20.125 6.65685V19C20.125 21.2091 18.4088 23 16.2917 23H6.70833C4.59124 23 2.875 21.2091 2.875 19V5ZM18.2083 8V19C18.2083 20.1046 17.3502 21 16.2917 21H6.70833C5.64979 21 4.79167 20.1046 4.79167 19V5C4.79167 3.89543 5.64979 3 6.70833 3H13.4167V5C13.4167 6.65685 14.7038 8 16.2917 8H18.2083ZM18.102 6C18.0079 5.7176 17.8534 5.45808 17.647 5.24264L16.0591 3.58579C15.8527 3.37035 15.604 3.20914 15.3333 3.11094V5C15.3333 5.55228 15.7624 6 16.2917 6H18.102Z" fill="#777E91"/>
<path d="M9.58333 1C9.05406 1 8.625 1.44772 8.625 2V15H3.83333C3.30406 15 2.875 15.4477 2.875 16C2.875 16.5523 3.30406 17 3.83333 17H8.625V22C8.625 22.5523 9.05406 23 9.58333 23C10.1126 23 10.5417 22.5523 10.5417 22V17H19.1667C19.6959 17 20.125 16.5523 20.125 16C20.125 15.4477 19.6959 15 19.1667 15H10.5417V2C10.5417 1.44772 10.1126 1 9.58333 1Z" fill="#777E91"/>
</svg>
