<svg width="24" height="24" viewBox="0 0 24 24" fill="none" xmlns="http://www.w3.org/2000/svg">
<path fill-rule="evenodd" clip-rule="evenodd" d="M3.68826 4.24606C1.821 4.36169 0.350133 5.82087 0.204737 7.68604C0.0965153 9.07434 0 10.6819 0 12C0 13.3181 0.0965153 14.9257 0.204737 16.314C0.350133 18.1791 1.821 19.6383 3.68826 19.7539C5.68542 19.8776 8.53673 20 12 20C15.4633 20 18.3146 19.8776 20.3117 19.7539C22.179 19.6383 23.6499 18.1791 23.7953 16.314C23.9035 14.9257 24 13.3181 24 12C24 10.6819 23.9035 9.07434 23.7953 7.68604C23.6499 5.82087 22.179 4.36169 20.3117 4.24606C18.3146 4.12239 15.4633 4 12 4C8.53673 4 5.68542 4.12239 3.68826 4.24606ZM14.752 11.1678L11.5547 9.03633C10.8902 8.59329 10 9.06969 10 9.86838V14.1313C10 14.93 10.8902 15.4064 11.5547 14.9634L14.752 12.8319C15.3457 12.4361 15.3457 11.5636 14.752 11.1678Z" fill="#777E91"/>
</svg>
