<svg width="24" height="24" viewBox="0 0 24 24" fill="none" xmlns="http://www.w3.org/2000/svg">
<path d="M13 6L12.4104 5.01732C11.8306 4.05094 10.8702 3.36835 9.75227 3.22585C8.83875 3.10939 7.66937 3 6.5 3C5.68392 3 4.86784 3.05328 4.13873 3.12505C2.53169 3.28325 1.31947 4.53621 1.19597 6.14628C1.09136 7.51009 1 9.43529 1 12C1 13.8205 1.06629 15.4422 1.15059 16.7685C1.29156 18.9862 3.01613 20.6935 5.23467 20.8214C6.91963 20.9185 9.17474 21 12 21C14.8253 21 17.0804 20.9185 18.7653 20.8214C20.9839 20.6935 22.7084 18.9862 22.8494 16.7685C22.9337 15.4422 23 13.8205 23 12C23 10.9589 22.9398 9.97795 22.8611 9.14085C22.7101 7.53313 21.4669 6.2899 19.8591 6.13886C19.0221 6.06022 18.0411 6 17 6H13Z" fill="#777E91"/>
</svg>
