<svg width="23" height="24" viewBox="0 0 23 24" fill="none" xmlns="http://www.w3.org/2000/svg">
<path fill-rule="evenodd" clip-rule="evenodd" d="M11.3728 8L10.2494 6.04631C9.96438 5.55055 9.53373 5.26705 9.10324 5.20979C8.27395 5.09948 7.24006 5 6.22884 5C5.52611 5 4.80917 5.04811 4.15372 5.11543C3.55034 5.17741 3.10495 5.64512 3.05687 6.29924C2.96061 7.6086 2.87467 9.48265 2.87467 12C2.87467 13.7726 2.93655 15.3516 3.01513 16.6416C3.08848 17.8458 3.9636 18.7547 5.12656 18.8247C6.70464 18.9197 8.82899 19 11.4997 19C14.1704 19 16.2947 18.9197 17.8728 18.8247C19.0357 18.7547 19.9109 17.8458 19.9842 16.6416C20.0628 15.3516 20.1247 13.7726 20.1247 12C20.1247 11.0339 20.071 10.1167 20 9.32792C19.9414 8.67691 19.476 8.19125 18.8521 8.13009C18.0962 8.05599 17.2172 8 16.2913 8H11.3728ZM12.458 6L11.893 5.01732C11.3373 4.05094 10.417 3.36835 9.3456 3.22585C8.47014 3.10939 7.34949 3 6.22884 3C5.44677 3 4.66469 3.05328 3.96595 3.12505C2.42588 3.28325 1.26417 4.53621 1.14581 6.14628C1.04556 7.51009 0.958008 9.43529 0.958008 12C0.958008 13.8205 1.02153 15.4422 1.10232 16.7685C1.23742 18.9862 2.89013 20.6935 5.01623 20.8214C6.63098 20.9185 8.79213 21 11.4997 21C14.2072 21 16.3684 20.9185 17.9831 20.8214C20.1092 20.6935 21.7619 18.9862 21.897 16.7685C21.9778 15.4422 22.0413 13.8205 22.0413 12C22.0413 10.9589 21.9836 9.97795 21.9083 9.14085C21.7635 7.53313 20.5721 6.2899 19.0314 6.13886C18.2291 6.06022 17.2891 6 16.2913 6H12.458Z" fill="#777E91"/>
</svg>
