<svg width="24" height="24" viewBox="0 0 24 24" fill="none" xmlns="http://www.w3.org/2000/svg">
<path d="M6 9C7.65685 9 9 7.65685 9 6C9 4.34315 7.65685 3 6 3C4.34315 3 3 4.34315 3 6C3 7.65685 4.34315 9 6 9Z" fill="#777E91"/>
<path d="M18 21C19.6569 21 21 19.6569 21 18C21 16.3431 19.6569 15 18 15C16.3431 15 15 16.3431 15 18C15 19.6569 16.3431 21 18 21Z" fill="#777E91"/>
<path fill-rule="evenodd" clip-rule="evenodd" d="M18.6001 3.20006C19.0419 3.53143 19.1314 4.15823 18.8001 4.60006L6.80006 20.6001C6.46869 21.0419 5.84189 21.1314 5.40006 20.8001C4.95823 20.4687 4.86869 19.8419 5.20006 19.4001L17.2001 3.40006C17.5314 2.95823 18.1582 2.86869 18.6001 3.20006Z" fill="#777E91"/>
</svg>
