<svg width="23" height="24" viewBox="0 0 23 24" fill="none" xmlns="http://www.w3.org/2000/svg">
<path fill-rule="evenodd" clip-rule="evenodd" d="M9.58366 6C9.58366 8.20914 7.86742 10 5.75033 10C3.63323 10 1.91699 8.20914 1.91699 6C1.91699 3.79086 3.63323 2 5.75033 2C7.86742 2 9.58366 3.79086 9.58366 6ZM7.66699 6C7.66699 7.10457 6.80887 8 5.75033 8C4.69178 8 3.83366 7.10457 3.83366 6C3.83366 4.89543 4.69178 4 5.75033 4C6.80887 4 7.66699 4.89543 7.66699 6Z" fill="#777E91"/>
<path fill-rule="evenodd" clip-rule="evenodd" d="M21.0837 18C21.0837 20.2091 19.3674 22 17.2503 22C15.1332 22 13.417 20.2091 13.417 18C13.417 15.7909 15.1332 14 17.2503 14C19.3674 14 21.0837 15.7909 21.0837 18ZM19.167 18C19.167 19.1046 18.3089 20 17.2503 20C16.1918 20 15.3337 19.1046 15.3337 18C15.3337 16.8954 16.1918 16 17.2503 16C18.3089 16 19.167 16.8954 19.167 18Z" fill="#777E91"/>
<path fill-rule="evenodd" clip-rule="evenodd" d="M18.7964 2.21069C19.2142 2.54976 19.2895 3.17804 18.9645 3.61399L5.54785 21.614C5.22291 22.0499 4.62081 22.1285 4.20303 21.7894C3.78524 21.4503 3.70998 20.8221 4.03492 20.3861L17.4516 2.38611C17.7765 1.95016 18.3786 1.87162 18.7964 2.21069Z" fill="#777E91"/>
</svg>
