<svg width="23" height="24" viewBox="0 0 23 24" fill="none" xmlns="http://www.w3.org/2000/svg">
<path d="M16.2913 4C15.7621 4 15.333 4.44772 15.333 5C15.333 5.55228 15.7621 6 16.2913 6H20.1247C20.654 6 21.083 5.55228 21.083 5C21.083 4.44772 20.654 4 20.1247 4H16.2913Z" fill="#777E91"/>
<path fill-rule="evenodd" clip-rule="evenodd" d="M13.417 13C13.417 10.2386 15.5623 8 18.2087 8C20.855 8 23.0003 10.2386 23.0003 13V14C23.0003 14.5523 22.5713 15 22.042 15H15.3337C15.3337 16.6569 16.6208 18 18.2087 18C18.8771 18 19.4922 17.762 19.9804 17.3628C20.2354 17.1542 20.5367 17 20.8608 17C21.682 17 22.2075 17.8851 21.633 18.4975C20.7632 19.4246 19.5503 20 18.2087 20C15.5623 20 13.417 17.7614 13.417 15V13ZM18.2087 10C16.6208 10 15.3337 11.3431 15.3337 13H21.0837C21.0837 11.3431 19.7965 10 18.2087 10Z" fill="#777E91"/>
<path fill-rule="evenodd" clip-rule="evenodd" d="M1.91667 6V10H6.70833C7.76688 10 8.625 9.10457 8.625 8C8.625 6.89543 7.76688 6 6.70833 6H1.91667ZM9.39146 10.8568C10.1013 10.1308 10.5417 9.11907 10.5417 8C10.5417 5.79086 8.82543 4 6.70833 4H1.53333C0.686496 4 0 4.71635 0 5.6V18.2857C0 19.2325 0.735533 20 1.64286 20H6.70833C9.35469 20 11.5 17.7614 11.5 15C11.5 13.2759 10.6638 11.7557 9.39146 10.8568ZM1.91667 12V18H6.70833C8.29615 18 9.58333 16.6569 9.58333 15C9.58333 13.3431 8.29615 12 6.70833 12H1.91667Z" fill="#777E91"/>
</svg>
