<svg width="26" height="28" viewBox="0 0 26 28" fill="none" xmlns="http://www.w3.org/2000/svg">
<path d="M3.90799 22.0207L4.40799 21.1547L3.90799 22.0207L10.3003 25.7113C11.8473 26.6045 13.7533 26.6045 15.3003 25.7113L21.6926 22.0207C23.2396 21.1276 24.1926 19.4769 24.1926 17.6906V10.3094C24.1926 8.52307 23.2396 6.87244 21.6926 5.97927L15.3003 2.28868C13.7533 1.39551 11.8473 1.39551 10.3003 2.28868L3.90799 5.97927C2.36098 6.87244 1.40799 8.52307 1.40799 10.3094V17.6906C1.40799 19.4769 2.36098 21.1276 3.90799 22.0207Z" fill="#45B36B" stroke="#FCFCFD" stroke-width="2"/>
<path d="M11.9027 9.56319C12.0073 9.38022 11.8525 9.15792 11.6446 9.19256L10.6729 9.35451C10.5243 9.37927 10.4312 9.52873 10.4745 9.67295L10.7772 10.6818C10.8403 10.8923 11.1247 10.9248 11.2337 10.734L11.9027 9.56319Z" fill="#FCFCFD"/>
<path d="M9.61693 10.296C9.56119 10.1102 9.32517 10.0567 9.19858 10.2037C8.80602 10.6594 8.43526 11.1383 8.05131 11.599C8.02995 11.6246 8.00956 11.6508 7.99016 11.6775C7.88604 11.8206 8.00433 12.0002 8.18134 12.0002H9.79219C9.95966 12.0002 10.0798 11.8388 10.0317 11.6784L9.61693 10.296Z" fill="#FCFCFD"/>
<path d="M8.10848 13C7.94032 13 7.82092 13.1639 7.90512 13.3095C7.93214 13.3562 7.9619 13.4018 7.99439 13.4461L11.591 18.3506C11.6511 18.4326 11.7175 18.5064 11.7889 18.5719C11.9442 18.7145 12.1389 18.5502 12.0768 18.3487L10.4829 13.1764C10.4506 13.0715 10.3537 13 10.244 13H8.10848Z" fill="#FCFCFD"/>
<path d="M13.5241 18.3488C13.462 18.5503 13.6566 18.7147 13.8119 18.5721C13.8834 18.5065 13.9498 18.4327 14.01 18.3506L17.6066 13.4461C17.6391 13.4018 17.6689 13.3562 17.6959 13.3095C17.7801 13.1639 17.6607 13 17.4925 13H15.357C15.2472 13 15.1503 13.0715 15.118 13.1764L13.5241 18.3488Z" fill="#FCFCFD"/>
<path d="M17.4192 11.9998C17.5962 11.9998 17.7145 11.8202 17.6104 11.6771C17.591 11.6504 17.5706 11.6242 17.5492 11.5986C17.1653 11.1378 16.7945 10.659 16.4019 10.2032C16.2753 10.0562 16.0393 10.1097 15.9836 10.2955L15.5688 11.678C15.5207 11.8384 15.6408 11.9998 15.8083 11.9998H17.4192Z" fill="#FCFCFD"/>
<path d="M14.928 9.35453C15.0765 9.37928 15.1696 9.52874 15.1264 9.67296L14.8237 10.6819C14.7606 10.8924 14.4762 10.9249 14.3672 10.7341L13.6981 9.5632C13.5935 9.38022 13.7484 9.15792 13.9562 9.19256L14.928 9.35453Z" fill="#FCFCFD"/>
<path d="M12.8002 10.0078L13.7249 11.626C13.8202 11.7927 13.6998 12 13.5079 12H12.0926C11.9007 12 11.7804 11.7927 11.8756 11.626L12.8002 10.0078Z" fill="#FCFCFD"/>
<path d="M13.0391 16.5232C12.9667 16.7586 12.6336 16.7586 12.5612 16.5232L11.5767 13.3235C11.5272 13.1628 11.6474 13 11.8156 13H13.7847C13.9529 13 14.0731 13.1628 14.0236 13.3235L13.0391 16.5232Z" fill="#FCFCFD"/>
</svg>
