<svg width="24" height="24" viewBox="0 0 24 24" fill="none" xmlns="http://www.w3.org/2000/svg">
<path fill-rule="evenodd" clip-rule="evenodd" d="M17.5 12C19.433 12 21 10.433 21 8.5C21 6.567 19.433 5 17.5 5C15.567 5 14 6.567 14 8.5C14 10.433 15.567 12 17.5 12ZM17.5 14C20.5376 14 23 11.5376 23 8.5C23 5.46243 20.5376 3 17.5 3C14.4624 3 12 5.46243 12 8.5C12 11.5376 14.4624 14 17.5 14Z" fill="#777E91"/>
<path fill-rule="evenodd" clip-rule="evenodd" d="M4.5 10C5.32843 10 6 9.32843 6 8.5C6 7.67157 5.32843 7 4.5 7C3.67157 7 3 7.67157 3 8.5C3 9.32843 3.67157 10 4.5 10ZM4.5 12C6.433 12 8 10.433 8 8.5C8 6.567 6.433 5 4.5 5C2.567 5 1 6.567 1 8.5C1 10.433 2.567 12 4.5 12Z" fill="#777E91"/>
<path fill-rule="evenodd" clip-rule="evenodd" d="M9 19C10.1046 19 11 18.1046 11 17C11 15.8954 10.1046 15 9 15C7.89543 15 7 15.8954 7 17C7 18.1046 7.89543 19 9 19ZM9 21C11.2091 21 13 19.2091 13 17C13 14.7909 11.2091 13 9 13C6.79086 13 5 14.7909 5 17C5 19.2091 6.79086 21 9 21Z" fill="#777E91"/>
</svg>
