<svg width="24" height="24" viewBox="0 0 24 24" fill="none" xmlns="http://www.w3.org/2000/svg">
<path fill-rule="evenodd" clip-rule="evenodd" d="M2 3C2.55228 3 3 3.44772 3 4V18C3 18.5523 3.44772 19 4 19H22C22.5523 19 23 19.4477 23 20C23 20.5523 22.5523 21 22 21H4C2.34315 21 1 19.6569 1 18V4C1 3.44772 1.44772 3 2 3Z" fill="#777E91"/>
<path d="M19.3828 16.9241C19.2657 16.9727 19.1375 16.9996 19.003 17L19 17L18.997 17C18.7254 16.9992 18.4792 16.8901 18.2995 16.7136C18.297 16.7112 18.2946 16.7088 18.2922 16.7064L16.2929 14.7071C15.9024 14.3166 15.9024 13.6834 16.2929 13.2929C16.6834 12.9024 17.3166 12.9024 17.7071 13.2929L17.9889 13.5747C17.7678 9.35413 14.2756 6 10 6H6C5.44772 6 5 5.55229 5 5C5 4.44771 5.44772 4 6 4H10C15.3868 4 19.7788 8.25933 19.9919 13.5939L20.2929 13.2929C20.6834 12.9024 21.3166 12.9024 21.7071 13.2929C22.0976 13.6834 22.0976 14.3166 21.7071 14.7071L19.7078 16.7064C19.7054 16.7088 19.703 16.7112 19.7005 16.7136C19.6062 16.8063 19.498 16.8764 19.3828 16.9241Z" fill="#777E91"/>
</svg>
