<svg width="23" height="24" viewBox="0 0 23 24" fill="none" xmlns="http://www.w3.org/2000/svg">
<path fill-rule="evenodd" clip-rule="evenodd" d="M11.4997 22C14.6753 22 17.2497 19.3137 17.2497 16C17.2497 12.6863 14.6753 10 11.4997 10C8.32404 10 5.74967 12.6863 5.74967 16C5.74967 19.3137 8.32404 22 11.4997 22ZM11.4997 24C15.7339 24 19.1663 20.4183 19.1663 16C19.1663 11.5817 15.7339 8 11.4997 8C7.26549 8 3.83301 11.5817 3.83301 16C3.83301 20.4183 7.26549 24 11.4997 24Z" fill="#777E91"/>
<path fill-rule="evenodd" clip-rule="evenodd" d="M11.5003 18C12.5589 18 13.417 17.1046 13.417 16C13.417 14.8954 12.5589 14 11.5003 14C10.4418 14 9.58366 14.8954 9.58366 16C9.58366 17.1046 10.4418 18 11.5003 18ZM11.5003 20C13.6174 20 15.3337 18.2091 15.3337 16C15.3337 13.7909 13.6174 12 11.5003 12C9.38323 12 7.66699 13.7909 7.66699 16C7.66699 18.2091 9.38323 20 11.5003 20Z" fill="#777E91"/>
<path d="M6.93437 2C6.22197 2 5.75862 2.78231 6.07721 3.44721L8.55229 8.6126C7.95525 8.87227 7.39642 9.20847 6.88705 9.60943L4.3629 4.34164C3.4071 2.34694 4.79715 0 6.93437 0H8.39858C9.48755 0 10.4831 0.642007 10.9701 1.65836L11.4998 2.76391L12.0295 1.65836C12.5165 0.642007 13.512 0 14.601 0H16.0652C18.2024 0 19.5925 2.34694 18.6367 4.34164L16.1125 9.60944C15.6032 9.20847 15.0443 8.87228 14.4473 8.6126L16.9224 3.44721C17.241 2.78231 16.7776 2 16.0652 2H14.601C14.238 2 13.9062 2.214 13.7439 2.55279L12.5712 4.99998L14.2658 8.53651C13.5171 8.23414 12.7114 8.05093 11.8703 8.00918L9.25574 2.55279C9.0934 2.214 8.76157 2 8.39858 2H6.93437Z" fill="#777E91"/>
</svg>
