<svg width="24" height="24" viewBox="0 0 24 24" fill="none" xmlns="http://www.w3.org/2000/svg">
<path fill-rule="evenodd" clip-rule="evenodd" d="M10.2096 18.8523C10.3271 20.4628 11.5335 21.7101 13.1413 21.8611C13.9783 21.9398 14.9593 22 16.0004 22C17.0415 22 18.0225 21.9398 18.8596 21.8611C20.4673 21.7101 21.6737 20.4628 21.7912 18.8523C21.9012 17.3432 22.0004 15.118 22.0004 12C22.0004 8.882 21.9012 6.65683 21.7912 5.14773C21.6737 3.5372 20.4673 2.2899 18.8596 2.13886C18.0225 2.06022 17.0415 2 16.0004 2C14.9593 2 13.9783 2.06022 13.1412 2.13886C11.5335 2.2899 10.3271 3.5372 10.2096 5.14773C10.1117 6.49027 10.0224 8.39954 10.0039 11H15.0004C15.5526 11 16.0004 11.4477 16.0004 12C16.0004 12.5523 15.5526 13 15.0004 13H10.0039C10.0224 15.6005 10.1117 17.5097 10.2096 18.8523Z" fill="#777E91"/>
<path fill-rule="evenodd" clip-rule="evenodd" d="M7.20711 14.7929C7.59763 15.1834 7.59763 15.8166 7.20711 16.2071C6.81658 16.5976 6.18342 16.5976 5.79289 16.2071L2.29289 12.7071C1.90237 12.3166 1.90237 11.6834 2.29289 11.2929L5.79289 7.79289C6.18342 7.40237 6.81658 7.40237 7.20711 7.79289C7.59763 8.18342 7.59763 8.81658 7.20711 9.20711L5.41421 11H10V13L5.41421 13L7.20711 14.7929Z" fill="#777E91"/>
</svg>
