<svg width="23" height="24" viewBox="0 0 23 24" fill="none" xmlns="http://www.w3.org/2000/svg">
<path fill-rule="evenodd" clip-rule="evenodd" d="M10.5697 15.0007C11.0986 14.9799 11.5435 15.4104 11.5635 15.9623C11.6085 17.2065 11.6717 18.1145 11.7339 18.7656C11.7951 19.4068 12.166 19.7926 12.6831 19.8586C13.2929 19.9363 14.153 20 15.3333 20C16.5137 20 17.3739 19.9363 17.9836 19.8586C18.5004 19.7926 18.8716 19.4067 18.9328 18.7653C19.0482 17.5568 19.1667 15.4688 19.1667 12C19.1667 8.53118 19.0482 6.44321 18.9328 5.23468C18.8716 4.59333 18.5004 4.20736 17.9836 4.14144C17.3739 4.06366 16.5137 4 15.3333 4C14.153 4 13.2929 4.06365 12.6831 4.14143C12.166 4.20739 11.7951 4.59318 11.7339 5.23437C11.6717 5.88545 11.6085 6.79354 11.5635 8.03772C11.5435 8.58961 11.0986 9.02012 10.5697 8.99929C10.0408 8.97845 9.62819 8.51417 9.64816 7.96228C9.69436 6.68524 9.75986 5.73543 9.82662 5.03611C9.96698 3.56595 10.9493 2.3477 12.4506 2.15621C13.1494 2.06707 14.0883 2 15.3333 2C16.5784 2 17.5173 2.06707 18.2162 2.15622C19.7176 2.34774 20.6997 3.56655 20.84 5.03643C20.9636 6.33068 21.0833 8.48847 21.0833 12C21.0833 15.5115 20.9636 17.6693 20.84 18.9636C20.6997 20.4334 19.7176 21.6523 18.2162 21.8438C17.5173 21.9329 16.5784 22 15.3333 22C14.0883 22 13.1494 21.9329 12.4506 21.8438C10.9493 21.6523 9.96698 20.4341 9.82662 18.9639C9.75986 18.2646 9.69436 17.3148 9.64816 16.0377C9.62819 15.4858 10.0408 15.0215 10.5697 15.0007Z" fill="#777E91"/>
<path fill-rule="evenodd" clip-rule="evenodd" d="M6.90714 14.7929C7.28139 15.1834 7.28139 15.8166 6.90714 16.2071C6.53288 16.5976 5.9261 16.5976 5.55185 16.2071L2.19768 12.7071C1.82343 12.3166 1.82343 11.6834 2.19768 11.2929L5.55185 7.79289C5.9261 7.40237 6.53288 7.40237 6.90714 7.79289C7.28139 8.18342 7.28139 8.81658 6.90714 9.20711L5.18895 11H14.3753C14.9046 11 15.3337 11.4477 15.3337 12C15.3337 12.5523 14.9046 13 14.3753 13L5.18895 13L6.90714 14.7929Z" fill="#777E91"/>
</svg>
