<svg width="24" height="24" viewBox="0 0 24 24" fill="none" xmlns="http://www.w3.org/2000/svg">
<path d="M20.9997 7.5C21.4997 15 15.9997 21 8.9997 21C6.58779 21 4.17588 20.6768 2.28364 19.7706C1.85026 19.5631 2.01966 18.985 2.49911 18.9532C4.82919 18.7987 6.7574 18.2423 7.9997 17C2.5833 15.1945 1.649 8.4995 2.62199 5.00719C2.73623 4.59713 3.26936 4.59499 3.48425 4.96246C5.14573 7.80371 8.3049 9.39003 12.2643 9.02396C12.093 8.54804 11.9997 8.03492 11.9997 7.5C11.9997 5.01472 14.0144 3 16.4997 3C18.0179 3 19.3605 3.75182 20.1755 4.90346L21.8926 4.65815C22.3205 4.59703 22.6191 5.07087 22.3794 5.43047L20.9997 7.5Z" fill="#777E91"/>
</svg>
