<svg width="24" height="24" viewBox="0 0 24 24" fill="none" xmlns="http://www.w3.org/2000/svg">
<path fill-rule="evenodd" clip-rule="evenodd" d="M16.0002 7V10.7297C16.0002 10.9067 16.0472 11.0806 16.1364 11.2335L20.3684 18.4884C21.535 20.4884 20.0924 23 17.777 23H6.22327C3.9079 23 2.46528 20.4884 3.63193 18.4884L7.86394 11.2335C7.95315 11.0806 8.00016 10.9067 8.00016 10.7297V7C7.44791 6.99995 7.00024 6.55226 7.00024 6C7.00024 5.44774 7.44791 5.00005 8.00016 5C8.00013 5 8.00019 5 8.00016 5H16.0002C16.5524 5 17.0002 5.44772 17.0002 6C17.0002 6.55228 16.5524 7 16.0002 7ZM14.4088 12.2413L18.6408 19.4961C19.0297 20.1628 18.5488 21 17.777 21H6.22327C5.45148 21 4.97061 20.1628 5.35949 19.4961L9.59149 12.2413C9.85913 11.7825 10.0002 11.2608 10.0002 10.7297V7H14.0002V10.7297C14.0002 11.2608 14.1412 11.7825 14.4088 12.2413Z" fill="#777E91"/>
<path d="M18.9168 16H5.08349L3.63193 18.4884C2.46528 20.4884 3.9079 23 6.22327 23H17.777C20.0924 23 21.535 20.4884 20.3684 18.4884L18.9168 16Z" fill="#777E91"/>
<path d="M14 3C14.5523 3 15 2.55228 15 2C15 1.44772 14.5523 1 14 1C13.4477 1 13 1.44772 13 2C13 2.55228 13.4477 3 14 3Z" fill="#777E91"/>
<path d="M10 4C10.5523 4 11 3.55228 11 3C11 2.44772 10.5523 2 10 2C9.44771 2 9 2.44772 9 3C9 3.55228 9.44771 4 10 4Z" fill="#777E91"/>
</svg>
