<svg width="23" height="24" viewBox="0 0 23 24" fill="none" xmlns="http://www.w3.org/2000/svg">
<path fill-rule="evenodd" clip-rule="evenodd" d="M15.3328 7V10.7297C15.3328 10.9067 15.3779 11.0806 15.4634 11.2335L19.5191 18.4884C20.6371 20.4884 19.2546 23 17.0357 23H5.96331C3.74442 23 2.36191 20.4884 3.47995 18.4884L7.53562 11.2335C7.62112 11.0806 7.66617 10.9067 7.66617 10.7297V7C7.13693 6.99995 6.70792 6.55226 6.70792 6C6.70792 5.44774 7.13693 5.00005 7.66617 5C7.66614 5 7.66619 5 7.66617 5H15.3328C15.8621 5 16.2913 5.44772 16.2913 6C16.2913 6.55228 15.8621 7 15.3328 7ZM13.8078 12.2413L17.8635 19.4961C18.2362 20.1628 17.7753 21 17.0357 21H5.96331C5.22368 21 4.76285 20.1628 5.13553 19.4961L9.1912 12.2413C9.44768 11.7825 9.58283 11.2608 9.58283 10.7297V7H13.4162V10.7297C13.4162 11.2608 13.5513 11.7825 13.8078 12.2413Z" fill="#777E91"/>
<path d="M4.79199 17C4.79199 16.4477 5.22105 16 5.75033 16H17.2503C17.7796 16 18.2087 16.4477 18.2087 17V17C18.2087 17.5523 17.7796 18 17.2503 18H5.75033C5.22105 18 4.79199 17.5523 4.79199 17V17Z" fill="#777E91"/>
<path d="M13.4167 3C13.9459 3 14.375 2.55228 14.375 2C14.375 1.44772 13.9459 1 13.4167 1C12.8874 1 12.4583 1.44772 12.4583 2C12.4583 2.55228 12.8874 3 13.4167 3Z" fill="#777E91"/>
<path d="M9.58333 4C10.1126 4 10.5417 3.55228 10.5417 3C10.5417 2.44772 10.1126 2 9.58333 2C9.05406 2 8.625 2.44772 8.625 3C8.625 3.55228 9.05406 4 9.58333 4Z" fill="#777E91"/>
</svg>
