<svg width="24" height="24" viewBox="0 0 24 24" fill="none" xmlns="http://www.w3.org/2000/svg">
<path fill-rule="evenodd" clip-rule="evenodd" d="M19 12.6614V7.68505C19 7.1755 18.6169 6.74744 18.1104 6.69117L17.3007 6.6012C13.7777 6.20976 10.2223 6.20976 6.69929 6.6012L5.88957 6.69117C5.38314 6.74744 5 7.1755 5 7.68505V12.6614C5 14.5093 6.08825 16.1838 7.77688 16.9343C10.4655 18.1293 13.5345 18.1293 16.2231 16.9343C17.9117 16.1838 19 14.5093 19 12.6614ZM5.66871 4.7034C4.14941 4.87221 3 6.1564 3 7.68505V12.6614C3 15.2997 4.55372 17.6905 6.9646 18.762C10.1704 20.1867 13.8296 20.1867 17.0354 18.762C19.4463 17.6905 21 15.2997 21 12.6614V7.68505C21 6.1564 19.8506 4.87221 18.3313 4.7034L17.5216 4.61343C13.8518 4.20568 10.1482 4.20568 6.47843 4.61343L5.66871 4.7034Z" fill="#777E91"/>
<path d="M1 8C0.447715 8 0 8.44772 0 9C0 9.55228 0.447715 10 1 10H4C4.55228 10 5 9.55228 5 9C5 8.44772 4.55228 8 4 8H1Z" fill="#777E91"/>
<path d="M20 8C19.4477 8 19 8.44772 19 9C19 9.55228 19.4477 10 20 10H23C23.5523 10 24 9.55228 24 9C24 8.44772 23.5523 8 23 8H20Z" fill="#777E91"/>
<path d="M0 14C0 13.4477 0.447715 13 1 13H4C4.55228 13 5 13.4477 5 14C5 14.5523 4.55228 15 4 15H1C0.447715 15 0 14.5523 0 14Z" fill="#777E91"/>
<path d="M20 13C19.4477 13 19 13.4477 19 14C19 14.5523 19.4477 15 20 15H23C23.5523 15 24 14.5523 24 14C24 13.4477 23.5523 13 23 13H20Z" fill="#777E91"/>
</svg>
