<svg width="23" height="24" viewBox="0 0 23 24" fill="none" xmlns="http://www.w3.org/2000/svg">
<path fill-rule="evenodd" clip-rule="evenodd" d="M11.5003 22C16.7931 22 21.0837 17.5228 21.0837 12C21.0837 6.47715 16.7931 2 11.5003 2C6.2076 2 1.91699 6.47715 1.91699 12C1.91699 17.5228 6.2076 22 11.5003 22ZM17.5568 16.9057C18.566 15.551 19.167 13.8488 19.167 12C19.167 7.92038 16.2405 4.55399 12.4587 4.06189V8.12602C14.112 8.57006 15.3337 10.1362 15.3337 12C15.3337 12.7418 15.1401 13.4365 14.8029 14.0321L17.5568 16.9057ZM16.2015 18.3199L13.4475 15.4462C12.8769 15.7981 12.2112 16 11.5003 16C10.7895 16 10.1238 15.7981 9.55311 15.4462L6.79916 18.3199C8.09739 19.3729 9.72868 20 11.5003 20C13.272 20 14.9033 19.3729 16.2015 18.3199ZM7.66699 12C7.66699 12.7418 7.86053 13.4365 8.19779 14.0321L5.44386 16.9057C4.43464 15.551 3.83366 13.8488 3.83366 12C3.83366 7.92038 6.76011 4.55399 10.542 4.06189V8.12602C8.88865 8.57006 7.66699 10.1362 7.66699 12ZM11.5003 14C12.5589 14 13.417 13.1046 13.417 12C13.417 10.8954 12.5589 10 11.5003 10C10.4418 10 9.58366 10.8954 9.58366 12C9.58366 13.1046 10.4418 14 11.5003 14Z" fill="#777E91"/>
</svg>
