<svg width="24" height="24" viewBox="0 0 24 24" fill="none" xmlns="http://www.w3.org/2000/svg">
<path d="M8.89465 20.4472C9.14164 19.9532 8.94141 19.3525 8.44743 19.1055C7.95345 18.8586 7.35278 19.0588 7.10579 19.5528L6.10579 21.5528C5.8588 22.0467 6.05903 22.6474 6.55301 22.8944C7.04698 23.1414 7.64766 22.9412 7.89465 22.4472L8.89465 20.4472Z" fill="#777E91"/>
<path d="M15.1058 20.4472C14.8589 19.9532 15.0591 19.3525 15.5531 19.1055C16.047 18.8586 16.6477 19.0588 16.8947 19.5528L17.8947 21.5528C18.1417 22.0467 17.9415 22.6474 17.4475 22.8944C16.9535 23.1414 16.3528 22.9412 16.1058 22.4472L15.1058 20.4472Z" fill="#777E91"/>
<path fill-rule="evenodd" clip-rule="evenodd" d="M11 2C11 1.44772 11.4477 1 12 1C12.5523 1 13 1.44772 13 2V3H18C19.6569 3 21 4.34315 21 6V14C21 15.6569 19.6569 17 18 17H6C4.34315 17 3 15.6569 3 14V6C3 4.34315 4.34315 3 6 3H11V2ZM17.7809 7.62473C18.1259 7.19347 18.056 6.56418 17.6247 6.21917C17.1934 5.87416 16.5641 5.94408 16.2191 6.37534L12.7919 10.6594L10.5547 9.16799C10.1581 8.90357 9.62996 8.95587 9.29289 9.29293L6.29289 12.2929C5.90237 12.6835 5.90237 13.3166 6.29289 13.7071C6.68342 14.0977 7.31658 14.0977 7.70711 13.7071L10.1274 11.2868L12.4453 12.8321C12.8769 13.1198 13.4568 13.0298 13.7809 12.6247L17.7809 7.62473Z" fill="#777E91"/>
</svg>
