<svg width="23" height="24" viewBox="0 0 23 24" fill="none" xmlns="http://www.w3.org/2000/svg">
<path fill-rule="evenodd" clip-rule="evenodd" d="M10.542 3C10.542 2.44772 10.9711 2 11.5003 2C12.0296 2 12.4587 2.44772 12.4587 3V4H17.2503C19.3674 4 21.0837 5.79086 21.0837 8V16C21.0837 18.2091 19.3674 20 17.2503 20H16.8843L17.1492 20.5528C17.3859 21.0467 17.194 21.6474 16.7206 21.8944C16.2472 22.1414 15.6716 21.9412 15.4349 21.4472L14.7414 20H8.25924L7.56579 21.4472C7.3291 21.9412 6.75345 22.1414 6.28006 21.8944C5.80666 21.6474 5.61478 21.0467 5.85148 20.5528L6.11634 20H5.75033C3.63323 20 1.91699 18.2091 1.91699 16V8C1.91699 5.79086 3.63323 4 5.75033 4H10.542V3ZM7.68886 18C7.67474 17.9997 7.66064 17.9997 7.64656 18H5.75033C4.69178 18 3.83366 17.1046 3.83366 16V8C3.83366 6.89543 4.69178 6 5.75033 6H17.2503C18.3089 6 19.167 6.89543 19.167 8V16C19.167 17.1046 18.3089 18 17.2503 18H15.3541C15.34 17.9997 15.3259 17.9997 15.3118 18H7.68886Z" fill="#777E91"/>
<path fill-rule="evenodd" clip-rule="evenodd" d="M16.8903 8.21917C17.3036 8.56418 17.3706 9.19347 17.04 9.62473L13.2067 14.6247C12.8961 15.0298 12.3404 15.1198 11.9267 14.8321L9.70544 13.2868L7.38598 15.7071C7.01172 16.0977 6.40494 16.0977 6.03069 15.7071C5.65644 15.3166 5.65644 14.6835 6.03069 14.2929L8.90569 11.2929C9.22871 10.9559 9.73482 10.9036 10.1149 11.168L12.2589 12.6594L15.5433 8.37534C15.874 7.94408 16.477 7.87416 16.8903 8.21917Z" fill="#777E91"/>
</svg>
