<svg width="24" height="24" viewBox="0 0 24 24" fill="none" xmlns="http://www.w3.org/2000/svg">
<g clip-path="url(#clip0)">
<path fill-rule="evenodd" clip-rule="evenodd" d="M10.002 3.05546C10.5509 2.99422 11 3.44768 11 3.99997L11 11.5858C11 11.851 10.8946 12.1053 10.7071 12.2929L5.34315 17.6568C4.95263 18.0473 4.31443 18.0504 3.96962 17.619C3.07318 16.4974 2.45494 15.1735 2.17294 13.7558C1.82567 12.01 2.0039 10.2004 2.68509 8.55582C3.36628 6.91128 4.51983 5.50567 5.99987 4.51674C7.20174 3.71367 8.57508 3.21467 10.002 3.05546Z" fill="#777E91"/>
<path fill-rule="evenodd" clip-rule="evenodd" d="M7.38154 20.0304C6.95012 19.6856 6.95321 19.0474 7.34374 18.6569L12.7077 13.2929C12.8952 13.1054 13.0006 12.851 13.0006 12.5858L13.0006 5C13.0006 4.44771 13.4497 3.99426 13.9986 4.0555C15.1312 4.18187 16.2327 4.52261 17.2432 5.06271C18.5485 5.7604 19.6615 6.76924 20.4838 7.99987C21.3061 9.23049 21.8122 10.6449 21.9573 12.1178C22.1023 13.5908 21.8819 15.0768 21.3155 16.4441C20.7491 17.8115 19.8542 19.0182 18.7101 19.9571C17.566 20.896 16.208 21.5383 14.7564 21.8271C13.3048 22.1158 11.8044 22.0421 10.388 21.6125C9.29162 21.2799 8.27181 20.7419 7.38154 20.0304Z" fill="#777E91"/>
</g>
<defs>
<clipPath id="clip0">
<rect width="24" height="24" fill="white"/>
</clipPath>
</defs>
</svg>
