<svg width="23" height="24" viewBox="0 0 23 24" fill="none" xmlns="http://www.w3.org/2000/svg">
<g clip-path="url(#clip0)">
<path fill-rule="evenodd" clip-rule="evenodd" d="M9.26817 19.1576C9.66269 19.3802 10.079 19.5617 10.5113 19.6986C11.567 20.0327 12.6854 20.0901 13.7674 19.8655C14.8494 19.6409 15.8616 19.1414 16.7144 18.4111C17.5672 17.6808 18.2342 16.7423 18.6563 15.6788C19.0785 14.6153 19.2428 13.4595 19.1347 12.3139C19.0266 11.1683 18.6493 10.0682 18.0364 9.11101C17.4235 8.15386 16.5939 7.3692 15.6209 6.82655C15.2225 6.60433 14.8051 6.42551 14.3753 6.2918L14.3753 12.5858C14.3753 13.3814 14.0724 14.1445 13.5333 14.7071L9.26817 19.1576ZM7.07373 20.0304C6.66029 19.6856 6.66325 19.0474 7.0375 18.6569L12.178 13.2929C12.3577 13.1054 12.4587 12.851 12.4587 12.5858L12.4587 5C12.4587 4.44772 12.889 3.99426 13.415 4.0555C14.5005 4.18187 15.5561 4.52261 16.5245 5.06271C17.7754 5.7604 18.8421 6.76924 19.6301 7.99987C20.4181 9.23049 20.9031 10.6449 21.0421 12.1178C21.1812 13.5908 20.9699 15.0768 20.4271 16.4441C19.8843 17.8115 19.0267 19.0182 17.9303 19.9571C16.8339 20.896 15.5324 21.5383 14.1413 21.8271C12.7502 22.1158 11.3123 22.0421 9.95495 21.6125C8.90422 21.2799 7.9269 20.7419 7.07373 20.0304Z" fill="#777E91"/>
<path fill-rule="evenodd" clip-rule="evenodd" d="M8.62533 5.29176C7.9862 5.4906 7.3756 5.78884 6.81504 6.17968C5.71187 6.94885 4.85204 8.0421 4.3443 9.32118C3.83657 10.6003 3.70372 12.0077 3.96256 13.3656C4.09409 14.0556 4.32374 14.717 4.64093 15.3292L8.62533 11.1715L8.62533 5.29176ZM9.58562 3.05546C10.1116 2.99422 10.542 3.44768 10.542 3.99996L10.542 11.5858C10.542 11.851 10.441 12.1053 10.2613 12.2929L5.12084 17.6568C4.74659 18.0473 4.13499 18.0504 3.80454 17.619C2.94545 16.4974 2.35297 15.1735 2.08272 13.7558C1.74993 12.01 1.92073 10.2003 2.57353 8.55581C3.22634 6.91128 4.33183 5.50567 5.7502 4.51674C6.902 3.71367 8.21811 3.21466 9.58562 3.05546Z" fill="#777E91"/>
</g>
<defs>
<clipPath id="clip0">
<rect width="23" height="24" fill="white"/>
</clipPath>
</defs>
</svg>
