<svg width="23" height="24" viewBox="0 0 23 24" fill="none" xmlns="http://www.w3.org/2000/svg">
<path fill-rule="evenodd" clip-rule="evenodd" d="M4.79167 6L4.79167 15L18.2083 15L18.2083 6C18.2083 5.44772 17.7793 5 17.25 5L5.75 5C5.22073 5 4.79167 5.44772 4.79167 6ZM2.875 17L20.125 17L20.125 6C20.125 4.34315 18.8378 3 17.25 3L5.75 3C4.16218 3 2.875 4.34315 2.875 6L2.875 17Z" fill="#777E91"/>
<path fill-rule="evenodd" clip-rule="evenodd" d="M2.87467 17L2.87467 18C2.87467 18.5523 3.30373 19 3.83301 19L19.1663 19C19.6956 19 20.1247 18.5523 20.1247 18L20.1247 17L2.87467 17ZM0.958008 18C0.958008 19.6569 2.24519 21 3.83301 21L19.1663 21C20.7542 21 22.0413 19.6569 22.0413 18L22.0413 16C22.0413 15.4477 21.6123 15 21.083 15L1.91634 15C1.38707 15 0.958008 15.4477 0.958008 16L0.958008 18Z" fill="#777E91"/>
</svg>
