<svg width="24" height="24" viewBox="0 0 24 24" fill="none" xmlns="http://www.w3.org/2000/svg">
<path d="M2.21452 11L2 11C1.44772 11 1 11.4477 1 12C1 12.5523 1.44772 13 2 13H2.88662C2.59783 12.3705 2.36782 11.7038 2.21452 11Z" fill="#777E91"/>
<path d="M21.1134 13C21.4022 12.3705 21.6322 11.7038 21.7855 11L22 11C22.5523 11 23 11.4477 23 12C23 12.5523 22.5523 13 22 13H21.1134Z" fill="#777E91"/>
<path d="M8 3C9.53671 3 10.9385 3.57771 12 4.52779C13.0615 3.57771 14.4633 3 16 3C19.3137 3 22 5.68645 22 9.00016C22 9.69714 21.9241 10.3637 21.7855 11H18.6213C18.4887 11 18.3615 10.9473 18.2678 10.8536L16.7071 9.29289C16.506 9.09176 16.2287 8.9858 15.9447 9.00153C15.6607 9.01726 15.3968 9.15319 15.2191 9.37531L12.3221 12.9966C12.2339 13.1069 12.0623 13.0935 11.9923 12.9709L8.86824 7.50386C8.68527 7.18366 8.34091 6.99015 7.97225 7.00039C7.6036 7.01062 7.2705 7.22293 7.10557 7.55279L5.52016 10.7236C5.43547 10.893 5.26233 11 5.07295 11H2.21452C2.07591 10.3637 2 9.69703 2 9C2 5.68629 4.68629 3 8 3Z" fill="#777E91"/>
<path d="M2.88662 13C4.8394 17.2567 9.4803 19.8146 11.2745 20.674C11.7377 20.8958 12.2623 20.8958 12.7255 20.674C14.5197 19.8147 19.1607 17.2567 21.1134 13H18C17.7348 13 17.4804 12.8946 17.2929 12.7071L16.2409 11.6551C16.1566 11.5709 16.0178 11.5785 15.9433 11.6716L12.7809 15.6247C12.574 15.8833 12.2525 16.0227 11.9223 15.997C11.5921 15.9712 11.2961 15.7837 11.1318 15.4961L8.24421 10.4429C8.16496 10.3042 7.96311 10.3098 7.89168 10.4527L6.89443 12.4472C6.72504 12.786 6.37877 13 6 13H2.88662Z" fill="#777E91"/>
</svg>
