<svg width="23" height="24" viewBox="0 0 23 24" fill="none" xmlns="http://www.w3.org/2000/svg">
<path fill-rule="evenodd" clip-rule="evenodd" d="M12.1395 6.61496C11.7756 6.95478 11.2251 6.95478 10.8612 6.61496L10.2221 6.01806C9.54261 5.38348 8.65001 5 7.66699 5C5.5499 5 3.83366 6.79086 3.83366 9C3.83366 12.1035 5.69236 14.5906 7.90596 16.4384C8.98733 17.3411 10.0791 18.0258 10.9048 18.4853C11.2772 18.6925 11.7234 18.6925 12.0958 18.4853C12.9216 18.0257 14.0133 17.341 15.0947 16.4383C17.3083 14.5905 19.167 12.1037 19.167 9.00016C19.167 6.79102 17.4508 5 15.3337 5C14.3506 5 13.458 5.38348 12.7786 6.01806L12.1395 6.61496ZM11.5003 4.52779C10.483 3.57771 9.13967 3 7.66699 3C4.49135 3 1.91699 5.68629 1.91699 9C1.91699 15.6814 8.60144 19.5727 10.805 20.674C11.2489 20.8958 11.7517 20.8958 12.1956 20.674C14.3992 19.5727 21.0837 15.6815 21.0837 9.00016C21.0837 5.68645 18.5093 3 15.3337 3C13.861 3 12.5176 3.57771 11.5003 4.52779Z" fill="#777E91"/>
<path fill-rule="evenodd" clip-rule="evenodd" d="M7.63975 7.00039C7.99304 6.99015 8.32306 7.18366 8.49841 7.50386L11.4923 12.9709C11.5594 13.0935 11.7238 13.1069 11.8083 12.9966L14.5847 9.37531C14.755 9.15319 15.0078 9.01726 15.28 9.00153C15.5522 8.9858 15.8179 9.09176 16.0107 9.29289L17.5063 10.8536C17.5961 10.9473 17.718 11 17.8451 11H21.083C21.6123 11 22.0413 11.4477 22.0413 12C22.0413 12.5523 21.6123 13 21.083 13H17.2497C16.9955 13 16.7518 12.8946 16.572 12.7071L15.5639 11.6551C15.4831 11.5709 15.3501 11.5785 15.2787 11.6716L12.248 15.6247C12.0497 15.8833 11.7416 16.0227 11.4252 15.997C11.1088 15.9712 10.8251 15.7837 10.6676 15.4961L7.90037 10.4429C7.82442 10.3042 7.63099 10.3098 7.56253 10.4527L6.60683 12.4472C6.4445 12.786 6.11266 13 5.74967 13H1.91634C1.38707 13 0.958008 12.5523 0.958008 12C0.958008 11.4477 1.38707 11 1.91634 11H4.86125C5.04274 11 5.20866 10.893 5.28983 10.7236L6.80918 7.55279C6.96724 7.22293 7.28646 7.01062 7.63975 7.00039Z" fill="#777E91"/>
</svg>
