<svg width="24" height="24" viewBox="0 0 24 24" fill="none" xmlns="http://www.w3.org/2000/svg">
<path fill-rule="evenodd" clip-rule="evenodd" d="M5 5C3.89543 5 3 5.89543 3 7L3 21C3 22.1046 3.89543 23 5 23H19C20.1046 23 21 22.1046 21 21V7C21 5.89543 20.1046 5 19 5L5 5ZM14.7519 13.1679L11.5547 11.0365C10.8901 10.5934 10 11.0698 10 11.8685L10 16.1315C10 16.9302 10.8901 17.4066 11.5547 16.9635L14.7519 14.8321C15.3457 14.4362 15.3457 13.5638 14.7519 13.1679Z" fill="#777E91"/>
<path d="M6 2C6 2.55228 6.44772 3 7 3H17C17.5523 3 18 2.55228 18 2C18 1.44772 17.5523 1 17 1H7C6.44772 1 6 1.44772 6 2Z" fill="#777E91"/>
</svg>
