<svg width="24" height="24" viewBox="0 0 24 24" fill="none" xmlns="http://www.w3.org/2000/svg">
<path fill-rule="evenodd" clip-rule="evenodd" d="M18 7H6C5.44772 7 5 7.44772 5 8V20C5 20.5523 5.44772 21 6 21H18C18.5523 21 19 20.5523 19 20V8C19 7.44772 18.5523 7 18 7ZM6 5C4.34315 5 3 6.34315 3 8V20C3 21.6569 4.34315 23 6 23H18C19.6569 23 21 21.6569 21 20V8C21 6.34315 19.6569 5 18 5H6Z" fill="#777E91"/>
<path d="M6 2C6 2.55228 6.44772 3 7 3H17C17.5523 3 18 2.55228 18 2C18 1.44772 17.5523 1 17 1H7C6.44772 1 6 1.44772 6 2Z" fill="#777E91"/>
<path d="M11.5547 11.0363L14.7519 13.1678C15.3457 13.5636 15.3457 14.4361 14.7519 14.8319L11.5547 16.9634C10.8901 17.4064 10 16.93 10 16.1313L10 11.8684C10 11.0697 10.8901 10.5933 11.5547 11.0363Z" fill="#777E91"/>
</svg>
