<svg width="24" height="24" viewBox="0 0 24 24" fill="none" xmlns="http://www.w3.org/2000/svg">
<path fill-rule="evenodd" clip-rule="evenodd" d="M12.6 11.2001L4.6 5.20008C3.94076 4.70565 3 5.17603 3 6.00008V18.0001C3 18.8241 3.94076 19.2945 4.6 18.8001L12.6 12.8001C13.1333 12.4001 13.1333 11.6001 12.6 11.2001ZM5.8 3.60008C3.82229 2.11679 1 3.52794 1 6.00008V18.0001C1 20.4722 3.82229 21.8834 5.8 20.4001L13.8 14.4001C15.4 13.2001 15.4 10.8001 13.8 9.60008L5.8 3.60008Z" fill="#777E91"/>
<path fill-rule="evenodd" clip-rule="evenodd" d="M21 18V6C21 5.44772 20.5523 5 20 5C19.4477 5 19 5.44772 19 6V18C19 18.5523 19.4477 19 20 19C20.5523 19 21 18.5523 21 18ZM20 3C18.3431 3 17 4.34315 17 6V18C17 19.6569 18.3431 21 20 21C21.6569 21 23 19.6569 23 18V6C23 4.34315 21.6569 3 20 3Z" fill="#777E91"/>
</svg>
