<svg width="24" height="24" viewBox="0 0 24 24" fill="none" xmlns="http://www.w3.org/2000/svg">
<path d="M4 1C4 0.447716 4.44772 0 5 0C5.55228 0 6 0.447715 6 1V23C6 23.5523 5.55228 24 5 24C4.44772 24 4 23.5523 4 23V1Z" fill="#777E91"/>
<path d="M14 5C14 4.44772 14.4477 4 15 4H19.382C20.1253 4 20.6088 4.78231 20.2764 5.44721L18.2236 9.55279C18.0828 9.83431 18.0828 10.1657 18.2236 10.4472L20.2764 14.5528C20.6088 15.2177 20.1253 16 19.382 16H16C14.8954 16 14 15.1046 14 14V5Z" fill="#777E91"/>
<path d="M8 3C8 2.44772 8.44772 2 9 2H10C11.1046 2 12 2.89543 12 4V13C12 13.5523 11.5523 14 11 14H9C8.44772 14 8 13.5523 8 13V3Z" fill="#777E91"/>
</svg>
