<svg width="24" height="24" viewBox="0 0 24 24" fill="none" xmlns="http://www.w3.org/2000/svg">
<path d="M4 1C4 0.447716 4.44772 0 5 0C5.55228 0 6 0.447715 6 1V23C6 23.5523 5.55228 24 5 24C4.44772 24 4 23.5523 4 23V1Z" fill="#777E91"/>
<path fill-rule="evenodd" clip-rule="evenodd" d="M11.1707 14H4V2H10C11.3062 2 12.4175 2.83481 12.8293 4H17.7639C19.2507 4 20.2177 5.56463 19.5528 6.89443L18 10L19.5528 13.1056C20.2177 14.4354 19.2507 16 17.7639 16H14C12.6938 16 11.5825 15.1652 11.1707 14ZM6 4H10C10.5523 4 11 4.44772 11 5V12H6V4ZM13 13C13 13.5523 13.4477 14 14 14H17.7639L15.7639 10L17.7639 6H13V13Z" fill="#777E91"/>
</svg>
