<svg width="23" height="24" viewBox="0 0 23 24" fill="none" xmlns="http://www.w3.org/2000/svg">
<path fill-rule="evenodd" clip-rule="evenodd" d="M11.5003 20C15.7345 20 19.167 16.4183 19.167 12C19.167 7.58172 15.7345 4 11.5003 4C7.26614 4 3.83366 7.58172 3.83366 12C3.83366 16.4183 7.26614 20 11.5003 20ZM11.5003 22C16.7931 22 21.0837 17.5228 21.0837 12C21.0837 6.47715 16.7931 2 11.5003 2C6.2076 2 1.91699 6.47715 1.91699 12C1.91699 17.5228 6.2076 22 11.5003 22Z" fill="#777E91"/>
<path fill-rule="evenodd" clip-rule="evenodd" d="M11.4997 15C13.0875 15 14.3747 13.6569 14.3747 12C14.3747 10.3431 13.0875 9 11.4997 9C9.91186 9 8.62467 10.3431 8.62467 12C8.62467 13.6569 9.91186 15 11.4997 15ZM11.4997 17C14.146 17 16.2913 14.7614 16.2913 12C16.2913 9.23858 14.146 7 11.4997 7C8.85331 7 6.70801 9.23858 6.70801 12C6.70801 14.7614 8.85331 17 11.4997 17Z" fill="#777E91"/>
</svg>
