<svg width="23" height="24" viewBox="0 0 23 24" fill="none" xmlns="http://www.w3.org/2000/svg">
<path fill-rule="evenodd" clip-rule="evenodd" d="M19.167 18V11C19.167 9.89543 18.3089 9 17.2503 9H5.75033C4.69178 9 3.83366 9.89543 3.83366 11V18C3.83366 19.1046 4.69178 20 5.75033 20H17.2503C18.3089 20 19.167 19.1046 19.167 18ZM5.75033 7C3.63323 7 1.91699 8.79086 1.91699 11V18C1.91699 20.2091 3.63323 22 5.75033 22H17.2503C19.3674 22 21.0837 20.2091 21.0837 18V11C21.0837 8.79086 19.3674 7 17.2503 7H5.75033Z" fill="#777E91"/>
<path fill-rule="evenodd" clip-rule="evenodd" d="M8.625 4C8.09573 4 7.66667 4.44772 7.66667 5V8C7.66667 8.55228 7.23761 9 6.70833 9C6.17906 9 5.75 8.55228 5.75 8V5C5.75 3.34315 7.03718 2 8.625 2H14.375C15.9628 2 17.25 3.34315 17.25 5V8C17.25 8.55228 16.8209 9 16.2917 9C15.7624 9 15.3333 8.55228 15.3333 8V5C15.3333 4.44772 14.9043 4 14.375 4H8.625Z" fill="#777E91"/>
</svg>
