<svg width="24" height="24" viewBox="0 0 24 24" fill="none" xmlns="http://www.w3.org/2000/svg">
<path d="M21 9C21 8.44772 20.5523 8 20 8C19.4477 8 19 8.44772 19 9V11H17C16.4477 11 16 11.4477 16 12C16 12.5523 16.4477 13 17 13H19V15C19 15.5523 19.4477 16 20 16C20.5523 16 21 15.5523 21 15V13H23C23.5523 13 24 12.5523 24 12C24 11.4477 23.5523 11 23 11H21V9Z" fill="#777E91"/>
<path d="M5 8.99981L9.63212 4.6572C10.9094 3.4597 13 4.36539 13 6.11627V17.8833C13 19.6342 10.9095 20.5399 9.63212 19.3424L5 14.9998H2C0.89543 14.9998 0 14.1044 0 12.9998V10.9998C0 9.89524 0.895431 8.99981 2 8.99981H5Z" fill="#777E91"/>
</svg>
