<svg width="23" height="24" viewBox="0 0 23 24" fill="none" xmlns="http://www.w3.org/2000/svg">
<path d="M20.1247 9C20.1247 8.44772 19.6956 8 19.1663 8C18.6371 8 18.208 8.44772 18.208 9V11H16.2913C15.7621 11 15.333 11.4477 15.333 12C15.333 12.5523 15.7621 13 16.2913 13H18.208V15C18.208 15.5523 18.6371 16 19.1663 16C19.6956 16 20.1247 15.5523 20.1247 15V13H22.0413C22.5706 13 22.9997 12.5523 22.9997 12C22.9997 11.4477 22.5706 11 22.0413 11H20.1247V9Z" fill="#777E91"/>
<path fill-rule="evenodd" clip-rule="evenodd" d="M5.58558 9.9997H2.875C2.34573 9.9997 1.91667 10.4474 1.91667 10.9997V12.9997C1.91667 13.552 2.34573 13.9997 2.875 13.9997H5.58558L8.90569 17.4642C9.50941 18.0941 10.5417 17.648 10.5417 16.7571V7.24234C10.5417 6.35144 9.50941 5.90527 8.90569 6.53524L5.58558 9.9997ZM4.79167 15.9997L7.5504 18.8784C9.36155 20.7683 12.4583 19.4298 12.4583 16.7571V7.24234C12.4583 4.56963 9.36155 3.23113 7.5504 5.12102L4.79167 7.9997H2.875C1.28718 7.9997 0 9.34285 0 10.9997V12.9997C0 14.6566 1.28718 15.9997 2.875 15.9997H4.79167Z" fill="#777E91"/>
</svg>
