<svg width="23" height="24" viewBox="0 0 23 24" fill="none" xmlns="http://www.w3.org/2000/svg">
<path fill-rule="evenodd" clip-rule="evenodd" d="M17.25 1C18.8378 1 20.125 2.34315 20.125 4V8C20.125 8.55228 19.6959 9 19.1667 9C18.6374 9 18.2083 8.55228 18.2083 8V7H14.375V21H15.3333C15.8626 21 16.2917 21.4477 16.2917 22C16.2917 22.5523 15.8626 23 15.3333 23H7.66667C7.13739 23 6.70833 22.5523 6.70833 22C6.70833 21.4477 7.13739 21 7.66667 21H8.625V7H4.79167V8C4.79167 8.55228 4.36261 9 3.83333 9C3.30406 9 2.875 8.55228 2.875 8V4C2.875 2.34315 4.16218 1 5.75 1H17.25ZM18.2083 5V4C18.2083 3.44772 17.7793 3 17.25 3H5.75C5.22073 3 4.79167 3.44772 4.79167 4V5H10.5417V21H12.4583V5H18.2083Z" fill="#777E91"/>
</svg>
