<svg width="23" height="24" viewBox="0 0 23 24" fill="none" xmlns="http://www.w3.org/2000/svg">
<path fill-rule="evenodd" clip-rule="evenodd" d="M2.875 12C2.875 11.4477 3.30406 11 3.83333 11H19.1667C19.6959 11 20.125 11.4477 20.125 12V17C20.125 19.2091 18.4088 21 16.2917 21H6.70833C4.59124 21 2.875 19.2091 2.875 17V12ZM5.27083 13C5.0062 13 4.79167 13.2239 4.79167 13.5V17C4.79167 18.1046 5.64979 19 6.70833 19H16.2917C17.3502 19 18.2083 18.1046 18.2083 17V13.5C18.2083 13.2239 17.9938 13 17.7292 13H5.27083Z" fill="#777E91"/>
<path fill-rule="evenodd" clip-rule="evenodd" d="M18.2087 8H4.79199C4.26272 8 3.83366 8.44772 3.83366 9V10C3.83366 10.5523 4.26272 11 4.79199 11H18.2087C18.7379 11 19.167 10.5523 19.167 10V9C19.167 8.44771 18.7379 8 18.2087 8ZM4.79199 6C3.20417 6 1.91699 7.34315 1.91699 9V10C1.91699 11.6569 3.20417 13 4.79199 13H18.2087C19.7965 13 21.0837 11.6569 21.0837 10V9C21.0837 7.34315 19.7965 6 18.2087 6H4.79199Z" fill="#777E91"/>
<path d="M10.542 6H12.4587V21H10.542V6Z" fill="#777E91"/>
<path fill-rule="evenodd" clip-rule="evenodd" d="M9.58301 8C7.99519 8 6.70801 6.65685 6.70801 5C6.70801 3.34315 7.99519 2 9.58301 2C10.3193 2 10.991 2.28885 11.4997 2.76389C12.0083 2.28885 12.68 2 13.4163 2C15.0042 2 16.2913 3.34315 16.2913 5C16.2913 6.65685 15.0042 8 13.4163 8H9.58301ZM9.58301 4C10.1123 4 10.5413 4.44772 10.5413 5V6H9.58301C9.05373 6 8.62467 5.55228 8.62467 5C8.62467 4.44772 9.05373 4 9.58301 4ZM12.458 6H13.4163C13.9456 6 14.3747 5.55228 14.3747 5C14.3747 4.44772 13.9456 4 13.4163 4C12.8871 4 12.458 4.44772 12.458 5V6Z" fill="#777E91"/>
</svg>
