<svg width="24" height="24" viewBox="0 0 24 24" fill="none" xmlns="http://www.w3.org/2000/svg">
<path d="M0 6C0 4.89543 0.895431 4 2 4H4C5.10457 4 6 4.89543 6 6V8C6 9.10457 5.10457 10 4 10H2C0.89543 10 0 9.10457 0 8V6Z" fill="#777E91"/>
<path d="M0 16C0 14.8954 0.895431 14 2 14H4C5.10457 14 6 14.8954 6 16V18C6 19.1046 5.10457 20 4 20H2C0.89543 20 0 19.1046 0 18V16Z" fill="#777E91"/>
<path d="M20 9C18.8954 9 18 9.89543 18 11V13C18 14.1046 18.8954 15 20 15H22C23.1046 15 24 14.1046 24 13V11C24 9.89543 23.1046 9 22 9H20Z" fill="#777E91"/>
<path d="M9 6C8.44771 6 8 6.44772 8 7C8 7.55228 8.44771 8 9 8H10C10.5523 8 11 8.44772 11 9V15C11 15.5523 10.5523 16 10 16H9C8.44771 16 8 16.4477 8 17C8 17.5523 8.44771 18 9 18H10C11.6569 18 13 16.6569 13 15V13H15C15.5523 13 16 12.5523 16 12C16 11.4477 15.5523 11 15 11H13V9C13 7.34315 11.6569 6 10 6H9Z" fill="#777E91"/>
</svg>
