<svg width="24" height="24" viewBox="0 0 24 24" fill="none" xmlns="http://www.w3.org/2000/svg">
<path fill-rule="evenodd" clip-rule="evenodd" d="M4 3C2.34315 3 1 4.34315 1 6V8C1 9.65685 2.34315 11 4 11H6C7.65685 11 9 9.65685 9 8V6C9 4.34315 7.65685 3 6 3H4ZM6 5H4C3.44772 5 3 5.44772 3 6V8C3 8.55228 3.44772 9 4 9H6C6.55228 9 7 8.55228 7 8V6C7 5.44772 6.55228 5 6 5Z" fill="#777E91"/>
<path fill-rule="evenodd" clip-rule="evenodd" d="M4 13C2.34315 13 1 14.3431 1 16V18C1 19.6569 2.34315 21 4 21H6C7.65685 21 9 19.6569 9 18V16C9 14.3431 7.65685 13 6 13H4ZM6 15H4C3.44772 15 3 15.4477 3 16V18C3 18.5523 3.44772 19 4 19H6C6.55228 19 7 18.5523 7 18V16C7 15.4477 6.55228 15 6 15Z" fill="#777E91"/>
<path fill-rule="evenodd" clip-rule="evenodd" d="M15 11C15 9.34315 16.3431 8 18 8H20C21.6569 8 23 9.34315 23 11V13C23 14.6569 21.6569 16 20 16H18C16.3431 16 15 14.6569 15 13V11ZM18 10H20C20.5523 10 21 10.4477 21 11V13C21 13.5523 20.5523 14 20 14H18C17.4477 14 17 13.5523 17 13V11C17 10.4477 17.4477 10 18 10Z" fill="#777E91"/>
<path d="M9 8H10C10.5523 8 11 8.44772 11 9V15C11 15.5523 10.5523 16 10 16H9V18H10C11.6569 18 13 16.6569 13 15V13H15V11H13V9C13 7.34315 11.6569 6 10 6H9V8Z" fill="#777E91"/>
</svg>
