<svg width="24" height="24" viewBox="0 0 24 24" fill="none" xmlns="http://www.w3.org/2000/svg">
<path d="M12 17C11.4477 17 11 17.4477 11 18V19H9C8.44772 19 8 19.4477 8 20C8 20.5523 8.44771 21 9 21H15C15.5523 21 16 20.5523 16 20C16 19.4477 15.5523 19 15 19H13V18C13 17.4477 12.5523 17 12 17Z" fill="#777E91"/>
<path d="M7 5C7 3.89543 7.89543 3 9 3H15C16.1046 3 17 3.89543 17 5V10C17 12.7614 14.7614 15 12 15C9.23858 15 7 12.7614 7 10V5Z" fill="#777E91"/>
<path d="M4 5C2.34315 5 1 6.34315 1 8V9C1 10.6569 2.34315 12 4 12C4.55228 12 5 11.5523 5 11C5 10.4477 4.55228 10 4 10C3.44772 10 3 9.55228 3 9V8C3 7.44772 3.44772 7 4 7C4.55228 7 5 6.55228 5 6C5 5.44772 4.55228 5 4 5Z" fill="#777E91"/>
<path d="M20 5C21.6569 5 23 6.34315 23 8V9C23 10.6569 21.6569 12 20 12C19.4477 12 19 11.5523 19 11C19 10.4477 19.4477 10 20 10C20.5523 10 21 9.55228 21 9V8C21 7.44772 20.5523 7 20 7C19.4477 7 19 6.55228 19 6C19 5.44772 19.4477 5 20 5Z" fill="#777E91"/>
</svg>
