<svg width="23" height="24" viewBox="0 0 23 24" fill="none" xmlns="http://www.w3.org/2000/svg">
<path fill-rule="evenodd" clip-rule="evenodd" d="M15.3337 5H7.66699C7.13772 5 6.70866 5.44772 6.70866 6V10C6.70866 12.7614 8.85396 15 11.5003 15C14.1467 15 16.292 12.7614 16.292 10V6C16.292 5.44772 15.8629 5 15.3337 5ZM7.66699 3C6.07917 3 4.79199 4.34315 4.79199 6V10C4.79199 13.866 7.79542 17 11.5003 17C15.2052 17 18.2087 13.866 18.2087 10V6C18.2087 4.34315 16.9215 3 15.3337 3H7.66699Z" fill="#777E91"/>
<path fill-rule="evenodd" clip-rule="evenodd" d="M0.958008 8C0.958008 6.34315 2.24519 5 3.83301 5H6.70801V13H4.79134C2.67425 13 0.958008 11.2091 0.958008 9V8ZM3.83301 7H4.79134V11C3.7328 11 2.87467 10.1046 2.87467 9V8C2.87467 7.44772 3.30373 7 3.83301 7Z" fill="#777E91"/>
<path fill-rule="evenodd" clip-rule="evenodd" d="M22.0413 8C22.0413 6.34315 20.7542 5 19.1663 5H16.2913V13H18.208C20.3251 13 22.0413 11.2091 22.0413 9V8ZM19.1663 7H18.208V11C19.2666 11 20.1247 10.1046 20.1247 9V8C20.1247 7.44772 19.6956 7 19.1663 7Z" fill="#777E91"/>
<path d="M11.5003 15C10.9711 15 10.542 15.4477 10.542 16V19H8.62533C8.09605 19 7.66699 19.4477 7.66699 20C7.66699 20.5523 8.09605 21 8.62533 21H14.3753C14.9046 21 15.3337 20.5523 15.3337 20C15.3337 19.4477 14.9046 19 14.3753 19H12.4587V16C12.4587 15.4477 12.0296 15 11.5003 15Z" fill="#777E91"/>
</svg>
