<svg width="24" height="24" viewBox="0 0 24 24" fill="none" xmlns="http://www.w3.org/2000/svg">
<path d="M3.70332 4.74438C2.72428 4.89124 2 5.73227 2 6.72226V10.5001C2 10.7762 2.22386 11.0001 2.5 11.0001H9.5C9.77614 11.0001 10 10.7762 10 10.5001V4.38048C10 4.07479 9.72813 3.84066 9.42583 3.88601L3.70332 4.74438Z" fill="#777E91"/>
<path d="M12.4258 3.43594C12.1811 3.47265 12 3.68291 12 3.93041V10.5C12 10.7761 12.2239 11 12.5 11H21.5C21.7761 11 22 10.7761 22 10.5V4.32219C22 3.09945 20.9125 2.16293 19.7033 2.34431L12.4258 3.43594Z" fill="#777E91"/>
<path d="M22 13.5C22 13.2239 21.7761 13 21.5 13H12.5C12.2239 13 12 13.2239 12 13.5V20.0692C12 20.3167 12.1811 20.527 12.4258 20.5637L19.7033 21.6553C20.9125 21.8367 22 20.9002 22 19.6774V13.5Z" fill="#777E91"/>
<path d="M9.42583 20.1137C9.72813 20.159 10 19.9249 10 19.6192V13.5C10 13.2239 9.77614 13 9.5 13H2.5C2.22386 13 2 13.2239 2 13.5V17.2774C2 18.2674 2.72428 19.1085 3.70332 19.2553L9.42583 20.1137Z" fill="#777E91"/>
</svg>
