<svg width="24" height="24" viewBox="0 0 24 24" fill="none" xmlns="http://www.w3.org/2000/svg">
<path fill-rule="evenodd" clip-rule="evenodd" d="M2 16.4164C2 17.9014 3.08642 19.1629 4.55498 19.3832L18.555 21.4832C20.3688 21.7553 22 20.3505 22 18.5164V5.48353C22 3.64942 20.3688 2.24464 18.555 2.51672L4.55498 4.61672C3.08642 4.837 2 6.09854 2 7.58353V16.4164ZM10 5.82234L4.85166 6.59459C4.36214 6.66802 4 7.08853 4 7.58353V11H10V5.82234ZM12 5.52234V11H20V5.48353C20 4.87216 19.4563 4.4039 18.8517 4.49459L12 5.52234ZM10 13H4V16.4164C4 16.9114 4.36214 17.3319 4.85166 17.4053L10 18.1776V13ZM12 18.4776V13H20V18.5164C20 19.1278 19.4563 19.596 18.8517 19.5053L12 18.4776Z" fill="#777E91"/>
</svg>
