<svg width="23" height="24" viewBox="0 0 23 24" fill="none" xmlns="http://www.w3.org/2000/svg">
<path fill-rule="evenodd" clip-rule="evenodd" d="M16.7712 4H6.22949C4.90631 4 3.83366 5.11929 3.83366 6.5C3.83366 7.88071 4.90631 9 6.22949 9H16.7712C18.0943 9 19.167 7.88071 19.167 6.5C19.167 5.11929 18.0943 4 16.7712 4ZM6.22949 2C3.84776 2 1.91699 4.01472 1.91699 6.5C1.91699 8.98528 3.84776 11 6.22949 11H16.7712C19.1529 11 21.0837 8.98528 21.0837 6.5C21.0837 4.01472 19.1529 2 16.7712 2H6.22949Z" fill="#777E91"/>
<path d="M18.208 6.5C18.208 7.32843 17.5644 8 16.7705 8C15.9766 8 15.333 7.32843 15.333 6.5C15.333 5.67157 15.9766 5 16.7705 5C17.5644 5 18.208 5.67157 18.208 6.5Z" fill="#777E91"/>
<path fill-rule="evenodd" clip-rule="evenodd" d="M16.7712 15H6.22949C4.90631 15 3.83366 16.1193 3.83366 17.5C3.83366 18.8807 4.90631 20 6.22949 20H16.7712C18.0943 20 19.167 18.8807 19.167 17.5C19.167 16.1193 18.0943 15 16.7712 15ZM6.22949 13C3.84776 13 1.91699 15.0147 1.91699 17.5C1.91699 19.9853 3.84776 22 6.22949 22H16.7712C19.1529 22 21.0837 19.9853 21.0837 17.5C21.0837 15.0147 19.1529 13 16.7712 13H6.22949Z" fill="#777E91"/>
<path d="M7.66699 17.5C7.66699 18.3284 7.0234 19 6.22949 19C5.43558 19 4.79199 18.3284 4.79199 17.5C4.79199 16.6716 5.43558 16 6.22949 16C7.0234 16 7.66699 16.6716 7.66699 17.5Z" fill="#777E91"/>
</svg>
