<svg width="23" height="24" viewBox="0 0 23 24" fill="none" xmlns="http://www.w3.org/2000/svg">
<path fill-rule="evenodd" clip-rule="evenodd" d="M19.0837 12C19.0837 16.4994 15.6091 20 11.5003 20C7.39153 20 3.91699 16.4994 3.91699 12C3.91699 7.50065 7.39153 4 11.5003 4C15.6091 4 19.0837 7.50065 19.0837 12ZM21.0837 12C21.0837 17.5228 16.7931 22 11.5003 22C6.2076 22 1.91699 17.5228 1.91699 12C1.91699 6.47715 6.2076 2 11.5003 2C16.7931 2 21.0837 6.47715 21.0837 12ZM6.70866 11C6.15637 11 5.70866 11.4477 5.70866 12C5.70866 12.5523 6.15637 13 6.70866 13H16.292C16.8443 13 17.292 12.5523 17.292 12C17.292 11.4477 16.8443 11 16.292 11H6.70866Z" fill="#777E91"/>
</svg>
