<svg width="24" height="24" viewBox="0 0 24 24" fill="none" xmlns="http://www.w3.org/2000/svg">
<path d="M18 11C17.4477 11 17 11.4477 17 12C17 12.5523 17.4477 13 18 13H22C22.5523 13 23 12.5523 23 12C23 11.4477 22.5523 11 22 11H18Z" fill="#777E91"/>
<path d="M17 16C17 15.4477 17.4477 15 18 15H22C22.5523 15 23 15.4477 23 16C23 16.5523 22.5523 17 22 17H18C17.4477 17 17 16.5523 17 16Z" fill="#777E91"/>
<path d="M17 20C17 19.4477 17.4477 19 18 19H22C22.5523 19 23 19.4477 23 20C23 20.5523 22.5523 21 22 21H18C17.4477 21 17 20.5523 17 20Z" fill="#777E91"/>
<path d="M10 7C9.44772 7 9 7.44772 9 8C9 8.55229 9.44772 9 10 9H14C14.5523 9 15 8.55229 15 8C15 7.44772 14.5523 7 14 7H10Z" fill="#777E91"/>
<path d="M9 12C9 11.4477 9.44772 11 10 11H14C14.5523 11 15 11.4477 15 12C15 12.5523 14.5523 13 14 13H10C9.44772 13 9 12.5523 9 12Z" fill="#777E91"/>
<path d="M10 15C9.44772 15 9 15.4477 9 16C9 16.5523 9.44772 17 10 17H14C14.5523 17 15 16.5523 15 16C15 15.4477 14.5523 15 14 15H10Z" fill="#777E91"/>
<path d="M10 19C9.44772 19 9 19.4477 9 20C9 20.5523 9.44772 21 10 21H14C14.5523 21 15 20.5523 15 20C15 19.4477 14.5523 19 14 19H10Z" fill="#777E91"/>
<path d="M2 3C1.44772 3 1 3.44772 1 4C1 4.55228 1.44772 5 2 5H6C6.55228 5 7 4.55228 7 4C7 3.44772 6.55228 3 6 3H2Z" fill="#777E91"/>
<path d="M1 8C1 7.44772 1.44772 7 2 7H6C6.55228 7 7 7.44772 7 8C7 8.55229 6.55228 9 6 9H2C1.44772 9 1 8.55229 1 8Z" fill="#777E91"/>
<path d="M2 11C1.44772 11 1 11.4477 1 12C1 12.5523 1.44772 13 2 13H6C6.55228 13 7 12.5523 7 12C7 11.4477 6.55228 11 6 11H2Z" fill="#777E91"/>
<path d="M1 16C1 15.4477 1.44772 15 2 15H6C6.55228 15 7 15.4477 7 16C7 16.5523 6.55228 17 6 17H2C1.44772 17 1 16.5523 1 16Z" fill="#777E91"/>
<path d="M1 20C1 19.4477 1.44772 19 2 19H6C6.55228 19 7 19.4477 7 20C7 20.5523 6.55228 21 6 21H2C1.44772 21 1 20.5523 1 20Z" fill="#777E91"/>
</svg>
