<svg width="24" height="24" viewBox="0 0 24 24" fill="none" xmlns="http://www.w3.org/2000/svg">
<path d="M6 20C6 19.4477 6.44772 19 7 19H21C21.5523 19 22 19.4477 22 20C22 20.5523 21.5523 21 21 21H7C6.44772 21 6 20.5523 6 20Z" fill="#777E91"/>
<path d="M16.4139 2.4144L20.5855 6.58597C21.3665 7.36702 21.3665 8.63335 20.5855 9.4144L15.8534 14.1465C15.6581 14.3418 15.3415 14.3418 15.1463 14.1465L8.85337 7.85362C8.65811 7.65836 8.65811 7.34177 8.85337 7.14651L13.5855 2.4144C14.3665 1.63335 15.6329 1.63335 16.4139 2.4144Z" fill="#777E91"/>
<path d="M7.35337 9.35362C7.15811 9.15836 6.84153 9.15836 6.64627 9.35362L1.41391 14.586C0.632864 15.367 0.632862 16.6333 1.41391 17.4144L4.12102 20.1215C4.68363 20.6841 5.44669 21.0002 6.24234 21.0002H8.9997L13.6463 16.3536C13.8415 16.1584 13.8415 15.8418 13.6463 15.6465L7.35337 9.35362Z" fill="#777E91"/>
</svg>
