<svg width="24" height="24" viewBox="0 0 24 24" fill="none" xmlns="http://www.w3.org/2000/svg">
<path d="M6 20C6 19.4477 6.44772 19 7 19H21C21.5523 19 22 19.4477 22 20V20C22 20.5523 21.5523 21 21 21H7C6.44772 21 6 20.5523 6 20V20Z" fill="#777E91"/>
<path fill-rule="evenodd" clip-rule="evenodd" d="M20.8782 6.87872L17.1209 3.12135C15.9493 1.94978 14.0498 1.94978 12.8782 3.12136L2.12087 13.8787C0.949296 15.0503 0.949293 16.9498 2.12087 18.1214L3.82798 19.8285C4.57812 20.5786 5.59554 21 6.6564 21H9.34269C10.4036 21 11.421 20.5786 12.1711 19.8285L20.8782 11.1214C22.0498 9.94978 22.0498 8.05029 20.8782 6.87872ZM15.7067 4.53557L19.464 8.29293C19.8545 8.68345 19.8545 9.31661 19.464 9.70714L15.0853 14.0858L9.91376 8.91425L14.2924 4.53557C14.683 4.14504 15.3161 4.14505 15.7067 4.53557ZM8.41376 10.4142L3.53508 15.2929C3.14456 15.6835 3.14456 16.3166 3.53508 16.7071L5.24219 18.4142C5.61726 18.7893 6.12597 19 6.6564 19H9.34269C9.87313 19 10.3818 18.7893 10.7569 18.4142L13.5853 15.5858L8.41376 10.4142Z" fill="#777E91"/>
</svg>
