<svg width="23" height="24" viewBox="0 0 23 24" fill="none" xmlns="http://www.w3.org/2000/svg">
<path d="M14.3753 15C13.8461 15 13.417 15.4477 13.417 16C13.417 16.5523 13.8461 17 14.3753 17H20.1253C20.6546 17 21.0837 16.5523 21.0837 16C21.0837 15.4477 20.6546 15 20.1253 15H14.3753Z" fill="#777E91"/>
<path d="M14.3753 19C13.8461 19 13.417 19.4477 13.417 20C13.417 20.5523 13.8461 21 14.3753 21H20.1253C20.6546 21 21.0837 20.5523 21.0837 20C21.0837 19.4477 20.6546 19 20.1253 19H14.3753Z" fill="#777E91"/>
<path d="M4.03149 14.7929C3.65723 14.4024 3.05045 14.4024 2.6762 14.7929C2.30194 15.1834 2.30194 15.8166 2.6762 16.2071L4.39439 18L2.6762 19.7929C2.30194 20.1834 2.30194 20.8166 2.6762 21.2071C3.05045 21.5976 3.65723 21.5976 4.03149 21.2071L5.74967 19.4142L7.46786 21.2071C7.84212 21.5976 8.4489 21.5976 8.82315 21.2071C9.1974 20.8166 9.1974 20.1834 8.82315 19.7929L7.10496 18L8.82315 16.2071C9.1974 15.8166 9.1974 15.1834 8.82315 14.7929C8.4489 14.4024 7.84212 14.4024 7.46786 14.7929L5.74967 16.5858L4.03149 14.7929Z" fill="#777E91"/>
<path d="M16.292 9C16.292 9.55229 16.7211 10 17.2503 10C17.7796 10 18.2087 9.55229 18.2087 9V7H20.1253C20.6546 7 21.0837 6.55228 21.0837 6C21.0837 5.44772 20.6546 5 20.1253 5H18.2087V3C18.2087 2.44772 17.7796 2 17.2503 2C16.7211 2 16.292 2.44772 16.292 3V5H14.3753C13.8461 5 13.417 5.44772 13.417 6C13.417 6.55228 13.8461 7 14.3753 7H16.292V9Z" fill="#777E91"/>
<path d="M1.91699 6C1.91699 5.44772 2.34605 5 2.87533 5H8.62532C9.1546 5 9.58366 5.44772 9.58366 6C9.58366 6.55228 9.1546 7 8.62532 7H2.87533C2.34605 7 1.91699 6.55228 1.91699 6Z" fill="#777E91"/>
</svg>
