<svg width="24" height="24" viewBox="0 0 24 24" fill="none" xmlns="http://www.w3.org/2000/svg">
<path d="M22 8C22 6.34315 20.6569 5 19 5C18.4477 5 18 5.44772 18 6C18 6.55228 18.4477 7 19 7C19.5523 7 20 7.44772 20 8V13C20 13.5523 19.5523 14 19 14C18.4477 14 18 14.4477 18 15C18 15.5523 18.4477 16 19 16C20.6569 16 22 14.6569 22 13V8Z" fill="#777E91"/>
<path d="M4 2C2.89543 2 2 2.89543 2 4V18C2 20.2091 3.79086 22 6 22H12C14.2091 22 16 20.2091 16 18V4C16 2.89543 15.1046 2 14 2H8V6C8.55229 6 9 6.44772 9 7V9C9 9.55229 8.55229 10 8 10H6C5.44772 10 5 9.55229 5 9V7C5 6.44772 5.44772 6 6 6V2H4Z" fill="#777E91"/>
</svg>
