<svg width="23" height="24" viewBox="0 0 23 24" fill="none" xmlns="http://www.w3.org/2000/svg">
<path fill-rule="evenodd" clip-rule="evenodd" d="M1.91699 5C1.91699 3.34315 3.20417 2 4.79199 2H14.3753C15.9631 2 17.2503 3.34315 17.2503 5L18.2087 5C19.7965 5 21.0837 6.34315 21.0837 8V13C21.0837 14.6569 19.7965 16 18.2087 16H17.2503V17C17.2503 19.7614 15.105 22 12.4587 22H6.70866C4.06229 22 1.91699 19.7614 1.91699 17V5ZM4.79199 4H14.3753C14.9046 4 15.3337 4.44772 15.3337 5V17C15.3337 18.6569 14.0465 20 12.4587 20H6.70866C5.12084 20 3.83366 18.6569 3.83366 17V5C3.83366 4.44772 4.26272 4 4.79199 4ZM17.2503 14H18.2087C18.7379 14 19.167 13.5523 19.167 13V8C19.167 7.44772 18.7379 7 18.2087 7H17.2503V14Z" fill="#777E91"/>
<path d="M9.58301 2H7.66634V6C7.13707 6 6.70801 6.44772 6.70801 7V9C6.70801 9.55228 7.13707 10 7.66634 10H9.58301C10.1123 10 10.5413 9.55228 10.5413 9V7C10.5413 6.44772 10.1123 6 9.58301 6V2Z" fill="#777E91"/>
</svg>
