<svg width="23" height="24" viewBox="0 0 23 24" fill="none" xmlns="http://www.w3.org/2000/svg">
<path fill-rule="evenodd" clip-rule="evenodd" d="M9.58301 5C5.79978 5 2.87467 8.05228 2.87467 12C2.87467 15.9477 5.79978 19 9.58301 19C13.3662 19 16.2913 15.9477 16.2913 12C16.2913 11.4477 16.7204 11 17.2497 11C17.7789 11 18.208 11.4477 18.208 12C18.208 17.0523 14.4248 21 9.58301 21C4.74123 21 0.958008 17.0523 0.958008 12C0.958008 6.94772 4.74123 3 9.58301 3H19.1663C19.6956 3 20.1247 3.44772 20.1247 4C20.1247 4.55228 19.6956 5 19.1663 5H9.58301Z" fill="#777E91"/>
<path fill-rule="evenodd" clip-rule="evenodd" d="M21.7613 3.29289C22.1356 3.68342 22.1356 4.31658 21.7613 4.70711L19.8446 6.70711C19.4704 7.09763 18.8636 7.09763 18.4893 6.70711C18.1151 6.31658 18.1151 5.68342 18.4893 5.29289L19.7284 4L18.4893 2.70711C18.1151 2.31658 18.1151 1.68342 18.4893 1.29289C18.8636 0.902369 19.4704 0.902369 19.8446 1.29289L21.7613 3.29289Z" fill="#777E91"/>
<path d="M6.70833 8C6.17906 8 5.75 8.44772 5.75 9V15C5.75 15.5523 6.17906 16 6.70833 16C7.23761 16 7.66667 15.5523 7.66667 15V9C7.66667 8.44772 7.23761 8 6.70833 8Z" fill="#777E91"/>
<path d="M10.0625 8C9.26859 8 8.625 8.67157 8.625 9.5V11.5C8.625 12.3284 9.26859 13 10.0625 13H11.5V14H9.58333C9.05406 14 8.625 14.4477 8.625 15C8.625 15.5523 9.05406 16 9.58333 16H11.9792C12.7731 16 13.4167 15.3284 13.4167 14.5V12.5C13.4167 11.6716 12.7731 11 11.9792 11H10.5417V10H12.4583C12.9876 10 13.4167 9.55228 13.4167 9C13.4167 8.44772 12.9876 8 12.4583 8H10.0625Z" fill="#777E91"/>
</svg>
