<svg width="23" height="24" viewBox="0 0 23 24" fill="none" xmlns="http://www.w3.org/2000/svg">
<path fill-rule="evenodd" clip-rule="evenodd" d="M2.875 5C2.875 2.79086 4.59124 1 6.70833 1H14.7038C15.7205 1 16.6955 1.42143 17.4144 2.17157L19.0022 3.82843C19.7211 4.57857 20.125 5.59599 20.125 6.65685V19C20.125 21.2091 18.4088 23 16.2917 23H6.70833C4.59124 23 2.875 21.2091 2.875 19V5ZM18.2083 8V19C18.2083 20.1046 17.3502 21 16.2917 21H6.70833C5.64979 21 4.79167 20.1046 4.79167 19V5C4.79167 3.89543 5.64979 3 6.70833 3H13.4167V5C13.4167 6.65685 14.7038 8 16.2917 8H18.2083ZM18.102 6C18.0079 5.7176 17.8534 5.45808 17.647 5.24264L16.0591 3.58579C15.8527 3.37035 15.604 3.20914 15.3333 3.11094V5C15.3333 5.55228 15.7624 6 16.2917 6H18.102Z" fill="#777E91"/>
<path d="M11.8672 17.9241C11.9802 17.8753 12.0861 17.803 12.178 17.7071L15.053 14.7071C15.4272 14.3166 15.4272 13.6834 15.053 13.2929C14.6787 12.9024 14.0719 12.9024 13.6977 13.2929L12.4587 14.5858V10C12.4587 9.44772 12.0296 9 11.5003 9C10.9711 9 10.542 9.44772 10.542 10V14.5858L9.30297 13.2929C8.92872 12.9024 8.32193 12.9024 7.94768 13.2929C7.57343 13.6834 7.57343 14.3166 7.94768 14.7071L10.8227 17.7071C11.1051 18.0018 11.5198 18.0741 11.8672 17.9241Z" fill="#777E91"/>
</svg>
