<svg width="24" height="24" viewBox="0 0 24 24" fill="none" xmlns="http://www.w3.org/2000/svg">
<path fill-rule="evenodd" clip-rule="evenodd" d="M19 4H5C4.44771 4 4 4.44772 4 5V19C4 19.5523 4.44772 20 5 20H19C19.5523 20 20 19.5523 20 19V5C20 4.44771 19.5523 4 19 4ZM5 2C3.34315 2 2 3.34315 2 5V19C2 20.6569 3.34315 22 5 22H19C20.6569 22 22 20.6569 22 19V5C22 3.34315 20.6569 2 19 2H5Z" fill="#777E91"/>
<path d="M11.2929 6.29289C11.6834 5.90237 12.3166 5.90237 12.7071 6.29289L14.7071 8.29289C15.0976 8.68342 15.0976 9.31658 14.7071 9.70711C14.3166 10.0976 13.6834 10.0976 13.2929 9.70711L13 9.41421V14.5858L13.2929 14.2929C13.6834 13.9024 14.3166 13.9024 14.7071 14.2929C15.0976 14.6834 15.0976 15.3166 14.7071 15.7071L12.7071 17.7071C12.3166 18.0976 11.6834 18.0976 11.2929 17.7071L9.29289 15.7071C8.90237 15.3166 8.90237 14.6834 9.29289 14.2929C9.68342 13.9024 10.3166 13.9024 10.7071 14.2929L11 14.5858V9.41421L10.7071 9.70711C10.3166 10.0976 9.68342 10.0976 9.29289 9.70711C8.90237 9.31658 8.90237 8.68342 9.29289 8.29289L11.2929 6.29289Z" fill="#777E91"/>
</svg>
