<svg width="23" height="24" viewBox="0 0 23 24" fill="none" xmlns="http://www.w3.org/2000/svg">
<path fill-rule="evenodd" clip-rule="evenodd" d="M17.4069 9.84485L17.164 8.74138C16.8183 7.17032 15.4673 6 13.8589 6C13.6147 6 13.4167 6.20664 13.4167 6.46154V17C13.4167 17.5523 13.8457 18 14.375 18H17.25C19.3671 18 21.0833 16.2091 21.0833 14C21.0833 12.2266 19.9761 10.7179 18.4386 10.1954L17.4069 9.84485ZM19.0321 8.29374C18.4908 5.8343 16.3802 4 13.8589 4C12.5562 4 11.5 5.10207 11.5 6.46154V17C11.5 18.6569 12.7871 20 14.375 20H17.25C20.4256 20 23 17.3137 23 14C23 11.3354 21.3354 9.07646 19.0321 8.29374Z" fill="#777E91"/>
<path d="M7.66699 9C7.66699 8.44771 8.09606 8 8.62533 8C9.15459 8 9.58366 8.44772 9.58366 9V19C9.58366 19.5523 9.15459 20 8.62533 20C8.09606 20 7.66699 19.5523 7.66699 19V9Z" fill="#777E91"/>
<path d="M3.83301 12C3.83301 11.4477 4.26207 11 4.79134 11C5.32061 11 5.74967 11.4477 5.74967 12V19C5.74967 19.5523 5.32061 20 4.79134 20C4.26207 20 3.83301 19.5523 3.83301 19V12Z" fill="#777E91"/>
<path d="M0.958333 14C0.42906 14 0 14.4477 0 15V19C0 19.5523 0.42906 20 0.958333 20C1.4876 20 1.91667 19.5523 1.91667 19V15C1.91667 14.4477 1.4876 14 0.958333 14Z" fill="#777E91"/>
</svg>
