<svg width="24" height="24" viewBox="0 0 24 24" fill="none" xmlns="http://www.w3.org/2000/svg">
<path d="M21.5977 10.1812H12.0527V14.2725H17.4627C16.5977 17 14.4615 17.9087 12.009 17.9087C11.0586 17.9099 10.122 17.6819 9.27853 17.2439C8.43508 16.8059 7.70973 16.1709 7.16402 15.3929C6.6183 14.6148 6.26832 13.7165 6.14377 12.7743C6.01923 11.8322 6.12379 10.8738 6.44858 9.98067C6.77337 9.08751 7.30882 8.28588 8.00949 7.64378C8.71015 7.00168 9.55537 6.53807 10.4734 6.29228C11.3915 6.04649 12.3553 6.02577 13.283 6.23188C14.2108 6.43799 15.0751 6.86485 15.8027 7.47625L18.7752 4.645C17.5782 3.54229 16.1301 2.74843 14.5566 2.33233C12.9832 1.91623 11.3319 1.89047 9.74624 2.25728C8.16056 2.62409 6.68839 3.37239 5.45751 4.43721C4.22663 5.50203 3.27425 6.8512 2.68306 8.36757C2.09186 9.88395 1.87972 11.5217 2.06504 13.1387C2.25037 14.7556 2.82756 16.3029 3.7465 17.6462C4.66545 18.9895 5.89838 20.0882 7.33826 20.8469C8.77814 21.6057 10.3814 22.0015 12.009 22C17.5227 22 22.509 18.3637 21.5977 10.1812Z" fill="#777E91"/>
</svg>
