<svg width="23" height="24" viewBox="0 0 23 24" fill="none" xmlns="http://www.w3.org/2000/svg">
<path fill-rule="evenodd" clip-rule="evenodd" d="M12.4997 7C12.4997 6.44772 12.052 6 11.4997 6C10.9474 6 10.4997 6.44772 10.4997 7V11H6.70801C6.15572 11 5.70801 11.4477 5.70801 12C5.70801 12.5523 6.15572 13 6.70801 13H10.4997V17C10.4997 17.5523 10.9474 18 11.4997 18C12.052 18 12.4997 17.5523 12.4997 17V13H16.2913C16.8436 13 17.2913 12.5523 17.2913 12C17.2913 11.4477 16.8436 11 16.2913 11H12.4997V7Z" fill="#777E91"/>
</svg>
