<svg width="24" height="24" viewBox="0 0 24 24" fill="none" xmlns="http://www.w3.org/2000/svg">
<path fill-rule="evenodd" clip-rule="evenodd" d="M5 18V9H11V18H5ZM9 11V16H7V11H9Z" fill="#777E91"/>
<path fill-rule="evenodd" clip-rule="evenodd" d="M13 18V9H19V18H13ZM17 11V16H15V11H17Z" fill="#777E91"/>
<path fill-rule="evenodd" clip-rule="evenodd" d="M19 18H5C4.44772 18 4 18.4477 4 19C4 19.5523 4.44772 20 5 20H19C19.5523 20 20 19.5523 20 19C20 18.4477 19.5523 18 19 18ZM5 16C3.34315 16 2 17.3431 2 19C2 20.6569 3.34315 22 5 22H19C20.6569 22 22 20.6569 22 19C22 17.3431 20.6569 16 19 16H5Z" fill="#777E91"/>
<path fill-rule="evenodd" clip-rule="evenodd" d="M20 7.99999V7.23208C20 6.79047 19.7103 6.40115 19.2873 6.27425L12.2873 4.17425C12.0999 4.11802 11.9001 4.11802 11.7127 4.17425L4.71265 6.27425C4.28967 6.40115 4 6.79047 4 7.23208V7.99999C4 8.55227 4.44772 8.99999 5 8.99999H19C19.5523 8.99999 20 8.55227 20 7.99999ZM4.13796 4.3586C2.869 4.73929 2 5.90726 2 7.23208V7.99999C2 9.65684 3.34315 11 5 11H19C20.6569 11 22 9.65684 22 7.99999V7.23208C22 5.90726 21.131 4.73929 19.862 4.3586L12.862 2.2586C12.2997 2.08991 11.7003 2.08991 11.138 2.2586L4.13796 4.3586Z" fill="#777E91"/>
</svg>
